<svg width="273" height="163" viewBox="0 0 273 163" fill="none" xmlns="http://www.w3.org/2000/svg">
<path d="M159.983 87.9559C155.588 90.9014 151.202 93.8654 146.792 96.788C143.083 99.2457 139.682 100.626 136.639 96.0976C135.075 93.7688 134.067 91.0487 133.39 88.3379C132.262 83.8366 130.592 74.8849 136.561 74.0104C142.627 73.1221 150.497 75.8422 156.273 77.6003C160.25 78.8108 161.948 72.5928 157.986 71.387C152.969 69.859 147.911 68.7083 142.701 68.0824C139.267 67.6682 134.573 66.5866 131.264 68.2067C124.793 71.3732 125.653 82.3685 126.735 88.0341C127.982 94.588 131.77 104.41 139.221 106.002C143.046 106.821 146.024 105.003 149.103 102.978C153.839 99.8578 158.524 96.6683 163.237 93.5156C166.666 91.2236 163.444 85.6362 159.983 87.9559Z" fill="white"/>
<path d="M215.163 54.5852C207.905 54.7693 205.898 62.3404 206.441 68.2868C206.814 72.383 213.257 72.4198 212.885 68.2868C212.7 66.2709 212.134 61.2588 215.26 61.0287C217.892 60.8354 218.937 64.4529 219.116 66.4688C219.48 70.565 225.928 70.6064 225.56 66.4688C225.049 60.7341 221.74 54.4195 215.163 54.5852Z" fill="white"/>
<path d="M269.054 81.1291C267.632 80.0843 265.151 80.0981 262.661 80.4249C250.446 43.49 221.069 13.3899 182.021 6.31131C181.741 6.1134 181.451 5.91549 181.064 5.80043C139.264 -6.61703 101.506 5.46907 67.07 30.7642C65.3625 32.0161 64.6169 35.2516 67.07 36.3286C73.4582 39.1269 78.1298 41.8654 83.6666 46.4356C74.0934 54.5682 64.9437 62.8388 56.1852 70.2074C46.474 66.4932 39.4045 59.2719 30.7289 53.7306C23.503 49.1143 15.6604 46.6657 7.10444 46.3482C5.52119 46.2883 4.55476 47.1951 4.18196 48.3457C3.61126 49.4273 3.63883 50.7619 4.83087 51.8481C24.9437 70.1429 13.7181 92.6951 0.969309 111.367C0.0258026 112.748 0.389474 114.069 1.27775 114.962C1.78862 115.689 2.5894 116.209 3.74922 116.214C21.2892 116.237 39.8602 105.725 53.8057 95.1067C59.0939 102.922 64.9161 110.253 71.203 116.978C70.9683 117.176 70.7244 117.355 70.5311 117.645C67.9399 121.53 65.2934 124.972 61.9935 128.272C61.0131 129.252 60.7325 130.974 61.4919 132.175C81.9775 164.645 132.485 166.104 166.143 158.902C166.414 158.842 166.594 158.708 166.815 158.607C177.976 157.714 189.422 154.966 201.034 150.056C201.227 149.991 201.416 149.931 201.6 149.83C201.632 149.816 201.66 149.807 201.692 149.793C227.346 138.775 249.963 120.664 266.578 98.2686C270.297 93.2428 275.93 86.1918 269.054 81.1291ZM88.3058 41.9482C84.0301 38.4089 79.7544 35.5048 75.0046 33.0194C98.0952 17.0213 122.695 7.16736 149.132 7.40209C127.183 12.8882 107.098 26.9764 88.5912 42.3026C88.4808 42.1876 88.4393 42.0587 88.3058 41.9482ZM109.311 153.77C98.6568 151.745 86.1611 147.197 77.4026 140.657C66.596 132.589 69.9281 129.975 75.6398 121.553C92.4894 138.213 112.368 150.479 134.082 155.882C125.632 155.924 117.219 155.275 109.311 153.77ZM243.892 114.225C231.691 125.814 217.161 135.99 201.49 142.959C180.903 116.297 173.166 85.1102 177.391 51.3971C177.907 47.2917 171.459 47.3285 170.948 51.3971C166.603 86.0721 174.823 117.907 195.359 145.449C191.811 146.806 188.23 148.058 184.594 149.057C131.118 163.716 85.5443 132.299 57.3358 88.8382C56.4245 87.4344 54.9839 87.1629 53.7228 87.5265C53.5019 87.5725 53.2856 87.6783 53.0693 87.775C52.968 87.8256 52.8668 87.8717 52.7701 87.9315C52.6044 88.0235 52.4342 88.0604 52.2777 88.1846C40.9602 97.2423 25.2244 107.069 9.99025 109.296C21.119 91.503 28.0503 71.5099 15.5638 54.2184C30.4482 58.6046 40.8176 71.9425 55.9321 76.996C57.2484 77.4379 58.2794 76.996 58.9697 76.2182C59.0019 76.1952 59.0341 76.1906 59.0664 76.1676C76.4361 61.725 93.7874 47.2089 112.013 33.8341C129.783 20.7907 148.29 9.6573 171.256 11.374C212.002 14.4209 243.602 44.0378 256.282 81.6399C255.983 81.6952 255.679 81.755 255.477 81.778C247.34 82.5972 238.972 81.7228 230.817 81.6123C226.67 81.5571 226.665 88.0005 230.817 88.0558C235.958 88.1248 241.099 88.4102 246.24 88.424C248.799 88.4286 258.293 86.6198 260.277 87.6231C268.58 91.8482 247.791 110.52 243.892 114.225Z" fill="white"/>
<path d="M167.884 18.7313C163.737 18.6484 163.737 25.0919 167.884 25.1747C180.085 25.4187 189.004 29.2571 198.09 37.3529C201.178 40.1052 205.748 35.5625 202.646 32.7964C192.332 23.6053 181.746 19.0074 167.884 18.7313Z" fill="white"/>
<path d="M153.481 26.7208C157.628 26.7208 157.633 20.2773 153.481 20.2773C149.339 20.2773 149.33 26.7208 153.481 26.7208Z" fill="white"/>
</svg>
