<svg width="240" height="269" viewBox="0 0 240 269" fill="none" xmlns="http://www.w3.org/2000/svg">
<path d="M235.513 39.3353C230.984 36.8868 219.261 31.2856 213.849 33.6789C212.799 34.1437 211.92 34.94 211.156 35.9387C208.648 30.7333 201.919 31.3868 195.641 30.8345C194.578 30.7425 193.612 30.6551 192.673 30.5814C194.261 25.3668 195.807 18.3803 189.594 16.1803C185.079 14.5832 179.22 15.2966 174.461 14.6752C169.278 13.9987 163.797 11.9322 158.615 11.9046C157.551 11.9 156.313 12.5075 155.835 13.5017C154.606 16.0468 154.325 19.0568 154.063 21.9656C151.435 21.312 148.438 21.0727 145.41 20.9623C144.131 14.7075 143.348 0.711391 135.156 0.734403C124.773 0.762018 112.894 1.38796 103.104 5.0101C101.769 5.50256 100.725 6.61638 100.738 8.11678C100.766 11.0393 101.074 13.833 101.512 16.6313C97.1485 16.9075 91.4323 19.0338 88.4361 19.6183C86.9403 19.9083 84.6666 20.0555 82.4391 20.4007C82.8073 17.5058 82.7934 14.5234 81.0997 12.9493C79.857 11.7895 77.9885 11.808 76.3961 11.6975C72.6451 11.4398 68.8618 11.4029 65.1062 11.2603C60.4807 11.0854 53.1535 9.21674 49.697 13.2899C45.969 17.6807 46.9954 27.3965 47.1611 32.8228C46.595 32.9563 46.0519 33.0944 45.5732 33.2417C44.5975 33.5408 43.4792 34.4015 43.3227 35.4923C42.2733 42.8608 42.1353 50.28 42.011 57.6992C40.6118 52.0841 39.2403 46.4599 37.7491 40.8725C34.8634 30.0337 29.9939 31.7827 19.5739 33.5362C9.46232 35.2391 1.18699 34.535 2.54012 45.9583C4.34429 61.1418 7.96186 76.0814 12.5229 90.6574C10.8844 90.7126 9.24594 90.7403 7.60286 90.8001C7.51542 90.8047 7.45564 90.8461 7.3728 90.8553C7.23472 90.8599 7.08287 90.9336 6.94019 90.9612C6.67325 91.0257 6.39703 91.067 6.17611 91.1821C6.10707 91.2143 6.04724 91.2051 5.97821 91.2374C0.0502268 94.3394 0.975337 97.8741 0.901698 104.092C0.759021 116.684 2.64599 129.668 3.85184 142.196C6.21751 166.814 9.50375 191.406 14.6355 215.615C17.6961 230.052 19.1643 259.444 35.7839 264.962C45.067 268.046 58.9619 267.319 68.8342 267.954C82.2458 268.819 95.662 268.483 109.083 268.023C131.17 267.263 153.483 269.219 175.501 267.82C189.898 266.904 203.64 264.562 210.494 250.598C220.449 230.324 222.975 203.487 226.004 181.409C229.805 153.716 231.651 125.811 233.487 97.934C233.607 96.116 231.909 94.818 230.266 94.7122C229.184 94.6431 228.103 94.5879 227.021 94.5235C231.062 81.6504 234.772 68.6807 237.975 55.5682C239.659 48.7197 242.504 43.1093 235.513 39.3353ZM205.578 39.8508C207.244 42.2394 205.983 51.3983 205.578 56.2263C205.56 56.3 205.546 56.3921 205.527 56.4611C205.403 56.972 205.399 57.4414 205.477 57.8695C205.472 57.9799 205.458 58.1456 205.458 58.2422C205.38 69.9141 205.307 81.5814 205.233 93.2533C198.665 92.8943 192.093 92.5813 185.525 92.2683C185.332 81.678 185.387 71.0923 185.723 60.5067C185.898 55.0297 185.746 49.2951 186.464 43.8549C187.463 36.2379 188.038 36.5738 195.651 37.2734C199.65 37.6416 204.055 37.6646 205.578 39.8508ZM179.063 91.9553C178.005 91.9093 176.946 91.8495 175.888 91.8035C177.006 87.8269 177.996 83.8181 178.893 79.7864C178.921 83.8504 178.985 87.9051 179.063 91.9553ZM177.71 21.5099C180.237 21.7723 185.649 21.1279 186.874 23.245C188.038 25.2517 186.597 28.4781 185.949 30.5169C185.926 30.5906 185.944 30.6504 185.926 30.7195C182.584 31.4467 180.794 33.7479 180.255 39.86C179.915 43.7076 179.68 47.5737 179.477 51.449C179.436 51.5456 179.367 51.6009 179.33 51.7022C174.944 64.7087 173.144 78.3918 169.288 91.5411C164.745 91.3524 160.198 91.1913 155.655 91.0303C159.231 72.0773 161.809 51.6607 162.485 32.473C162.6 29.1546 161.68 26.8304 160.11 25.1597C160.133 25.063 160.189 24.994 160.202 24.8927C160.442 23.0655 160.4 20.5987 160.828 18.5506C166.37 19.0292 172.219 20.9438 177.71 21.5099ZM153.975 46.9892C152.958 61.5284 152.051 75.7086 149.313 90.0867C149.262 90.3399 149.318 90.5562 149.318 90.7909C142.653 90.57 135.993 90.4089 129.329 90.2478C131.211 81.0613 133.094 71.8702 134.976 62.679C136.472 55.3657 140.61 45.1068 140.057 37.5679C139.859 34.8985 138.672 33.237 136.937 32.1785C137.167 26.407 149.166 26.3886 152.871 29.2329C157.335 32.6617 154.302 42.3131 153.975 46.9892ZM108.494 58.6749C109.17 54.3486 109.755 50.013 110.321 45.6683C110.597 43.5328 110.289 38.2077 111.545 36.5646C112.507 35.3036 112.157 36.4035 114.629 35.8789C117.275 35.322 125.159 36.2884 127.796 37.1629C135.022 39.547 131.791 46.1101 130.558 52.144C127.999 64.6397 125.44 77.1354 122.881 89.6311C122.849 89.7922 122.89 89.9257 122.881 90.0775C116.055 89.9303 109.225 89.8382 102.4 89.7553C104.747 79.4596 106.86 69.1133 108.494 58.6749ZM134.967 7.14103C136.974 11.2326 137.936 16.2585 138.824 20.7873C137.314 20.7321 135.869 20.6447 134.553 20.4744C133.296 20.3179 131.644 21.579 131.446 22.84C130.903 26.2735 130.714 27.6589 130.572 30.4848C127.17 30.2178 123.498 30.4479 120.718 30.1718C116.953 29.799 113.745 29.1224 111.172 29.4354C110.703 26.117 110.183 22.4074 108.438 19.7978C108.448 19.5125 108.489 19.2363 108.42 18.9233C107.785 16.0974 107.481 13.3176 107.329 10.4779C112.963 8.79795 118.504 8.36525 124.478 8.09831C127.856 7.94643 131.497 7.19626 134.967 7.14103ZM105.309 33.4533C105.364 33.7755 105.507 34.001 105.622 34.2496C105.373 34.9215 105.148 35.6441 104.954 36.4956C101.084 53.7779 99.9377 71.7505 95.9566 89.1294C95.9105 89.3227 95.9565 89.4884 95.9427 89.6725C93.5494 89.6495 91.1561 89.6219 88.7582 89.6081C87.4005 73.9597 85.4122 58.408 82.9315 42.9022C82.4574 39.9336 79.9491 31.5986 80.8742 29.325C82.0294 26.4852 84.5055 26.9547 87.8239 26.2965C97.8296 24.3267 103.274 21.7861 105.309 33.4533ZM54.1155 20.3179C54.5527 16.8016 55.4225 17.5472 58.2531 17.446C60.5175 17.3677 62.8463 17.6209 65.1107 17.7083C68.5856 17.8418 72.355 18.3342 75.8483 18.1593C75.8345 18.3204 75.8253 18.4815 75.8161 18.6426C75.296 20.3317 75.5262 22.6053 75.2822 24.3681V24.3819C73.1329 28.7819 75.2408 35.5567 75.9128 39.6391C78.642 56.231 80.8696 72.8551 82.324 89.6035C78.2692 89.5943 74.2144 89.5897 70.1597 89.6035C70.6383 80.3801 70.9928 71.1522 71.0986 61.915C71.1815 54.8456 73.271 43.9562 70.4819 37.545C68.3187 32.5743 60.453 31.4605 53.6276 31.8931C53.5677 28.0363 53.6414 24.161 54.1155 20.3179ZM47.5662 77.2735C48.3624 69.7807 48.3623 62.2924 48.4866 54.7674C48.6062 47.3666 47.0598 36.0629 57.9125 39.1374C63.822 40.8127 63.8266 42.5662 64.6781 48.6185C65.2764 52.8757 64.7057 57.5933 64.6551 61.9196C64.5446 71.1567 64.1949 80.3847 63.7162 89.6081C59.123 89.6403 54.5296 89.7323 49.9364 89.7968C49.0067 86.0412 48.0954 82.2763 47.1795 78.5161C47.3682 78.1525 47.5155 77.7475 47.5662 77.2735ZM11.6623 61.8414C10.9305 58.1824 9.37941 53.046 9.46686 49.3042C9.66937 40.8265 14.1752 39.9797 21.2906 39.7496C31.3056 39.4228 31.7336 43.3579 33.6529 51.067C34.7068 55.3059 35.7607 59.5448 36.8193 63.7836C38.9825 72.4869 41.1503 81.1902 43.3134 89.8888C35.2775 90.0269 27.2371 90.2248 19.1965 90.4687C16.2049 81.0475 13.6046 71.5341 11.6623 61.8414ZM223.012 151.419C220.154 181.322 218.318 218.063 205.477 245.774C194.587 269.275 157.22 260.976 136.003 260.953C108.646 260.921 81.5921 263.287 54.2995 260.148C45.5962 259.149 36.5893 260.084 30.6061 251.422C27.1082 246.354 26.1325 236.201 24.6321 230.246C21.1986 216.609 18.4739 202.797 16.2187 188.92C13.7012 173.424 11.8049 157.83 10.3045 142.2C9.72463 136.144 3.35015 102.03 8.80868 97.216C68.222 95.085 127.612 95.6741 186.989 98.6657C195.154 99.0754 203.314 99.5264 211.478 100.005C222.511 100.654 225.148 98.8038 226.271 109.822C227.606 122.958 224.273 138.252 223.012 151.419ZM226.975 72.2061C224.927 79.5609 222.718 86.8604 220.421 94.1369C217.508 93.962 214.59 93.7917 211.672 93.626C211.736 84.0299 211.796 74.4383 211.86 64.8422C211.879 61.8506 212.063 58.6426 212.233 55.4025C212.937 50.7172 213.72 43.4453 215.924 41.3005C218.221 39.0683 223.012 41.434 225.465 42.6215C229.861 44.7524 232.282 46.1194 232.263 51.808C232.24 58.164 228.673 66.1032 226.975 72.2061Z" fill="white"/>
<path d="M118.083 127.098C101.758 127.71 84.8209 127.282 71.2667 137.83C59.6316 146.884 52.2079 161.671 52.1895 176.45C52.1389 217.26 105.955 218.53 134.781 217.89C150.277 217.545 165.889 214.788 176.111 202.095C183.958 192.347 191.322 175.829 188.505 163.19C181.965 133.868 142.794 126.218 118.083 127.098ZM175.002 192.241C166.239 207.705 151.377 211.074 134.776 211.447C110.153 211.995 67.8332 213.615 60.368 183.478C56.5525 168.069 62.9408 152.402 75.6436 142.833C88.1071 133.444 103.231 134.098 118.078 133.541C138.513 132.814 156.827 135.902 172.429 150.418C185.1 162.196 182.978 178.162 175.002 192.241Z" fill="white"/>
<path d="M76.1742 167.308C76.6988 163.207 70.2508 163.244 69.7307 167.308C68.4236 177.553 69.7905 187.508 76.7264 195.507C79.4465 198.646 83.9891 194.071 81.2828 190.951C75.5067 184.291 75.1018 175.675 76.1742 167.308Z" fill="white"/>
<path d="M76.0396 158.232C80.1864 158.232 80.191 151.789 76.0396 151.789C71.8928 151.789 71.8882 158.232 76.0396 158.232Z" fill="white"/>
</svg>
