<svg width="214" height="103" viewBox="0 0 214 103" fill="none" xmlns="http://www.w3.org/2000/svg">
<path d="M201.443 46.6677C185.454 34.5171 165.53 25.7817 147.442 17.2625C132.825 10.3772 118.391 4.84046 102.241 2.94885C92.8475 1.84886 68.5741 -2.19672 60.4047 3.73126C53.745 8.55925 50.7533 21.1516 46.8643 28.0783C38.115 43.6623 31.8786 58.5743 24.5791 74.9729C17.6478 90.543 9.81898 105.74 3.66087 121.646C-2.01397 136.31 1.99018 153.371 2.68976 168.905C2.74959 170.258 3.64247 171.703 5.05543 172.011C18.4762 174.911 14.7758 193.173 4.6274 197.583C3.67469 197.997 2.96131 199.355 3.03035 200.363C3.95084 213.498 1.17094 233.256 20.0135 228.939C35.9794 225.285 51.5312 218.464 67.5478 214.474C80.1309 211.335 92.6588 207.993 105.201 204.707C127.269 198.917 149.357 193.611 171.177 186.928C184.009 182.997 208.36 181.12 211.347 165.572C211.527 165.177 211.633 164.716 211.623 164.183C211.343 146.9 211.108 129.687 212.107 112.423C212.18 111.125 211.062 109.556 209.741 109.317C193.669 106.38 197.696 87.7585 210.97 84.5322C212.36 84.1916 213.308 82.8109 213.336 81.4255C213.662 63.8257 215.945 57.6906 201.443 46.6677ZM57.0633 21.46C58.6972 18.3165 60.6763 12.3931 63.5574 10.3634C66.5536 8.25086 70.7649 8.6927 75.3444 8.4994C92.3735 7.77681 109.637 9.11157 125.774 14.8739C143.544 21.2161 160.458 30.7155 177.073 39.5753C186.029 44.3526 198.488 50.0275 204.494 58.8366C204.25 58.8872 204.011 58.8872 203.758 58.9977C184.409 67.4754 165.419 76.6758 146.02 85.0339C135.581 70.2416 107.534 75.4608 100.092 90.6305C99.1667 92.5175 98.932 96.4065 97.763 97.976C96.0554 100.273 97.855 97.8288 95.6827 99.2187C88.0794 104.088 76.3615 105.92 67.8791 109.119C48.8065 116.308 29.1724 122.365 9.55204 127.943C11.8855 117.454 16.4373 107.844 21.5139 96.8991C33.3146 71.4613 44.1672 46.2213 57.0633 21.46ZM141.399 89.8159C140.304 98.6066 132.019 106.086 123.656 107.655C115.372 109.206 109.403 105.16 104.091 99.5317C106.397 84.1686 132.889 75.4792 141.399 89.8159ZM195.211 86.769C190.227 93.217 190.25 102.445 195.561 108.7C197.954 111.517 200.983 111.908 203.569 114.191C204.513 115.024 205.139 115.47 205.553 115.696C205.313 116.031 205.139 116.851 205.318 118.683C206.731 133.378 204.936 149.372 205.18 164.183C204.172 174.078 176.893 178.446 169.465 180.715C159.942 183.633 150.397 186.578 140.755 189.096C115.823 195.604 90.8363 202.029 65.8356 208.26C58.596 210.065 51.2964 211.68 44.1534 213.848C38.0551 215.698 27.4326 222.114 20.9569 221.861C10.8821 221.465 11.0018 213.567 9.91103 206.811C9.88342 206.645 9.58886 204.486 9.50141 202.871C9.74994 202.659 10.1089 202.286 10.6658 201.605C18.154 192.446 26.8711 178.519 13.639 168.877C12.4332 167.998 10.0813 167.529 9.24367 166.511C7.34285 164.206 9.483 166.88 8.98594 165.632C7.08051 160.837 8.42443 152.759 8.06544 147.503C7.76168 143.071 7.92736 138.952 8.39221 134.984C39.1137 126.323 70.3185 116.552 99.8479 104.369C107.617 112.391 117.116 117.021 128.572 113.109C138.002 109.887 145.873 101.212 147.612 91.3255C167.596 82.7833 187.115 73.2837 207.016 64.5621C207.095 64.5252 207.131 64.4701 207.205 64.4286C208.259 67.9265 208.365 71.8248 206.993 76.2661C206.515 77.808 206.298 78.7699 206.225 79.382C204.867 79.9251 203.04 80.6339 203.049 80.6247C200.324 82.8155 197.429 83.9016 195.211 86.769Z" fill="white"/>
<path d="M80.3039 52.6792C86.7796 52.0901 93.0344 49.5771 98.7966 46.6822C102.792 44.6709 108.531 42.1304 109.663 37.2656C112.199 26.3715 98.5159 23.2234 90.9771 22.5837C81.0357 22.1096 67.2145 24.7238 63.5464 35.5995C59.8414 46.5994 70.4593 53.5767 80.3039 52.6792ZM74.017 32.4928C78.8772 29.1928 85.3114 28.7602 90.9771 29.0271C96.5461 29.5012 107.877 31.8669 99.2661 39.1204C95.1837 42.5584 88.3168 44.6157 83.1897 45.7341C79.8299 46.4659 76.0006 47.0412 72.9722 45.0483C67.8404 41.6747 69.5664 35.512 74.017 32.4928Z" fill="white"/>
<path d="M53.5806 97.2169C58.114 96.8257 62.4863 95.0767 66.5135 93.0516C69.5419 91.5282 73.5277 89.6321 74.3055 85.9639C76.0084 77.9234 66.5365 75.4104 60.7328 74.918C53.5852 74.5774 43.874 76.6347 41.3196 84.4267C38.687 92.4626 46.258 97.852 53.5806 97.2169ZM49.9032 83.5384C52.9914 81.4075 57.1337 81.1911 60.7374 81.3614C63.6876 81.6145 70.0482 82.4245 65.7587 86.1479C63.1537 88.4124 58.542 89.7609 55.2375 90.4743C53.309 90.8931 50.9111 91.3441 49.1852 90.1521C46.4513 88.2651 47.5329 85.1769 49.9032 83.5384Z" fill="white"/>
<path d="M146.777 67.7561C153.727 67.1393 169.472 62.7486 171.281 54.6805C173.366 45.3927 162.021 42.599 155.471 42.0421C147.104 41.6463 135.584 43.9429 132.546 53.0835C129.454 62.4173 138.346 68.5017 146.777 67.7561ZM141.959 51.224C145.82 48.5822 150.966 48.2693 155.476 48.481C159.591 48.8308 168.091 50.2943 161.929 55.5918C158.688 58.3717 153.069 60.0285 148.977 60.9214C146.423 61.4783 143.404 61.98 141.102 60.4382C137.31 57.9022 138.677 53.4654 141.959 51.224Z" fill="white"/>
</svg>
