<svg width="251" height="260" viewBox="0 0 251 260" fill="none" xmlns="http://www.w3.org/2000/svg">
<path d="M249.577 67.5038C244.265 32.4514 220.926 1.25126 182.519 0.892272C164.942 0.726583 142.629 13.098 128.964 23.3477C114.844 33.938 107.425 49.2688 100.829 65.2117C95.8126 77.3438 90.9524 89.2366 83.9751 100.398C78.6362 108.94 72.653 117.464 70.6693 127.548C68.9388 136.329 70.697 143.675 74.4157 150.132C67.8158 157.206 61.3355 164.432 54.5745 171.345C49.3323 176.707 45.3236 181.074 38.0332 183.509C33.104 185.157 28.589 185.046 23.5861 185.75C14.5606 187.016 6.23937 189.713 2.12477 198.49C-2.38105 208.1 0.619772 216.835 7.91929 224.043C15.1037 231.145 21.6623 231.665 30.2136 230.39C30.5772 233.381 30.2459 236.815 31.4103 239.834C33.1776 244.413 35.6906 248.883 39.0688 252.5C46.7871 260.771 55.3017 261.548 65.4133 256.978C75.1613 252.574 80.8316 245.288 81.5128 234.541C81.7613 230.624 80.8316 226.183 80.873 222.299C80.9743 213.697 83.6529 208.514 89.1206 202.02C95.449 194.504 102.449 187.463 109.151 180.264C116.708 183.619 124.702 184.581 133.521 180.747C140.834 177.567 147.356 172.491 153.988 168.141C164.753 161.081 176.503 156.635 188.308 151.655C218.86 138.759 255.09 103.886 249.577 67.5038ZM73.7392 219.045C73.1501 224.232 75.6216 229.386 75.0647 234.541C74.135 243.162 67.8158 250.76 59.2276 252.578C37.0621 257.268 40.224 236.806 35.755 225.884C35.0462 224.158 33.6885 223.288 31.7923 223.633C10.1837 227.568 -3.56389 203 19.9639 192.783C26.6467 189.879 35.3914 192.281 42.4194 189.534C56.595 183.997 67.9493 166.959 78.1576 155.59C82.714 161.325 88.6742 166.388 94.7449 171.23C94.8691 171.326 94.998 171.349 95.1269 171.428C95.2281 171.524 95.2788 171.644 95.3984 171.736C97.9758 173.692 100.581 175.519 103.227 177.125C91.7809 188.908 75.6446 202.255 73.7392 219.045ZM242.318 86.8525C236.262 106.85 216.881 129.807 199.014 139.62C183.278 148.263 165.848 152.659 150.734 162.572C145.257 166.162 139.771 170.834 133.705 173.388C120.072 179.123 109.73 174.539 98.8687 166.328C91.629 160.552 83.4918 154.081 79.322 145.714C72.6254 132.265 79.6718 119.364 86.8654 107.794C96.2361 92.7207 102.33 77.3162 109.464 61.157C127.349 20.6368 180.25 -9.29762 219.969 21.3226C236.358 33.9518 248.523 66.3715 242.318 86.8525Z" fill="white"/>
<path d="M141.006 42.4375C136.86 42.4375 136.855 48.8809 141.006 48.8809C145.149 48.8809 145.158 42.4375 141.006 42.4375Z" fill="white"/>
<path d="M150.399 71.4727C146.252 71.4727 146.248 77.9161 150.399 77.9161C154.546 77.9161 154.555 71.4727 150.399 71.4727Z" fill="white"/>
<path d="M185.681 78.864C185.566 74.7264 179.123 74.708 179.238 78.864C179.242 79.0619 179.247 79.2599 179.256 79.4532C179.371 83.5908 185.815 83.6092 185.7 79.4532C185.691 79.2599 185.686 79.0619 185.681 78.864Z" fill="white"/>
<path d="M168.46 40.1914C164.313 40.1914 164.308 46.6349 168.46 46.6349C172.602 46.6349 172.611 40.1914 168.46 40.1914Z" fill="white"/>
<path d="M184.983 23.6778C189.13 23.6778 189.134 17.2344 184.983 17.2344C180.836 17.239 180.827 23.6778 184.983 23.6778Z" fill="white"/>
<path d="M200.352 59.4697C197.342 56.6207 192.776 61.168 195.795 64.0261C195.897 64.1228 195.998 64.2194 196.099 64.3115C199.109 67.1604 203.675 62.6085 200.656 59.755C200.554 59.663 200.453 59.5663 200.352 59.4697Z" fill="white"/>
<path d="M207.728 36.94C207.632 37.0413 207.535 37.1425 207.438 37.2437C204.59 40.2538 209.137 44.8194 211.995 41.8002C212.092 41.699 212.188 41.5977 212.28 41.4964C215.129 38.4864 210.582 33.9208 207.728 36.94Z" fill="white"/>
<path d="M222.764 72.3809C226.911 72.3809 226.915 65.9375 222.764 65.9375C218.617 65.9375 218.608 72.3809 222.764 72.3809Z" fill="white"/>
<path d="M188.28 103.258C184.133 103.258 184.128 109.701 188.28 109.701C192.427 109.701 192.436 103.258 188.28 103.258Z" fill="white"/>
<path d="M215.24 95.8718C215.244 96.0697 215.249 96.2677 215.258 96.4656C215.373 100.603 221.817 100.622 221.702 96.4656C221.697 96.2677 221.692 96.0697 221.683 95.8718C221.568 91.7342 215.125 91.7158 215.24 95.8718Z" fill="white"/>
<path d="M88.5796 121.256C85.4177 128.183 84.4604 135.266 85.6432 142.787C86.283 146.869 92.4963 145.138 91.8566 141.074C90.9683 135.423 91.7691 129.706 94.144 124.51C95.8515 120.764 90.301 117.487 88.5796 121.256Z" fill="white"/>
<path d="M96.8775 105.488C92.7306 105.488 92.726 111.932 96.8775 111.932C101.024 111.936 101.029 105.488 96.8775 105.488Z" fill="white"/>
</svg>
