<svg width="310" height="312" viewBox="0 0 310 312" fill="none" xmlns="http://www.w3.org/2000/svg">
<g opacity="0.2">
<path d="M197.734 264.068C197.795 264.105 197.847 264.143 197.915 264.176C202.807 266.55 212.385 264.052 216.637 261.16C220.83 258.307 224.133 252.006 224.258 246.963C224.408 240.924 219.687 235.218 214.611 232.422C211.798 230.873 208.505 230.171 205.312 230.058C202.455 229.956 201.129 230.569 199.234 231.525C196.496 226.676 192.404 222.555 186.934 221.987C187.068 216.343 185.919 210.507 182.544 206.102C179.737 202.438 174.697 198.401 169.741 197.399C171.836 191.341 172.536 184.825 171.447 178.421C177.762 174.77 183.221 169.959 187.296 162.787C190.262 157.57 191.085 150.28 187.096 145.393C191.33 143.716 194.58 140.616 197.089 136.713C198.732 137.93 200.28 139.162 202.385 140.187C205.541 141.726 208.534 142.845 211.978 143.507C218.997 144.863 226.015 144.84 232.886 142.659C235.012 141.984 236.903 140.999 238.592 139.773C242.362 143.417 250.622 142.842 254.963 141.851C263.082 139.995 265.198 133.764 267.499 126.319C271.485 113.428 263.369 90.3997 247.654 89.5238C245.029 83.3595 240.947 77.8232 235.347 73.115C226.19 65.4111 210.808 61.5583 199.492 67.1615C196.217 60.2553 191.523 54.1336 185.062 49.6421C169.007 38.4771 148.686 45.6404 132.255 52.4616C125.152 55.4113 117.602 59.1941 113.373 65.9104C111.383 69.071 109.819 72.642 109.541 76.3949C109.03 75.9902 108.527 75.5792 107.996 75.1997C97.0278 67.4135 81.4323 72.9339 72.6956 81.4573C62.5526 91.3504 57.4759 105.294 57.3138 119.297C57.2178 127.576 58.8876 135.541 61.9166 142.989C61.4125 143.056 60.958 143.472 61.0236 144.072C61.1991 145.664 59.8032 148.506 59.4529 150.139C58.8724 152.831 58.3883 155.548 58.0528 158.282C57.5166 162.67 57.241 167.2 57.3631 171.624C57.5985 180.254 59.2907 189.461 62.5931 197.461C67.3431 208.958 75.7698 219.181 86.7427 224.832C84.9831 229.968 88.2886 236.828 90.2847 241.321C93.7051 249.013 97.5753 253.981 104.715 258.611C117.621 266.976 134.517 266.252 149.05 261.799C152.397 269.061 163.96 272.665 171.1 273.763C179.773 275.097 190.206 272.606 196.204 265.948C196.753 265.342 197.253 264.711 197.734 264.068ZM242.683 135.914C248.057 129.427 250.355 119.982 251.007 111.905C251.557 105.087 250.854 98.6543 248.887 92.7358C258.399 97.0883 264.231 112.703 262.563 121.872C261.732 126.435 259.559 134.046 255.1 136.061C252.499 137.235 245.566 137.976 242.683 135.914ZM199.998 131.124C204.354 120.777 205.291 107.568 205.556 98.8633C205.836 89.643 204.551 79.8922 201.194 71.1052C206.645 69.9619 212.454 70.0881 217.878 71.0654C224.455 72.2493 229.48 75.8326 234.288 80.2728C243.237 88.532 246.768 101.687 245.775 113.652C245.267 119.773 244.014 125.237 241.076 130.67C240.349 132.015 239.529 133.146 238.627 134.114C238.062 134.39 237.572 134.841 237.263 135.395C234.312 137.809 230.595 138.781 226.185 139.037C220.082 139.394 213.05 138.363 207.467 135.832C204.661 134.561 202.378 132.81 199.998 131.124ZM181.184 140.902C177.398 138.892 172.999 137.403 169.575 135.78C161.578 131.992 154.684 128.055 147.446 122.962C145.884 121.864 144.394 120.721 142.937 119.557C141.464 117.989 140.001 116.4 138.532 114.803C129.001 104.461 123.387 89.9404 113.464 79.902C113.728 73.9665 117.274 68.1219 121.898 64.3471C127.203 60.0149 133.926 57.5102 140.339 55.3378C155.146 50.3147 170.928 44.9999 184.277 56.1751C196.7 66.5731 200.659 84.5375 199.833 100.142C199.377 108.758 198.633 120.459 194.347 129.249C193.616 129.777 193.121 130.699 193.013 131.691C190.352 136.042 186.602 139.414 181.254 140.879C181.227 140.884 181.208 140.895 181.184 140.902ZM135.06 184.644C121.497 185.611 106.067 182.201 94.2693 175.302C69.2301 160.657 52.5285 126.642 67.1495 99.2416C73.3815 87.5629 84.6624 76.27 99.0959 79.0503C106.46 80.4679 111.473 88.584 115.395 94.3656C118.993 99.6628 122.178 105.135 126.091 110.216C133.452 119.772 142.009 129.773 152.22 136.369C157.129 139.54 162.583 142.383 168.254 143.886C171.024 144.62 173.753 145.057 176.61 144.878C177.149 145.192 177.692 145.502 178.22 145.832C189.439 152.858 180.61 163.731 173.584 170.042C168.34 174.754 162.17 176.982 155.662 179.256C148.838 181.638 142.364 184.125 135.06 184.644ZM162.326 199.99C158.282 208.309 151.96 214.14 143.859 218.384C128.68 226.338 109.264 229.343 92.8969 222.792C77.9575 216.814 67.3912 199.624 64.5469 184.38C63.0525 176.379 62.3719 168.291 62.8951 160.155C63.0997 156.96 64.4342 152.12 64.243 148.083C66.5598 152.656 69.3821 157.007 72.6358 161.072C82.2649 173.088 93.8329 180.968 108.362 185.779C123.476 190.782 138.923 190.986 154.008 185.855C157.976 184.504 161.81 183.096 165.45 181.465C165.791 187.974 165.48 193.504 162.326 199.99ZM178.615 234.511C173.807 244.894 159.291 252.94 148.766 255.999C135.421 259.875 120.155 261.953 107.916 254.104C102.52 250.645 98.8569 246.905 96.1494 241.064C94.142 236.735 91.7173 231.895 91.6596 226.969C93.7993 227.748 96.0116 228.377 98.3035 228.798C116.859 232.198 135.428 229.326 151.735 219.67C159.203 215.248 165.048 208.407 168.499 200.56C174.142 202.878 179.802 210.064 180.953 215.115C182.409 221.481 181.343 228.619 178.615 234.511ZM187.74 265.655C176.007 271.441 164.1 267.247 154.558 259.899C168.89 254.371 183.303 244.11 186.271 228.282C186.47 227.218 186.626 226.118 186.741 224.999C201.393 231.164 201.775 258.734 187.74 265.655ZM200.334 259.809C203.719 252.903 204.25 244.632 201.837 237.406C201.429 236.181 200.933 234.937 200.361 233.709C208.465 233.37 219.596 238.612 218.105 247.656C217.589 250.773 215.766 254.453 213.135 256.39C210.69 258.193 203.808 260.685 200.334 259.809Z" fill="white"/>
<path d="M154.541 145.101C143.296 142.116 131.425 133.319 124.191 124.358C119.476 118.515 115.177 112.266 110.828 106.14C106.164 99.5712 102.109 93.8773 99.9662 86.0386C99.8561 85.6347 100.381 85.4252 100.572 85.8011C103.989 92.5448 108.814 98.2816 113.348 104.288C117.298 109.523 121.201 114.918 125.445 119.915C129.524 124.721 134.258 128.443 138.916 132.605C143.852 137.017 149.015 140.68 154.969 143.679C155.687 144.041 155.399 145.327 154.541 145.101Z" fill="white"/>
<path d="M189.035 124.983C189.34 120.138 190.321 115.378 190.82 110.552C191.415 104.828 191.124 99.0735 191.048 93.3289C190.912 83.2139 187.202 73.1844 184.909 63.3805C184.855 63.1502 185.192 63.1123 185.284 63.2903C195.606 82.8236 197.503 104.134 191.216 125.346C190.814 126.7 188.945 126.423 189.035 124.983Z" fill="white"/>
<path d="M233.652 129.631C234.894 121.462 236.358 113.817 235.805 105.524C235.287 97.754 233.453 90.5601 231.898 82.963C231.833 82.6435 232.37 82.5088 232.46 82.8255C236.958 98.8416 241.952 113.843 236.116 130.38C235.619 131.799 233.434 131.053 233.652 129.631Z" fill="white"/>
<path d="M95.5931 192.27C84.6723 187.269 73.0938 178.194 68.5178 166.768C68.4226 166.53 68.7615 166.342 68.9116 166.55C76.1357 176.619 87.2001 185.411 98.7865 189.849C111.007 194.528 123.226 191.888 135.874 192.332C137.398 192.383 137.01 194.49 135.799 194.778C122.727 197.901 107.988 197.945 95.5931 192.27Z" fill="white"/>
<path d="M103.81 236.91C103.771 236.899 103.779 236.839 103.821 236.847C115.023 238.65 125.671 239.249 136.389 234.8C145.956 230.83 153.917 224.313 162.066 218.099C163.467 217.03 164.861 219.11 163.645 220.247C155.567 227.794 146.074 234.496 135.503 238.006C124.761 241.574 114.503 239.751 103.81 236.91Z" fill="white"/>
</g>
</svg>
