<svg width="264" height="266" viewBox="0 0 264 266" fill="none" xmlns="http://www.w3.org/2000/svg">
<path d="M263.891 89.9251C263.592 79.772 262.142 68.74 256.61 59.9538C254.759 57.0175 252.472 54.3342 249.692 52.2401C245.969 49.4372 240.473 49.6673 237.16 47.3062C232.24 43.7991 230.527 34.6725 226.974 29.7524C224.056 25.7114 220.618 22.0295 216.448 19.245C207.418 13.2111 194.923 10.6246 184.227 11.1446C176.458 11.522 172.099 13.1743 164.56 9.53378C158.945 6.82752 154.159 3.997 147.973 2.5058C136.223 -0.320113 123.603 0.881134 111.954 3.71626C101.686 6.22 95.7073 11.5404 87.1329 16.5203C81.2785 19.9215 81.7894 18.6651 73.4267 18.7295C65.9431 18.7847 57.5344 20.1609 50.5938 23.0282C40.7492 27.0968 32.7731 34.4055 27.7886 43.7946C25.1928 48.687 24.392 52.3367 20.0565 55.8806C14.6762 60.2806 10.465 60.1793 6.84742 66.5077C-4.20771 85.8657 -0.0746931 113.071 8.69301 132.194C22.169 161.581 43.2069 184.994 69.8782 202.617C79.0095 208.65 88.8496 215.678 99.2144 220.976C91.0772 228.639 76.3677 242.258 80.1831 252.839C85.2228 266.821 110.486 264.069 121.504 264.488C134.207 264.971 146.896 265.873 159.553 264.165C166.272 263.259 177.677 262.725 182.804 257.423C192.318 247.587 176.126 231.704 167.759 223.668C168.086 223.562 168.403 223.475 168.73 223.369C224.797 207.638 265.594 147.585 263.891 89.9251ZM44.0354 173.511C30.7573 158.585 17.6264 140.322 11.1829 121.203C5.26877 103.654 1.92738 65.578 26.7163 61.0124C27.8163 60.8099 28.6539 59.7743 28.9669 58.7618C36.7174 33.5357 59.5825 20.1517 85.7199 26.7562C87.0132 27.083 88.7391 26.5629 89.3605 25.2742C95.4587 12.576 113.418 9.06432 126.254 7.77563C133.668 7.03003 141.097 7.24634 148.318 9.32206C155.503 11.384 162.213 18.8446 168.827 20.414C171.625 21.0768 172.868 19.627 175.786 18.9965C184.816 17.045 193.257 17.4638 202.112 19.9676C218.068 24.478 224.986 37.6226 231.034 51.9317C231.48 52.9903 232.778 53.4551 233.814 53.5288C269.124 55.9681 257.489 114.93 249.641 135.959C235.765 173.138 205.932 206.248 167.032 217.17C141.493 225.569 119.631 224.492 95.5093 211.021C77.1961 200.785 58.0591 189.279 44.0354 173.511ZM160.97 226.075C164.901 229.914 168.348 233.992 171.763 238.29C174.129 241.268 181.083 248.784 177.613 253.368C176.453 254.901 171.602 255.398 169.71 255.863C154.775 259.508 139.518 258.817 124.316 258.182C114.099 257.754 95.919 260.58 89.8299 251.007C85.3655 243.993 90.5985 240.44 95.8085 234.328C98.8876 230.715 102.137 227.258 105.52 223.931C109.952 225.813 114.467 227.304 119.06 228.174C133.843 230.977 147.08 229.513 160.763 225.762C160.841 225.868 160.869 225.979 160.97 226.075Z" fill="white"/>
<path d="M148.018 190.969C158.162 171.008 162.525 147.485 166.57 125.679C172.093 95.8962 175.545 65.437 174.151 35.1206C173.962 30.9922 167.514 30.9691 167.707 35.1206C169.079 64.8709 165.779 94.7364 160.357 123.967C156.427 145.143 152.307 168.334 142.458 187.715C140.58 191.407 146.14 194.67 148.018 190.969Z" fill="white"/>
<path d="M173.205 195.937C204.824 159.744 217.08 115.017 220.182 68.2834C220.459 64.1411 214.015 64.1595 213.739 68.2834C210.761 113.116 198.974 156.674 168.649 191.381C165.928 194.492 170.467 199.067 173.205 195.937Z" fill="white"/>
<path d="M92.5945 40.3867C92.0007 36.2997 85.792 38.0395 86.3812 42.0989C93.7175 92.5879 100.621 142.428 119.192 190.183C120.679 194.008 126.91 192.342 125.405 188.471C106.867 140.799 99.917 90.7884 92.5945 40.3867Z" fill="white"/>
<path d="M68.9014 140.483C57.3308 119.758 46.5886 98.0387 40.2096 75.1C39.1004 71.1096 32.8824 72.8033 33.9962 76.8121C40.5179 100.262 51.5132 122.556 63.337 143.732C74.0653 162.956 85.8385 182.894 101.57 198.52C104.515 201.447 109.072 196.89 106.126 193.963C90.7999 178.743 79.3582 159.224 68.9014 140.483Z" fill="white"/>
<path d="M136.772 23.4485C127.088 21.3452 117.888 22.8778 109.203 27.5447C105.549 29.51 108.798 35.0743 112.457 33.1091C119.586 29.2798 127.107 27.9313 135.065 29.6619C139.101 30.5409 140.827 24.3322 136.772 23.4485Z" fill="white"/>
<path d="M150.244 29.2869C150.244 29.204 150.244 29.1212 150.244 29.0337C150.244 24.8869 143.801 24.8823 143.801 29.0337C143.801 29.1166 143.801 29.204 143.801 29.2869C143.801 33.4337 150.244 33.4429 150.244 29.2869Z" fill="white"/>
</svg>
