<svg width="261" height="239" viewBox="0 0 261 239" fill="none" xmlns="http://www.w3.org/2000/svg">
<path d="M125.207 91.3371C132.345 80.6317 128.005 64.2884 117.129 57.6838C104.334 49.9149 90.9274 59.8746 85.8463 71.7536C82.0216 79.8816 82.5648 93.376 91.3371 98.158C100.524 103.165 119.2 100.344 125.207 91.3371ZM118.736 89.1785C114.092 93.7442 101.941 95.1617 96.1467 93.1136C89.4593 90.748 88.6953 80.7698 91.4061 75.0076C94.6509 67.4227 102.001 58.6457 111.505 62.0378C121.041 65.439 126.436 81.6075 118.736 89.1785Z" fill="white"/>
<path d="M71.7993 138.758C61.1676 140.158 55.8012 147.604 54.5355 157.536C54.3652 157.951 54.2685 158.42 54.3283 158.991C54.2823 159.534 54.3652 159.994 54.5217 160.395C56.0911 170.612 63.4735 180.807 75.0579 178.689C85.8461 176.72 93.7991 164.463 92.6715 153.772C91.5854 143.494 81.621 137.47 71.7993 138.758ZM77.9022 170.897C68.9136 176.089 61.6371 167.51 60.7764 158.991C61.3195 152.557 63.7818 147.692 70.1424 145.74C75.8127 144.001 83.485 145.805 85.6251 151.921C87.8941 158.42 83.7566 167.515 77.9022 170.897Z" fill="white"/>
<path d="M177.824 132.63C182.274 121.759 177.598 110.653 166.396 106.714C154.36 102.479 144.115 109.553 139.002 120.282C138.938 120.415 138.947 120.539 138.901 120.673C138.832 120.806 138.731 120.898 138.675 121.05C130.106 145.186 169.107 153.926 177.824 132.63ZM160.445 111.937C169.332 112.701 175.136 120.139 172.37 128.847C167.464 144.297 139.163 139.93 144.824 123.043C147.922 116.779 152.791 111.279 160.445 111.937Z" fill="white"/>
<path d="M150.275 78.8748C153.851 78.4145 159.714 82.6534 158.808 86.6668C157.892 90.7032 164.105 92.4291 165.021 88.3789C166.793 80.5593 158.283 71.4004 150.275 72.4314C148.535 72.6569 147.071 73.7522 147.053 75.6531C147.034 77.2225 148.549 79.0957 150.275 78.8748Z" fill="white"/>
<path d="M114.44 132.944C118.154 134.753 121.422 129.198 117.694 127.38C116.18 126.644 114.794 126.031 114.122 124.388C113.469 122.791 113.662 121.176 114.974 120.011C118.076 117.25 113.505 112.703 110.417 115.455C107.683 117.89 106.717 121.862 107.67 125.364C108.664 129.028 111.121 131.329 114.44 132.944Z" fill="white"/>
<path d="M195.811 124.221C199.539 125.984 202.811 120.433 199.065 118.657C193.979 116.25 193.854 110.805 196.814 106.575C199.193 103.169 193.61 99.9431 191.249 103.321C186.394 110.266 187.715 120.387 195.811 124.221Z" fill="white"/>
<path d="M48.9801 184.467C45.9102 185.36 40.8383 183.951 41.8417 179.814C42.8174 175.787 36.604 174.065 35.6283 178.102C33.4652 187.035 42.6977 193.009 50.6922 190.68C54.6641 189.52 52.975 183.302 48.9801 184.467Z" fill="white"/>
<path d="M67.8316 107.459C70.2065 107.937 71.4859 108.688 71.7989 111.274C72.0566 113.424 71.4721 116.167 69.1985 116.94C65.2956 118.27 66.9709 124.497 70.9106 123.153C76.0009 121.418 78.6013 116.535 78.2423 111.274C77.8787 105.958 74.7444 102.29 69.5482 101.245C65.4981 100.431 63.763 106.639 67.8316 107.459Z" fill="white"/>
<path d="M116.606 151.198C112.164 152.855 109.306 156.9 109.619 161.687C109.891 165.806 116.334 165.834 116.063 161.687C115.901 159.229 116.983 157.862 119.266 157.084C121.737 156.242 123.293 156.435 125.152 158.359C128.038 161.346 132.595 156.79 129.709 153.803C125.967 149.932 121.604 149.334 116.606 151.198Z" fill="white"/>
<path d="M259.17 105.088C255.589 82.3521 240.433 67.7714 223.607 53.4347C205.395 37.9152 187.491 24.5634 165.15 15.3355C146.81 7.75983 118.868 -3.49315 98.4055 1.05869C85.4909 3.93063 80.3178 18.5481 84.46 30.4086C76.3044 56.8084 60.7757 80.2856 49.9967 105.631C37.5701 134.857 24.7982 163.756 10.9861 192.356C7.88868 198.767 -1.52334 211.309 1.39923 219.589C1.43145 219.759 1.4038 219.911 1.46363 220.09C5.10879 230.694 15.4184 237.377 26.3768 235.085C48.4779 230.464 71.3752 218.01 91.9344 208.308C92.3302 212.616 91.0599 217.007 95.3678 220.689C103.279 227.45 108.103 219.464 109.115 212.123C109.479 209.491 109.129 206.057 108.784 202.536C109 202.5 109.194 202.518 109.428 202.43C113.727 200.764 118.021 199.094 122.32 197.428C122.301 199.586 122.062 201.814 122.085 203.742C122.15 209.159 122.256 214.613 123.001 219.989C124.198 228.623 129.155 244.078 140.762 237.046C154.758 228.568 147.854 203.622 147.712 187.293C175.483 172.657 204.17 159.729 231.836 144.932C249.702 135.377 264.094 127.047 259.17 105.088ZM135.934 12.2197C153.571 17.0155 170.724 23.7213 186.469 33.0597C208.464 46.1031 237.308 67.3849 248.625 92.7629C245.896 91.9206 242.785 91.9344 239.305 93.2139C232.609 95.6808 228.554 101.038 226.791 107.251C215.409 87.7232 193.944 74.3024 175.575 62.0736C149.502 44.7131 121.317 31.7433 90.1532 27.5597C79.7286 0.722688 122.619 8.59755 135.934 12.2197ZM13.651 225.383C18.1983 224.545 22.9112 222.166 26.6622 220.919C39.3788 216.689 52.3164 212.574 64.674 207.369C71.099 204.663 83.6131 196.047 89.4767 202.375C75.3977 209.265 30.9517 234.321 13.651 225.383ZM108.351 195.973C108.315 193.258 108.554 190.754 109.516 188.89C112.627 182.865 118.339 186.649 120.893 191.104C116.714 192.728 112.53 194.353 108.351 195.973ZM139.073 229.438C135.05 230.888 130.77 224.532 129.79 222.152C128.74 219.616 128.984 215.529 128.805 212.768C128.409 206.725 128.832 200.672 128.542 194.639C128.059 184.559 122.845 172.731 110.515 178.093C99.9657 182.677 103.187 195.223 102.994 204.46C102.902 208.892 102.041 219.234 97.531 209.569C96.6749 207.733 97.8164 204.884 97.4159 202.849C96.6335 198.877 95.1838 195.803 91.3775 194.059C80.4743 189.06 61.8527 201.74 52.1645 205.256C42.398 208.8 21.8572 220.182 12.1736 215.764C5.85444 212.878 8.41799 212.432 11.2669 206.55C13.4577 202.016 15.6531 197.487 17.8438 192.949C30.6479 166.393 42.7018 139.602 54.0883 112.415C65.1756 85.9374 81.2152 61.3648 90.0428 33.9893C118.242 37.7864 143.961 49.3754 167.811 64.6832C188.945 78.2513 216.73 94.7558 225.466 119.632C204.667 133.067 183.086 144.32 161.593 156.475C144.186 166.319 140.762 177.573 141.867 197.124C142.101 201.427 144.812 227.371 139.073 229.438ZM205.155 150.97C186.129 160.322 167.185 169.84 148.411 179.685C148.49 179.372 148.526 179.018 148.618 178.723C153.193 163.876 172.271 158.716 184.582 152.102C200.447 143.579 215.713 133.78 230.763 123.912C232.227 123.424 233.396 122.058 232.89 120.134C230.814 112.273 232.747 103.652 240.451 99.7862C247.212 96.3942 251.161 100.605 252.952 106.8C258.332 130.77 222.313 142.539 205.155 150.97Z" fill="white"/>
<path d="M120.28 20.615C136.458 23.6848 150.882 29.6681 165.035 38.0261C168.611 40.1387 171.86 34.5697 168.289 32.4618C153.602 23.7907 138.805 17.5912 121.997 14.4017C117.942 13.6331 116.202 19.8418 120.28 20.615Z" fill="white"/>
<path d="M178.213 45.6622C182.36 45.6622 182.365 39.2188 178.213 39.2188C174.066 39.2188 174.057 45.6622 178.213 45.6622Z" fill="white"/>
</svg>
