<svg width="270" height="96" viewBox="0 0 270 96" fill="none" xmlns="http://www.w3.org/2000/svg">
<path d="M261.941 26.2183C261.549 25.8547 261.158 25.4911 260.767 25.1321C261.931 23.7882 263.832 22.8171 265.213 21.7171C267.367 19.9957 268.508 19.02 269.346 16.3551C270.022 14.215 268.232 12.4385 266.239 12.2774C260.974 11.8494 255.723 11.6652 250.448 11.6238C250.144 8.30543 249.026 5.30006 246.983 2.40511C245.924 0.904701 243.314 -0.0157845 241.925 1.75156C237.63 7.20549 234.542 13.0092 232.476 19.5539C224.2 15.6786 213.969 14.2933 206.858 15.2138C194.671 16.7878 183.62 24.5016 172.441 28.9291C158.601 34.4061 144.697 37.3332 129.73 37.0019C114.551 36.6659 102.686 32.9195 89.0442 26.3518C81.0452 22.4995 73.2716 18.0535 64.2692 16.9673C55.1609 15.8673 46.4806 18.4677 39.8254 23.7974C37.2987 16.4932 31.9874 0.854087 23.6386 10.372C21.6641 12.618 21.0197 15.8213 17.9637 16.6635C15.9432 17.2204 13.8353 16.484 11.8332 17.6577C7.03283 20.4744 9.16845 25.2563 9.66091 29.6103C4.99401 32.3441 -2.95451 35.4739 1.12328 42.0922C2.79858 44.8123 5.97426 45.1666 8.837 45.2218C15.17 45.3415 21.5904 44.8169 27.9372 44.5407C21.885 80.5918 78.3113 98.293 105.793 103.006C103.786 116.864 103.045 132.439 107.615 143.692C112.236 155.064 123.825 160.307 123.572 174.445C123.319 188.391 123.949 202.378 123.319 216.305C123.13 220.452 129.574 220.443 129.762 216.305C130.351 203.275 129.61 190.236 129.905 177.198C130.107 168.126 129.969 162.272 124.428 154.885C116.121 143.816 111.072 135.674 111.495 121.107C111.78 111.433 112.549 101.271 114.339 91.6883C118.67 92.0289 123.034 91.7206 127.355 91.0855C127.226 102.707 127.433 114.429 128.704 125.972C129.399 132.278 132.238 139.407 139.975 138.514C156.917 136.558 152.632 103.369 150.888 90.0683C155.467 89.8934 160.037 89.5069 164.566 88.8027C168.533 107.898 172.068 133.488 159.448 148.69C152.876 156.606 148.886 159.805 149.171 170.598C149.567 185.832 148.784 201.085 149.456 216.305C149.636 220.433 156.084 220.456 155.9 216.305C155.55 208.333 155.711 200.454 155.909 192.478C156.098 184.884 154.298 175.591 155.458 168.186C157.428 155.598 170.793 149.919 173.352 137.635C175.603 126.833 175.023 114.231 173.389 102.26C193.193 97.5335 213.776 88.9913 229.456 75.8329C238.749 68.0363 247.747 51.8402 246.706 38.2767C253.067 38.4654 259.216 39.5286 265.323 41.5951C266.911 42.1336 268.927 40.9738 269.286 39.3445C270.607 33.3061 266.014 29.9923 261.941 26.2183ZM181.158 32.1417C183.133 34.0471 185.102 35.9801 186.815 38.1249C187.965 39.5654 189.038 41.1257 189.871 42.778C190.478 43.9516 190.938 45.1758 191.256 46.4553C192.015 47.9834 191.56 48.7059 189.889 48.6231C186.515 50.1373 182.516 45.1528 180.394 43.0127C177.936 40.532 175.488 38.0374 173.039 35.5475C173.412 35.4048 173.785 35.2805 174.153 35.1332C176.528 34.2035 178.857 33.1864 181.158 32.1417ZM139.358 43.16C139.335 43.7169 139.427 44.3014 139.823 44.9089C141.163 46.9708 142.414 49.0742 143.482 51.2879C144.191 52.7607 145.77 55.3888 145.963 57.4691C142.12 57.9661 137.301 51.6377 135.667 49.3871C134.282 47.4771 133.062 45.4612 131.889 43.4085C132.073 43.4085 132.252 43.4177 132.436 43.4177C134.77 43.4177 137.071 43.3118 139.358 43.16ZM91.6998 34.8709C91.7137 34.9216 91.7045 34.9584 91.7229 35.009C93.0944 38.737 94.7099 42.6951 94.9999 46.7039C95.1748 49.157 96.0078 53.9205 92.7401 50.4825C91.3455 49.0143 90.1811 47.2055 89.0305 45.5441C85.4728 40.4031 82.5134 34.9261 80.0602 29.2006C84.0736 31.0877 87.9903 33.1174 91.6998 34.8709ZM9.16384 36.9282C10.5446 35.2759 13.8674 35.4693 15.2574 33.5638C16.2976 32.1371 16.2746 30.8622 16.1135 29.1454C16.0214 28.1467 14.7927 25.5693 15.1747 24.6857C16.155 22.4028 18.0512 23.2589 19.7909 23.0748C21.5076 22.8953 23.2197 22.5179 24.5866 21.3765C26.2941 19.9451 27.0581 14.9744 30.197 16.9719C32.1162 18.1961 33.5937 25.6476 34.4497 27.8292C34.5786 28.1605 34.7812 28.3953 34.9745 28.6438C32.7515 31.3915 30.9427 34.5442 29.654 38.0558C29.585 38.0558 29.5389 38.0236 29.4652 38.0236C25.1665 38.1801 20.8725 38.3366 16.5737 38.4931C14.6867 38.5667 6.79817 39.7633 9.16384 36.9282ZM142.691 129.746C134.102 136.48 134.669 120.201 134.452 116.579C134.245 113.154 134.144 109.73 134.033 106.306C137.844 106.485 141.609 106.324 145.406 105.813C145.452 107.696 145.581 109.569 145.558 111.451C145.493 115.962 146.405 126.833 142.691 129.746ZM216.804 76.8132C203.158 85.7512 188.191 91.9922 172.409 95.8628C171.93 93.0231 171.405 90.2709 170.862 87.5969C170.954 87.5738 171.046 87.5645 171.139 87.5415C175.175 86.6072 173.467 80.3894 169.426 81.3283C160.976 83.2889 152.351 83.7722 143.699 83.7492C139.552 83.7354 139.547 90.1788 143.699 90.1926C143.919 90.1926 144.14 90.1834 144.361 90.1834C144.707 93.2992 145.042 96.4197 145.236 99.5494C144.881 99.5172 144.518 99.508 144.154 99.5587C140.739 100.037 137.292 100.069 133.849 99.8807C133.799 96.5071 133.79 93.1336 133.826 89.76C136.8 88.3195 135.11 83.1095 131.359 83.8689C124.147 85.3232 116.622 86.2575 109.401 84.3935C105.383 83.3533 103.671 89.5667 107.689 90.6068C107.767 90.6252 107.845 90.639 107.924 90.6574C107.537 92.5858 107.169 94.5787 106.805 96.6682C91.189 94.0264 76.231 89.6634 62.1428 82.1199C44.184 72.5007 23.2565 51.716 41.1279 31.3178C50.2316 20.9254 61.2223 21.8229 72.0474 25.7949C72.0335 26.1769 72.0749 26.5773 72.2406 27.0237C74.6569 33.4119 77.5473 39.57 81.1878 45.3599C83.8757 49.631 87.4426 56.1758 92.3396 58.2791C96.3024 59.9774 99.6484 57.9201 100.836 53.8975C102.355 48.7566 101.273 43.3072 99.6438 38.2077C107.67 41.0888 115.9 42.6077 124.354 43.1692C128.81 51.3892 135.391 63.6318 145.825 63.8941C158.302 64.2071 149.649 48.4436 145.931 42.5294C152.89 41.6366 159.688 40.0809 166.439 37.8947C166.545 38.0466 166.596 38.2077 166.739 38.3504C172.22 43.9102 185.972 62.5271 195.601 53.8192C203.011 47.118 193.58 35.6487 187.408 29.2927C199.361 23.8388 211.037 19.2363 224.955 24.2024C253.136 34.2634 233.502 65.8823 216.804 76.8132ZM245.312 31.709C243.977 28.1882 241.4 25.2655 238.15 22.8814C239.435 18.3434 241.216 14.2012 243.655 10.3214C244.014 11.7021 244.161 13.1473 244.069 14.795C243.968 16.5255 245.625 18.0259 247.291 18.0167C251.415 17.9891 255.52 18.1225 259.626 18.3296C256.703 20.1844 253.145 21.7401 253.32 25.307C253.49 28.6852 258.512 31.0601 261.306 33.7111C256.082 32.427 250.775 31.8333 245.344 31.801C245.33 31.7734 245.326 31.7413 245.312 31.709Z" fill="white"/>
<path d="M87.9511 80.7295C74.6361 76.1316 62.8123 68.9149 52.5902 59.2221C49.5802 56.3685 45.0192 60.9158 48.0338 63.7785C59.0613 74.24 71.87 81.9813 86.2389 86.9427C90.1648 88.3004 91.8539 82.078 87.9511 80.7295Z" fill="white"/>
<path d="M42.8579 48.2109C38.7111 48.2109 38.7065 54.6544 42.8579 54.6544C47.0048 54.6544 47.0094 48.2109 42.8579 48.2109Z" fill="white"/>
</svg>
