<svg width="238" height="249" viewBox="0 0 238 249" fill="none" xmlns="http://www.w3.org/2000/svg">
<path d="M236.643 103.668C232.837 69.2964 216.654 42.0682 181.965 32.472C141.86 21.3801 94.2378 27.2666 53.1562 32.9323C53.0457 32.9138 52.9629 32.854 52.8432 32.8402C48.029 32.426 40.122 29.936 46.6345 25.1863C50.6893 22.2315 55.9177 20.2893 60.4925 18.3977C64.6624 16.6717 71.5891 14.5638 71.1104 8.71867C70.0473 -4.2695 39.0634 1.44216 31.1886 0.68275C27.0648 0.286938 27.0924 6.7304 31.1886 7.12621C36.2007 7.60947 41.13 7.44838 46.1512 7.25968C48.9588 7.15383 61.2013 5.77769 62.7477 8.34127C64.5611 11.3513 55.9453 13.3303 53.3357 14.4856C49.3085 16.2667 44.7843 18.1675 41.3417 20.975C37.5676 24.0495 35.225 28.6289 38.2304 33.0749C38.6262 33.6594 39.0634 34.1749 39.5283 34.6536C37.5815 34.787 35.6392 34.9251 33.6924 35.0586C31.5752 35.2059 20.8699 37.0699 19.0979 35.2289C14.9097 30.8749 24.5657 28.6197 26.761 27.4047C28.7723 26.2955 31.0321 24.9976 32.2472 22.9541C39.7768 10.2881 7.75285 14.2969 3.42652 14.1956C-0.7203 14.099 -0.7203 20.5424 3.42652 20.6391C9.11057 20.7725 14.7946 20.7127 20.4833 20.7311C20.6858 20.7311 25.4079 20.6897 25.4171 20.7633C25.477 21.3294 20.9113 23.0323 20.4833 23.2349C16.0005 25.3428 9.23944 27.7867 9.76412 34.0461C10.8181 46.6844 36.3388 41.9393 46.2249 40.7104C48.3236 55.535 56.1064 69.0524 68.0314 78.3816C83.4267 90.4309 104.129 91.5861 122.81 93.7539C134.947 95.1623 151.911 95.8158 161.006 105.619C171.743 117.194 171.817 142.199 168.651 155.952C161.07 188.855 130.961 194.148 102.117 191.124C102.057 190.926 102.053 190.737 101.947 190.535C95.8993 178.886 86.8693 168.857 73.8075 165.216C65.0582 162.777 49.6583 161.801 42.5751 168.926C35.7082 175.839 40.8262 184.542 47.4584 189.177C56.1938 195.284 68.5054 198.778 80.3246 199.482C70.8573 204.466 62.016 210.473 55.5357 219.236C51.5453 224.634 42.7592 239.197 48.8989 245.769C56.806 254.237 73.9225 240.605 79.625 236.228C92.0148 226.724 100.672 214.744 103.802 199.694C130.183 215.379 172.287 205.078 197.761 193.273C228.929 178.835 240.132 135.185 236.643 103.668ZM227.111 143.088C211.523 154.819 194.139 158.819 174.887 157.507C176.042 152.297 176.585 146.912 176.604 141.505C197.352 138.292 219.54 121.005 229.771 101.081C231.309 114.069 230.627 129.046 227.111 143.088ZM52.5441 39.4862C83.9053 35.2519 115.998 32.8908 147.659 34.4096C154.866 50.3066 150.991 75.5143 142.757 89.7912C142.67 89.9431 142.67 90.0857 142.61 90.2376C139.066 89.4368 135.37 88.8293 131.587 88.3322C98.7068 84.0013 57.2478 80.0293 52.5441 39.4862ZM148.911 91.9451C157.453 76.3381 161.01 52.3363 154.742 34.8193C191.166 37.6176 218.753 52.9944 227.645 89.4644C227.599 89.5749 227.521 89.6439 227.484 89.7681C221.16 110.963 197.623 130.956 176.374 134.997C175.909 128.489 174.772 122.064 173.101 116.034C172.733 114.714 172.314 113.462 171.854 112.265C184.883 104.183 194.424 91.5631 200.918 77.8432C202.681 74.1152 197.131 70.8428 195.354 74.5892C189.389 87.1908 180.884 98.9224 168.964 106.452C164.283 98.9731 157.227 94.6468 148.911 91.9451ZM50.634 178.761C47.7161 170.302 51.1081 170.624 59.4892 170.15C75.7589 169.23 87.9002 178.656 95.4713 192.215C84.7614 194.511 74.0146 192.339 63.7143 189.076C56.2352 186.71 53.3265 186.563 50.634 178.761ZM83.5003 224.377C81.1254 226.825 59.2637 247.361 54.0905 236.918C53.0135 234.746 58.2051 226.641 59.6319 224.446C63.3185 218.785 68.8092 214.26 74.3 210.44C81.4752 205.447 89.663 201.884 97.6068 198.308C95.4851 208.226 90.832 216.81 83.5003 224.377ZM117.471 198.506C133.502 198.598 149.61 195.413 161.3 183.53C162.543 182.269 163.671 180.938 164.748 179.576C169.843 185.513 176.374 189.89 183.724 192.348C163.629 199.864 137.547 204.434 117.471 198.506ZM196.707 186.719C195.589 187.29 194.388 187.842 193.196 188.399C192.841 188.114 192.408 187.893 191.833 187.792C182.412 186.162 174.468 181.454 168.485 174.072C170.395 170.822 171.951 167.389 173.147 163.813C173.235 163.826 173.294 163.873 173.382 163.882C191.806 165.391 208.816 162.317 224.138 152.914C218.817 167.416 209.972 179.958 196.707 186.719Z" fill="white"/>
<path d="M90.0396 41.9609C85.8928 41.9609 85.8882 48.4044 90.0396 48.4044C94.1864 48.4044 94.191 41.9609 90.0396 41.9609Z" fill="white"/>
<path d="M182.086 53.3055C192.276 57.19 201.67 61.3782 208.527 70.3162C211.017 73.561 216.618 70.353 214.092 67.0623C210.658 62.5933 206.359 58.7502 201.84 55.395C196.473 51.4093 189.984 49.4532 183.798 47.0922C179.923 45.6148 178.243 51.8419 182.086 53.3055Z" fill="white"/>
<path d="M215.752 81.0333C219.899 81.0333 219.904 74.5898 215.752 74.5898C211.606 74.5898 211.601 81.0333 215.752 81.0333Z" fill="white"/>
</svg>
