<svg width="251" height="106" viewBox="0 0 251 106" fill="none" xmlns="http://www.w3.org/2000/svg">
<path d="M250.564 104.896C249.519 74.0779 244.714 49.5927 222.222 27.3812C205.294 10.6651 190.065 -3.63482 165.317 1.46011C148.385 4.94418 134.743 7.29608 117.203 4.77853C104.426 2.94674 91.2818 0.222037 78.4133 3.00653C53.0399 8.50188 38.9195 31.6247 26.1568 52.1287C14.1766 71.3808 6.70218 94.835 2.4403 117.12C-7.2571 167.802 21.3288 221.131 74.1284 230.502C74.3033 230.534 74.4459 230.484 74.6116 230.493C74.7451 230.525 74.8417 230.599 74.9844 230.617C103.598 234.322 128.866 235.348 155.988 224.045C180.183 213.961 211.461 199.707 228.329 178.72C236.043 169.123 240.765 154.86 245.405 143.63C250.495 131.333 251.006 118.032 250.564 104.896ZM242.611 131.01C240.19 141.877 233.94 154.34 229.084 164.613C217.44 189.25 184.049 204.411 160.264 215.162C131.885 227.989 105.931 228.127 75.753 224.275C30.4049 216.17 2.40807 172.492 7.3281 127.577C9.04943 111.869 14.2042 95.8705 19.5109 81.069C27.3995 59.0646 43.1215 29.9172 63.0088 16.5056C87.3098 0.120777 114.216 14.5311 140.579 12.9893C148.173 12.5475 155.385 10.3705 162.758 8.65842C179.272 4.81996 189.526 7.17179 202.643 18.1165C211.747 25.7105 220.814 34.1607 228.145 43.4899C239.334 57.7345 242.022 73.5486 243.301 91.1669C244.254 104.21 245.487 118.105 242.611 131.01Z" fill="white"/>
<path d="M125.954 50.9259C97.9114 43.4607 68.2852 49.7431 58.3577 80.6441C49.7557 107.421 63.9267 137.926 90.2114 148.19C151.19 171.994 184.603 75.4755 125.954 50.9259ZM90.3172 141.111C68.3313 131.101 57.2669 105.336 64.5711 82.3562C73.3388 54.7644 99.9364 50.6682 124.242 57.1393C176.278 78.9228 143.439 165.302 90.3172 141.111Z" fill="white"/>
<path d="M82.0407 77.4008C69.4576 85.2388 70.0927 101.2 76.0437 113.139C77.8939 116.848 83.4537 113.59 81.6081 109.885C77.3048 101.251 75.8873 88.8195 85.2901 82.9605C88.8064 80.7744 85.5754 75.1962 82.0407 77.4008Z" fill="white"/>
<path d="M92.9966 68.9648C88.8498 68.9648 88.8452 75.4083 92.9966 75.4083C97.1434 75.4083 97.148 68.9648 92.9966 68.9648Z" fill="white"/>
</svg>
