<svg width="265" height="219" viewBox="0 0 265 219" fill="none" xmlns="http://www.w3.org/2000/svg">
<path d="M264.006 111.521C260.922 108.475 255.882 101.939 251.39 101.189C249.052 100.802 246.121 102.514 244.04 103.265C240.98 104.374 237.923 105.483 234.863 106.597C234.762 105.142 234.669 103.679 234.522 102.243C233.786 95.1734 231.443 88.8082 227.895 83.2761C228.111 83.161 228.337 83.092 228.544 82.9171C230.974 80.8552 233.404 78.7932 235.834 76.7313C237.477 75.3368 239.544 74.0113 240.326 71.8988C240.998 70.09 240.482 68.1846 240.147 66.3528C239.746 64.1666 239.323 61.9896 238.908 59.8081C252.025 57.3964 259.371 43.9756 259.633 31.5121C259.854 21.2026 253.724 3.26674 242.079 0.832034C240.054 0.408606 238.002 1.74332 238.002 3.9387C238.002 10.6215 236.75 16.4436 234.126 22.2151C230.757 17.5068 228.18 12.5315 225.998 6.98093C225.787 6.44244 225.465 6.03742 225.096 5.70604C224.042 4.5094 222.303 4.05375 220.885 5.35625C220.397 5.64621 220.034 6.05123 219.808 6.5529C210.994 16.9085 207.616 28.2213 212.928 41.3614C216.425 50.0232 223.228 58.3859 232.424 59.8909C233.178 63.016 234.78 67.8716 233.708 70.113C233.031 71.526 230.058 73.2058 228.847 74.2368C227.273 75.5715 225.699 76.9062 224.13 78.241C217.981 71.1025 209.591 65.7683 199.981 62.6938C189.579 59.3662 181.023 60.8989 170.797 63.8628C168.859 64.4243 166.967 64.8846 165.057 65.3725C164.924 63.6327 164.869 61.9114 165.002 60.1533C165.807 59.9323 166.585 59.6516 167.308 59.2788C172.426 56.1997 175.104 49.4433 171.993 43.9664C168.997 38.692 162.093 36.7681 156.81 39.7873C152.046 42.5074 148.87 49.4709 151.121 54.6487C152.474 57.76 155.351 59.6056 158.554 60.3005C158.407 62.5097 158.545 64.6315 158.72 66.8775C150.564 68.654 142.436 69.8414 133.701 70.3477C125.25 70.3753 116.837 68.7691 108.424 67.0662C108.428 67.0247 108.451 66.9925 108.456 66.9511C108.622 64.5486 108.415 62.3808 108.111 60.0474C113.082 56.9085 115.645 50.2856 112.58 44.8961C109.584 39.6216 102.68 37.6978 97.3963 40.717C92.6328 43.4371 89.4571 50.4006 91.7077 55.5784C93.4382 59.5549 97.6449 61.4742 101.856 61.5202C102.031 62.9654 102.077 64.3553 102.031 65.7913C90.7273 63.5729 79.4237 61.8746 68.0372 64.4474C57.6908 66.7854 48.739 72.5339 42.1805 80.4271C39.0877 78.333 34.4207 75.8891 33.1136 72.2393C31.8664 68.7599 32.8145 63.6373 32.9525 59.8357C41.4855 58.4227 48.219 51.1232 51.9424 42.9676C58.1557 29.3443 54.8373 17.8151 45.6369 6.61274C45.416 6.09726 45.0616 5.67383 44.5737 5.37467C43.1838 4.01694 41.4395 4.46797 40.3809 5.67842C39.9943 6.0144 39.6538 6.42402 39.4328 6.98553C37.2467 12.5453 34.6693 17.5114 31.3003 22.2197C28.6861 16.4666 27.425 10.6537 27.425 3.9433C27.425 1.74792 25.3722 0.413206 23.3472 0.836633C12.3979 3.12866 7.92894 18.4779 6.88879 27.9222C5.4298 41.1359 10.9666 55.652 24.8614 59.4168C25.4183 59.5687 25.966 59.6654 26.5183 59.7667C26.3618 64.5532 25.0547 71.1025 27.1995 75.4565C29.3672 79.861 34.3931 82.9631 38.4157 85.6555C36.4642 88.753 34.8028 92.0622 33.5601 95.5877C32.3082 99.1454 31.4476 102.869 30.7848 106.657C28.0233 105.653 25.2618 104.655 22.5004 103.651C20.1393 102.795 16.7242 100.706 14.1238 101.198C9.56738 102.068 4.67037 108.406 1.50847 111.531C-1.44631 114.449 3.11015 119.005 6.06494 116.087C7.90133 114.274 9.76069 112.493 11.6937 110.78C12.6602 109.924 13.6406 109.087 14.6301 108.263C14.4092 107.398 14.7498 107.31 15.6426 107.996C17.6954 107.968 20.9033 109.906 22.8455 110.61C25.202 111.466 27.5631 112.322 29.9195 113.178C29.1969 121.292 29.6756 129.669 31.2358 137.976C29.3396 137.65 27.4388 137.327 25.5426 137.001C22.9514 136.554 19.4996 135.27 16.8577 135.864C12.2184 136.899 7.88752 145.06 5.10303 148.613C2.57627 151.844 7.10505 156.432 9.65942 153.169C11.7582 150.486 16.0707 142.952 19.0991 142.326C20.7376 141.99 24.2033 143.274 25.9108 143.568C28.189 143.96 30.4672 144.346 32.7454 144.737C34.5128 151.554 36.9475 158.227 40.0449 164.542C37.242 164.583 34.4391 164.625 31.6316 164.666C29.5099 164.698 26.7806 164.284 24.9305 165.559C22.9284 166.944 22.0217 170.069 20.9585 172.131C19.3706 175.206 17.6954 178.234 15.9741 181.235C13.9075 184.839 19.4719 188.088 21.5384 184.489C22.6891 182.487 23.8167 180.48 24.9121 178.446C25.874 176.656 26.7254 173.779 28.0877 172.297C30.6605 169.503 39.6031 170.995 43.2391 170.939C43.3081 170.939 43.3541 170.902 43.4231 170.898C47.0821 177.176 51.3992 182.947 56.2502 188.014C53.3599 188.581 50.4649 189.147 47.5746 189.713C45.1261 190.191 42.0286 190.233 40.4224 192.414C38.8023 194.61 38.7286 198.49 38.1763 201.09C37.2696 205.37 36.4964 209.674 35.806 213.991C35.1571 218.046 41.3659 219.794 42.0194 215.703C42.9721 209.738 43.5612 203.014 45.6185 197.316C45.7658 196.709 45.9131 196.101 46.0558 195.493C46.2491 195.811 46.447 196.124 46.6449 196.437C48.1177 196.156 49.5813 195.862 51.054 195.572C54.285 194.937 57.5159 194.306 60.7469 193.671C61.1611 193.593 61.474 193.422 61.7732 193.243C65.8648 196.759 70.2418 199.815 74.9225 202.213C115.355 222.915 161.684 223.136 199.336 196.552C200.828 195.498 202.241 194.361 203.631 193.201C203.944 193.409 204.303 193.583 204.758 193.675C207.695 194.251 210.635 194.826 213.572 195.401C214.856 195.655 216.747 196.478 217.976 196.267C219.827 195.944 219.035 194.918 219.882 197.316C221.907 203.028 222.528 209.738 223.481 215.703C224.135 219.785 230.343 218.055 229.694 213.991C229.055 209.982 228.341 205.982 227.513 202.006C226.933 199.226 226.79 194.826 225.078 192.41C223.665 190.417 221.019 190.311 218.805 189.878C215.634 189.257 212.463 188.636 209.287 188.014C214.235 182.915 218.377 177.097 221.843 170.838C221.985 170.856 222.1 170.925 222.257 170.93C225.893 170.985 234.835 169.494 237.408 172.288C238.77 173.765 239.622 176.646 240.584 178.437C241.675 180.471 242.807 182.478 243.957 184.48C246.019 188.074 251.593 184.834 249.522 181.226C247.8 178.225 246.125 175.197 244.537 172.122C243.497 170.115 242.549 166.871 240.565 165.55C238.692 164.307 235.995 164.689 233.864 164.657C230.919 164.615 227.973 164.569 225.027 164.528C227.89 158.278 230.118 151.683 231.742 144.908C234.361 144.461 236.975 144.01 239.594 143.564C241.306 143.269 244.767 141.985 246.406 142.321C249.434 142.942 253.747 150.481 255.845 153.165C258.4 156.428 262.929 151.839 260.402 148.608C257.659 145.106 253.25 136.83 248.647 135.859C246.3 135.362 243.267 136.43 241.003 136.817C238.388 137.263 235.774 137.709 233.16 138.16C234.642 129.908 235.291 121.532 235.153 113.33C237.657 112.424 240.16 111.512 242.664 110.606C244.606 109.901 247.814 107.964 249.867 107.991C250.764 107.306 251.1 107.393 250.879 108.258C251.874 109.082 252.849 109.92 253.816 110.776C255.749 112.483 257.608 114.269 259.445 116.082C262.404 118.996 266.96 114.444 264.006 111.521ZM218.69 38.3468C215.123 29.1234 216.872 21.3498 222.077 14.0273C224.825 19.9415 228.134 25.3954 232.424 30.5087C233.777 32.1196 236.515 31.5259 237.482 29.8552C241.343 23.2 243.465 16.3377 244.132 8.92777C249.802 13.4336 252.969 24.3184 253.213 29.7539C253.733 41.2325 245.674 56.2734 232.262 52.9228C225.175 51.1462 221.184 44.7948 218.69 38.3468ZM156.86 51.6939C156.308 49.609 158.204 46.378 160.059 45.3563C165.683 42.2588 169.333 50.5479 164.049 53.719C161.997 54.773 157.551 54.2805 156.86 51.6939ZM97.4469 52.619C96.8946 50.5341 98.7909 47.3032 100.646 46.2814C106.27 43.184 109.92 51.473 104.641 54.6441C102.583 55.6981 98.1327 55.2056 97.4469 52.619ZM13.4104 28.3594C14.0502 22.8732 16.0569 13.1022 21.2899 8.89095C21.9573 16.3193 24.079 23.1862 27.9451 29.8552C28.9162 31.5259 31.6547 32.1196 33.0032 30.5087C37.2697 25.423 40.5696 20.0013 43.3081 14.1286C47.5562 20.3189 49.9541 27.333 48.0118 34.9915C45.5265 44.7948 37.8036 55.5002 26.6196 52.8721C15.4402 50.2395 12.2276 38.471 13.4104 28.3594ZM155.033 209.172C128.343 214.037 102.192 209.039 78.1764 196.653C54.1607 184.268 44.0767 162.379 38.8713 136.803C33.6613 111.208 38.1211 79.4008 67.3928 71.1808C89.1533 65.0687 111.747 76.874 133.696 76.8004C150.928 75.797 166.084 69.6804 182.818 67.5724C198.002 65.6578 217.139 75.1527 224.54 89.1534C230.113 99.7069 230.472 119.484 228.198 131.05C225.188 146.376 219.362 168.735 208.817 180.531C195.512 195.415 174.267 205.665 155.033 209.172Z" fill="white"/>
<path d="M63.548 102.065C65.4488 98.3876 59.889 95.1244 57.9836 98.811C48.7188 116.738 52.7737 135.631 57.772 154.225C58.8443 158.224 65.0668 156.526 63.9852 152.513C59.4978 135.815 55.1623 118.289 63.548 102.065Z" fill="white"/>
<path d="M66.6509 86.6562C62.5041 86.6562 62.4995 93.0997 66.6509 93.0997C70.7977 93.0997 70.8023 86.6562 66.6509 86.6562Z" fill="white"/>
</svg>
