<svg width="190" height="122" viewBox="0 0 190 122" fill="none" xmlns="http://www.w3.org/2000/svg">
<path d="M141.806 206.674C145.272 202.715 154.039 199.687 158.462 196.226C180.439 179.031 189.474 146.745 190.008 119.751C190.035 118.444 189.382 117.597 188.512 117.114C188.042 116.792 187.499 116.543 186.786 116.53C183.615 116.47 180.444 116.451 177.273 116.405C174.631 92.8178 172.969 67.9368 160.768 47.0047C149.847 28.2635 129.053 3.98544 106.243 1.19634C46.3094 -6.13079 16.3841 66.7079 16.3703 114.946C16.3703 115.351 16.4762 115.683 16.5866 116.009C12.4582 116.134 8.32983 116.295 4.21062 116.53C3.81941 116.553 3.49724 116.677 3.17967 116.801C3.08762 116.829 2.99562 116.838 2.90817 116.875C2.87135 116.893 2.83445 116.916 2.79763 116.935C1.76207 117.363 0.96136 118.283 0.988974 119.751C1.52286 146.731 10.5805 179.211 32.6494 196.323C36.5016 199.31 48.5233 203.797 50.8797 207.451C54.0048 212.298 47.6948 219.022 45.2233 222.143C43.1568 224.752 40.3492 226.842 38.209 229.437C29.1422 240.433 25.7088 253.168 25.8055 267.201C25.8193 268.913 26.9331 269.879 28.2264 270.178C28.4841 270.27 28.7234 270.395 29.0271 270.422C49.3838 272.461 70.2285 272.024 90.6543 271.315C114.431 270.491 138.188 271.481 161.96 270.422C162.618 270.395 163.134 270.169 163.58 269.875C164.487 269.401 165.182 268.54 165.182 267.201C165.159 253.494 161.537 240.41 152.939 229.488C148.245 223.519 134.157 215.409 141.806 206.674ZM179.33 145.226C151.646 148.149 124.689 143.408 97.2495 144.766C68.5163 146.188 39.6772 145.493 10.9118 145.447C9.0662 138.055 7.95243 130.493 7.58424 122.817C36.5246 121.404 65.7502 122.821 94.7136 122.692C124.284 122.559 153.846 122.43 183.412 122.922C183.03 130.655 181.838 138.042 179.974 145.291C179.758 145.272 179.579 145.203 179.33 145.226ZM22.8138 114.942C22.823 90.9951 26.9055 67.8079 39.9535 47.3223C54.9852 23.7254 83.2765 -1.54215 113.473 9.7431C131.529 16.4903 149.363 38.1956 157.74 54.9578C167.152 73.7911 168.528 95.7127 170.82 116.318C145.451 116.042 120.082 116.138 94.7089 116.253C70.7577 116.364 46.6224 115.416 22.6205 115.876C22.7125 115.577 22.8138 115.296 22.8138 114.942ZM32.3041 264.209C32.5895 255.096 34.5317 246.563 39.4472 238.619C44.2797 230.809 51.4641 227.145 57.3921 220.665C62.2569 215.345 63.2052 210.291 57.986 204.635C53.6412 199.926 45.6836 197.717 40.3677 194.067C31.0799 187.698 24.3741 179.961 19.6152 169.762C16.8951 163.935 14.5801 157.97 12.7115 151.895C40.8832 151.964 69.1146 152.594 97.2495 151.205C124.289 149.865 150.877 154.417 178.129 151.752C176.665 156.438 174.962 161.1 173.015 165.79C168.694 176.182 163.097 184.444 154.145 191.38C148.19 195.996 139.413 198.642 134.102 203.687C129.619 207.944 128.919 214.033 132.228 219.243C135.938 225.093 143.808 228.342 148.153 234.072C154.983 243.084 158.131 253.007 158.642 264.057C135.979 264.895 113.331 264.076 90.6634 264.863C71.3284 265.539 51.6161 265.894 32.3041 264.209Z" fill="white"/>
<path d="M45.2474 89.1979C49.0905 70.3278 57.6557 53.5794 70.8418 39.5326C73.6769 36.5134 69.1296 31.9477 66.2852 34.9762C52.3812 49.7869 43.0889 67.5662 39.0341 87.4857C38.2102 91.5313 44.419 93.2665 45.2474 89.1979Z" fill="white"/>
<path d="M75.6548 32.7287C79.8016 32.7287 79.8062 26.2852 75.6548 26.2852C71.508 26.2852 71.5034 32.7287 75.6548 32.7287Z" fill="white"/>
</svg>
