<svg width="269" height="203" viewBox="0 0 269 203" fill="none" xmlns="http://www.w3.org/2000/svg">
<path d="M267.572 44.5503C267.526 44.0486 267.384 43.616 267.181 43.234C264.843 27.0057 251.339 14.6665 236.547 8.64185C210.129 -2.11872 178.469 -0.494055 150.812 3.1557C123.216 6.79626 94.6991 12.402 68.7181 22.6425C30.0206 37.8905 -7.21804 75.4282 1.59109 118.093C1.54967 118.328 1.46684 118.535 1.48525 118.806C3.04549 148.359 8.32916 181.138 38.8159 194.181C72.0688 208.407 104.636 202.318 136.628 187.715C151.963 180.714 167.989 171.454 179.978 159.433C194.089 145.28 203.106 126.852 217.815 113.063C228.474 103.071 239.327 99.6096 251.961 93.2076C255.776 91.2745 258.796 89.7419 261.649 86.4834C271.544 75.1935 268.81 58.192 267.572 44.5503ZM29.2289 54.6895C47.8781 35.3914 74.6645 26.0069 100.061 19.5634C128.822 12.2685 158.747 6.68114 188.507 7.15519C203.11 7.38532 218.685 8.65102 232.46 13.884C245.499 18.8363 259.421 30.6739 261.157 44.8955C261.732 49.636 260.954 54.6435 258.34 59.743C248.942 78.0793 222.137 82.516 206.594 94.2569C187.476 108.699 174.285 129.245 156.722 145.344C113.118 185.312 38.3556 197.118 12.973 131.781C12.9224 131.647 12.8211 131.569 12.7613 131.445C12.7107 131.298 12.7199 131.16 12.6508 131.008C0.0400558 104.797 9.81572 74.7839 29.2289 54.6895ZM246.723 88.444C234.628 94.8552 223.389 98.8042 213.254 108.506C203.511 117.835 195.645 128.725 187.655 139.522C176.646 154.397 164.261 164.946 148.405 174.368C122.268 189.896 88.5317 201.435 58.2705 193.877C38.6318 188.971 24.2721 180.645 15.8634 161.646C12.6739 154.443 10.9065 147.664 9.82491 140.76C17.5801 157.771 28.6812 171.873 46.861 179.306C67.9541 187.931 92.1769 187.066 113.463 179.596C164.473 161.692 186.813 109.118 234.071 86.0829C244.321 81.0847 255.353 75.0647 261.852 65.9748C260.885 75.0693 257.18 82.898 246.723 88.444Z" fill="white"/>
<path d="M20.2958 113.914C20.305 114.075 20.2589 114.213 20.2911 114.384C27.9865 154.14 65.4091 165.977 102.146 159.041C122.484 155.203 138.731 141.81 152.759 127.294C171.183 108.23 188.613 89.963 210.866 75.1523C221.668 67.9632 238.002 61.3587 238.075 45.6044C238.112 37.8355 230.293 28.2623 223.711 24.8611C210.902 18.2381 192.382 18.9745 178.368 19.4716C157.403 20.2172 137.746 24.4883 117.431 29.5464C74.6831 40.1919 14.6025 57.129 20.1715 113.528C20.1899 113.675 20.2635 113.776 20.2958 113.914ZM134.244 32.1192C153.22 27.6456 225.308 12.5725 230.067 44.2145C232.115 57.8194 218.579 62.6151 209.199 68.5983C201.467 73.5275 194.232 79.3635 186.896 84.8588C170.778 96.9357 158.508 112.685 144.277 126.755C126.663 144.166 107.89 153.804 82.8295 154.692C54.3862 155.695 32.1425 140.853 26.5919 113.035C21.2392 54.6391 91.6524 42.1617 134.244 32.1192Z" fill="white"/>
<path d="M75.772 113.758C87.5497 115.185 101.712 109.468 107.304 98.5008C109.876 93.4519 109.665 86.8566 106.116 82.2863C102.913 78.1625 98.0434 77.6516 93.1693 76.8784C93.0221 76.8554 92.9024 76.9015 92.7597 76.8922C92.6032 76.8554 92.4836 76.7772 92.3133 76.7587C80.9636 75.7508 62.342 81.191 58.1676 93.1804C54.1404 104.765 65.5822 112.525 75.772 113.758ZM72.38 87.7402C78.0364 84.3022 85.8238 82.6315 92.3133 83.2114C92.3363 83.216 92.3547 83.2022 92.3777 83.2022C94.2878 83.414 96.6995 83.5198 98.2827 84.3529C106.245 88.5503 101.122 97.2444 96.856 101.198C92.0142 105.681 84.7469 107.816 78.2666 107.54C66.4613 107.034 57.5186 96.7703 72.38 87.7402Z" fill="white"/>
<path d="M158.201 45.5646C162.348 45.5646 162.353 39.1211 158.201 39.1211C154.055 39.1211 154.045 45.5646 158.201 45.5646Z" fill="white"/>
<path d="M169.414 41.0964C180.717 37.9713 192.564 35.3709 203.122 42.0583C206.634 44.2859 209.869 38.7123 206.376 36.4939C194.359 28.8768 180.68 31.2931 167.702 34.8831C163.711 35.9877 165.405 42.2056 169.414 41.0964Z" fill="white"/>
</svg>
