<svg width="267" height="225" viewBox="0 0 267 225" fill="none" xmlns="http://www.w3.org/2000/svg">
<path d="M252.025 120.639C255.453 117.606 257.911 113.56 258.703 108.033C263.802 72.5245 233.003 37.3571 204.297 21.5154C169.139 2.11134 132.144 -4.97645 92.5399 4.29753C68.3815 9.95396 51.2833 23.8028 35.819 42.7097C23.3187 57.9945 9.10164 78.25 8.89453 98.9473C8.8301 105.377 10.2799 118.232 14.8318 122.742C15.2322 123.138 15.766 123.442 16.2355 123.791C7.84057 129.218 -2.87865 139.661 2.35896 148.999C4.75685 153.279 10.3765 154.154 14.6844 153.887C16.4748 153.777 18.3894 152.957 20.2764 152.198C19.6367 159.769 19.853 169.604 24.3911 176.002C17.9568 177.088 11.679 179.541 9.39161 185.552C6.4 193.408 8.73799 211.597 15.9086 217.134C19.5814 219.969 24.4601 219.624 28.814 220.162C39.2018 221.456 49.3548 222.869 59.8484 223.154C83.7674 223.803 107.696 224.47 131.619 224.549C155.741 224.627 179.858 224.139 203.952 223.08C217.907 222.468 237.987 223.242 250.308 214.791C258.924 208.882 260.157 195.834 257.465 186.376C254.818 177.088 248.352 174.027 240.597 172.904C247.15 167.133 249.737 159.028 246.778 149.966C247.749 150.5 248.761 150.969 250.036 151.015C254.837 151.19 260.723 147.37 263.595 143.771C271.539 133.825 261.004 125.522 252.025 120.639ZM19.2271 82.5947C28.1328 57.2811 49.6493 29.7124 73.8951 17.6079C95.7753 6.6862 126.207 3.83267 150.213 7.69875C184.331 13.1941 221.906 33.6061 240.146 63.5866C246.64 74.2597 251.449 87.4365 252.167 99.9967C253.341 120.62 232.008 122.696 215.932 123.787C189.505 125.577 163.156 125.352 136.696 124.965C112.234 124.744 87.7579 124.73 63.2957 124.288C51.2879 124.072 26.2827 126.502 18.3802 115.673C12.2129 107.209 16.2585 91.0218 19.2271 82.5947ZM251.247 188.092C253.497 194.195 252.199 204.905 247.049 209.232C240.063 215.104 225.073 215.468 216.507 216.043C188.303 217.944 159.874 218.206 131.615 218.11C105.528 218.022 79.2248 217.944 53.1703 216.476C42.0875 215.85 20.7551 216.913 16.4886 204.988C11.4949 191.024 19.1535 182.74 32.45 181.667C37.4299 183.094 43.169 182.629 48.2824 182.809C80.426 183.946 112.795 186.155 144.939 184.061C161.48 182.984 177.883 181.47 194.48 181.382C206.939 181.313 219.029 183.177 230.816 178.644C238.981 178.777 247.602 178.202 251.247 188.092ZM191.576 174.971C171.274 175.206 151.143 177.705 130.869 178.248C111.852 178.759 92.8252 177.958 73.8262 177.272C64.4786 176.936 55.1355 176.605 45.7879 176.278C29.6424 175.707 25.514 165.425 26.8211 151.079C32.6018 152.023 32.1508 156.566 35.5704 160.68C45.4151 172.522 60.6171 163.764 69.8404 156.52C76.2931 151.452 79.9612 148.336 88.2457 152.382C91.2879 153.869 93.5431 156.492 96.8108 157.702C104.087 160.399 108.681 157.155 115.552 155.226C132.775 150.394 132.255 153.5 145.086 159.778C148.326 161.366 151.7 162.669 155.248 163.373C164.025 165.112 172.066 163.552 179.761 159.286C189.482 153.896 191.746 148.53 205.83 153.118C208.412 153.961 210.589 155.963 213.226 156.773C219.177 158.595 223.549 157.91 228.414 154.135C232.354 151.079 234.411 148.226 238.862 147.885C255.182 177.433 206.603 174.801 191.576 174.971ZM245.885 142.533C241.899 141.64 239.575 138.427 235.041 139.5C231.755 140.277 230.098 143.812 227.572 145.667C222.721 149.229 219.384 151.236 212.425 149.335C209.82 148.622 207.445 146.463 204.817 145.603C193.067 141.736 186.43 148.244 176.507 153.726C163.915 160.68 152.551 156.101 141.059 149.772C135.996 146.983 131.431 144.719 125.512 145.184C117.991 145.773 112.349 149.666 104.566 150.085C94.3209 150.638 94.2059 146.164 85.6683 143.812C77.2044 141.483 71.6124 147.232 65.2794 151.968C58.3343 157.164 58.0167 157.817 48.3285 156.023C35.8143 153.703 41.6319 154.412 36.0583 147.89C34.5119 146.077 32.4224 144.406 30.1074 143.867C25.6476 142.832 22.0391 146.528 17.8141 146.652C-0.876564 147.209 15.6418 131.257 23.3049 127.156C30.9634 129.434 40.7022 129.664 46.8603 130.124C76.6152 132.334 106.876 131.132 136.705 131.404C164.016 131.804 191.277 132.071 218.546 130.037C227.171 129.393 237.665 128.504 245.807 124.67C248.863 126.148 257.699 130.47 258.684 133.816C260.958 141.525 250.911 143.656 245.885 142.533Z" fill="white"/>
<path d="M51.6001 115.753C55.7331 115.579 55.7515 109.135 51.6001 109.31C44.4018 109.609 31.0178 110.783 32.2559 100.239C33.1027 93.0402 38.2621 85.7729 43.0717 80.701C45.9252 77.6956 41.378 73.13 38.5153 76.1446C32.0028 83.0069 22.9819 96.2573 25.2141 106.461C27.4187 116.536 44.0842 116.066 51.6001 115.753Z" fill="white"/>
<path d="M66.6236 115.811C70.7704 115.811 70.775 109.367 66.6236 109.367C62.4767 109.367 62.4721 115.811 66.6236 115.811Z" fill="white"/>
<path d="M80.6035 32.8291C82.5182 32.8476 83.6136 31.3288 83.8253 29.6074C83.968 28.4292 84.1107 27.2556 84.2579 26.0773C84.4697 24.3376 82.6241 22.874 81.0363 22.8556C79.1217 22.8372 78.0262 24.356 77.8145 26.0773C77.6718 27.2556 77.5292 28.4292 77.3819 29.6074C77.1702 31.3472 79.0157 32.8107 80.6035 32.8291Z" fill="white"/>
<path d="M115.715 26.3368C116.696 25.5314 117.791 24.9376 118.932 24.4038C122.688 22.6594 119.42 17.1042 115.678 18.8394C114.003 19.6172 112.581 20.6067 111.154 21.7803C107.956 24.4175 112.535 28.9556 115.715 26.3368Z" fill="white"/>
<path d="M150.291 25.1517C154.019 26.9237 157.292 21.3684 153.545 19.5873C151.778 18.7496 150.13 17.7878 148.528 16.6602C145.132 14.2715 141.905 19.8543 145.274 22.2246C146.876 23.3476 148.528 24.3141 150.291 25.1517Z" fill="white"/>
<path d="M173.429 33.1718C174.229 32.3848 174.989 32.0212 176.07 31.7726C180.111 30.8429 178.399 24.6297 174.358 25.5594C172.237 26.0472 170.419 27.0966 168.872 28.6154C165.913 31.5288 170.469 36.0852 173.429 33.1718Z" fill="white"/>
<path d="M132.838 51.2775C135.447 54.4992 139.981 49.9152 137.394 46.7211C136.81 45.9985 136.193 45.3449 135.502 44.7236C132.437 41.9437 127.867 46.4863 130.946 49.28C131.636 49.906 132.253 50.5549 132.838 51.2775Z" fill="white"/>
<path d="M94.9538 50.3317C95.8329 49.3652 96.7027 48.6933 97.8579 48.0903C101.535 46.1665 98.2813 40.6067 94.6039 42.526C93.0069 43.359 91.6077 44.4406 90.3973 45.7753C87.6128 48.8406 92.1601 53.4108 94.9538 50.3317Z" fill="white"/>
<path d="M162.414 52.0432C166.096 53.9349 169.359 48.3751 165.668 46.4789C164.324 45.7885 163.33 44.9877 162.515 43.7036C160.297 40.2149 154.719 43.4412 156.951 46.9575C158.327 49.1299 160.117 50.865 162.414 52.0432Z" fill="white"/>
<path d="M62.7305 49.0188C62.8731 48.2409 63.0204 47.6104 63.7062 47.1364C67.0844 44.7845 63.8673 39.1971 60.4523 41.572C58.4134 42.9895 56.9727 44.8213 56.5171 47.3067C55.7715 51.3614 61.9803 53.0965 62.7305 49.0188Z" fill="white"/>
<path d="M191.045 45.1643C194.212 47.8016 198.791 43.2681 195.602 40.6079C194.644 39.8117 193.687 39.0108 192.725 38.2146C189.559 35.5774 184.979 40.1108 188.169 42.771C189.131 43.5673 190.088 44.3681 191.045 45.1643Z" fill="white"/>
</svg>
