<svg width="270" height="60" viewBox="0 0 270 60" fill="none" xmlns="http://www.w3.org/2000/svg">
<path d="M269.838 43.4976C270.307 33.3905 263.404 24.9681 253.973 22.5656C248.133 21.079 241.818 20.7016 235.384 20.8765C235.697 20.2735 235.876 19.5832 235.725 18.7639C232.747 2.77496 216.155 3.26742 202.95 4.51009C177.775 6.87576 153.359 9.91798 127.967 8.35774C105.866 7.00002 31.9916 -14.8203 28.0105 23.6978C24.508 24.0384 21.1068 24.6551 17.9771 25.8057C9.46713 28.9262 0.966383 40.0181 0.690235 49.4302C0.28982 63.0213 13.9592 70.5417 25.4975 72.6497C24.034 76.4559 23.4403 80.8098 23.9834 85.7391C28.8205 129.642 99.2061 130.36 131.474 130.88C164.57 130.452 237.869 129.067 244.929 84.6206C245.91 78.4487 245.063 73.2388 242.914 68.9171C253.278 64.4757 269.254 56.1221 269.838 43.4976ZM97.5538 11.5427C110.625 13.4113 123.719 14.7782 136.923 15.2108C151.863 15.6987 166.816 15.1602 181.678 13.5816C193.069 12.3757 226.202 2.71513 229.511 20.4807C229.562 20.7614 229.695 20.9456 229.792 21.1711C220.601 21.82 211.354 23.2652 203.029 24.0246C175.75 26.5145 148.558 28.1714 121.151 27.6697C98.6952 27.2555 76.3364 25.6033 53.9224 24.3652C47.9253 24.0338 41.1551 23.3572 34.4907 23.3894C37.892 -0.313278 84.0502 9.60962 97.5538 11.5427ZM238.283 84.0315C230.436 123.599 162.361 124.032 131.469 124.437C103.307 123.986 42.9593 123.875 31.7201 91.1839C15.5654 44.1973 115.789 62.156 138.594 63.1777C152.539 63.8037 166.572 63.7577 180.43 61.9489C197.883 59.6753 244.759 51.3816 238.283 84.0315ZM258.714 51.4047C254.687 56.3846 246.186 60.6097 240.382 63.0536C239.977 63.2239 239.664 63.4678 239.383 63.7301C233.52 57.2361 223.993 53.6783 213.867 52.7348C200.493 51.4875 187.578 54.9348 174.369 56.2465C162.527 57.4201 150.468 57.2682 138.594 56.7343C111.697 55.5285 82.7706 49.9043 55.9567 53.0662C44.9706 54.3594 34.6472 58.879 28.7791 66.7493C28.664 66.7262 28.5858 66.6618 28.4615 66.6526C7.09686 64.402 -0.336101 38.0022 22.3955 31.3195C29.9435 29.1011 39.4154 30.1504 47.1522 30.468C74.7992 31.6048 102.322 34.0395 130.015 34.2374C161.192 34.4584 191.955 31.0571 222.985 28.7145C232.139 28.0241 244.391 25.93 253.292 29.0551C262.511 32.2814 264.49 44.2571 258.714 51.4047Z" fill="white"/>
<path d="M224.824 35.5647C220.014 35.8823 215.776 39.9555 211.067 40.6412C202.06 41.9483 196.984 35.33 188.842 34.3543C181.193 33.4384 174.777 38.3447 168.039 41.4468C158.788 45.704 157.499 42.1785 149.307 38.943C146.099 37.6727 144.815 37.1664 141.648 37.507C137.856 37.9166 133.667 40.655 130.229 42.1693C121.301 46.0998 117.807 44.8939 109.408 40.5262C102.684 37.0329 100.64 35.1413 93.3038 37.5576C86.865 39.6747 81.4478 44.0977 74.2864 42.5835C68.5195 41.3638 63.7422 35.5648 58.0627 34.5384C50.0452 33.0886 42.7365 40.7195 36.3805 44.4751C32.8136 46.5831 36.0491 52.1566 39.6344 50.0394C43.3762 47.8303 47.3389 43.8675 51.4213 42.4822C58.3434 40.1303 62.9505 44.7145 68.8693 47.2413C76.6797 50.5781 80.6286 49.7587 88.5494 46.5692C100.198 41.8793 101.225 44.2818 112.155 49.073C118.396 51.8114 121.512 52.4972 127.878 50.265C131.868 48.8659 136.673 44.7927 140.811 44.535C146.513 44.176 150.835 50.6517 155.962 51.3283C162.028 52.1291 167.624 48.7463 172.931 46.2057C178.067 43.748 183.19 39.9417 189.086 40.8484C194.268 41.6446 198.636 46.2978 203.878 47.3793C210.805 48.8015 229.21 37.5023 232.492 47.0248C233.836 50.9231 240.058 49.2479 238.705 45.3128C236.408 38.6438 232.008 35.0907 224.824 35.5647Z" fill="white"/>
</svg>
