<svg width="177" height="271" viewBox="0 0 177 271" fill="none" xmlns="http://www.w3.org/2000/svg">
<path d="M176.545 58.6222C158.789 31.4308 132.15 9.33431 100.204 2.17287C94.5152 -0.257233 88.9186 -0.551778 83.5015 0.80595C83.299 0.80595 83.1241 0.750716 82.9078 0.782933C45.5265 6.72932 19.7342 23.2798 1.10804 56.413C0.403863 57.6649 0.592605 59.2895 1.60975 60.3159C8.30174 67.0723 15.5829 71.9325 24.1113 75.7249C16.5954 93.2097 10.8468 111.647 8.04854 130.384C6.13392 143.202 0.684633 166.973 12.2598 177.035C14.064 178.604 16.1812 179.925 18.4916 181.085C15.4494 186.658 13.2079 192.71 13.0331 199.117C12.6879 211.599 19.8447 223.257 16.2318 235.891C13.7787 244.465 5.13063 253.288 13.6498 261.499C23.7798 271.265 36.1513 259.133 40.2245 249.777C49.3374 228.84 29.7216 209.045 43.1286 187.956C43.2437 187.777 43.2575 187.606 43.3311 187.427C49.0842 188.099 54.7959 188.462 59.9506 188.775C56.2733 195.311 54.2897 201.713 54.8052 209.556C55.4403 219.258 60.4891 227.892 59.8263 237.621C59.2648 245.869 53.3139 264.168 63.9456 269.024C73.9008 273.571 79.9576 257.771 81.6191 250.84C86.8889 228.817 71.3326 210.913 86.9948 190.257C87.004 190.244 87.004 190.234 87.0132 190.221C91.0311 190.34 95.0582 190.382 99.0854 190.386C96.2273 198.951 94.5612 207.374 96.0156 216.565C97.898 228.472 104.783 235.891 103.186 248.81C102.229 256.551 98.2201 268.946 109.662 270.635C118.738 271.974 124.781 261.642 127.253 254.407C134.971 231.804 112.092 212.487 122.958 190.727C123.133 190.377 123.184 190.046 123.235 189.71C128.168 189.42 133.093 189.093 137.953 188.605C138.045 188.596 138.151 188.587 138.248 188.577C136.121 196.185 134.11 204.097 136.361 211.907C139.753 223.68 150.509 229.024 148.746 242.707C147.591 251.714 144.747 265.278 159.332 263.874C169.052 262.94 174.317 250.738 174.865 242.077C175.362 234.285 172.016 226.704 167.791 220.404C159.967 208.727 157.15 197.976 162.254 184.385C162.287 184.302 162.268 184.237 162.291 184.159C167.188 182.185 171.234 179.225 173.042 174.632C177.76 162.656 172.849 141.977 170.925 129.73C168.017 111.224 161.233 93.1177 153.924 75.6605C161.96 72.2271 169.08 68.0342 176.034 62.5158C177.097 61.6874 177.254 59.7129 176.545 58.6222ZM10.9113 52.4365C14.7314 43.8437 22.8547 35.6236 29.6756 29.2676C39.8102 19.8233 52.5131 14.4155 65.7728 10.9084C49.3512 25.2727 36.1144 50.2871 29.4362 64.0163C28.4743 65.9907 27.5585 67.9928 26.6426 69.9949C18.22 66.6443 6.70467 61.8991 10.9113 52.4365ZM31.4522 210.803C32.0367 216.455 33.6429 221.964 34.7567 227.51C35.8107 232.757 37.0349 238.215 35.6496 243.545C32.2484 256.643 15.3573 261.297 17.7782 247.678C19.182 239.789 24.4012 235.463 23.9686 226.847C23.1493 210.609 16.8807 198.592 24.5576 183.584C28.304 184.836 32.3635 185.761 36.5287 186.46C32.0275 194.202 30.4949 201.579 31.4522 210.803ZM74.9363 255.447C72.2991 262.341 66.8221 264.491 64.5301 257.09C63.9363 255.171 64.6038 251.378 64.7556 249.422C65.1376 244.557 66.5552 239.61 66.5046 234.708C66.3343 217.665 56.4942 206.265 67.1581 189.259C67.1581 189.259 67.1627 189.245 67.1673 189.236C67.1903 189.236 67.2133 189.24 67.2317 189.24C71.2451 189.535 75.3137 189.705 79.3731 189.898C74.2091 197.612 71.9539 205.174 72.2116 214.913C72.5476 227.524 80.1647 241.791 74.9363 255.447ZM115.544 217.647C119.203 228.872 129.416 252.216 116.57 261.959C112.879 264.758 108.705 263.722 107.628 259.432C107.117 257.398 109.05 252.51 109.39 250.527C110.196 245.841 110.983 242.293 109.984 237.511C108.755 231.647 105.262 226.649 103.545 220.951C100.374 210.43 102.422 200.355 105.915 190.345C109.367 190.294 112.81 190.188 116.248 190.046C112.41 199.117 112.354 207.853 115.544 217.647ZM155.351 212.883C160.238 225.917 172.329 233.723 166.084 249.915C163.792 255.856 153.832 266.005 153.266 251.682C153.197 249.974 155.107 245.211 155.189 243.545C155.433 238.708 156.156 235.596 154.485 230.787C152.681 225.591 148.935 221.78 146.118 217.168C140.112 207.328 141.999 199.03 144.977 188.426C145.027 188.242 144.99 188.09 145.013 187.919C148.152 187.574 151.521 187.114 154.817 186.4C152.377 194.975 152.216 204.516 155.351 212.883ZM166.309 147.16C166.907 153.548 170.286 165.883 167.276 171.7C159.479 186.783 120.496 183.28 106.749 183.579C84.6935 184.058 62.3439 183.552 40.6018 179.474C26.394 176.809 14.5473 175.815 12.5269 158.298C11.1369 146.272 13.8938 131.843 16.4113 120.217C21.092 98.6038 29.243 77.2207 39.8655 57.8397C48.3847 42.3018 69.3673 6.82598 90.7458 6.84439C90.8885 6.88581 90.9852 6.96865 91.1462 6.99166C93.3876 7.32304 95.5968 7.74186 97.7922 8.21591C98.883 8.64854 99.9737 9.16863 101.055 9.82679C133.047 36.5257 150.863 76.7237 161.513 116.369C164.238 126.522 165.329 136.712 166.309 147.16ZM151.489 69.8706C150.435 67.4083 149.381 64.9551 148.332 62.5204C140.319 43.9219 128.988 27.4957 114.674 13.5226C124.546 17.5543 133.807 23.0405 142.27 29.8337C148.074 34.4914 153.478 39.66 158.421 45.2198C160.229 47.2541 168.877 54.6732 168.389 57.9088C167.547 63.4916 156.8 67.8317 151.489 69.8706Z" fill="white"/>
<path d="M57.3745 52.4559C47.1801 67.7913 41.137 84.6318 38.937 102.894C38.4445 107.004 44.8881 106.968 45.3806 102.894C47.4379 85.8008 53.4165 70.0281 62.939 55.7053C65.2402 52.2488 59.662 49.0179 57.3745 52.4559Z" fill="white"/>
<path d="M67.9283 37C63.7814 37 63.7768 43.4435 67.9283 43.4435C72.0751 43.4435 72.0797 37 67.9283 37Z" fill="white"/>
</svg>
