<svg width="40" height="40" viewBox="0 0 40 40" fill="none" xmlns="http://www.w3.org/2000/svg">
<g clip-path="url(#clip0_5803_1365)">
<path d="M37.9173 27.7708V26.2921C37.9173 26.2034 37.9108 26.115 37.9017 26.0276C38.0473 25.9401 38.1824 25.8435 38.3051 25.7371C38.8486 25.2662 39.1355 24.6445 39.1349 23.9394C39.1346 23.3361 38.913 22.761 38.53 22.3167C38.8306 21.9589 39.0015 21.5033 38.9927 21.0288C38.9771 20.1858 38.4226 19.4672 37.6652 19.2024C37.8223 18.874 37.9102 18.5065 37.9102 18.1187V17.6879C39.0327 17.6096 39.922 16.6703 39.922 15.5264C39.922 15.361 39.8872 11.4318 36.8619 7.70105C35.3245 5.80496 33.2893 4.3033 30.8121 3.23768C27.8159 1.94885 24.152 1.2945 19.9216 1.29297C14.5935 1.2948 10.1938 2.32709 6.8445 4.36048C6.56709 4.52896 6.47859 4.89039 6.64644 5.16803C6.81459 5.44567 7.17531 5.53465 7.45241 5.36617C10.6162 3.44561 14.8114 2.47081 19.9216 2.46897C23.9917 2.4705 27.4998 3.09244 30.3492 4.31829C32.6499 5.30807 34.5347 6.69567 35.951 8.44255C38.7165 11.8528 38.7482 15.3781 38.7482 15.5264C38.7482 16.0731 38.3045 16.5177 37.7589 16.5177H2.08497C1.53931 16.5177 1.09558 16.0731 1.09558 15.5264C1.09558 15.3787 1.11481 14.0293 1.78589 12.1748C2.51984 10.1457 3.714 8.38109 5.33448 6.9302C5.57618 6.71371 5.59724 6.34189 5.38118 6.10003C5.16511 5.85785 4.79432 5.83706 4.55262 6.05324C-0.0253295 10.1524 -0.078125 15.309 -0.078125 15.5264C-0.078125 16.6703 0.811159 17.6096 1.93329 17.6879V18.1187C1.93329 18.5098 2.02301 18.8804 2.18262 19.211C1.89545 19.3137 1.63086 19.4807 1.41419 19.7017C1.04126 20.0824 0.841371 20.5805 0.851137 21.1037C0.859377 21.5572 1.02143 21.9813 1.29792 22.3176C0.915224 22.7619 0.693971 23.3371 0.693666 23.9394C0.693056 24.6445 0.979922 25.2662 1.52344 25.7371C1.65375 25.8499 1.7984 25.9517 1.95404 26.0432C1.9458 26.1257 1.94031 26.2086 1.94031 26.2921V27.7695C0.814821 27.8448 -0.078125 28.7853 -0.078125 29.9317C-0.078125 34.7834 3.8614 38.7303 8.70333 38.7303H31.1405C35.9824 38.7303 39.922 34.7834 39.922 29.9317C39.922 28.7902 39.0363 27.8524 37.9173 27.7708ZM37.5376 24.8476C36.9981 25.3151 36.009 25.5096 34.9558 25.3552C34.2103 25.2457 33.8178 25.0378 33.4025 24.8173C33.307 24.7669 33.2105 24.7155 33.1098 24.6656L34.4428 23.3062C34.6091 23.1365 34.8408 23.0392 35.0785 23.0392H36.9877C37.1702 23.0392 37.3496 23.0145 37.5242 22.9652C37.7982 23.2092 37.9612 23.5646 37.9615 23.9404C37.9615 24.2984 37.819 24.6039 37.5376 24.8476ZM3.107 17.694H36.7368V18.1187C36.7368 18.5753 36.5076 18.9789 36.1588 19.2211C36.1491 19.2281 36.139 19.2345 36.1289 19.2409C36.1039 19.2574 36.0783 19.273 36.0523 19.2877C36.0432 19.2929 36.0343 19.2981 36.0255 19.303C35.9922 19.3207 35.9583 19.3372 35.9235 19.3522C35.9214 19.3531 35.9196 19.3541 35.9177 19.355C35.879 19.3712 35.8393 19.3859 35.7987 19.3984C35.7941 19.3999 35.7896 19.4012 35.785 19.4024C35.7511 19.4128 35.7166 19.4216 35.6815 19.429C35.6705 19.4314 35.6599 19.4336 35.6489 19.4357C35.6187 19.4412 35.5881 19.4461 35.5573 19.4498C35.5457 19.451 35.5344 19.4525 35.5228 19.4537C35.4816 19.4577 35.4401 19.4602 35.398 19.4602H4.4455C3.70759 19.4602 3.107 18.8584 3.107 18.119V17.694ZM2.2519 20.5255C2.4115 20.3628 2.63154 20.2692 2.85615 20.2692H3.14118C3.52174 20.5016 3.96821 20.6359 4.44581 20.6359H35.398C35.4502 20.6359 35.5018 20.6337 35.5531 20.6307C35.5695 20.6297 35.5857 20.6282 35.6019 20.627C35.6379 20.6239 35.6739 20.6203 35.7096 20.6157C35.727 20.6135 35.7447 20.6117 35.7621 20.6093C35.8079 20.6025 35.8533 20.5949 35.8982 20.5857C35.9171 20.5817 35.9357 20.5772 35.9547 20.5729C35.9855 20.5658 36.0163 20.5585 36.0468 20.5502C36.07 20.5441 36.0932 20.5374 36.1161 20.5307C36.1408 20.5233 36.1652 20.5151 36.1896 20.5071C36.2131 20.4995 36.2363 20.4918 36.2595 20.4836C36.2995 20.4686 36.3392 20.453 36.3782 20.4365C36.4017 20.4264 36.4249 20.4154 36.4481 20.4047C36.4701 20.3946 36.4918 20.3842 36.5131 20.3735C36.536 20.3619 36.5589 20.3506 36.5815 20.3383C36.6071 20.3246 36.6325 20.3099 36.6578 20.2952C36.673 20.2864 36.6886 20.2784 36.7039 20.2692H37.024C37.4546 20.2692 37.8114 20.62 37.8193 21.0508C37.8251 21.3511 37.642 21.6364 37.3533 21.777H37.353C37.2355 21.8342 37.1125 21.8635 36.9877 21.8635H35.0782C34.528 21.8635 33.9912 22.0889 33.6054 22.4824L31.2266 24.9084C30.6595 25.487 29.7605 25.5652 29.1041 25.1203C29.0897 25.1105 29.0757 25.1008 29.0616 25.0907C29.025 25.0644 28.9887 25.0369 28.9536 25.0069C28.9536 25.0066 28.9533 25.0063 28.953 25.0063L25.8719 22.361C25.4981 22.0403 25.0211 21.8635 24.5289 21.8635H2.81983C2.69898 21.8635 2.58179 21.8357 2.47101 21.7813H2.47071C2.20093 21.6486 2.03003 21.3804 2.02454 21.0817C2.02057 20.8768 2.10144 20.6793 2.2519 20.5255ZM1.86737 23.94C1.86737 23.5667 2.02881 23.2132 2.30042 22.9692C2.46888 23.0157 2.64252 23.0392 2.81983 23.0392H24.5289C24.7416 23.0392 24.9473 23.1157 25.1087 23.2539L27.5452 25.346C27.4964 25.3478 27.4454 25.3487 27.3926 25.3487C26.6202 25.3487 26.269 25.1381 25.8246 24.8714C25.3211 24.5693 24.7504 24.2269 23.6533 24.2269C22.5565 24.2269 21.9858 24.5693 21.4823 24.8714C21.0379 25.1381 20.687 25.3487 19.9143 25.3487C19.1416 25.3487 18.7906 25.1381 18.3463 24.8714C17.8427 24.5693 17.2721 24.2269 16.1753 24.2269C15.0782 24.2269 14.5075 24.5693 14.0039 24.8714C13.5596 25.1381 13.2086 25.3487 12.4359 25.3487C11.6632 25.3487 11.3123 25.1381 10.8679 24.8714C10.3644 24.5693 9.79372 24.2269 8.69661 24.2269C7.53755 24.2269 6.97206 24.5271 6.42518 24.8173C6.01014 25.0375 5.61799 25.2457 4.87245 25.3549C3.81928 25.5093 2.83021 25.3148 2.29096 24.8476C2.00959 24.6039 1.86707 24.2984 1.86737 23.94ZM31.1405 37.5546H8.70333C4.50837 37.5546 1.09558 34.1348 1.09558 29.9317C1.09558 29.3849 1.53931 28.9404 2.08497 28.9404H28.3921C28.7162 28.9404 28.9789 28.6771 28.9789 28.3524C28.9789 28.0276 28.7162 27.7643 28.3921 27.7643H3.11402V26.4767C3.44758 26.5465 3.8028 26.5831 4.17176 26.5831C4.45558 26.5831 4.74732 26.5617 5.04274 26.5186C5.98848 26.3798 6.51246 26.1019 6.97481 25.8566C7.45241 25.6031 7.82961 25.4029 8.69692 25.4029C9.46932 25.4029 9.82058 25.6135 10.2649 25.8802C10.7685 26.1823 11.3391 26.5247 12.4362 26.5247C13.533 26.5247 14.1037 26.1823 14.6073 25.8802C15.0516 25.6135 15.4026 25.4029 16.1753 25.4029C16.948 25.4029 17.2989 25.6135 17.7433 25.8802C18.2468 26.1823 18.8175 26.5247 19.9146 26.5247C21.0114 26.5247 21.5821 26.1823 22.0856 25.8802C22.53 25.6135 22.8809 25.4029 23.6536 25.4029C24.4263 25.4029 24.7773 25.6135 25.2216 25.8802C25.7251 26.1823 26.2958 26.5247 27.3926 26.5247C27.9151 26.5247 28.3533 26.4489 28.7745 26.2856C29.1715 26.4825 29.6039 26.581 30.0364 26.581C30.7752 26.581 31.5122 26.2954 32.0643 25.7325L32.2285 25.5652C32.4491 25.6432 32.6417 25.7444 32.8541 25.8569C33.3164 26.1022 33.8404 26.3798 34.7861 26.5186C35.0816 26.562 35.3733 26.5831 35.6571 26.5831C36.0368 26.5831 36.4017 26.5443 36.7438 26.4706V27.7643H31.1228C30.7987 27.7643 30.5359 28.0276 30.5359 28.3524C30.5359 28.6771 30.7987 28.9404 31.1228 28.9404H37.7589C38.3045 28.9404 38.7486 29.3849 38.7486 29.9317C38.7482 34.1348 35.3355 37.5546 31.1405 37.5546Z" fill="#AF8C3E"/>
</g>
<defs>
<clipPath id="clip0_5803_1365">
<rect width="40" height="40" fill="white"/>
</clipPath>
</defs>
</svg>
