<svg width="159" height="100" viewBox="0 0 159 100" fill="none" xmlns="http://www.w3.org/2000/svg">
<g clip-path="url(#clip0_5798_5042)">
<path d="M40.2733 92.1547C39.1253 92.4622 38.0559 92.2974 37.0651 91.6606C36.1126 91.0134 35.4003 89.5023 34.9282 87.127C34.4355 84.6753 34.3516 81.3759 34.6762 77.2288C35.0009 73.0818 35.548 68.1574 36.3176 62.4558C36.5656 60.6259 36.7625 58.6047 36.9081 56.3921C37.0919 54.1693 37.161 51.9772 37.1153 49.8158C37.0593 47.6162 36.8109 45.6937 36.3702 44.0483C36.0628 42.9003 35.6432 41.9464 35.1116 41.1865C34.608 40.3781 33.9364 39.8608 33.0966 39.6346C32.1112 39.3244 31.1095 39.1826 30.0913 39.2092C29.0732 39.2358 28.0284 39.3926 26.9569 39.6796C24.5462 40.3253 22.1501 41.5617 19.7687 43.3888C17.4255 45.2057 15.2717 47.423 13.3071 50.0408C11.3705 52.61 9.75437 55.3805 8.45873 58.3522C7.20136 61.3137 6.4288 64.2479 6.14106 67.1547C5.98728 68.8773 5.96093 70.4633 6.06203 71.9126C6.16313 73.362 6.36229 74.6415 6.65951 75.7512C7.2232 77.8558 8.07731 79.5136 9.22184 80.7245C10.3944 81.8868 11.7043 82.6433 13.1516 82.9938C14.6268 83.2959 16.1107 83.2471 17.603 82.8474C19.0189 82.4682 20.2916 81.8607 21.4211 81.025C22.9026 79.9721 24.0991 78.5443 25.0107 76.7417C25.9223 74.9392 26.525 73.0553 26.8189 71.0901C27.1025 69.0866 27.0445 67.3386 26.6448 65.8463C26.2963 64.5452 25.6598 63.5469 24.7353 62.8512C23.849 62.1453 22.6406 61.9974 21.11 62.4073C20.8804 62.4688 20.6508 62.5303 20.4212 62.5918C20.2298 62.6431 20.0105 62.7428 19.7631 62.8911C19.6203 62.9704 19.4915 63.0254 19.3767 63.0561C19.2619 63.0869 19.1662 63.1125 19.0897 63.133C18.7453 63.2252 18.5526 63.1948 18.5116 63.0417C18.4501 62.8121 18.747 62.466 19.4023 62.0035C20.4861 61.3031 21.5446 60.8145 22.5778 60.5378C24.3763 60.0561 25.8591 60.2331 27.0262 61.0688C28.183 61.8663 28.9766 63.0686 29.4071 64.6758C29.8376 66.283 29.8638 68.1419 29.4859 70.2527C29.0977 72.3252 28.2681 74.4339 26.9971 76.5788C25.7644 78.7135 24.0095 80.6599 21.7327 82.418C20.5088 83.3609 19.1699 84.0272 17.7158 84.4166C15.7259 84.9496 13.7125 84.9352 11.6756 84.3734C9.6386 83.8117 7.80904 82.7228 6.18687 81.1067C4.56471 79.4906 3.40517 77.3815 2.70824 74.7794C2.37002 73.5167 2.1695 72.1555 2.10667 70.6959C2.04383 69.2363 2.1327 67.6541 2.37327 65.9492C2.84688 62.6645 3.85143 59.5247 5.38692 56.5298C6.91215 53.4965 8.77836 50.7411 10.9855 48.2634C13.2207 45.7373 15.6261 43.6166 18.2015 41.9016C20.777 40.1865 23.3466 38.9856 25.9105 38.2989C28.1682 37.6942 30.323 37.5477 32.375 37.8594C34.6388 38.1963 36.3929 39.0799 37.6372 40.5101C38.9095 41.8918 39.8173 43.5967 40.3604 45.6248C40.9549 47.8442 41.2077 50.3192 41.1188 53.0497C41.0579 55.7318 40.8146 58.4216 40.3888 61.1194C39.9302 64.154 39.5215 67.2983 39.1627 70.5522C38.8039 73.8062 38.5572 76.8661 38.4225 79.7319C38.2878 82.5977 38.284 84.9569 38.411 86.8094C38.4472 87.2508 38.4872 87.6297 38.5309 87.9461C38.5849 88.3007 38.6426 88.5928 38.7041 88.8224C39.0629 90.1618 39.6823 90.7136 40.5624 90.4778C41.0981 90.3343 41.668 89.9356 42.2721 89.2817C43.4624 88.0606 44.5592 86.4135 45.5624 84.3404C46.5655 82.2672 47.4881 79.9696 48.33 77.4474C49.1999 74.8768 50.0022 72.2833 50.7368 69.6669C51.4612 67.0122 52.164 64.5068 52.8453 62.1508C53.5267 59.7947 54.1752 57.7755 54.7909 56.0932C55.1777 55.0874 55.5877 54.3214 56.0209 53.7952C56.4439 53.2308 56.8467 52.8974 57.2294 52.7949C58.033 52.5796 58.5987 53.0843 58.9267 54.3088C59.1214 55.0359 59.185 55.9621 59.1173 57.0875C59.0093 58.6749 58.7855 60.5188 58.4458 62.6193C58.0959 64.6816 57.8136 66.7667 57.599 68.8747C57.3742 70.9445 57.3673 72.8329 57.5784 74.5398C57.6529 74.971 57.7171 75.3639 57.7711 75.7185C57.8531 76.0247 57.9402 76.3499 58.0324 76.6943C58.5654 78.6841 59.3464 79.9924 60.3754 80.619C61.4148 81.2839 62.5849 81.4421 63.886 81.0936C65.3784 80.6939 66.934 79.7647 68.5528 78.3058C70.2099 76.8367 71.7849 75.0615 73.278 72.9801C74.7609 70.8605 76.0114 68.6391 77.0296 66.3158C78.0861 63.9823 78.7599 61.7513 79.051 59.6227C79.3674 57.2824 79.4888 55.0558 79.415 52.943C79.3413 50.8301 79.084 48.951 78.6433 47.3056C77.9362 44.6652 76.7882 42.676 75.1996 41.3381C73.6006 39.9618 71.5766 39.6017 69.1276 40.2576C68.9363 40.3088 68.7309 40.3843 68.5116 40.4841C68.282 40.5456 68.0384 40.6314 67.7808 40.7414C66.9239 41.2169 66.285 41.5111 65.864 41.6238C65.3666 41.7571 65.0871 41.7089 65.0256 41.4793C64.9436 41.1732 65.234 40.7263 65.8969 40.1386C66.5597 39.551 67.3326 39.221 68.2154 39.1486C70.0112 38.5035 71.8459 38.4633 73.7195 39.0277C75.6212 39.5437 77.3308 40.6442 78.8485 42.3293C80.3558 43.9761 81.4785 46.1771 82.2164 48.9323C82.5956 50.3481 82.8525 51.9198 82.9871 53.6472C83.1216 55.3746 83.0662 57.235 82.8209 59.2282C82.5099 61.8952 81.7702 64.4925 80.6016 67.02C79.4331 69.5476 77.9875 71.8828 76.2648 74.0257C74.5804 76.1583 72.7412 77.9427 70.7472 79.379C68.8018 80.8433 66.8724 81.8317 64.9591 82.3441C62.7779 82.9283 60.7567 82.7315 58.8953 81.7536C57.0825 80.8038 55.7713 78.8173 54.9616 75.7943C54.6234 74.5315 54.3949 73.2189 54.276 71.8563C54.1571 70.4938 54.1175 69.2741 54.1572 68.1972C53.7936 69.4428 53.2913 71.0127 52.6504 72.9069C51.9991 74.7628 51.2153 76.7362 50.2989 78.8271C49.4208 80.9078 48.4545 82.8891 47.4001 84.7709C46.356 86.691 45.2298 88.305 44.0217 89.6128C42.8238 90.9589 41.5744 91.8062 40.2733 92.1547Z" fill="#8e8e91"/>
<path d="M133.885 51.2612C132.01 51.7634 130.543 51.6437 129.483 50.9023C128.451 50.1124 127.792 49.1817 127.505 48.1102C127.269 47.2301 127.264 46.3702 127.49 45.5304C127.755 44.6803 128.188 44.1542 128.79 43.9519C129.156 42.2546 129.543 40.4079 129.952 38.4119C130.398 36.4057 130.784 34.4774 131.109 32.627C131.347 31.3738 131.73 30.123 132.257 28.8746C132.822 27.6159 133.582 26.7768 134.535 26.3573L135.109 26.2035C135.416 26.1215 135.689 26.0689 135.928 26.0457C136.207 26.0122 136.495 26.017 136.794 26.0601C137.266 26.1387 137.553 26.3693 137.656 26.752C137.717 26.9816 137.614 27.1322 137.346 27.204C137.231 27.2347 137.063 27.2183 136.841 27.1548C136.33 27.0864 135.903 27.0984 135.558 27.1906C135.329 27.2521 135.134 27.3659 134.973 27.5319C134.349 28.1093 133.975 28.7834 133.854 29.5542C133.77 30.3147 133.831 31.0776 134.036 31.8429C134.2 32.4552 134.427 33.0712 134.716 33.691C135.033 34.2623 135.354 34.771 135.678 35.2172C136.386 36.1759 137.108 37.1104 137.844 38.0206C138.618 38.9205 139.164 39.9636 139.482 41.1499C139.789 42.2979 139.734 43.6249 139.318 45.1309C138.891 46.5986 138.186 47.874 137.205 48.9571L137.622 48.9069C137.824 48.8939 137.963 48.8772 138.039 48.8567C138.116 48.8362 138.173 48.8208 138.212 48.8105C139.092 48.5748 139.848 48.1057 140.48 47.4033C141.14 46.6523 141.674 45.8122 142.081 44.8829C142.488 43.9536 142.89 42.6977 143.286 41.1151C143.721 39.5223 144.097 37.8632 144.414 36.1378C144.478 35.9158 144.586 35.7842 144.739 35.7432C144.93 35.692 145.085 35.7326 145.202 35.8652C145.348 35.9493 145.408 36.0972 145.383 36.309C145.172 37.5137 144.911 38.8346 144.598 40.2716C144.314 41.6601 143.924 43.0359 143.428 44.3991C142.921 45.7241 142.23 46.8936 141.353 47.9076C140.504 48.8731 139.43 49.5301 138.129 49.8786C137.822 49.9605 137.492 50.0285 137.137 50.0825C136.783 50.1365 136.418 50.1522 136.043 50.1296C135.701 50.3852 135.33 50.6076 134.93 50.7969C134.578 51.0142 134.229 51.1689 133.885 51.2612ZM135.146 49.078C135.653 48.368 136.017 47.4298 136.238 46.2634C136.497 45.0867 136.401 43.6566 135.95 41.9729C135.55 40.4805 134.971 38.9334 134.214 37.3317C133.457 35.73 132.905 34.2786 132.556 32.9776C132.484 32.7097 132.423 32.4801 132.372 32.2888C132.348 32.0489 132.33 31.8282 132.317 31.6266C132.097 32.7931 131.845 34.1522 131.564 35.704C131.272 37.2175 130.97 38.6928 130.658 40.1298C130.345 41.5668 130.077 42.7869 129.854 43.79C129.854 43.79 129.955 43.7835 130.156 43.7705C130.386 43.709 130.632 43.7866 130.895 44.0032C131.148 44.1816 131.353 44.6394 131.509 45.3767C131.727 46.3436 132.179 47.1865 132.863 47.9054C133.576 48.5757 134.337 48.9666 135.146 49.078ZM133.18 50.4658C133.41 50.4043 133.615 50.3288 133.796 50.2393C133.967 50.1115 134.124 50.008 134.266 49.9287C133.58 49.6615 132.914 49.245 132.271 48.6792C131.655 48.0649 131.16 47.2131 130.787 46.1239C130.293 47.0354 130.158 47.9121 130.384 48.754C130.548 49.3662 130.883 49.8507 131.388 50.2074C131.894 50.5641 132.491 50.6502 133.18 50.4658Z" fill="#8e8e91"/>
<path d="M122.404 54.3378C120.988 54.717 119.583 54.6012 118.189 53.9902C116.833 53.3691 115.904 52.121 115.402 50.2459C114.941 48.5239 114.87 46.5744 115.189 44.3974C115.498 42.1821 116.103 40.154 117.004 38.3132C117.766 36.7149 118.722 35.3104 119.874 34.0995C121.027 32.8887 122.215 32.1193 123.439 31.7914C124.281 31.5659 125.07 31.6008 125.805 31.896C126.589 32.2192 127.104 32.84 127.35 33.7584C127.606 34.715 127.524 35.8647 127.105 37.2074C126.685 38.5501 125.939 39.8983 124.866 41.252C124.405 41.8266 123.785 42.4231 123.008 43.0415C122.23 43.6599 121.437 44.2209 120.629 44.7245C119.81 45.1898 119.114 45.4993 118.54 45.6531C118.471 46.1635 118.444 46.827 118.458 47.6436C118.51 48.4499 118.643 49.2548 118.858 50.0584C119.115 51.0151 119.536 51.8248 120.124 52.4877C120.712 53.1505 121.522 53.3435 122.555 53.0668C123.818 52.7286 124.869 52.0576 125.707 51.0538C126.546 50.0501 127.223 48.9048 127.74 47.6182C128.246 46.2932 128.619 45.0041 128.857 43.7509C129.134 42.4875 129.342 41.427 129.481 40.5694C129.568 39.9722 129.802 39.6223 130.185 39.5199C130.376 39.4686 130.497 39.5387 130.548 39.73C130.589 39.8831 130.583 40.0898 130.53 40.3501C130.302 41.6416 130.056 43.0198 129.792 44.4848C129.518 45.9116 129.114 47.3117 128.579 48.6852C128.035 50.0204 127.261 51.1912 126.26 52.1977C125.296 53.194 124.011 53.9073 122.404 54.3378ZM118.665 44.5123C119.2 44.3688 120.048 43.9366 121.209 43.2157C122.359 42.4566 123.333 41.4986 124.13 40.3418C124.889 39.1952 125.398 38.0335 125.657 36.8569C125.906 35.6419 125.933 34.6709 125.738 33.9439C125.513 33.102 125.094 32.7631 124.482 32.9271C124.023 33.0501 123.473 33.5253 122.834 34.3528C122.194 35.1803 121.476 36.4799 120.679 38.2517C120.198 39.3649 119.776 40.5443 119.412 41.7899C119.048 43.0356 118.799 43.9431 118.665 44.5123Z" fill="#8e8e91"/>
<path d="M93.6551 62.282C94.2845 59.1196 94.8668 56.0108 95.4019 52.9557C95.965 49.8521 96.5832 46.8773 97.2563 44.0313C97.6526 42.4487 98.0278 41.323 98.3818 40.654C98.7638 39.9365 99.3948 39.4599 100.275 39.2242C100.581 39.1422 100.922 39.1125 101.297 39.1351C101.662 39.1194 102.016 39.0654 102.361 38.9731C102.59 38.9116 102.757 38.8464 102.862 38.7774C102.408 39.227 101.924 40.1768 101.411 41.6268C100.886 43.0385 100.394 44.6467 99.9345 46.4513C99.4746 48.256 99.0847 49.9393 98.7649 51.5014C99.2562 50.4265 99.7667 49.3465 100.296 48.2614C100.864 47.1661 101.519 46.0885 102.26 45.0287C102.963 43.9791 103.834 42.8643 104.871 41.6843C105.936 40.4557 107.004 39.3904 108.075 38.4885C109.146 37.5865 110.045 37.0382 110.772 36.8434C111.04 36.7717 111.236 36.7396 111.361 36.7471C111.361 36.7471 111.253 37.1861 111.037 38.0642C110.811 38.904 110.537 40.0232 110.214 41.422C109.92 42.7722 109.632 44.2232 109.35 45.7751C109.058 47.2886 108.813 48.7485 108.616 50.1548C108.446 51.5125 108.398 52.6328 108.47 53.5157C108.489 54.0439 108.554 54.5184 108.667 54.9394C108.831 55.5516 109.054 55.9227 109.334 56.0525C109.615 56.1823 109.89 56.2114 110.157 56.1397C110.884 55.9449 111.547 55.3573 112.146 54.3767C112.734 53.3579 113.238 52.1772 113.658 50.8344C114.116 49.4815 114.488 48.1924 114.775 46.9672C115.09 45.6935 115.305 44.7338 115.419 44.0881C115.49 43.7409 115.559 43.538 115.625 43.4792C115.681 43.3822 115.786 43.3132 115.939 43.2722C116.168 43.2107 116.324 43.333 116.406 43.6392C116.457 43.8305 116.456 44.0563 116.403 44.3167C116.179 45.3198 115.906 46.5207 115.584 47.9194C115.3 49.3079 114.914 50.7029 114.429 52.1044C113.932 53.4676 113.314 54.6791 112.572 55.7389C111.821 56.7605 110.89 57.4199 109.78 57.7171C109.015 57.9221 108.14 57.8694 107.154 57.5592C106.207 57.2387 105.539 56.3514 105.149 54.8973C105.037 54.4763 104.957 54.026 104.911 53.5463C104.854 53.0284 104.844 52.4568 104.882 51.8315C104.983 50.9842 105.126 50.0641 105.311 49.0713C105.497 48.0784 105.863 46.6886 106.409 44.9017C106.564 44.409 106.63 44.0428 106.607 43.8029C106.622 43.5528 106.609 43.3513 106.568 43.1982C106.445 42.739 106.173 42.5658 105.752 42.6785C105.408 42.7708 104.943 43.1004 104.356 43.6676C103.808 44.2245 103.165 45.1145 102.426 46.3376C101.716 47.5122 100.916 49.1207 100.028 51.1632C99.1776 53.1953 98.3322 56.0875 97.4917 59.8395C97.3571 60.4087 97.1227 60.7586 96.7885 60.8891C96.4926 61.0094 96.0628 61.1655 95.4991 61.3575C95.1267 61.4982 94.7683 61.6147 94.4239 61.707C94.0897 61.8375 93.8335 62.0291 93.6551 62.282Z" fill="#8e8e91"/>
<path d="M89.0816 38.0396C88.5076 38.1934 87.978 38.1302 87.4929 37.85C87.0358 37.5213 86.7303 37.07 86.5766 36.496C86.3819 35.7689 86.4998 35.0607 86.9303 34.3712C87.3608 33.6817 87.9204 33.2448 88.6092 33.0603C89.2215 32.8963 89.7702 32.9544 90.2553 33.2346C90.7405 33.5147 91.0548 33.9227 91.1983 34.4584C91.393 35.1855 91.2802 35.9129 90.86 36.6406C90.4397 37.3683 89.8469 37.8347 89.0816 38.0396ZM90.6739 62.5889C89.258 62.9682 88.1555 62.8328 87.3663 62.183C86.5668 61.4949 86.0236 60.6151 85.7366 59.5436C85.5829 58.9696 85.4866 58.3803 85.4476 57.7755C85.4367 57.1223 85.4603 56.5213 85.5184 55.9726L86.7353 45.1273C86.7681 44.7904 86.7537 44.5072 86.6922 44.2776C86.5898 43.895 86.407 43.5953 86.1439 43.3787C85.8706 43.1238 85.6803 42.9492 85.573 42.8549L88.6992 41.8946C89.2629 41.7026 89.6852 41.6715 89.9661 41.8013C90.2749 41.8827 90.4601 42.0381 90.5216 42.2677C90.5831 42.4973 90.5619 42.9541 90.458 43.6381L88.6917 56.1069C88.6917 56.1069 88.6435 56.3864 88.5472 56.9454C88.4788 57.4558 88.446 57.7927 88.4488 57.956C88.4877 58.5607 88.5085 58.9448 88.5113 59.1081C88.514 59.2714 88.5205 59.3722 88.5307 59.4104C88.541 59.4487 88.582 59.6018 88.6537 59.8696C88.7869 60.3671 89.0145 60.7573 89.3363 61.0402C89.6964 61.3128 90.1826 61.3672 90.7949 61.2032C91.1775 61.1007 91.5868 60.868 92.0228 60.5052C92.4588 60.1424 92.7608 59.8154 92.9289 59.5243C93.6191 58.2732 94.2081 56.721 94.6961 54.8679C95.212 52.9662 95.6566 51.1042 96.0297 49.2818C96.0803 48.8581 96.2203 48.6155 96.4499 48.554C96.6413 48.5028 96.7728 48.6111 96.8446 48.879C96.8855 49.032 96.8896 49.277 96.8568 49.6139C96.6894 50.52 96.4775 51.643 96.2213 52.983C95.965 54.323 95.5939 55.6937 95.1081 57.0952C94.6502 58.4481 94.0646 59.6302 93.3512 60.6415C92.6378 61.6528 91.7453 62.302 90.6739 62.5889Z" fill="#8e8e91"/>
<path d="M86.7109 81.8962C92.5685 79.7739 116.455 74.8596 122.063 73.3567C130.863 70.9998 141.038 67.7459 147.656 61.4006C154.285 55.0445 156.827 42.979 155.787 35.6804C154.536 26.8984 148.134 13.4682 136.773 12.3013C131.292 11.7387 126.217 13.9545 124.12 18.543C122.717 21.6092 124.522 28.4063 130.771 25.6293C130.161 27.8092 126.369 28.8286 123.846 27.1833C120.498 24.9999 120.134 19.7617 122.963 16.3855C130.941 6.8646 143.118 9.99194 150.305 18.6653C158.533 28.5955 159.82 39.6819 156.614 50.9344C151.228 69.8344 132.478 73.5517 117.671 76.6229C110.777 78.0531 88.9915 81.1833 86.7109 81.8962Z" fill="#8e8e91"/>
</g>
<defs>
<clipPath id="clip0_5798_5042">
<rect width="158.273" height="100" fill="white"/>
</clipPath>
</defs>
</svg>
