<svg width="106" height="101" viewBox="0 0 106 101" fill="none" xmlns="http://www.w3.org/2000/svg">
<path d="M10.9319 77.1898C10.9627 77.6531 10.979 77.885 11.0111 78.3484C9.39543 78.7985 8.58949 79.0355 6.98389 79.5321C6.44827 73.3776 6.08805 67.1746 5.907 60.9993C7.70874 60.2581 8.61526 59.9004 10.4403 59.2114C10.4579 65.7821 10.5415 69.0593 10.8577 75.5886C11.4914 75.808 12.0817 75.8463 12.6336 75.7011C13.7187 75.4163 14.5203 74.572 15.0678 73.1531C15.6154 71.7336 15.9178 70.0306 15.9687 68.0352C16.0196 66.0411 15.8448 64.0803 15.4167 62.156C15.0131 60.3423 14.3147 59.1032 13.3032 58.4513C12.291 57.7994 11.0387 57.651 9.56642 58.0232C7.96711 58.4274 6.60606 59.085 5.50151 59.9758C4.39633 60.8673 3.64257 61.9265 3.23834 63.1361C2.83411 64.3469 2.8492 65.6224 3.26223 66.9634C3.46843 67.6335 3.6828 68.0786 3.90409 68.298C4.12538 68.518 4.24105 68.6463 4.25174 68.6821C3.21131 68.9996 2.35633 69.053 1.67863 68.8336C1.00031 68.6142 0.513729 68.0667 0.223917 67.184C-0.177796 65.96 -0.0438916 64.6254 0.665236 63.1876C1.37311 61.7499 2.53424 60.4178 4.15429 59.2208C5.77498 58.0245 7.66536 57.1475 9.79463 56.6169C12.7412 55.8826 15.1018 56.1642 16.8023 57.3788C18.5028 58.594 19.5546 60.3926 20.0103 62.7369C20.4221 64.858 20.4303 67.0231 20.0833 69.2303C19.7356 71.4375 19.0925 73.3185 18.1596 74.8857C17.2266 76.4536 16.1089 77.3985 14.7585 77.7379C13.632 78.0208 12.3684 77.8341 10.9319 77.1898Z" fill="#8e8e91"/>
<path d="M23.6554 74.4779C22.7394 73.9058 22.1252 72.8623 21.8298 71.3365C21.5814 70.0528 21.5708 68.5868 21.8235 66.9384C22.0756 65.2901 22.7269 63.7857 23.7956 62.4404C24.8637 61.0956 26.4026 60.2664 28.3735 59.9923C30.6794 59.6711 31.943 60.4519 32.1549 62.2587C32.2787 63.3129 32.0618 64.32 31.5231 65.2844C30.9837 66.2494 30.2224 67.0679 29.2398 67.7513C28.2572 68.4352 27.1853 68.908 26.0103 69.1758C26.0619 69.7435 26.1034 70.1213 26.1342 70.3074C26.2838 71.224 26.5522 71.8187 26.9338 72.0934C27.3161 72.3681 27.8731 72.448 28.6092 72.338C29.6547 72.182 30.5178 71.825 31.2068 71.2567C31.8959 70.6884 32.6333 69.8717 33.4354 68.8068C33.8397 68.7609 34.0421 68.7383 34.4463 68.6949C32.6213 72.4178 30.2544 74.4785 27.1331 74.984C25.7237 75.2134 24.5713 75.05 23.6554 74.4779ZM28.0346 66.7328C28.6413 66.1834 29.1059 65.5346 29.4284 64.7834C29.7502 64.0315 29.864 63.2714 29.7622 62.5001C29.6603 61.73 29.3491 61.3779 28.8299 61.4496C28.0824 61.5527 27.4317 62.2505 26.903 63.538C26.3743 64.8261 26.0864 66.245 26.0292 67.7902C26.7616 67.6337 27.4273 67.2823 28.0346 66.7328Z" fill="#8e8e91"/>
<path d="M34.5554 73.1179C33.9254 72.6149 33.5407 71.8021 33.4106 70.6717C33.3565 70.2015 33.3634 69.5804 33.4357 68.809C34.0619 63.0027 34.434 60.099 35.2972 54.2964C37.2008 53.8909 38.1569 53.7017 40.0762 53.3516C38.966 59.5765 38.4795 62.6941 37.6446 68.9304C37.5899 69.2202 37.5767 69.5257 37.605 69.847C37.6377 70.2248 37.7546 70.4857 37.9539 70.6303C38.1532 70.7749 38.4675 70.8295 38.8969 70.7956C39.4627 70.751 39.9719 70.4806 40.4314 69.9834C40.8897 69.4867 41.2072 68.8637 41.3801 68.1118C41.8805 68.081 42.1313 68.0666 42.6317 68.0396C42.0056 70.1236 41.1676 71.5638 40.1001 72.3716C39.032 73.1801 37.9646 73.6352 36.8732 73.739C35.9541 73.8257 35.1847 73.6214 34.5554 73.1179Z" fill="#8e8e91"/>
<path d="M42.2731 72.4716C41.6715 71.9366 41.3301 71.1049 41.2578 69.9695C41.2276 69.4974 41.2672 68.8769 41.3798 68.1106C41.9657 64.4172 42.2831 62.5715 42.9659 58.8831C44.7852 58.7951 45.6961 58.7637 47.5167 58.7266C46.685 62.6111 46.2959 64.5562 45.5723 68.4501C45.5025 68.7367 45.4742 69.0416 45.4849 69.3635C45.4981 69.7426 45.6012 70.0091 45.793 70.1638C45.9841 70.3184 46.2946 70.3895 46.7252 70.3775C47.2923 70.3624 47.8147 70.1192 48.2988 69.6464C48.7816 69.1743 49.1311 68.5683 49.343 67.8271C49.844 67.822 50.0949 67.8208 50.5965 67.8202C49.8629 69.8683 48.952 71.2633 47.8449 72.0152C46.7366 72.7677 45.6477 73.1663 44.5532 73.2128C43.6322 73.2518 42.8747 73.0072 42.2731 72.4716ZM44.237 56.635C43.7291 56.2195 43.4575 55.7009 43.4298 55.076C43.4022 54.4511 43.626 53.9048 44.1088 53.4389C44.5916 52.9744 45.197 52.7292 45.918 52.7084C46.6391 52.6877 47.2634 52.8964 47.7827 53.3327C48.3019 53.7684 48.5634 54.3015 48.5722 54.927C48.5804 55.5525 48.3346 56.0862 47.8405 56.5307C47.3457 56.9764 46.751 57.2071 46.0488 57.2279C45.3479 57.2474 44.7456 57.0506 44.237 56.635Z" fill="#8e8e91"/>
<path d="M50.1977 71.9875C49.4012 71.2614 48.9844 70.1255 48.9655 68.5714C48.9498 67.2638 49.2038 65.8198 49.7526 64.2425C50.3021 62.6652 51.2067 61.301 52.4822 60.1675C53.7578 59.034 55.3973 58.4909 57.36 58.5701C58.6261 58.621 59.5163 58.9165 60.0236 59.4395C60.531 59.9619 60.7573 60.6038 60.7108 61.3601C60.6699 62.0227 60.4826 62.5231 60.1531 62.8638C59.8237 63.2052 59.4252 63.363 58.9537 63.3385C58.6054 63.3202 58.2527 63.1901 57.8937 62.9462C58.1678 62.332 58.3187 61.7794 58.342 61.2871C58.359 60.9275 58.2992 60.6402 58.1634 60.4252C58.027 60.2102 57.812 60.0958 57.5191 60.0839C56.8917 60.0581 56.2454 60.5001 55.596 61.4097C54.946 62.3194 54.4154 63.4353 54.003 64.7542C53.5906 66.0725 53.3825 67.2644 53.3649 68.325C53.3492 69.2535 53.507 69.8866 53.8332 70.2248C54.1589 70.563 54.6914 70.7403 55.4338 70.7635C56.4874 70.7956 57.3977 70.5976 58.1754 70.1607C58.953 69.7237 59.8225 69.0511 60.7994 68.1452C61.2049 68.1716 61.4073 68.1854 61.8128 68.2143C59.3566 71.5538 56.6666 73.1625 53.5158 73.1053C52.0944 73.0795 50.9942 72.7136 50.1977 71.9875Z" fill="#8e8e91"/>
<path d="M61.3721 72.3157C60.5926 71.5387 60.2412 70.3788 60.338 68.8279C60.4184 67.5417 60.7843 66.1297 61.4595 64.5989C62.1347 63.0675 63.1607 61.7762 64.55 60.744C65.9393 59.7117 67.6436 59.2968 69.6195 59.5263C72.3089 59.8387 73.4367 61.5468 73.0117 64.5499C73.0105 64.5612 73.0092 64.5669 73.008 64.5776C73.0664 64.6052 73.1771 64.6297 73.3399 64.6536C74.0119 64.7504 74.8078 64.702 75.7376 64.5134C76.6668 64.3255 77.5299 64.0621 78.3296 63.7207C78.3874 64.0426 78.4163 64.2035 78.4735 64.5247C77.7795 64.9988 76.9289 65.3577 75.9224 65.6079C74.916 65.8588 73.0243 65.7525 72.7144 65.9996C72.1932 66.4158 71.6941 69.1196 70.8768 70.3109C70.0596 71.5029 69.1115 72.3849 68.029 72.9651C66.9464 73.5454 65.8306 73.7792 64.6619 73.6692C63.243 73.5372 62.1517 73.0927 61.3721 72.3157ZM67.5575 70.6089C68.0849 70.1437 68.5791 69.4855 69.043 68.6337C69.5063 67.7825 69.8886 66.8225 70.1866 65.7513C69.6553 65.5708 69.4284 65.1433 69.5089 64.4657C69.6006 63.6937 69.9785 63.2228 70.6467 63.0581C70.6832 62.4319 70.6335 61.9913 70.4971 61.736C70.3601 61.4802 70.0835 61.3268 69.6679 61.2777C68.982 61.1973 68.2629 61.5751 67.5286 62.4125C66.7937 63.2498 66.1751 64.2852 65.6703 65.5124C65.1655 66.7401 64.8763 67.8365 64.7876 68.7996C64.7046 69.7055 64.7568 70.3235 64.9429 70.6554C65.129 70.9867 65.503 71.1791 66.0682 71.2363C66.5366 71.2841 67.0307 71.0754 67.5575 70.6089Z" fill="#8e8e91"/>
<path d="M73.8011 74.0088C73.3233 73.3588 73.1642 72.4736 73.3327 71.3483C73.4031 70.88 73.5722 70.2821 73.8438 69.5567C75.1967 66.0695 75.8964 64.3319 77.3442 60.8711C79.1478 61.1691 80.0481 61.3313 81.8448 61.6802C80.2084 65.3013 79.4169 67.1206 77.8861 70.7737C77.7767 71.0428 77.7007 71.2993 77.6573 71.542C77.5202 72.307 77.7421 72.7408 78.3218 72.8483C78.863 72.9489 79.3672 72.8181 79.8412 72.4567C80.314 72.0952 80.7452 71.5577 81.1338 70.8435C82.6545 67.4261 83.4384 65.7243 85.0528 62.3378C86.8439 62.7238 87.7372 62.9293 89.5201 63.3656C87.7083 66.9031 86.8288 68.6816 85.1213 72.2561C84.9799 72.5151 84.8737 72.8018 84.8014 73.1161C84.7165 73.4858 84.7479 73.7699 84.8944 73.9692C85.0402 74.1679 85.3244 74.3169 85.7462 74.4174C86.2831 74.5451 86.8005 74.4369 87.3047 74.0931C87.8082 73.7492 88.2703 73.2406 88.6902 72.5648C89.18 72.6893 89.4251 72.7528 89.9136 72.8816C88.6739 74.6727 87.4625 75.7942 86.2573 76.2506C85.0516 76.7077 83.9407 76.8233 82.9028 76.5926C82.0912 76.4128 81.4921 76.0532 81.0998 75.5075C80.7075 74.9612 80.5485 74.2439 80.6289 73.3506C79.767 74.2408 78.951 74.8053 78.1671 75.0448C77.3832 75.2844 76.6244 75.3403 75.8832 75.2127C74.9698 75.0574 74.2789 74.6595 73.8011 74.0088Z" fill="#8e8e91"/>
<path d="M88.4539 77.3908C87.9214 76.8891 87.57 76.3309 87.4022 75.7123C87.2343 75.0943 87.2199 74.4901 87.3663 73.9011C87.5172 73.2938 87.7976 72.8022 88.2125 72.4275C88.6274 72.0528 89.0763 71.8202 89.5591 71.7291C90.6542 70.6421 91.6739 69.5269 92.6119 68.3777C93.5492 67.2291 94.4997 65.9743 95.4647 64.6133C97.3488 64.9138 98.2918 65.0785 100.177 65.4368C99.5466 67.7824 98.918 70.3423 98.2956 73.1033C98.0447 74.2154 97.8411 75.0176 97.6845 75.5048C97.3306 76.6056 96.7453 77.4115 95.9406 77.9333C95.1353 78.4545 94.2646 78.7418 93.3229 78.7965C92.3812 78.8518 91.4753 78.7575 90.5964 78.5129C89.6974 78.264 88.9851 77.8931 88.4539 77.3908ZM92.2221 75.9889C92.8112 75.7242 93.2393 75.1477 93.4977 74.2557C93.6561 73.71 93.8101 72.9135 93.9874 71.9114C94.3602 69.8004 94.6594 68.3469 94.8027 67.6195C93.9075 68.9209 92.6112 70.4145 90.9572 72.1289C91.347 72.4696 91.4828 72.8512 91.3671 73.2718C91.2722 73.6195 91.0654 73.8967 90.751 74.106C90.4354 74.3148 90.0966 74.3707 89.7314 74.2739C89.3278 74.167 89.0989 73.9809 89.0449 73.7119C88.8739 74.3726 88.8871 74.895 89.0826 75.2791C89.2775 75.6632 89.6779 75.9354 90.2865 76.1008C90.9887 76.2906 91.6318 76.2542 92.2221 75.9889Z" fill="#8e8e91"/>
<path d="M10.875 86.3828C13.9825 84.5464 17.298 83.0672 20.6758 81.7678C24.0548 80.462 27.5351 79.4222 31.0575 78.5434C38.111 76.8278 45.3903 75.9093 52.6871 75.9464C59.9859 75.915 67.2871 76.8756 74.3891 78.6113C81.4891 80.3772 88.3579 83.0232 94.8859 86.3054L105.914 91.8496L93.8542 89.086C91.6634 88.5837 89.3883 88.1518 87.137 87.7539C84.8808 87.3452 82.6132 86.9888 80.34 86.6801C75.7941 86.0578 71.225 85.6259 66.6509 85.3876C62.0774 85.1732 57.4989 85.172 52.9455 85.4787C48.4053 85.8729 43.8922 86.5142 39.5148 87.7055L39.1967 85.5202C42.7738 85.6403 46.2572 85.9917 49.7532 86.4859C53.2391 86.9869 56.7055 87.6174 60.1254 88.446C63.5504 89.2482 66.9206 90.2849 70.2185 91.4887C73.5228 92.687 76.6981 94.2077 79.7616 95.8894L77.3551 94.8489C76.9527 94.6811 76.5598 94.4918 76.1499 94.341L74.9203 93.8921C74.0967 93.6048 73.2946 93.2666 72.4635 93.0051L69.9734 92.2192C66.6283 91.2624 63.2637 90.3854 59.8387 89.7888C56.4207 89.1734 52.9864 88.6566 49.5331 88.3228C47.8062 88.1581 46.078 88.0204 44.3486 87.9274C42.6261 87.8192 40.8771 87.757 39.186 87.7526L31.6905 87.7356L38.8673 85.568C43.3974 84.2001 48.0476 83.3357 52.7248 82.8711C57.4052 82.4675 62.095 82.3826 66.7735 82.5153C71.4482 82.7064 76.104 83.1351 80.7354 83.7342C85.3736 84.3484 89.9528 85.1034 94.5577 86.1835L93.5261 88.964C87.2055 85.7164 80.5411 83.1816 73.6975 81.3007C70.2594 80.4294 66.7898 79.6379 63.2668 79.1702C59.7526 78.6622 56.2089 78.2969 52.65 78.2115C49.0937 78.1084 45.5261 78.1794 41.9697 78.4617C38.4128 78.7452 34.8722 79.2469 31.3573 79.9126C27.8419 80.5777 24.3635 81.4572 20.9335 82.5127C17.5149 83.5959 14.1183 84.8067 10.875 86.3828Z" fill="#8e8e91"/>
<path d="M103.459 21.8202C104.09 16.899 85.8254 16.4344 67.5774 29.0447C66.1798 30.0103 62.875 29.7746 61.2895 29.1648C58.1978 27.9754 52.7781 31.9535 47.0126 35.6406C43.5783 37.8371 44.3673 39.9142 44.3673 39.9142C44.3673 39.9142 55.0048 33.3875 55.4995 34.6065C55.9943 35.8261 48.3699 39.7822 45.3681 41.4249C44.7545 41.7606 44.4716 42.4873 44.6929 43.1512L44.6935 43.1537C44.9903 44.0439 46.042 44.4198 46.8373 43.9219C50.1038 41.875 57.1624 37.8592 57.6609 38.7456C58.16 39.6326 46.6575 45.8255 47.117 45.9249C49.3016 46.3957 52.5889 46.0613 58.7409 42.5565C61.8201 40.8019 64.6327 39.1347 65.4506 36.5937C65.9887 34.9221 67.1235 33.4956 68.7064 32.7343C84.9988 24.9019 101.465 23.8287 101.683 23.8162C102.445 23.7715 103.075 23.2824 103.334 22.6148C103.43 22.3696 103.424 22.098 103.459 21.8202Z" fill="#8e8e91"/>
<path d="M64.8162 15.8378C64.1297 11.8024 58.1826 9.44873 51.5327 10.5809C46.3406 11.4642 42.2637 14.2114 41.0523 17.2944C40.4041 18.9446 39.2512 20.4553 37.5632 20.9978C18.0559 27.2656 4.66928 37.8214 8.50158 42.9575C8.66943 43.1819 8.93159 43.3001 9.17802 43.3919C9.84943 43.6409 10.6334 43.495 11.1728 42.955C11.3268 42.8004 23.0645 31.201 39.7403 24.2197C41.3641 23.5401 43.1841 23.6489 44.7979 24.3536C47.2396 25.4192 50.5306 25.7876 54.0196 25.1935C60.6696 24.0619 65.5034 19.8732 64.8162 15.8378ZM58.778 19.2747C57.5779 20.3855 56.0798 21.2021 54.483 21.6497C52.9214 22.0753 51.2768 22.2375 49.6593 22.1049C48.0543 21.9446 46.428 21.5102 45.1405 20.5521C46.6738 20.9306 48.192 20.9884 49.6838 20.9312C51.1781 20.8388 52.6448 20.5823 54.0857 20.1931C55.4781 19.7908 56.8228 19.1967 58.045 18.3518C59.2746 17.5176 60.4062 16.4966 61.4397 15.3022C60.9494 16.8185 59.985 18.1808 58.778 19.2747Z" fill="#8e8e91"/>
<path d="M39.5805 33.7391C40.8061 33.7391 41.7997 32.7456 41.7997 31.5199C41.7997 30.2943 40.8061 29.3008 39.5805 29.3008C38.3549 29.3008 37.3613 30.2943 37.3613 31.5199C37.3613 32.7456 38.3549 33.7391 39.5805 33.7391Z" stroke="#8e8e91" stroke-width="1.2017" stroke-miterlimit="10"/>
<path d="M75.6357 15.104C75.6357 16.7731 74.2828 18.126 72.6138 18.126C70.9447 18.126 69.5918 16.7731 69.5918 15.104C69.5918 13.4349 70.9447 12.082 72.6138 12.082C74.2828 12.082 75.6357 13.4355 75.6357 15.104Z" stroke="#8e8e91" stroke-width="1.2017" stroke-miterlimit="10"/>
<path d="M29.8052 12.5831C30.9177 12.5831 31.8195 11.6813 31.8195 10.5689C31.8195 9.45649 30.9177 8.55469 29.8052 8.55469C28.6928 8.55469 27.791 9.45649 27.791 10.5689C27.791 11.6813 28.6928 12.5831 29.8052 12.5831Z" stroke="#8e8e91" stroke-width="1.2017" stroke-miterlimit="10"/>
<path d="M63.5497 4.02134C64.384 4.02134 65.0604 3.34499 65.0604 2.51067C65.0604 1.67635 64.384 1 63.5497 1C62.7154 1 62.0391 1.67635 62.0391 2.51067C62.0391 3.34499 62.7154 4.02134 63.5497 4.02134Z" stroke="#8e8e91" stroke-width="1.2017" stroke-miterlimit="10"/>
<path d="M31.8189 40.7884C31.8189 41.3447 31.3682 41.7955 30.8118 41.7955C30.2554 41.7955 29.8047 41.3447 29.8047 40.7884C29.8047 40.232 30.2554 39.7812 30.8118 39.7812C31.3682 39.7812 31.8189 40.232 31.8189 40.7884Z" stroke="#8e8e91" stroke-width="1.2017" stroke-miterlimit="10"/>
<path d="M33.175 95.0602C32.8676 95.1073 32.574 95.1042 32.2936 95.0495C32.0132 94.9948 31.7605 94.8948 31.5336 94.7471C31.3066 94.5994 31.1168 94.4152 30.9627 94.1907C30.8087 93.9669 30.7044 93.7092 30.6509 93.4175C30.5975 93.1258 30.6038 92.8473 30.6717 92.5839C30.7396 92.3192 30.8596 92.0784 31.0319 91.8609C31.2048 91.6447 31.421 91.4636 31.6807 91.319C31.9403 91.1751 32.2351 91.0776 32.5633 91.0273C32.9279 90.9714 33.2668 90.9827 33.5773 91.0581C33.8879 91.1342 34.1582 91.2738 34.3864 91.4749C34.1658 91.722 34.057 91.8458 33.8401 92.0942C33.6767 91.9615 33.5025 91.8691 33.3171 91.8188C33.1316 91.7673 32.9355 91.7578 32.7286 91.7893C32.5338 91.8188 32.3602 91.8766 32.2075 91.9615C32.0547 92.047 31.9284 92.1551 31.8284 92.2865C31.7284 92.4167 31.6587 92.5638 31.6197 92.7266C31.5807 92.8894 31.5769 93.0629 31.6084 93.2484C31.6398 93.4338 31.7008 93.596 31.7907 93.7375C31.88 93.8789 31.9919 93.9946 32.1258 94.087C32.2597 94.1788 32.4099 94.2417 32.5771 94.2762C32.7444 94.3102 32.921 94.3133 33.1096 94.2844C33.3089 94.2542 33.4874 94.1882 33.6459 94.0883C33.8037 93.9871 33.9413 93.8494 34.0589 93.674C34.3298 93.855 34.4644 93.9462 34.7322 94.1291C34.5694 94.3812 34.3569 94.5862 34.0935 94.744C33.8301 94.9011 33.5239 95.0067 33.175 95.0602Z" fill="#8e8e91"/>
<path d="M37.1172 94.4954C37.6767 92.8552 37.9753 92.038 38.6121 90.4091C38.9981 90.3808 39.1911 90.3676 39.5771 90.3438C40.4283 91.872 40.8351 92.6421 41.6108 94.1918C41.2217 94.2062 41.0268 94.2144 40.637 94.2345C39.9807 92.8729 39.6387 92.1958 38.9277 90.8498C39.0811 90.8391 39.1578 90.8341 39.3112 90.8241C38.7856 92.2536 38.5367 92.9709 38.0665 94.4087C37.6867 94.4401 37.4969 94.4577 37.1172 94.4954ZM37.937 93.5713C38.0124 93.2865 38.0507 93.1444 38.1287 92.8596C38.9698 92.7899 39.391 92.7609 40.2322 92.7151C40.3504 92.986 40.4088 93.1218 40.5251 93.3934C39.4897 93.4468 38.9717 93.482 37.937 93.5713Z" fill="#8e8e91"/>
<path d="M44.9485 94.1427C44.9586 92.8628 44.9636 92.2228 44.9749 90.9435C44.4399 90.9391 44.1728 90.9391 43.6371 90.9441C43.6346 90.6467 43.6334 90.4978 43.6309 90.2004C45.1026 90.1872 45.8381 90.1979 47.3054 90.2538C47.2941 90.5512 47.2884 90.7002 47.2771 90.9975C46.7433 90.9774 46.4762 90.9693 45.9418 90.9579C45.9148 92.2373 45.9016 92.8772 45.8758 94.1572C45.5043 94.149 45.3188 94.1459 44.9485 94.1427Z" fill="#8e8e91"/>
<path d="M50.9123 93.6997C51.7881 93.777 52.225 93.8223 53.0976 93.926C53.063 94.2171 53.046 94.3623 53.0114 94.6534C51.7824 94.5082 51.1663 94.4478 49.9316 94.3541C50.0505 92.7812 50.1108 91.9948 50.2309 90.4219C51.5001 90.5187 52.1338 90.5797 53.3981 90.728C53.3641 91.0191 53.3465 91.1643 53.3126 91.4554C52.4419 91.3529 52.005 91.3083 51.1317 91.231C51.0437 92.218 50.9997 92.7121 50.9123 93.6997ZM50.9853 92.0771C51.7768 92.1463 52.1715 92.1865 52.9605 92.2764C52.9285 92.5587 52.9121 92.6995 52.8801 92.9818C52.0986 92.8925 51.707 92.8529 50.923 92.7844C50.9482 92.5015 50.9608 92.36 50.9853 92.0771Z" fill="#8e8e91"/>
<path d="M56.002 95.0697C56.2509 93.5119 56.376 92.7336 56.6256 91.1758C57.3454 91.2908 57.7044 91.3531 58.4217 91.4851C58.7926 91.5536 59.1006 91.6718 59.3458 91.8365C59.5903 92.0018 59.7632 92.2049 59.8644 92.4438C59.965 92.6833 59.9845 92.9486 59.9242 93.2384C59.8644 93.5251 59.7412 93.7577 59.5576 93.9362C59.3734 94.1154 59.1415 94.2336 58.8611 94.2933C58.5807 94.353 58.2632 94.3493 57.9055 94.2839C57.4202 94.1946 57.1769 94.1519 56.6897 94.0701C56.8808 93.94 56.9764 93.8746 57.1694 93.7457C57.0669 94.3367 57.016 94.6315 56.9141 95.2225C56.5501 95.159 56.3672 95.1282 56.002 95.0697ZM57.153 93.8451C57.0166 93.6477 56.9487 93.5496 56.8104 93.3528C57.2813 93.4314 57.5164 93.4729 57.986 93.559C58.2739 93.6118 58.4996 93.5923 58.6649 93.5006C58.8297 93.4081 58.9334 93.2566 58.9749 93.0467C59.0164 92.8336 58.9774 92.6531 58.8567 92.5073C58.7354 92.3621 58.5279 92.2608 58.235 92.2074C57.7572 92.1194 57.517 92.0779 57.038 91.9974C57.236 91.8547 57.3353 91.7831 57.5352 91.6416C57.3819 92.523 57.3052 92.9637 57.153 93.8451ZM58.5034 95.5148C58.2211 94.8761 58.0759 94.5573 57.7773 93.9218C58.1733 93.9934 58.3714 94.0311 58.7668 94.1085C59.0616 94.7491 59.205 95.0703 59.4828 95.7134C59.0918 95.6311 58.8963 95.5915 58.5034 95.5148Z" fill="#8e8e91"/>
<path d="M62.3496 96.371C62.7343 94.8415 62.9274 94.0764 63.3121 92.5469C63.6905 92.6424 63.8798 92.6908 64.2576 92.7914C63.8534 94.3166 63.6509 95.0785 63.2473 96.6036C62.889 96.5074 62.7092 96.4615 62.3496 96.371Z" fill="#8e8e91"/>
<path d="M66.3633 97.506C66.8341 96.0003 67.0693 95.2478 67.5401 93.7422C67.8488 93.839 68.0035 93.888 68.3115 93.988C68.9106 95.3761 69.1904 96.0726 69.7115 97.467C69.5688 97.4154 69.4978 97.3903 69.3551 97.3394C69.7342 96.2688 69.924 95.7338 70.3037 94.6632C70.6683 94.7927 70.8507 94.8581 71.214 94.992C70.6683 96.4724 70.3961 97.2124 69.8505 98.6922C69.5638 98.5866 69.4205 98.5345 69.1325 98.432C68.6183 97.0426 68.3423 96.3492 67.7507 94.9668C67.8985 95.014 67.972 95.0379 68.1191 95.0863C67.7664 96.1657 67.5904 96.7057 67.2384 97.7851C66.8882 97.6713 66.7134 97.6154 66.3633 97.506Z" fill="#8e8e91"/>
<path d="M74.6351 100.722C74.3441 100.591 74.097 100.427 73.8914 100.229C73.6859 100.031 73.5281 99.8085 73.4168 99.5614C73.3055 99.3137 73.2458 99.0554 73.2389 98.7838C73.232 98.5122 73.2848 98.2394 73.3986 97.9653C73.5123 97.6912 73.6689 97.4611 73.8688 97.2769C74.0693 97.0921 74.3013 96.955 74.566 96.867C74.83 96.7796 75.1129 96.7463 75.4122 96.7683C75.7114 96.7903 76.0176 96.8714 76.3281 97.0116C76.672 97.1669 76.9561 97.3618 77.1806 97.5956C77.405 97.8282 77.5615 98.0904 77.6508 98.3789C77.3308 98.4657 77.1711 98.5097 76.8537 98.5996C76.7801 98.399 76.6764 98.2274 76.5431 98.0853C76.4105 97.9426 76.2458 97.8282 76.0521 97.7402C75.8654 97.656 75.6825 97.6069 75.5046 97.5931C75.3267 97.5799 75.1582 97.6006 75.0016 97.6553C74.8451 97.7094 74.7062 97.7949 74.5848 97.9099C74.4635 98.0256 74.3661 98.1696 74.2919 98.3418C74.219 98.5109 74.1825 98.6788 74.1806 98.846C74.1787 99.0132 74.2095 99.1729 74.273 99.3251C74.3359 99.4778 74.4296 99.6142 74.5528 99.7343C74.676 99.8544 74.8256 99.9543 75.0029 100.034C75.1726 100.111 75.3499 100.159 75.5354 100.181C75.7208 100.203 75.9182 100.185 76.1295 100.131C76.2131 100.461 76.2539 100.626 76.3332 100.956C76.0641 101.007 75.7799 101.01 75.4794 100.965C75.1783 100.922 74.8973 100.841 74.6351 100.722ZM75.6033 100.484C75.8522 99.9455 75.9773 99.6771 76.2263 99.139C76.545 99.2867 76.7041 99.3615 77.0215 99.513C76.7455 100.09 76.6079 100.379 76.3319 100.956C76.0421 100.766 75.8962 100.672 75.6033 100.484Z" fill="#8e8e91"/>
</svg>
