<svg width="212" height="232" viewBox="0 0 212 232" fill="none" xmlns="http://www.w3.org/2000/svg">
<path d="M140.734 221.068C140.795 221.105 140.847 221.143 140.915 221.176C145.807 223.55 155.385 221.052 159.637 218.16C163.83 215.307 167.133 209.006 167.258 203.963C167.408 197.924 162.687 192.218 157.611 189.422C154.798 187.873 151.505 187.171 148.312 187.058C145.455 186.956 144.129 187.569 142.234 188.525C139.496 183.676 135.404 179.555 129.934 178.987C130.068 173.343 128.919 167.507 125.544 163.102C122.737 159.438 117.697 155.401 112.741 154.399C114.836 148.341 115.536 141.825 114.447 135.421C120.762 131.77 126.221 126.959 130.296 119.787C133.262 114.57 134.085 107.28 130.096 102.393C134.33 100.716 137.58 97.616 140.089 93.7129C141.732 94.9302 143.28 96.1623 145.385 97.1874C148.541 98.7256 151.534 99.8447 154.978 100.507C161.997 101.863 169.015 101.84 175.886 99.6593C178.012 98.9844 179.903 97.9987 181.592 96.773C185.362 100.417 193.622 99.8417 197.963 98.8509C206.082 96.9952 208.198 90.7638 210.499 83.3189C214.485 70.4282 206.369 47.3997 190.654 46.5238C188.029 40.3595 183.947 34.8232 178.347 30.115C169.19 22.4111 153.808 18.5583 142.492 24.1615C139.217 17.2553 134.523 11.1336 128.062 6.64213C112.007 -4.52291 91.6855 2.64043 75.2554 9.46161C68.1519 12.4113 60.6015 16.1941 56.3728 22.9104C54.3834 26.071 52.8193 29.642 52.5407 33.3949C52.0299 32.9902 51.5272 32.5792 50.9958 32.1997C40.0278 24.4135 24.4323 29.9339 15.6956 38.4573C5.5526 48.3504 0.47587 62.2941 0.313805 76.2971C0.217844 84.5759 1.88762 92.541 4.91656 99.9891C4.41251 100.056 3.95804 100.472 4.02363 101.072C4.19912 102.664 2.80319 105.506 2.45295 107.139C1.87241 109.831 1.38834 112.548 1.05283 115.282C0.516603 119.67 0.240999 124.2 0.363085 128.624C0.598548 137.254 2.29068 146.461 5.59308 154.461C10.3431 165.958 18.7698 176.181 29.7427 181.832C27.9831 186.968 31.2886 193.828 33.2847 198.321C36.7051 206.013 40.5753 210.981 47.7151 215.611C60.6206 223.976 77.517 223.252 92.0502 218.799C95.3974 226.061 106.96 229.665 114.1 230.763C122.773 232.097 133.206 229.606 139.204 222.948C139.753 222.342 140.253 221.711 140.734 221.068ZM185.683 92.9141C191.057 86.427 193.355 76.9823 194.007 68.9046C194.557 62.0868 193.854 55.6543 191.887 49.7358C201.399 54.0883 207.231 69.7027 205.563 78.8719C204.732 83.4348 202.559 91.0459 198.1 93.0607C195.499 94.2349 188.566 94.9763 185.683 92.9141ZM142.998 88.1239C147.354 77.7768 148.291 64.5675 148.556 55.8633C148.836 46.643 147.551 36.8922 144.194 28.1052C149.645 26.9619 155.454 27.0881 160.878 28.0654C167.455 29.2493 172.48 32.8326 177.288 37.2728C186.237 45.532 189.768 58.6874 188.775 70.6524C188.267 76.7731 187.014 82.2368 184.076 87.67C183.349 89.0145 182.529 90.1459 181.627 91.1137C181.062 91.3899 180.572 91.8406 180.263 92.3952C177.312 94.8093 173.595 95.7812 169.185 96.0366C163.082 96.3938 156.05 95.3634 150.467 92.8324C147.661 91.5606 145.378 89.8102 142.998 88.1239ZM124.184 97.9024C120.398 95.8923 115.999 94.4026 112.575 92.7805C104.578 88.992 97.6844 85.0546 90.4461 79.962C88.8836 78.8642 87.3938 77.7211 85.9373 76.5573C84.4643 74.9892 83.0012 73.4004 81.5318 71.8035C72.001 61.4605 66.3871 46.9404 56.4636 36.902C56.7281 30.9665 60.2741 25.1219 64.8982 21.3471C70.2032 17.0149 76.9261 14.5102 83.3393 12.3378C98.1455 7.31472 113.928 1.9999 127.277 13.1751C139.7 23.5731 143.659 41.5375 142.833 57.1415C142.377 65.7581 141.633 77.4594 137.347 86.2487C136.616 86.7766 136.121 87.6991 136.013 88.6908C133.352 93.0418 129.602 96.4143 124.254 97.8788C124.227 97.8843 124.208 97.8952 124.184 97.9024ZM78.0602 141.644C64.497 142.611 49.0669 139.201 37.2693 132.302C12.2301 117.657 -4.47147 83.6416 10.1495 56.2416C16.3815 44.5629 27.6624 33.27 42.0959 36.0503C49.4599 37.4679 54.4725 45.584 58.3955 51.3656C61.9929 56.6628 65.1785 62.1349 69.0905 67.216C76.4518 76.7717 85.0093 86.7735 95.2204 93.3688C100.129 96.54 105.583 99.3829 111.254 100.886C114.024 101.62 116.753 102.057 119.61 101.878C120.149 102.192 120.692 102.502 121.22 102.832C132.439 109.858 123.61 120.731 116.584 127.042C111.34 131.754 105.17 133.982 98.6625 136.256C91.8375 138.638 85.364 141.125 78.0602 141.644ZM105.326 156.99C101.282 165.309 94.9601 171.14 86.8589 175.384C71.6799 183.338 52.2641 186.343 35.8969 179.792C20.9575 173.814 10.3912 156.624 7.54686 141.38C6.05253 133.379 5.37194 125.291 5.89509 117.155C6.09965 113.96 7.43422 109.12 7.24297 105.083C9.55981 109.656 12.3821 114.007 15.6358 118.072C25.2649 130.088 36.8329 137.968 51.3621 142.779C66.4761 147.782 81.9235 147.986 97.0077 142.855C100.976 141.504 104.81 140.096 108.45 138.465C108.791 144.974 108.48 150.504 105.326 156.99ZM121.615 191.511C116.807 201.894 102.291 209.94 91.7659 212.999C78.4205 216.875 63.155 218.953 50.9162 211.104C45.5203 207.645 41.8569 203.905 39.1494 198.064C37.142 193.735 34.7173 188.895 34.6596 183.969C36.7993 184.748 39.0116 185.377 41.3035 185.798C59.859 189.198 78.4278 186.326 94.7349 176.67C102.203 172.248 108.048 165.407 111.499 157.56C117.142 159.878 122.802 167.064 123.953 172.115C125.409 178.481 124.343 185.619 121.615 191.511ZM130.74 222.655C119.007 228.441 107.1 224.247 97.5583 216.899C111.89 211.371 126.303 201.11 129.271 185.282C129.47 184.218 129.626 183.118 129.741 181.999C144.393 188.164 144.775 215.734 130.74 222.655ZM143.334 216.809C146.719 209.903 147.25 201.632 144.837 194.406C144.429 193.181 143.933 191.937 143.361 190.709C151.465 190.37 162.596 195.612 161.105 204.656C160.589 207.773 158.766 211.453 156.135 213.39C153.69 215.193 146.808 217.685 143.334 216.809Z" fill="white"/>
</svg>
