<svg width="176" height="100" viewBox="0 0 176 100" fill="none" xmlns="http://www.w3.org/2000/svg">
<path d="M69.5447 75.8445C63.2834 82.4187 58.257 87.2942 48.9201 89.4258C38.2696 91.9358 27.5269 90.1997 17.6881 83.6237C14.0827 81.2136 9.75517 75.6455 7.74802 70.9932C1.62992 56.813 10.1811 33.7897 12.6509 30.387C17.8688 40.4781 26.7251 44.6921 36.6365 45.8436C75.9062 50.4602 88.1388 4.54029 50.9989 1.38399C35.9528 0.0887944 21.8742 6.34695 11.9807 19.7907C10.8908 14.7019 9.84826 7.81353 10.7297 1.81958C11.1315 -0.846672 9.15296 -0.222729 8.8165 1.39559C7.11002 8.45443 8.11224 17.2432 9.79098 23.072C-0.474751 36.7157 -3.94232 61.2002 5.62275 75.6857C7.70059 78.8321 12.65 85.5696 24.5999 90.3773C32.9157 93.7228 42.207 93.6175 49.8231 91.2994C59.2369 88.2984 63.9393 83.8156 70.3456 77.0906C71.8221 75.5678 70.7536 74.5351 69.5447 75.8445ZM51.9537 4.95982C79.7854 8.1804 72.3751 46.3863 38.0003 43.5326C27.6209 42.6757 19.0384 38.0787 14.4684 27.3039C23.4733 12.7479 37.7506 3.26117 51.9537 4.95982Z" fill="#8e8e91"/>
<path d="M76.0687 69.6144C73.4996 69.6849 71.6742 68.7941 70.5252 67.5444C68.1771 69.4047 65.6374 70.6704 63.1515 70.6526C56.6343 70.6588 55.4782 62.9046 58.5252 55.212C61.6518 47.257 68.5824 40.3972 74.4106 40.407C80.926 40.3169 82.0839 48.1532 79.0361 55.8493C77.8325 58.8762 75.2867 62.9644 72.1144 66.1296C72.8348 67.3954 74.1448 68.2148 76.2003 68.1595C81.683 68.0095 85.8495 57.2891 87.7931 53.1304C88.1976 52.2655 89.6651 52.5672 89.0996 53.865C87.734 57.1526 83.2678 69.4181 76.0687 69.6144ZM64.4294 54.7086C61.2778 61.8067 60.671 67.8122 63.7824 68.6665C65.4209 69.0512 67.5399 68.1363 69.5506 66.3707C68.5717 65.0299 68.0983 63.5036 68.0634 62.2227C68.0956 60.2526 68.8214 58.5227 70.9636 58.4647C72.4204 58.4245 73.5676 59.5921 73.6043 60.9587C73.6142 61.3015 73.5354 61.5594 73.4576 61.9049C74.3623 60.5097 75.2616 58.8601 75.9882 57.2159C79.1381 50.1151 79.3994 44.0355 76.2898 43.1813C72.577 42.253 67.4155 47.8684 64.4294 54.7086Z" fill="#8e8e91"/>
<path d="M89.0354 60.8779C90.1862 62.2141 91.2717 64.2368 91.9535 67.2119L92.239 68.3179C97.3915 68.5187 102.013 58.898 104.679 52.838C105.248 51.7107 106.545 52.1034 105.98 53.4013C103.007 60.6663 98.5387 69.7693 92.4555 69.9353C93.8112 81.8714 87.797 100.17 78.5308 99.9943C76.1299 99.9755 74.1325 99.0874 73.9536 95.6704C73.6296 90.1192 77.2878 79.6729 82.0171 67.6529C80.1424 64.9679 80.8135 61.2706 82.409 60.0299C83.2484 59.3229 84.3482 58.8641 85.4676 59.0043C91.2573 44.991 97.5607 30.9617 102.032 22.032C103.817 18.3035 105.553 15.9461 109.153 15.8488C110.182 15.8193 111.654 16.3817 112.935 16.1755C107.677 21.3652 97.0765 41.4143 89.0354 60.8779ZM85.6582 69.0953C82.8681 76.6969 80.3419 84.7197 79.125 90.3995C77.0838 100.375 80.98 98.6455 84.2014 94.111C88.2488 88.525 91.047 77.9278 90.6667 70.3271C88.9575 70.5458 86.7992 70.0049 85.6582 69.0953ZM89.575 64.8822C89.2099 64.1217 88.6757 63.3674 88.2309 62.8666L86.4645 67.1923C87.005 68.117 88.3929 68.7633 89.9374 68.7213L90.4511 68.7079C90.3249 67.2565 90.0332 65.981 89.575 64.8822Z" fill="#8e8e91"/>
<path d="M106.002 60.4169C107.153 61.7532 108.238 63.7759 108.92 66.751L109.206 67.8569C114.358 68.0578 118.98 58.4371 121.646 52.3771C122.215 51.2497 123.512 51.6425 122.947 52.9404C119.973 60.2054 115.506 69.3083 109.422 69.4743C110.778 81.4105 104.764 99.7092 95.4975 99.5333C93.0948 99.5146 91.0993 98.6264 90.9204 95.2095C90.5964 89.6583 94.2546 79.2119 98.9838 67.1919C97.1091 64.5069 97.7803 60.8097 99.3758 59.5689C100.215 58.862 101.315 58.4032 102.434 58.5433C108.224 44.5301 114.527 30.5008 118.999 21.571C120.783 17.8425 122.52 15.4851 126.119 15.3878C127.148 15.3584 128.62 15.9207 129.902 15.7145C124.643 20.9042 114.042 40.9534 106.002 60.4169ZM102.625 68.6344C99.8331 76.2359 97.3087 84.2588 96.0917 89.9386C94.0505 99.9145 97.9468 98.1846 101.168 93.6501C105.216 88.064 108.012 77.4669 107.632 69.8662C105.925 70.0849 103.763 69.544 102.625 68.6344ZM106.542 64.4212C106.177 63.6607 105.642 62.9065 105.198 62.4057L103.431 66.7313C103.972 67.6561 105.36 68.3023 106.903 68.2613L107.417 68.247C107.291 66.7956 106.999 65.52 106.542 64.4212Z" fill="#8e8e91"/>
<path d="M128.11 69.2201C123.826 69.337 119.892 66.6216 119.659 61.24C119.434 56.1137 122.171 49.6253 125.82 45.0774C130.049 39.8305 136.473 36.4047 140.32 39.1236C143.643 41.514 141.318 47.3937 135.948 51.7301C133.347 53.7679 127.827 55.7138 125.515 55.7763C124.313 58.8907 123.093 67.5616 128.748 67.408C136.288 67.2018 140.637 56.9903 142.484 52.4067C143.127 50.8499 144.836 50.6321 144.028 52.4513C141.046 59.3736 137.621 68.9603 128.11 69.2201ZM130.994 46.1324C128.841 48.929 126.801 52.7485 126.072 54.3079C127.614 54.2669 132.037 52.9476 135.051 50.2992C141.916 44.2097 141.184 33.1109 130.994 46.1324Z" fill="#8e8e91"/>
<path d="M149.187 68.6462C144.904 68.7632 140.97 66.0478 140.738 60.6653C140.51 55.5399 143.25 49.0514 146.898 44.5035C151.127 39.2567 157.551 35.8308 161.398 38.5489C164.72 40.9393 162.396 46.8199 157.027 51.1553C154.425 53.1941 148.905 55.14 146.591 55.2025C145.391 58.3159 144.171 66.9877 149.827 66.8333C157.367 66.628 161.717 56.4164 163.564 51.8328C164.206 50.2761 165.916 50.0574 165.107 51.8775C162.123 58.8006 158.699 68.3874 149.187 68.6462ZM152.072 45.5595C149.919 48.3561 147.88 52.1756 147.15 53.735C148.692 53.6931 153.115 52.3747 156.129 49.7254C162.995 43.6359 162.261 32.538 152.072 45.5595Z" fill="#8e8e91"/>
<path d="M114.526 74.1546C112.859 74.1487 112.023 74.9125 112.018 76.4458L111.618 76.4444L111.623 74.9444C111.627 73.8778 112.196 73.3464 113.329 73.3504L122.629 73.3828L122.626 74.1828L118.126 74.1671L118.083 86.5671L116.283 86.5608L116.326 74.1608L114.526 74.1546ZM126.403 86.5962C125.909 86.5945 125.536 86.5332 125.283 86.4123C125.044 86.2781 124.871 86.0442 124.766 85.7105C124.66 85.3767 124.609 84.8699 124.611 84.1899L124.649 73.3899L126.449 73.3962L126.411 84.1962C126.409 84.8762 126.5 85.3832 126.686 85.7172C126.871 86.0378 127.244 86.1991 127.804 86.2011L128.204 86.2025L128.203 86.6025L126.403 86.5962ZM145.343 87.5623C144.383 87.559 143.637 87.4097 143.104 87.1145C142.572 86.8193 142.194 86.3646 141.969 85.7505C141.758 85.1231 141.654 84.2894 141.658 83.2494L141.685 75.5494L136.646 86.6319L136.246 86.6305L131.086 75.3124L131.046 86.6124L130.246 86.6096L130.292 73.4096L132.192 73.4162L136.956 83.833L141.692 73.4494L143.492 73.4557L143.458 83.2557C143.454 84.4957 143.603 85.4562 143.908 86.1373C144.225 86.8184 144.704 87.1601 145.344 87.1623L145.343 87.5623ZM147.676 75.8703C147.678 75.1903 147.587 74.69 147.401 74.3693C147.216 74.0354 146.843 73.8674 146.283 73.8654L145.883 73.864L145.884 73.464L154.404 73.4938C155.538 73.4977 156.103 74.033 156.099 75.0997L156.094 76.5997L155.694 76.5983C155.699 75.065 154.868 74.2954 153.202 74.2896L149.482 74.2766L149.463 79.4766L154.863 79.4955L154.861 80.2955L149.461 80.2766L149.441 85.8766L152.941 85.8888C153.861 85.892 154.582 85.7279 155.103 85.3964C155.624 85.0648 156.039 84.4996 156.349 83.7007L156.748 83.8021L156.042 85.6996C155.799 86.3655 155.298 86.6971 154.538 86.6944L147.638 86.6703L147.676 75.8703Z" fill="#595959"/>
</svg>
