<svg width="219" height="283" viewBox="0 0 219 283" fill="none" xmlns="http://www.w3.org/2000/svg">
<g opacity="0.2" clip-path="url(#clip0_5827_5545)">
<path d="M313.472 38.2653C313.252 33.0234 311.219 27.6316 308.592 23.2847C305.224 17.7166 299.47 15.0097 294.25 11.4695C287.47 6.87573 279.631 4.43335 271.563 3.15925C266.207 1.69558 260.661 0.71244 254.7 0.306845C239.464 -0.733595 224.581 0.976962 209.631 3.8514C179.097 9.72812 149.766 19.3742 121.604 32.5076C93.5734 45.5836 67.1304 60.1277 45.2194 82.3825C35.8555 91.892 27.8317 102.72 22.1666 114.826C17.4009 125.001 12.3839 137.702 14.9629 149.129C16.2855 154.98 19.1599 158.573 22.9646 160.856C20.9763 162.267 19.1996 164.216 17.6874 165.746C12.3442 171.142 4.13527 177.592 1.02277 184.579C-0.842086 188.767 -0.339485 194.023 4.05593 196.187C9.27135 198.757 18.0005 194.957 22.9382 193.211C27.3821 191.637 31.4512 188.648 36.1905 187.939C32.862 193.921 33.6424 205.097 36.0803 210.277C38.3861 215.18 42.3847 217.732 46.9652 218.539C45.0519 225.5 45.8851 234.445 50.5054 239.643C49.3194 240.988 48.8963 243.095 48.6317 244.788C47.7985 250.127 49.8617 256.661 52.4981 261.21C58.3352 271.262 67.0554 282.037 79.5187 282.711C93.6087 283.474 109.458 279.466 123.103 276.208C139.11 272.391 154.765 267.501 170.456 262.573C186.367 257.569 202.171 253.932 217.791 247.879C233.768 241.689 249.67 235.349 265.334 228.401C294.868 215.299 325.089 199.489 347.15 175.356C351.691 170.388 357.272 164.502 359.437 157.986C361.742 151.052 361.152 142.402 359.877 135.344C357.422 121.756 351.126 111.294 338.654 107.036C339.611 104.937 340.4 102.724 341.004 100.414C342.459 94.8678 342.86 88.4444 341.233 82.8939C339.748 77.8196 336.318 74.0326 333.126 70.0471C338.474 66.3924 343.116 61.512 343.799 54.7536C345.593 36.9294 326.746 37.6436 313.472 38.2653ZM29.4012 119.397C34.6034 107.904 41.9659 97.6717 50.6729 88.5635C70.0754 68.2661 93.7233 54.4979 118.773 42.3829C145.997 29.2143 173.828 19.2552 203.278 12.3336C206.787 11.5092 210.297 10.7553 213.801 10.072C220.679 9.18585 227.631 8.66564 234.69 8.67446C246.875 8.68769 259.422 8.54219 271.405 10.9846C277.665 12.2587 283.797 14.2955 289.083 17.9546C294.493 21.6976 300.237 24.7484 302.993 31.0395C306.189 38.3358 305.298 43.7584 300.638 50.0848C296.464 55.7543 291.169 60.8287 285.517 64.9684C275.086 72.6086 263.474 78.5162 252.033 84.4987C228.985 96.5475 204.975 106.63 180.706 115.932C155.819 125.468 131.4 136.119 106.301 145.148C94.1553 149.517 81.8905 153.066 69.2025 155.46C62.1795 156.787 55.2579 157.409 48.1027 157.043C42.3626 156.747 34.6519 157.246 29.3792 154.852C16.6206 149.041 25.2219 128.634 29.4012 119.397ZM81.7054 232.417C91.0164 230.226 98.9255 224.076 106.006 217.931C109.674 214.743 112.601 212.213 114.735 208.761C118.359 209.347 122.287 208.977 127.181 207.786C127.471 207.716 127.754 207.628 128.04 207.548C125.091 212.486 121.974 217.305 117.671 221.206C110.335 227.863 100.314 232.206 90.9018 235.032C82.3402 237.606 73.4039 241.636 64.3662 239.493C57.1007 237.77 52.5687 233.224 52.7274 225.372C52.7715 223.124 52.8816 220.906 52.8243 218.685C54.0146 218.552 55.2094 218.341 56.3997 218.036C58.6834 217.45 60.8613 216.467 63.0348 215.792C60.8084 227.436 69.2069 235.358 81.7054 232.417ZM64.8334 215.321C66.7644 214.924 68.7131 214.915 70.7631 215.797C74.6427 217.468 77.0189 219.747 81.5378 219.76C86.4314 219.778 90.8841 217.688 94.7549 214.831C96.752 213.359 98.7889 211.71 100.508 209.916C101.756 208.615 103.026 205.82 104.582 204.273C106.09 205.344 107.54 206.212 108.99 206.913C108.144 207.897 107.267 208.866 106.266 209.783C101.994 213.685 97.6161 217.41 92.9606 220.867C83.4159 227.947 63.1978 233.78 64.8334 215.321ZM351.946 143.367C352.524 150.439 351.946 155.804 347.815 161.623C344.222 166.693 340.246 171.437 335.903 175.885C316.95 195.283 291.23 208.933 266.763 220.038C243.613 230.544 219.868 241.248 195.638 249.025C183.298 252.988 170.645 255.616 158.345 259.83C146.658 263.838 134.794 267.585 122.816 270.627C115.22 272.558 107.796 273.709 100.067 274.82C93.5249 275.759 86.33 277.557 79.7038 276.482C69.7888 274.873 50.7302 255.073 55.1829 243.302C62.6688 247.596 72.1871 247.253 80.2153 244.929C101.311 238.819 128.415 227.37 136.236 205.163C147.976 220.355 175.363 217.375 190.987 210.987C202.643 206.226 223.434 192.797 224.087 177.733C238.719 189.164 260.233 183.79 276.144 176.031C284.097 172.151 291.42 165.291 295.599 157.413C297.773 153.313 299.73 146.753 299.038 141.295C309.09 143.385 316.964 144.28 326.896 137.433C334.695 132.055 341.48 125.107 337.87 115.782C340.951 117.594 343.768 119.671 345.884 122.885C349.768 128.797 351.373 136.388 351.946 143.367ZM172.171 199.123C178.21 200.477 184.286 200.12 189.902 197.417C197.278 193.868 205.284 187.383 207.047 179.262C210.967 178.288 214.745 176.595 218.025 174.219C217.866 178.337 217.205 181.524 214.507 185.276C212.091 188.635 209.115 191.426 205.866 193.978C199.332 199.119 192.565 203.417 184.735 206.265C170.469 211.454 150.119 211.468 136.778 203.51C136.782 203.501 136.787 203.492 136.787 203.479C138.048 202.628 139.26 201.694 140.406 200.666C142.32 198.951 143.47 197.21 145.005 195.257C147.108 192.581 147.332 191.686 150.89 192.202C155.056 192.801 158.623 193.956 162.833 193.683C165.818 195.632 168.115 198.215 172.171 199.123ZM167.546 192.912C171.893 191.854 176.103 189.962 179.714 187.396C184.025 184.337 186.609 178.755 192.226 178.994C195.66 179.139 198.468 179.765 201.493 179.849C201.118 180.827 200.686 181.78 200.06 182.661C196.771 187.313 190.877 192.237 185.454 194.146C182.209 195.288 178.625 195.407 175.239 195.164C172.197 194.944 169.931 193.895 167.546 192.912ZM222.544 170.106C223.844 168.638 225.013 167.055 226.049 165.388C227.658 162.805 227.623 161.879 229.994 162.1C235.135 164.921 239.649 168.854 245.729 169.405C251.513 169.929 257.668 167.769 262.931 165.671C267.9 163.687 274.019 161.178 277.639 157.047C279.014 155.482 279.975 153.825 280.407 151.779C280.725 150.267 280.398 148.556 280.487 146.974C283.471 146.405 286.368 145.391 289.132 143.998C290.552 143.283 291.918 142.459 293.236 141.555C293.029 144.412 292.765 148.781 292.8 148.609C291.94 153.481 289.189 157.312 286.028 160.962C281.033 166.733 275.126 170.873 267.878 173.399C253.321 178.478 237.78 182.6 223.915 174.576C223.712 173.214 223.351 171.843 222.773 170.463C222.711 170.322 222.619 170.229 222.544 170.106ZM235.651 162.774C244.261 163.453 252.227 161.976 259.268 155.619C264.245 151.126 266.048 146.978 273.574 147.436C274.345 147.485 275.108 147.489 275.871 147.472C275.88 147.811 275.875 148.155 275.827 148.49C274.945 154.499 271.312 155.932 266.313 158.348C261.115 160.856 255.278 163.713 249.489 164.401C245.605 164.864 240.333 163.951 235.651 162.774ZM298.549 139.003C298.408 138.531 298.249 138.064 298.055 137.623C298.972 136.732 299.845 135.793 300.661 134.806C303.345 131.57 305.056 126.553 309.694 125.323C312.418 124.6 315.606 125.133 318.449 124.432C323.718 123.136 328.118 120.588 331.662 117.149C332.822 126.473 326.451 132.474 318.348 136.671C311.889 140.017 305.342 139.311 298.549 139.003ZM334.788 88.537C335.515 96.1507 332.107 104.562 327.492 110.492C321.434 118.269 314.23 117.052 305.872 118.983C300.511 120.222 298.439 124.772 295.017 128.695C289.952 134.497 283.044 139.571 275.064 139.884C268.68 140.131 264.51 136.878 259.775 142.322C254.357 148.552 249.864 153.851 240.945 154.949C235.748 155.588 230.44 151.554 225.573 153.141C219.899 154.988 217.43 163.687 212.752 167.187C205.698 172.464 199.438 172.094 191.362 170.767C187.05 170.057 184.965 171.155 182.227 174.444C177.069 180.638 171.214 185.311 163.062 186.911C158.358 187.837 155.435 187.026 151.044 185.946C149.484 185.562 147.923 185.064 146.288 185.373C141.628 186.25 139.952 191.483 136.615 194.256C131.439 198.55 123.658 201.376 116.798 201.447C116.115 200.803 114.88 200.688 114.021 201.209C109.969 200.089 107.372 195.711 102.995 196.743C97.3737 198.065 93.6836 206.12 88.9884 209.25C83.9405 212.618 80.0742 212.385 74.8543 210.136C72.6412 209.184 70.7807 207.897 68.3295 207.725C63.0479 207.359 58.2558 210.405 53.2564 211.441C46.1673 212.909 40.9827 209.307 39.5367 201.936C38.8225 198.308 37.8438 191.166 40.22 187.987C44.0423 188.812 46.4142 191.734 49.994 193.873C56.2719 197.616 61.9194 197.532 68.5896 194.838C75.7713 191.937 80.9912 187.088 86.5593 181.846C89.7291 178.861 92.8768 175.793 96.5404 173.403C103.749 168.695 108.603 172.081 115.921 172.883C122.745 173.633 129.962 172.103 135.848 168.66C144.692 163.479 151.657 153.736 161.7 151.06C169.349 149.024 177.417 150.721 185.123 148.838C194.139 146.634 201.788 141.172 208.533 135C211.976 131.848 215.261 128.625 219.647 126.756C224.77 124.569 230.678 123.824 236.083 122.62C244.102 120.83 252.254 119.468 259.316 115.024C267.155 110.091 272.983 101.622 281.615 97.9891C285.614 96.3094 289.93 96.8164 293.995 95.4586C297.91 94.1492 301.075 91.4467 303.976 88.6031C308.609 84.0578 312.718 80.2752 318.674 77.4052C321.553 76.0209 324.498 74.8173 327.346 73.4065C330.247 78.3045 334.197 82.3429 334.788 88.537ZM326.217 65.493C319.79 69.4608 312.308 71.2287 306.092 75.6285C299.739 80.1253 296.067 86.5928 287.911 88.1005C281.214 89.3394 276.219 90.662 270.567 94.762C264.854 98.9061 260.299 104.496 254.418 108.411C241.444 117.043 223.791 114.87 210.945 123.881C205.809 127.483 201.726 132.332 196.48 135.82C188.747 140.96 181.081 142.746 171.884 142.719C165.928 142.702 159.976 142.587 154.377 144.985C147.509 147.93 141.949 153.556 136.037 157.978C129.764 162.668 122.763 165.604 114.713 164.538C107.862 163.629 103.052 161.637 96.3685 164.89C83.7465 171.027 76.3312 186.885 62.0913 189.702C53.4989 191.404 49.7824 183.089 42.226 181.334C36.0627 179.902 30.2388 182.551 24.7677 185.02C21.1526 186.651 15.7079 189.182 11.5682 189.191C9.0024 189.195 5.91635 193.15 9.18316 184.288C9.79155 182.635 11.9915 180.88 13.0848 179.527C15.4567 176.595 17.8771 173.712 20.3944 170.904C22.0124 169.096 25.2042 164.714 28.0169 163.047C31.4204 164.075 35.2206 164.56 39.1707 164.873C54.0279 166.054 67.5756 164.74 82.0889 161.346C111.358 154.499 139.913 141.82 167.383 129.837C197.031 116.902 227.213 105.422 255.904 90.3534C268.226 83.8815 281.254 77.7579 292.394 69.3241C299.796 63.7164 309.31 55.1989 312.454 45.6674C318.145 45.7203 324.132 45.0766 329.546 46.4874C342.75 49.9393 332.583 61.5649 326.217 65.493Z" fill="#00833E"/>
<path d="M135.116 174.757C128.913 176.719 124.253 181.639 118.209 183.826C116.212 184.549 111.834 185.726 110.035 184.099C109.506 183.623 109.656 182.345 109.118 181.807C108.179 180.868 108.029 179.814 106.61 179.325C103.334 178.201 101.905 181.436 100.429 183.667C95.4115 191.237 84.5266 197.77 75.2376 193.692C74.1045 193.194 73.095 194.79 74.1046 195.566C79.6595 199.829 85.3731 199.843 92.1271 197.85C95.2396 196.933 97.9509 195.253 100.332 193.062C101.8 191.709 104.07 189.526 105.106 187.587C106.795 191.457 112.292 192.123 115.907 191.435C124.182 189.857 132.083 184.223 137.435 177.923C138.81 176.296 136.937 174.18 135.116 174.757Z" fill="#00833E"/>
<path d="M202.687 148.68C199.341 152.621 197.009 158.802 192.345 161.452C188.271 163.767 185.203 164.08 181.156 161.95C179.979 161.329 179.167 160.05 177.779 159.781C176.183 159.472 176.271 159.574 174.693 160.16C174.287 160.31 168.922 165.905 169.733 165.411C165.686 168.603 161.722 169.643 156.652 167.399C155.718 166.985 154.805 168.365 155.7 168.973C160.166 172.006 165.13 173.316 170.147 170.543C172.669 169.149 173.079 167.703 174.873 165.715C177.011 163.348 174.613 161.866 179.639 164.957C180.309 165.367 180.697 166.178 181.442 166.513C192.495 171.433 205.809 161.205 205.818 149.61C205.826 147.975 203.604 147.604 202.687 148.68Z" fill="#00833E"/>
</g>
<defs>
<clipPath id="clip0_5827_5545">
<rect width="219" height="283" fill="white"/>
</clipPath>
</defs>
</svg>
