<svg width="259" height="360" viewBox="0 0 259 360" fill="none" xmlns="http://www.w3.org/2000/svg">
<g clip-path="url(#clip0_5798_6769)">
<path d="M64.0159 14.3914C65.8238 17.3252 67.5644 20.1065 69.7311 22.798C72.0952 25.7453 74.2799 28.9664 76.8369 31.7477C79.0395 34.1387 81.9688 35.6729 83.9157 38.2792C83.9741 38.36 84.0413 38.4138 84.0996 38.4855C84.9161 41.9891 88.7023 45.6272 90.537 47.8612C97.9299 56.8735 106.494 65.4328 116.403 71.7625C116.013 72.0272 115.717 72.4041 115.614 72.9155C114.263 79.6714 119.485 88.0376 122.903 93.5688C128.461 102.554 135.177 110.66 141.404 119.175C153.309 135.445 168.539 147.93 184.034 160.45C184.514 162.828 185.904 165.358 186.846 167.085C197.33 186.348 210.618 203.305 225.547 219.351C232.594 226.932 240.243 233.94 247.264 241.503C253.059 247.747 257.622 255.181 263.126 261.663C266.621 273.551 273.309 283.092 279.756 293.648C286.489 304.665 292.195 316.58 300.593 326.467C306.012 332.842 315.536 338.674 323.552 332.828C331.717 326.871 326.903 318.59 322.87 311.839C314.351 297.587 306.945 282.751 299.287 268.051C297.112 262.529 294.896 257.024 292.235 251.659C286.619 240.323 280.541 229.391 273.865 218.62C270.779 213.645 267.554 208.737 263.987 204.09C261.48 200.824 259.618 196.347 256.002 194.189C254.639 193.373 253.14 193.705 251.951 194.642C251.494 195.001 251.166 195.495 250.897 196.047C247.681 193.068 244.262 190.327 240.723 187.73C236.73 181.202 232.967 174.433 228.885 167.969C222.613 158.037 216.005 148.307 210.514 137.913C205.643 128.694 199.995 120.117 193.593 111.89C190.283 107.632 186.017 97.3999 179.346 99.1987C178.677 99.3782 178.148 99.7012 177.731 100.118C176.381 97.9068 174.82 95.8073 173.541 93.8604C169.109 87.127 165.098 80.1962 160.648 73.4851C151.416 59.5652 143.35 44.9409 132.75 32.0078C129.709 28.2979 114.057 7.6714 107.324 14.4542C106.184 15.6026 105.937 17.2714 106.081 19.0209C102.923 16.0198 99.5224 13.2519 96.934 10.7757C92.9684 6.97604 86.0286 0.475843 80.1789 0.0227592C75.352 -0.354063 75.5628 4.0288 76.9355 7.20487C77.106 7.59515 77.263 8.00336 77.429 8.40261C70.7718 4.25309 61.3827 0.00484609 60.8443 8.12895C60.7008 10.3899 62.9886 12.7181 64.0159 14.3914ZM229.1 179.839C220.931 174.608 212.556 169.642 204.768 164.026C201.35 161.563 193.661 153.883 188.242 154.372C187.098 147.952 185.402 141.645 184.42 135.176C183.675 130.26 182.858 125.464 182.513 120.494C182.298 117.443 180.925 112.365 181.445 108.579C183.154 110.97 185.146 114.42 185.927 115.362C189.148 119.251 192.31 123.113 195.24 127.236C201.058 135.432 205.356 144.494 210.914 152.842C216.651 161.469 222.263 171.351 229.1 179.839ZM258.703 226.587C258.438 225.107 255.845 212.075 255.374 204.794C255.45 204.848 255.531 204.897 255.612 204.956C255.738 205.041 255.863 205.081 255.989 205.122C256.052 205.22 256.114 205.337 256.177 205.427C257.797 207.759 259.802 209.89 261.498 212.187C265.019 216.96 268.24 221.931 271.385 226.955C277.67 236.986 283.506 247.142 289.113 257.554C290.154 259.487 291.118 261.461 292.052 263.444C293.438 266.588 294.828 269.738 296.228 272.873C298.399 277.978 300.539 283.097 303.047 288.054C308.425 298.69 314.746 308.734 321.273 318.693C321.327 318.913 321.372 319.128 321.394 319.335C322.83 321.264 321.785 322.897 318.254 324.224C316.657 328.499 314.369 329.325 311.391 326.705C309.251 325.341 307.528 323.219 305.936 321.299C302.58 317.249 299.767 312.745 296.914 308.331C291.545 300.023 286.588 291.369 280.68 283.429C276.019 277.162 271.905 271.249 268.895 264.431C269.038 264.045 269.039 263.605 268.783 263.161C268.303 262.327 267.832 261.488 267.374 260.649C266.944 259.456 266.544 258.236 266.181 256.971C263.314 246.989 260.524 236.82 258.703 226.587ZM189.359 162.909C189.421 162.873 189.484 162.837 189.547 162.796C189.717 162.886 189.964 163.034 190.323 163.272C197.173 167.789 203.871 172.576 210.828 176.936C223.977 185.177 237.35 192.879 250.278 201.38C250.731 206.988 253.297 214.179 253.755 217.4C255.163 227.3 257.205 237.196 259.492 246.994C258.653 245.792 257.774 244.603 256.796 243.459C251.032 236.707 244.464 230.997 238.229 224.703C232.343 218.759 226.404 212.595 221.065 206.171C215.247 199.169 208.505 193.256 203.18 185.823C200.475 182.041 197.824 178.3 195.576 174.222C194.029 171.414 193.055 167.848 191.409 165.291C190.978 164.622 189.717 163.398 189.359 162.909ZM119.781 76.9976C125.048 79.761 129.942 83.9958 134.715 87.3334C139.596 90.7427 144.651 93.865 149.608 97.1622C158.45 103.043 167.857 108.382 176.592 114.366C177.255 120.364 178.646 126.46 179.597 131.951C180.92 139.59 181.997 147.405 183.697 155.018C182.096 153.833 180.508 152.627 179.014 151.321C175.64 148.374 172.998 144.709 169.8 141.551C163.143 134.974 156.665 128.142 150.411 121.18C144.113 114.164 137.878 106.699 132.306 99.1045C128.834 94.3718 120.342 84.404 119.781 76.9976ZM69.0896 10.6007C72.6111 11.4037 75.9935 13.1353 79.5329 13.7902C81.3991 18.6665 83.4223 23.5876 86.8361 27.2751C88.7247 29.3118 91.6361 26.8086 90.555 24.5118C88.1998 19.5189 86.8137 14.3735 84.2791 9.38953C84.1849 9.20112 83.7453 8.22321 83.2159 7.15106C83.5793 7.33499 83.8081 7.43368 83.7408 7.40228C93.3318 12.3593 101.039 21.2863 109.073 28.7554C111.217 34.3405 113.407 39.9166 115.654 45.4657C108.414 45.8695 115.51 61.2475 118.292 64.0198C119.229 64.9574 121.244 64.4055 121.145 62.9117C120.894 59.0044 118.893 55.6264 117.893 51.8806C117.7 51.2661 117.556 50.6381 117.448 50.0011C117.605 50.4721 117.767 50.9387 117.924 51.4097C119.561 52.4774 121.131 53.4059 122.666 54.6575C124.9 56.4744 127.125 58.2463 129.439 59.96C130.929 61.0635 132.364 62.2792 133.925 63.2796C135.181 64.0826 136.711 64.5536 137.927 65.3746L137.931 65.3565C138.748 65.85 139.928 64.9931 139.425 63.9255C137.451 59.7311 132.723 56.6268 129.35 53.6078C126.371 50.9431 123.365 47.7849 119.561 46.2732C117.897 41.2578 116.219 36.2471 114.425 31.2766C114.515 31.0613 114.542 30.8056 114.447 30.505C114.044 29.2265 113.424 27.9749 112.666 26.7502C111.54 24.256 109.602 19.7072 111.949 19.7476C113.209 19.77 116.282 24.0587 117.031 24.8796C126.245 35 133.993 46.5692 140.749 58.4167C146.894 69.192 154.485 80.0482 161.756 90.1012C165.179 94.8295 170.491 103.088 176.255 106.986C176.242 107.614 176.215 108.238 176.224 108.875C169.674 101.931 160.765 96.709 153.085 91.429C144.472 85.5076 135.217 77.6123 125.142 73.4942C119.095 67.7162 112.734 62.2388 106.767 56.3666C103.237 52.89 99.823 49.1532 96.4675 45.5016C95.1082 44.0257 92.7262 41.7603 91.7976 39.9704C90.8869 38.2074 90.0211 37.705 91.8021 37.6826C93.9015 38.5978 95.8484 39.7372 97.8851 40.7914C99.8275 41.8007 101.792 42.8236 103.802 43.6983C105.076 44.2546 107.682 44.6717 108.611 45.7304C109.024 46.1969 110.011 46.0309 110.118 45.3625C110.787 41.2219 104.134 38.1446 101.33 36.2739C98.3965 34.3225 91.2055 28.9977 87.9711 32.6718C87.5135 32.748 87.0649 32.8511 86.6522 33.0306C85.6922 31.9629 84.5796 31.142 83.2877 30.0564C80.5109 27.7102 78.5146 24.6553 76.3344 21.7843C74.2529 19.0478 72.0638 16.446 70.377 13.4359C70.0182 12.7675 69.583 11.628 69.0896 10.6007Z" fill="#00833E"/>
<path d="M4.44399 95.5921C6.80362 98.1043 9.06904 100.477 11.7292 102.684C14.6361 105.098 17.4219 107.816 20.4858 110.028C23.1236 111.93 26.2997 112.845 28.7311 115.007C28.8029 115.075 28.8791 115.115 28.9554 115.169C30.4582 118.439 34.8948 121.243 37.1423 123.064C46.1905 130.412 56.3019 137.079 67.2746 141.291C66.9471 141.627 66.7273 142.058 66.7318 142.578C66.7632 149.469 73.5594 156.619 78.014 161.348C85.2588 169.036 93.4682 175.631 101.278 182.723C116.203 196.275 133.627 205.454 151.319 214.61C152.27 216.844 154.137 219.042 155.406 220.549C169.541 237.313 185.96 251.26 203.801 263.991C212.225 270.002 221.126 275.336 229.519 281.334C236.45 286.286 242.412 292.657 249.105 297.905C254.91 308.851 263.379 316.858 271.813 325.902C280.619 335.345 288.599 345.874 298.809 353.877C305.395 359.036 315.896 362.84 322.576 355.505C329.381 348.027 323.002 340.885 317.695 335.081C306.489 322.829 296.257 309.78 285.809 296.914C282.57 291.939 279.295 286.995 275.617 282.272C267.843 272.29 259.692 262.802 250.993 253.593C246.974 249.336 242.829 245.177 238.401 241.341C235.288 238.645 232.565 234.635 228.59 233.244C227.092 232.719 225.692 233.343 224.714 234.5C224.338 234.944 224.113 235.492 223.965 236.088C220.219 233.814 216.317 231.818 212.333 229.983C207.116 224.389 202.069 218.512 196.771 212.999C188.634 204.525 180.209 196.32 172.744 187.241C166.123 179.184 158.869 171.921 150.951 165.138C146.856 161.63 140.625 152.465 134.448 155.561C133.829 155.87 133.375 156.292 133.052 156.785C131.285 154.892 129.338 153.147 127.692 151.496C121.999 145.79 116.679 139.801 110.972 134.122C99.1385 122.337 88.3003 109.624 75.3224 99.0823C71.5991 96.0543 52.1254 78.9896 46.8903 86.988C46.0066 88.3428 46.0963 90.0251 46.5853 91.7118C42.8888 89.406 39.004 87.3784 35.9714 85.4673C31.3284 82.5425 23.2223 77.5675 17.3995 78.2943C12.595 78.8954 13.6806 83.1436 15.6634 85.9832C15.9102 86.3331 16.1434 86.7009 16.3857 87.0598C9.03316 84.3278 -1.01992 82.0535 0.0836263 90.1192C0.393159 92.3353 3.0982 94.1611 4.44399 95.5921ZM199.36 224.564C190.307 221.078 181.106 217.893 172.35 213.95C168.505 212.223 159.434 206.239 154.222 207.804C151.813 201.744 148.888 195.903 146.627 189.766C144.909 185.101 143.15 180.566 141.814 175.761C140.993 172.818 138.628 168.117 138.377 164.304C140.531 166.305 143.177 169.288 144.128 170.05C148.063 173.213 151.938 176.362 155.63 179.816C162.974 186.675 169.003 194.696 176.122 201.762C183.475 209.065 190.957 217.62 199.36 224.564ZM237.733 264.426C237.176 263.027 232.022 250.785 230.102 243.746C230.192 243.782 230.277 243.818 230.367 243.854C230.51 243.912 230.636 243.925 230.77 243.939C230.851 244.024 230.936 244.123 231.017 244.199C233.076 246.16 235.467 247.846 237.589 249.757C241.994 253.727 246.148 257.953 250.24 262.242C258.409 270.81 266.16 279.589 273.746 288.664C275.155 290.351 276.496 292.087 277.806 293.845C279.798 296.649 281.785 299.453 283.79 302.243C286.939 306.81 290.066 311.395 293.516 315.75C300.918 325.09 309.127 333.663 317.516 342.11C317.61 342.312 317.7 342.514 317.762 342.716C319.557 344.317 318.857 346.125 315.668 348.135C314.959 352.643 312.886 353.913 309.441 351.943C307.072 351.037 304.96 349.306 303.013 347.74C298.912 344.443 295.252 340.598 291.573 336.848C284.647 329.787 278.057 322.304 270.673 315.706C264.846 310.502 259.633 305.531 255.318 299.457C255.381 299.054 255.295 298.623 254.954 298.237C254.313 297.515 253.689 296.788 253.07 296.057C252.406 294.976 251.769 293.859 251.164 292.693C246.341 283.492 241.573 274.085 237.733 264.426ZM157.026 215.951C157.079 215.906 157.133 215.857 157.187 215.807C157.371 215.861 157.645 215.96 158.044 216.117C165.661 219.167 173.179 222.514 180.873 225.389C195.407 230.826 210.054 235.689 224.423 241.422C225.993 246.823 229.95 253.355 231.044 256.419C234.413 265.835 238.397 275.121 242.6 284.259C241.537 283.25 240.438 282.263 239.249 281.339C232.246 275.879 224.67 271.599 217.299 266.687C210.341 262.044 203.285 257.2 196.767 251.973C189.661 246.281 181.869 241.844 175.167 235.626C171.757 232.464 168.411 229.333 165.387 225.784C163.306 223.344 161.637 220.047 159.515 217.866C158.959 217.301 157.474 216.355 157.026 215.951ZM71.6305 145.741C77.3456 147.392 82.9889 150.559 88.3362 152.869C93.8001 155.233 99.3852 157.274 104.898 159.508C114.741 163.496 125.027 166.838 134.784 170.952C136.641 176.694 139.221 182.387 141.253 187.577C144.083 194.795 146.703 202.237 149.897 209.352C148.089 208.513 146.291 207.652 144.568 206.669C140.674 204.458 137.346 201.394 133.582 198.945C125.74 193.84 118.024 188.443 110.501 182.876C102.925 177.268 95.3164 171.203 88.3362 164.878C83.9848 160.944 73.6626 152.883 71.6305 145.741ZM8.65184 90.8595C12.2631 90.9402 15.9236 91.9541 19.5214 91.8868C22.3251 96.292 25.2948 100.702 29.3815 103.631C31.638 105.25 33.9886 102.209 32.4679 100.177C29.1617 95.7581 26.7707 90.994 23.2896 86.6202C23.1595 86.4542 22.5315 85.5839 21.8003 84.6418C22.1905 84.745 22.4373 84.7989 22.361 84.7809C32.7505 87.7148 42.0903 94.9147 51.4615 100.616C54.6824 105.659 57.9482 110.683 61.2589 115.667C54.2473 117.515 64.2824 131.157 67.5617 133.315C68.6697 134.046 70.5314 133.099 70.1366 131.655C69.1049 127.878 66.4671 124.971 64.74 121.499C64.4305 120.933 64.1568 120.346 63.928 119.745C64.1748 120.171 64.426 120.602 64.6772 121.028C66.4985 121.745 68.2211 122.342 69.9751 123.257C72.5276 124.589 75.0622 125.877 77.6731 127.093C79.3553 127.878 81.0017 128.775 82.7332 129.443C84.1239 129.982 85.7164 130.13 87.0757 130.695V130.677C87.9729 131 88.9598 129.919 88.2555 128.977C85.4787 125.262 80.2256 123.172 76.3183 120.889C72.8641 118.874 69.2888 116.385 65.2559 115.662C62.6181 111.082 59.9714 106.511 57.217 101.998C57.2619 101.769 57.235 101.514 57.0825 101.24C56.4275 100.069 55.5707 98.9656 54.5837 97.9159C52.9778 95.6998 50.1651 91.631 52.4754 91.2004C53.7135 90.9716 57.5849 94.5559 58.4821 95.2109C69.54 103.277 79.4495 113.056 88.4439 123.307C96.6263 132.628 106.235 141.739 115.382 150.133C119.684 154.076 126.543 161.101 132.972 163.765C133.084 164.385 133.183 164.999 133.322 165.618C125.512 160.132 115.732 156.799 107.15 153.165C97.528 149.092 86.8738 143.211 76.1792 141.201C69.0959 136.751 61.7658 132.664 54.7452 128.107C50.5867 125.411 46.4955 122.432 42.4761 119.529C40.8477 118.354 38.0574 116.613 36.7924 115.043C35.5453 113.5 34.5987 113.182 36.3393 112.8C38.5823 113.276 40.7131 113.998 42.9202 114.626C45.0286 115.227 47.1595 115.833 49.2993 116.291C50.6585 116.578 53.2963 116.465 54.4178 117.318C54.9157 117.694 55.8488 117.331 55.8219 116.654C55.6469 112.459 48.5097 110.782 45.3875 109.517C42.1217 108.189 34.0111 104.421 31.5797 108.669C31.1445 108.835 30.7273 109.028 30.3595 109.283C29.2021 108.427 27.9505 107.852 26.4701 107.04C23.2806 105.3 20.7101 102.707 17.9961 100.334C15.4077 98.0684 12.7431 95.9645 10.4866 93.3537C9.99315 92.7929 9.33819 91.7656 8.65184 90.8595Z" fill="#00833E"/>
</g>
<defs>
<clipPath id="clip0_5798_6769">
<rect width="259" height="360" fill="white"/>
</clipPath>
</defs>
</svg>
