<svg width="564" height="332" viewBox="0 0 564 332" fill="none" xmlns="http://www.w3.org/2000/svg">
<g clip-path="url(#clip0_5747_2330)">
<path d="M49.1346 224.105H132.994V159.425H49.1346L49.1346 224.105Z" fill="#F5F5F5" fill-opacity="0.2"/>
<path d="M70.1468 223.648C70.2596 223.648 70.3562 209.228 70.3562 191.449C70.3562 173.663 70.2596 159.25 70.1468 159.25C70.0341 159.25 69.9375 173.663 69.9375 191.449C69.9375 209.236 70.0261 223.648 70.1468 223.648Z" fill="#EBEBEB"/>
<path d="M56.2485 216.652H62.6738V209.382H56.2485V216.652Z" fill="#FAFAFA"/>
<path d="M107.41 159.59H97.8848V173.391H107.41V159.59Z" fill="#EBEBEB"/>
<path d="M107.41 210.113H97.8848V223.914H107.41V210.113Z" fill="#EBEBEB"/>
<path d="M164.956 225.016H26.5137V331.791H164.956V225.016Z" fill="#EBEBEB" fill-opacity="0.2"/>
<path d="M130.27 331.042C130.117 331.042 129.996 307.241 129.996 277.892C129.996 248.527 130.117 224.734 130.27 224.734C130.423 224.734 130.544 248.527 130.544 277.892C130.544 307.241 130.415 331.042 130.27 331.042Z" fill="#E0E0E0"/>
<path d="M153.208 307.492H142.596V319.489H153.208V307.492Z" fill="#FAFAFA"/>
<path d="M84.4713 225.289H68.7461V248.076H84.4713V225.289Z" fill="#E0E0E0"/>
<path d="M84.4713 308.691H68.7461V331.478H84.4713V308.691Z" fill="#E0E0E0"/>
<path d="M273.118 36.9242C273.118 37.0369 272.216 37.1335 271.105 37.1335C269.994 37.1335 269.092 37.0369 269.092 36.9242C269.092 36.8115 269.994 36.7148 271.105 36.7148C272.216 36.7148 273.118 36.8034 273.118 36.9242Z" fill="#EBEBEB"/>
<path d="M281.17 36.9242C281.17 37.0369 280.269 37.1335 279.157 37.1335C278.046 37.1335 277.145 37.0369 277.145 36.9242C277.145 36.8115 278.046 36.7148 279.157 36.7148C280.269 36.7148 281.17 36.8034 281.17 36.9242Z" fill="#EBEBEB"/>
<path d="M289.221 36.9242C289.221 37.0369 288.319 37.1335 287.208 37.1335C286.097 37.1335 285.195 37.0369 285.195 36.9242C285.195 36.8115 286.097 36.7148 287.208 36.7148C288.319 36.7148 289.221 36.8034 289.221 36.9242Z" fill="#EBEBEB"/>
<path d="M297.274 36.9242C297.274 37.0369 296.372 37.1335 295.261 37.1335C294.15 37.1335 293.248 37.0369 293.248 36.9242C293.248 36.8115 294.15 36.7148 295.261 36.7148C296.372 36.7148 297.274 36.8034 297.274 36.9242Z" fill="#EBEBEB"/>
<path d="M305.325 36.9242C305.325 37.0369 304.423 37.1335 303.312 37.1335C302.201 37.1335 301.299 37.0369 301.299 36.9242C301.299 36.8115 302.201 36.7148 303.312 36.7148C304.423 36.7148 305.325 36.8034 305.325 36.9242Z" fill="#EBEBEB"/>
<path d="M313.377 36.9242C313.377 37.0369 312.476 37.1335 311.365 37.1335C310.253 37.1335 309.352 37.0369 309.352 36.9242C309.352 36.8115 310.253 36.7148 311.365 36.7148C312.476 36.7148 313.377 36.8034 313.377 36.9242Z" fill="#EBEBEB"/>
<path d="M321.428 36.9242C321.428 37.0369 320.526 37.1335 319.415 37.1335C318.304 37.1335 317.402 37.0369 317.402 36.9242C317.402 36.8115 318.304 36.7148 319.415 36.7148C320.526 36.7148 321.428 36.8034 321.428 36.9242Z" fill="#EBEBEB"/>
<path d="M329.481 36.9242C329.481 37.0369 328.579 37.1335 327.468 37.1335C326.357 37.1335 325.455 37.0369 325.455 36.9242C325.455 36.8115 326.357 36.7148 327.468 36.7148C328.579 36.7148 329.481 36.8034 329.481 36.9242Z" fill="#EBEBEB"/>
<path d="M337.532 36.9242C337.532 37.0369 336.63 37.1335 335.519 37.1335C334.408 37.1335 333.506 37.0369 333.506 36.9242C333.506 36.8115 334.408 36.7148 335.519 36.7148C336.63 36.7148 337.532 36.8034 337.532 36.9242Z" fill="#EBEBEB"/>
<path d="M345.584 36.9242C345.584 37.0369 344.683 37.1335 343.572 37.1335C342.46 37.1335 341.559 37.0369 341.559 36.9242C341.559 36.8115 342.46 36.7148 343.572 36.7148C344.683 36.7148 345.584 36.8034 345.584 36.9242Z" fill="#EBEBEB"/>
<path d="M353.635 36.9242C353.635 37.0369 352.733 37.1335 351.622 37.1335C350.511 37.1335 349.609 37.0369 349.609 36.9242C349.609 36.8115 350.511 36.7148 351.622 36.7148C352.733 36.7148 353.635 36.8034 353.635 36.9242Z" fill="#EBEBEB"/>
<path d="M361.688 36.9242C361.688 37.0369 360.786 37.1335 359.675 37.1335C358.564 37.1335 357.662 37.0369 357.662 36.9242C357.662 36.8115 358.564 36.7148 359.675 36.7148C360.786 36.7148 361.688 36.8034 361.688 36.9242Z" fill="#EBEBEB"/>
<path d="M369.739 36.9242C369.739 37.0369 368.837 37.1335 367.726 37.1335C366.615 37.1335 365.713 37.0369 365.713 36.9242C365.713 36.8115 366.615 36.7148 367.726 36.7148C368.837 36.7148 369.739 36.8034 369.739 36.9242Z" fill="#EBEBEB"/>
<path d="M377.792 36.9242C377.792 37.0369 376.89 37.1335 375.779 37.1335C374.667 37.1335 373.766 37.0369 373.766 36.9242C373.766 36.8115 374.667 36.7148 375.779 36.7148C376.89 36.7148 377.792 36.8034 377.792 36.9242Z" fill="#EBEBEB"/>
<path d="M385.842 36.9242C385.842 37.0369 384.941 37.1335 383.829 37.1335C382.718 37.1335 381.816 37.0369 381.816 36.9242C381.816 36.8115 382.718 36.7148 383.829 36.7148C384.941 36.7148 385.842 36.8034 385.842 36.9242Z" fill="#EBEBEB"/>
<path d="M393.895 36.9242C393.895 37.0369 392.993 37.1335 391.882 37.1335C390.771 37.1335 389.869 37.0369 389.869 36.9242C389.869 36.8115 390.771 36.7148 391.882 36.7148C392.993 36.7148 393.895 36.8034 393.895 36.9242Z" fill="#EBEBEB"/>
<path d="M401.946 36.9242C401.946 37.0369 401.044 37.1335 399.933 37.1335C398.822 37.1335 397.92 37.0369 397.92 36.9242C397.92 36.8115 398.822 36.7148 399.933 36.7148C401.044 36.7148 401.946 36.8034 401.946 36.9242Z" fill="#EBEBEB"/>
<path d="M409.999 36.9242C409.999 37.0369 409.097 37.1335 407.986 37.1335C406.874 37.1335 405.973 37.0369 405.973 36.9242C405.973 36.8115 406.874 36.7148 407.986 36.7148C409.097 36.7148 409.999 36.8034 409.999 36.9242Z" fill="#EBEBEB"/>
<path d="M418.049 36.9242C418.049 37.0369 417.148 37.1335 416.036 37.1335C414.925 37.1335 414.023 37.0369 414.023 36.9242C414.023 36.8115 414.925 36.7148 416.036 36.7148C417.148 36.7148 418.049 36.8034 418.049 36.9242Z" fill="#EBEBEB"/>
<path d="M426.102 36.9242C426.102 37.0369 425.2 37.1335 424.089 37.1335C422.978 37.1335 422.076 37.0369 422.076 36.9242C422.076 36.8115 422.978 36.7148 424.089 36.7148C425.2 36.7148 426.102 36.8034 426.102 36.9242Z" fill="#EBEBEB"/>
<path d="M434.153 36.9242C434.153 37.0369 433.251 37.1335 432.14 37.1335C431.029 37.1335 430.127 37.0369 430.127 36.9242C430.127 36.8115 431.029 36.7148 432.14 36.7148C433.251 36.7148 434.153 36.8034 434.153 36.9242Z" fill="#EBEBEB"/>
<path d="M442.206 36.9242C442.206 37.0369 441.304 37.1335 440.193 37.1335C439.081 37.1335 438.18 37.0369 438.18 36.9242C438.18 36.8115 439.081 36.7148 440.193 36.7148C441.304 36.7148 442.206 36.8034 442.206 36.9242Z" fill="#EBEBEB"/>
<path d="M450.258 36.9242C450.258 37.0369 449.357 37.1335 448.245 37.1335C447.134 37.1335 446.232 37.0369 446.232 36.9242C446.232 36.8115 447.134 36.7148 448.245 36.7148C449.357 36.7148 450.258 36.8034 450.258 36.9242Z" fill="#EBEBEB"/>
<path d="M452.319 42.9048C452.206 42.9048 452.109 42.003 452.109 40.8919C452.109 39.7807 452.206 38.8789 452.319 38.8789C452.431 38.8789 452.528 39.7807 452.528 40.8919C452.528 42.0111 452.431 42.9048 452.319 42.9048Z" fill="#EBEBEB"/>
<path d="M452.319 50.9595C452.206 50.9595 452.109 50.0577 452.109 48.9465C452.109 47.8354 452.206 46.9336 452.319 46.9336C452.431 46.9336 452.528 47.8354 452.528 48.9465C452.528 50.0657 452.431 50.9595 452.319 50.9595Z" fill="#EBEBEB"/>
<path d="M452.319 59.0103C452.206 59.0103 452.109 58.1085 452.109 56.9973C452.109 55.8862 452.206 54.9844 452.319 54.9844C452.431 54.9844 452.528 55.8862 452.528 56.9973C452.528 58.1165 452.431 59.0103 452.319 59.0103Z" fill="#EBEBEB"/>
<path d="M452.319 67.0611C452.206 67.0611 452.109 66.1593 452.109 65.0481C452.109 63.937 452.206 63.0352 452.319 63.0352C452.431 63.0352 452.528 63.937 452.528 65.0481C452.528 66.1673 452.431 67.0611 452.319 67.0611Z" fill="#EBEBEB"/>
<path d="M452.319 75.1157C452.206 75.1157 452.109 74.2139 452.109 73.1028C452.109 71.9916 452.206 71.0898 452.319 71.0898C452.431 71.0898 452.528 71.9916 452.528 73.1028C452.528 74.222 452.431 75.1157 452.319 75.1157Z" fill="#EBEBEB"/>
<path d="M453.889 81.5964C453.889 81.693 453.221 81.7816 452.319 81.7977L452.117 81.8058V81.5964C452.117 81.4434 452.117 81.2985 452.109 81.1536C452.109 80.0424 452.206 79.1406 452.319 79.1406C452.431 79.1406 452.528 80.0424 452.528 81.1536C452.528 81.2985 452.528 81.4434 452.52 81.5964L452.319 81.3951C453.221 81.4193 453.889 81.4998 453.889 81.5964Z" fill="#EBEBEB"/>
<path d="M461.94 81.5961C461.94 81.7088 461.038 81.8054 459.927 81.8054C458.816 81.8054 457.914 81.7088 457.914 81.5961C457.914 81.4833 458.816 81.3867 459.927 81.3867C461.038 81.3867 461.94 81.4833 461.94 81.5961Z" fill="#EBEBEB"/>
<path d="M469.993 81.5961C469.993 81.7088 469.091 81.8054 467.98 81.8054C466.869 81.8054 465.967 81.7088 465.967 81.5961C465.967 81.4833 466.869 81.3867 467.98 81.3867C469.091 81.3867 469.993 81.4833 469.993 81.5961Z" fill="#EBEBEB"/>
<path d="M478.043 81.5961C478.043 81.7088 477.142 81.8054 476.031 81.8054C474.919 81.8054 474.018 81.7088 474.018 81.5961C474.018 81.4833 474.919 81.3867 476.031 81.3867C477.142 81.3867 478.043 81.4833 478.043 81.5961Z" fill="#EBEBEB"/>
<path d="M486.096 81.5961C486.096 81.7088 485.194 81.8054 484.083 81.8054C482.972 81.8054 482.07 81.7088 482.07 81.5961C482.07 81.4833 482.972 81.3867 484.083 81.3867C485.194 81.3867 486.096 81.4833 486.096 81.5961Z" fill="#EBEBEB"/>
<path d="M494.147 81.5961C494.147 81.7088 493.245 81.8054 492.134 81.8054C491.023 81.8054 490.121 81.7088 490.121 81.5961C490.121 81.4833 491.023 81.3867 492.134 81.3867C493.245 81.3867 494.147 81.4833 494.147 81.5961Z" fill="#EBEBEB"/>
<path d="M502.2 81.5961C502.2 81.7088 501.298 81.8054 500.187 81.8054C499.076 81.8054 498.174 81.7088 498.174 81.5961C498.174 81.4833 499.076 81.3867 500.187 81.3867C501.298 81.3867 502.2 81.4833 502.2 81.5961Z" fill="#EBEBEB"/>
<path d="M510.251 81.5961C510.251 81.7088 509.349 81.8054 508.238 81.8054C507.126 81.8054 506.225 81.7088 506.225 81.5961C506.225 81.4833 507.126 81.3867 508.238 81.3867C509.349 81.3867 510.251 81.4833 510.251 81.5961Z" fill="#EBEBEB"/>
<path d="M518.303 81.5961C518.303 81.7088 517.401 81.8054 516.29 81.8054C515.179 81.8054 514.277 81.7088 514.277 81.5961C514.277 81.4833 515.179 81.3867 516.29 81.3867C517.401 81.3867 518.303 81.4833 518.303 81.5961Z" fill="#EBEBEB"/>
<path d="M521.436 86.522C521.323 86.522 521.227 85.6202 521.227 84.509C521.227 83.3979 521.323 82.4961 521.436 82.4961C521.549 82.4961 521.645 83.3979 521.645 84.509C521.645 85.6202 521.549 86.522 521.436 86.522Z" fill="#EBEBEB"/>
<path d="M521.436 94.5767C521.323 94.5767 521.227 93.6749 521.227 92.5637C521.227 91.4526 521.323 90.5508 521.436 90.5508C521.549 90.5508 521.645 91.4526 521.645 92.5637C521.645 93.6749 521.549 94.5767 521.436 94.5767Z" fill="#EBEBEB"/>
<path d="M521.436 102.627C521.323 102.627 521.227 101.726 521.227 100.615C521.227 99.5034 521.323 98.6016 521.436 98.6016C521.549 98.6016 521.645 99.5034 521.645 100.615C521.645 101.726 521.549 102.627 521.436 102.627Z" fill="#EBEBEB"/>
<path d="M521.436 110.678C521.323 110.678 521.227 109.776 521.227 108.665C521.227 107.554 521.323 106.652 521.436 106.652C521.549 106.652 521.645 107.554 521.645 108.665C521.645 109.776 521.549 110.678 521.436 110.678Z" fill="#EBEBEB"/>
<path d="M521.436 118.729C521.323 118.729 521.227 117.827 521.227 116.716C521.227 115.605 521.323 114.703 521.436 114.703C521.549 114.703 521.645 115.605 521.645 116.716C521.645 117.827 521.549 118.729 521.436 118.729Z" fill="#EBEBEB"/>
<path d="M521.436 126.784C521.323 126.784 521.227 125.882 521.227 124.771C521.227 123.66 521.323 122.758 521.436 122.758C521.549 122.758 521.645 123.66 521.645 124.771C521.645 125.882 521.549 126.784 521.436 126.784Z" fill="#EBEBEB"/>
<path d="M521.436 134.834C521.323 134.834 521.227 133.933 521.227 132.822C521.227 131.71 521.323 130.809 521.436 130.809C521.549 130.809 521.645 131.71 521.645 132.822C521.645 133.933 521.549 134.834 521.436 134.834Z" fill="#EBEBEB"/>
<path d="M521.436 142.885C521.323 142.885 521.227 141.983 521.227 140.872C521.227 139.761 521.323 138.859 521.436 138.859C521.549 138.859 521.645 139.761 521.645 140.872C521.645 141.983 521.549 142.885 521.436 142.885Z" fill="#EBEBEB"/>
<path d="M521.436 150.936C521.323 150.936 521.227 150.034 521.227 148.923C521.227 147.812 521.323 146.91 521.436 146.91C521.549 146.91 521.645 147.812 521.645 148.923C521.645 150.034 521.549 150.936 521.436 150.936Z" fill="#EBEBEB"/>
<path d="M521.436 158.991C521.323 158.991 521.227 158.089 521.227 156.978C521.227 155.867 521.323 154.965 521.436 154.965C521.549 154.965 521.645 155.867 521.645 156.978C521.645 158.089 521.549 158.991 521.436 158.991Z" fill="#EBEBEB"/>
<path d="M521.436 167.042C521.323 167.042 521.227 166.14 521.227 165.029C521.227 163.917 521.323 163.016 521.436 163.016C521.549 163.016 521.645 163.917 521.645 165.029C521.645 166.14 521.549 167.042 521.436 167.042Z" fill="#EBEBEB"/>
<path d="M315.366 50.6609C315.366 50.6609 309.117 47.1986 302.99 61.9817C296.863 76.7648 294.761 85.1709 294.761 85.1709C294.761 85.1709 293.078 88.295 290.88 86.5156C288.682 84.7281 285.445 79.43 282.047 80.6941C278.521 82.0066 277.651 86.1291 278.802 91.9827C279.954 97.8445 282.007 110.768 282.192 111.943C282.369 113.095 281.846 114.842 280.147 113.868C278.456 112.893 268.407 103.328 264.156 108.368C259.905 113.409 265.799 129.198 266.411 130.937C267.023 132.677 266.733 133.466 265.927 133.965C265.122 134.472 262.047 130.937 259.075 128.337C256.104 125.736 252.207 123.24 250.001 126.348C247.795 129.464 247.964 141.646 261.048 160.431L267.683 168.741L278.263 167.315C300.727 162.887 309.311 154.239 309.882 150.463C310.454 146.687 305.913 145.777 301.975 145.592C298.03 145.406 293.368 145.809 293.135 144.883C292.901 143.957 293.239 143.192 294.89 142.363C296.54 141.534 311.742 134.263 312.185 127.684C312.628 121.106 298.755 121.009 296.863 120.534C294.97 120.059 295.808 118.433 296.734 117.732C297.676 117.016 308.135 109.141 313.031 105.727C317.926 102.313 320.164 98.7463 318.538 95.3484C316.976 92.0794 310.961 93.6414 308.143 93.3999C305.325 93.1583 306.283 89.7444 306.283 89.7444C306.283 89.7444 310.615 82.232 316.469 67.3442C322.322 52.4565 315.245 50.5965 315.245 50.5965" fill="#EBEBEB" fill-opacity="0.2"/>
<path d="M268.045 166.543C272.385 155.625 278.512 140.592 285.332 124.006C292.152 107.427 298.312 92.4104 302.716 81.5163C304.906 76.0813 306.686 71.677 307.917 68.6092C308.529 67.0955 309.004 65.9199 309.335 65.0986C309.496 64.7122 309.624 64.4062 309.713 64.1888C309.802 63.9875 309.85 63.8828 309.85 63.8828C309.85 63.8828 309.818 63.9955 309.745 64.2049C309.665 64.4303 309.552 64.7363 309.399 65.1308C309.085 65.9521 308.626 67.1438 308.046 68.6656C306.863 71.7333 305.123 76.1538 302.949 81.6129C298.61 92.5311 292.482 107.564 285.662 124.143C278.842 140.729 272.675 155.746 268.278 166.64" fill="#E0E0E0"/>
<path d="M286.282 88.2932C286.306 88.2851 286.419 88.5347 286.612 88.9856C286.805 89.4446 287.063 90.1048 287.369 90.9341C287.981 92.5928 288.778 94.8956 289.599 97.4642C290.396 99.9924 291.121 102.271 291.677 104.034C291.926 104.815 292.144 105.476 292.313 106.023C292.466 106.49 292.538 106.756 292.514 106.764C292.49 106.772 292.369 106.522 292.176 106.072C291.983 105.613 291.725 104.944 291.427 104.115C290.823 102.456 290.066 100.137 289.245 97.5688C288.432 95.0486 287.691 92.778 287.119 91.0147C286.862 90.2336 286.644 89.5734 286.467 89.0259C286.33 88.5669 286.258 88.3012 286.282 88.2932Z" fill="#E0E0E0"/>
<path d="M293.514 106.886C293.482 106.79 298.168 104.946 303.981 102.772C309.803 100.59 314.545 98.907 314.577 98.9955C314.61 99.0922 309.923 100.936 304.11 103.11C298.289 105.292 293.546 106.983 293.514 106.886Z" fill="#E0E0E0"/>
<path d="M281.887 131.881C281.887 131.857 282.16 131.817 282.668 131.776C283.247 131.728 283.956 131.68 284.793 131.615C286.589 131.478 289.069 131.269 291.79 130.955C294.52 130.641 296.976 130.271 298.755 129.989C299.585 129.86 300.285 129.747 300.865 129.659C301.364 129.586 301.638 129.554 301.646 129.578C301.654 129.602 301.38 129.683 300.889 129.796C300.398 129.908 299.681 130.069 298.796 130.238C297.024 130.585 294.56 130.995 291.831 131.309C289.093 131.631 286.605 131.792 284.801 131.865C283.9 131.897 283.167 131.921 282.668 131.913C282.169 131.913 281.887 131.905 281.887 131.881Z" fill="#E0E0E0"/>
<path d="M271.644 116.501C271.668 116.485 271.829 116.686 272.111 117.056C272.393 117.427 272.787 117.974 273.27 118.651C274.237 120.003 275.557 121.896 276.99 123.989C278.424 126.083 279.712 127.999 280.622 129.392C281.081 130.084 281.443 130.656 281.685 131.05C281.926 131.445 282.055 131.67 282.031 131.687C282.007 131.703 281.846 131.501 281.564 131.131C281.282 130.761 280.887 130.213 280.404 129.537C279.438 128.184 278.118 126.292 276.684 124.198C275.251 122.105 273.963 120.197 273.053 118.804C272.594 118.111 272.232 117.54 271.99 117.145C271.749 116.742 271.628 116.517 271.644 116.501Z" fill="#E0E0E0"/>
<path d="M258.584 137.259C258.608 137.242 258.81 137.5 259.172 137.975C259.567 138.515 260.066 139.199 260.67 140.012C261.918 141.743 263.625 144.151 265.493 146.816C267.361 149.489 269.027 151.913 270.227 153.684C270.791 154.53 271.258 155.23 271.628 155.786C271.95 156.285 272.119 156.575 272.103 156.583C272.079 156.599 271.878 156.341 271.515 155.866C271.121 155.327 270.622 154.642 270.018 153.829C268.77 152.098 267.063 149.691 265.195 147.025C263.327 144.36 261.66 141.929 260.46 140.157C259.897 139.312 259.43 138.611 259.059 138.056C258.729 137.556 258.56 137.275 258.584 137.259Z" fill="#E0E0E0"/>
<path d="M271.902 156.043C271.902 156.019 272.249 155.962 272.885 155.89C273.585 155.81 274.495 155.705 275.574 155.584C277.845 155.326 280.977 154.956 284.431 154.457C287.885 153.958 290.993 153.434 293.24 153.032C294.311 152.846 295.204 152.685 295.905 152.565C296.533 152.46 296.887 152.412 296.895 152.436C296.903 152.46 296.557 152.557 295.937 152.702C295.317 152.854 294.415 153.056 293.288 153.281C291.05 153.74 287.933 154.312 284.479 154.811C281.025 155.31 277.877 155.64 275.598 155.834C274.455 155.93 273.537 155.995 272.893 156.027C272.257 156.059 271.902 156.067 271.902 156.043Z" fill="#E0E0E0"/>
<path d="M549.72 186.746C549.72 169.33 533.979 155.586 515.943 158.968C504.598 161.093 495.564 170.361 493.575 181.73C492.335 188.84 493.8 195.523 497.037 201.038H497.021L497.102 201.143C498.189 202.971 499.549 204.275 500.918 206.2L517.344 227.956C519.389 230.661 523.455 230.661 525.5 227.956L541.652 206.554C541.652 206.554 544.664 202.955 545.759 201.111L545.815 201.03H545.807C548.287 196.843 549.72 191.964 549.72 186.746ZM521.434 199.066C514.558 199.066 508.986 193.494 508.986 186.618C508.986 179.741 514.558 174.17 521.434 174.17C528.31 174.17 533.882 179.741 533.882 186.618C533.882 193.486 528.31 199.066 521.434 199.066Z" fill="#F5F5F5"/>
<path d="M416.148 60.9526V94.2226C416.148 94.9393 416.728 95.519 417.445 95.519H487.206C487.93 95.519 488.51 94.9312 488.502 94.2065L488.341 82.0242C488.341 81.7504 488.244 81.4847 488.083 81.2673L478.075 67.8932C477.833 67.5712 477.455 67.3779 477.044 67.3699L465.514 67.2813C464.805 67.2733 464.226 66.6935 464.226 65.985V60.9526C464.226 60.236 463.646 59.6562 462.929 59.6562H417.437C416.728 59.6562 416.148 60.236 416.148 60.9526Z" fill="#F5F5F5"/>
<path d="M467.48 70.1812V80.8579C467.48 81.2766 467.819 81.6067 468.237 81.5987L483.64 81.3249C484.228 81.3168 484.574 80.6566 484.244 80.1654L477.046 69.5451C476.901 69.3358 476.668 69.215 476.41 69.223L468.213 69.4404C467.803 69.4485 467.48 69.7786 467.48 70.1812Z" fill="#EBEBEB"/>
<path d="M489.888 96.5352H414.74V98.8541H489.888V96.5352Z" fill="#F5F5F5"/>
<path d="M437.414 102.677C440.316 99.7746 440.316 95.0691 437.414 92.1668C434.511 89.2645 429.806 89.2646 426.903 92.1669C424.001 95.0691 424.001 99.7746 426.903 102.677C429.806 105.579 434.511 105.579 437.414 102.677Z" fill="#EBEBEB"/>
<path d="M436.537 97.419C436.537 99.8345 434.581 101.791 432.165 101.791C429.75 101.791 427.793 99.8345 427.793 97.419C427.793 95.0035 429.75 93.0469 432.165 93.0469C434.581 93.0469 436.537 95.0035 436.537 97.419Z" fill="#FAFAFA"/>
<path d="M464.178 95.519C463.993 95.519 463.84 87.4913 463.84 77.5876C463.84 67.6839 463.993 59.6562 464.178 59.6562C464.363 59.6562 464.516 67.6839 464.516 77.5876C464.516 87.4913 464.363 95.519 464.178 95.519Z" fill="#EBEBEB"/>
<path d="M477.916 102.681C480.818 99.7785 480.818 95.073 477.916 92.1707C475.013 89.2685 470.308 89.2684 467.405 92.1707C464.503 95.073 464.503 99.7785 467.405 102.681C470.308 105.583 475.013 105.583 477.916 102.681Z" fill="#EBEBEB"/>
<path d="M477.045 97.419C477.045 99.8345 475.088 101.791 472.673 101.791C470.257 101.791 468.301 99.8345 468.301 97.419C468.301 95.0035 470.257 93.0469 472.673 93.0469C475.08 93.0469 477.045 95.0035 477.045 97.419Z" fill="#FAFAFA"/>
<path d="M472.688 83.7054C472.688 83.8906 471.625 84.0435 470.313 84.0435C469 84.0435 467.938 83.8906 467.938 83.7054C467.938 83.5202 469 83.3672 470.313 83.3672C471.617 83.3672 472.688 83.5202 472.688 83.7054Z" fill="#EBEBEB"/>
<path d="M563.683 331.791C563.683 331.904 437.487 332.001 281.853 332.001C126.172 332.001 0 331.912 0 331.791C0 331.679 126.172 331.582 281.853 331.582C437.487 331.582 563.683 331.679 563.683 331.791Z" fill="#263238"/>
<path d="M112.563 328.249C123.409 320.729 125.913 306.703 125.535 294.086C125.47 291.976 125.712 289.762 124.714 287.91C123.715 286.058 121.388 284.786 119.496 285.671C117.926 286.404 117.242 288.216 116.364 289.721C115.196 291.718 113.449 293.369 111.412 294.424C110.067 295.116 108.409 295.535 107.088 294.802C105.277 293.796 105.067 291.283 105.091 289.19C105.132 285.285 105.164 281.38 105.204 277.483C105.228 275.389 105.236 273.247 104.592 271.259C103.948 269.27 102.515 267.418 100.526 266.854C98.5372 266.291 96.0653 267.426 95.6386 269.479C95.4614 270.333 95.6305 271.218 95.5661 272.088C95.5017 272.958 95.0991 273.916 94.2697 274.157C93.4324 274.399 92.595 273.803 91.975 273.191C89.8171 271.065 88.3597 268.336 86.999 265.622C85.6382 262.909 84.3177 260.131 82.3611 257.82C80.4045 255.509 77.6991 253.665 74.7039 253.488C71.7005 253.311 68.504 255.147 67.731 258.094C66.958 261.041 68.6731 264.044 70.5411 266.444C73.3109 270.003 76.588 273.151 80.2435 275.76C80.9038 276.227 81.6123 276.742 81.8619 277.515C82.3128 278.916 80.9843 280.293 79.6074 280.752C78.0454 281.267 76.3545 281.098 74.72 281.283C73.0855 281.468 71.3141 282.185 70.6941 283.723C69.8325 285.857 71.612 288.111 73.3673 289.585C76.8859 292.54 80.9038 294.883 85.1954 296.469C86.7333 297.041 88.3517 297.54 89.5916 298.627C90.8316 299.714 91.5724 301.598 90.8155 303.071C90.0587 304.545 88.1343 305.012 86.5159 304.706C84.9055 304.4 83.4642 303.522 81.9263 302.934C79.0518 301.839 75.3319 302.025 73.48 304.505C72.2642 306.139 72.1514 308.41 72.7553 310.366C73.3592 312.315 74.5992 313.998 75.9116 315.552C80.5092 320.979 86.3951 325.359 93.07 327.694C99.7369 330.005 105.921 330.649 112.563 328.249Z" fill="#D30000"/>
<path d="M111.847 331.801C111.404 326.8 111.178 326.696 109.334 320.327C107.499 313.95 104.906 307.138 101.959 300.093C101.21 298.337 100.477 296.598 99.7527 294.891C99.0281 293.184 98.3034 291.493 97.4902 289.883C95.8879 286.654 94.1004 283.667 92.3129 280.889C90.5254 278.111 88.7298 275.535 87.0389 273.143C85.34 270.752 83.7055 268.554 82.1354 266.613C79.0032 262.716 76.1207 259.882 74.0514 258.014C73.0207 257.08 72.1995 256.379 71.6358 255.904C71.3621 255.679 71.1527 255.51 70.9917 255.373C70.8467 255.26 70.7662 255.196 70.7662 255.204C70.7582 255.212 70.8306 255.276 70.9675 255.405C71.1205 255.542 71.3299 255.727 71.5875 255.961C72.135 256.444 72.9402 257.168 73.9547 258.119C75.9838 260.019 78.8341 262.877 81.926 266.782C83.48 268.731 85.0904 270.929 86.7732 273.328C88.456 275.728 90.2435 278.304 92.0149 281.082C93.7863 283.86 95.5577 286.839 97.152 290.052C97.9572 291.654 98.6657 293.337 99.3984 295.044C100.123 296.751 100.856 298.49 101.605 300.246C104.56 307.283 107.152 314.079 108.996 320.423C110.856 326.768 111.106 326.841 111.573 331.817" fill="#263238"/>
<path d="M97.3783 289.864C97.4025 289.873 97.4749 289.55 97.5877 288.971C97.7004 288.391 97.8373 287.554 97.9822 286.507C98.2882 284.421 98.6103 281.531 98.9484 278.342C99.2866 275.154 99.6489 272.271 99.9871 270.194C100.148 269.155 100.293 268.318 100.398 267.738C100.502 267.158 100.543 266.836 100.519 266.828C100.494 266.82 100.398 267.134 100.253 267.706C100.1 268.278 99.9227 269.107 99.7214 270.146C99.3188 272.215 98.9082 275.106 98.57 278.294C98.2399 281.442 97.942 284.293 97.7165 286.467C97.6038 287.449 97.5152 288.278 97.4427 288.947C97.3783 289.534 97.3542 289.864 97.3783 289.864Z" fill="#263238"/>
<path d="M70.4688 284.735C70.4688 284.76 70.8472 284.808 71.5396 284.864C72.2321 284.929 73.2305 285.017 74.4625 285.162C76.9263 285.436 80.3242 285.935 84.036 286.652C87.756 287.376 91.0894 288.166 93.4889 288.818C94.6886 289.132 95.6548 289.414 96.3231 289.599C96.9914 289.792 97.3618 289.889 97.3698 289.856C97.3779 289.832 97.0236 289.687 96.3634 289.454C95.7112 289.22 94.753 288.898 93.5533 288.552C91.1699 287.835 87.8284 286.998 84.1005 286.273C80.3725 285.557 76.9585 285.098 74.4786 284.896C73.2386 284.784 72.2321 284.735 71.5396 284.719C70.8552 284.703 70.4688 284.711 70.4688 284.735Z" fill="#263238"/>
<path d="M109.005 319.834C109.021 319.842 109.077 319.729 109.19 319.503C109.319 319.238 109.472 318.916 109.657 318.529C110.06 317.684 110.599 316.444 111.259 314.906C112.572 311.822 114.247 307.514 116.026 302.732C117.814 297.949 119.448 293.625 120.688 290.525C121.3 289.019 121.799 287.779 122.17 286.853C122.331 286.451 122.459 286.121 122.564 285.855C122.653 285.621 122.693 285.501 122.677 285.493C122.661 285.485 122.604 285.597 122.492 285.823C122.363 286.088 122.21 286.402 122.025 286.797C121.622 287.642 121.083 288.882 120.422 290.42C119.11 293.504 117.435 297.812 115.648 302.595C113.86 307.377 112.226 311.701 110.986 314.801C110.374 316.307 109.875 317.547 109.504 318.473C109.343 318.875 109.214 319.205 109.11 319.471C109.037 319.705 108.997 319.825 109.005 319.834Z" fill="#263238"/>
<path d="M73.2617 308.177C73.2617 308.193 73.3825 308.241 73.616 308.322C73.8978 308.418 74.236 308.531 74.6547 308.676C75.6128 308.99 76.9092 309.417 78.4793 309.932C81.7081 310.995 86.1607 312.509 91.0723 314.191C95.9839 315.874 100.453 317.348 103.706 318.346C105.332 318.845 106.653 319.232 107.57 319.481C107.997 319.594 108.343 319.691 108.633 319.763C108.875 319.82 109.004 319.852 109.012 319.836C109.012 319.82 108.891 319.771 108.657 319.691C108.376 319.594 108.037 319.481 107.619 319.337C106.661 319.022 105.364 318.596 103.794 318.08C100.565 317.018 96.1127 315.504 91.2011 313.821C86.2895 312.138 81.8288 310.665 78.5679 309.666C76.9414 309.167 75.6209 308.781 74.703 308.531C74.2762 308.418 73.93 308.322 73.6402 308.249C73.3905 308.185 73.2617 308.161 73.2617 308.177Z" fill="#263238"/>
<path d="M243.31 331.791H131.253C117.71 331.727 106.268 320.18 106.324 306.645L107.516 24.4214C107.572 10.8702 118.603 -0.0641313 132.155 0.000283144L244.727 0.52365C258.27 0.588065 269.196 11.611 269.132 25.1461L267.94 307.37C267.884 320.921 256.853 331.855 243.31 331.791Z" fill="#0E1730"/>
<path d="M244.566 11.2459L222.738 11.1493C219.815 11.1332 217.424 13.6051 217.416 16.6648L217.4 20.6182C217.383 23.6779 215 26.1498 212.077 26.1337L169.532 25.9405C166.609 25.9244 164.242 23.4364 164.258 20.3767L164.274 16.4152C164.29 13.3555 161.923 10.8595 159 10.8514L151.326 10.8192L132.22 10.7306C122.735 10.6904 115.005 18.3476 114.965 27.8327L113.797 303.309C113.757 312.794 121.406 320.516 130.891 320.556L243.238 321.071C252.723 321.112 260.453 313.454 260.493 303.969L261.66 28.4929C261.701 19.0079 254.051 11.2862 244.566 11.2459Z" fill="#F5F5F5"/>
<path d="M196.884 269.01C196.755 272.336 196.634 275.46 196.529 278.052H212.665L210.692 268.141L196.884 269.01Z" fill="#F5F5F5"/>
<path d="M131.301 273.156L131.438 278.043H194.926C195.031 275.297 195.152 272.246 195.272 269.105L131.301 273.156Z" fill="#F5F5F5"/>
<path d="M211.506 268.082L213.495 278.05H243.246L242.892 266.102L211.506 268.082Z" fill="#F5F5F5"/>
<path d="M198.501 128.795L204.122 96.1771L189.387 95.082V128.795H198.501Z" fill="#F5F5F5"/>
<path d="M129.973 255.047L113.982 261.311L113.934 272.64L130.448 271.593L129.973 255.047Z" fill="#F5F5F5"/>
<path d="M129.901 252.503L129.023 222.123H129.015V211.406L114.183 212.976L113.99 258.719L129.893 252.487L129.901 252.503Z" fill="#F5F5F5"/>
<path d="M129.015 187.491L114.296 185.551L114.191 210.552L129.015 208.982V187.491Z" fill="#F5F5F5"/>
<path d="M238.664 211.857L238.044 220.569L220.668 222.437L222.013 229.329L241.74 227.84L241.442 217.96L243.02 211.422L238.664 211.857Z" fill="#F5F5F5"/>
<path d="M207.35 230.432L221.207 229.393L218.188 213.926L206.094 215.15L207.35 230.432Z" fill="#F5F5F5"/>
<path d="M207.479 232.042L208.541 244.933L210.417 262.615L211.19 266.488L242.842 264.491L241.787 229.449L207.479 232.042Z" fill="#F5F5F5"/>
<path d="M153.008 171.164L154.224 173.249L129.819 187.485V221.254L155.576 219.435L205.224 214.426L203.404 192.292L155.971 186.092L156.285 183.701L203.203 189.828L200.127 152.363L153.692 156.832L153.539 155.229L199.998 150.761L198.396 131.211H153.724L114.496 138.353L114.303 183.121L129.158 185.077L153.008 171.164ZM132.315 218.034C132.315 218.034 132.5 190.19 132.315 189.144L152.235 178.547L154.819 216.608L132.315 218.034Z" fill="#F5F5F5"/>
<path d="M237.038 212.027L218.994 213.847L220.363 220.852L236.539 219.113L237.038 212.027Z" fill="#F5F5F5"/>
<path d="M197.116 263.043C197.06 264.508 197.004 265.958 196.947 267.391L210.378 266.537L209.685 263.075L197.116 263.043Z" fill="#F5F5F5"/>
<path d="M168.187 128.796L170.554 118.071H188.582V95.0265L132.204 90.8477V112.483L114.594 116.468L114.506 135.889L153.509 128.796H168.187Z" fill="#F5F5F5"/>
<path d="M205.804 64.6799L205.321 62.7072L226.851 54.1884L212.849 26.0796C212.6 26.1198 212.342 26.144 212.076 26.144L188.283 26.0312L188.927 65.3724L205.804 64.6799Z" fill="#F5F5F5"/>
<path d="M238.438 49.5961L238.414 11.2132L222.745 11.1407C219.822 11.1246 217.431 13.5965 217.423 16.6562L217.399 20.6177C217.39 22.5098 216.481 24.1685 215.096 25.1589L229.106 53.2919L238.438 49.5961Z" fill="#F5F5F5"/>
<path d="M157.501 51.2471L155.689 10.8351L151.325 10.811L134.296 10.7305L127.041 46.875L157.501 51.2471ZM153.612 14.9255L154.192 47.8412L131.558 44.5319L136.518 14.9335L153.612 14.9255Z" fill="#F5F5F5"/>
<path d="M158.324 51.3682L158.332 51.7145C158.372 54.8708 158.436 60.5473 158.485 66.6183L188.139 65.4106L187.495 26.0292L169.548 25.9487C166.625 25.9326 164.258 23.4446 164.274 20.3849L164.29 16.4234C164.306 13.3637 161.939 10.8677 159.016 10.8596L156.504 10.8516L158.324 51.3763V51.3682Z" fill="#F5F5F5"/>
<path d="M124.641 46.5285L131.824 10.7383C122.516 10.9074 115.003 18.468 114.963 27.8242L114.891 45.667L114.963 45.1436L124.641 46.5285Z" fill="#F5F5F5"/>
<path d="M129.787 90.67L114.706 89.5508L114.602 113.988L129.787 110.55V90.67Z" fill="#F5F5F5"/>
<path d="M124.481 47.3183L114.892 45.9414L114.723 85.516L116.784 85.669L124.481 47.3183Z" fill="#F5F5F5"/>
<path d="M154.95 252.046L155.199 220.273L129.828 222.069L130.722 253.189L154.95 252.046Z" fill="#F5F5F5"/>
<path d="M159.612 244.708L195.547 261.923C195.974 250.675 196.36 240.159 196.32 239.483L197.101 239.442L197.48 238.686C197.987 238.943 197.987 238.943 197.721 246.609C197.568 250.884 197.359 256.577 197.141 262.277H209.565L207.738 245.006L205.29 215.223L158.34 219.957L159.612 244.708Z" fill="#F5F5F5"/>
<path d="M247.69 191.988L247.288 187.793L204.219 192.278L206.03 214.348L243.214 210.596L247.69 191.988Z" fill="#F5F5F5"/>
<path d="M188.582 120.484H172.494L170.658 128.794H188.582V120.484Z" fill="#F5F5F5"/>
<path d="M241.039 123.29L200.74 120.504L199.098 130.021L200.797 150.682L243.294 146.592L241.039 123.29ZM202.23 130.005L204.396 123.998L239.397 126.213L241.426 143.403L203.421 147.912L202.23 130.005Z" fill="#F5F5F5"/>
<path d="M245.219 166.469L243.455 148.199L200.934 152.281L202.528 171.735L245.219 166.469Z" fill="#F5F5F5"/>
<path d="M130.495 273.212L113.997 274.251L113.924 273.18L113.908 278.051H130.632L130.495 273.212Z" fill="#F5F5F5"/>
<path d="M261.369 40.5234L261.611 41.1353L261.667 28.486C261.707 19.0009 254.058 11.2873 244.573 11.239L239.219 11.2148L239.243 49.2757L261.369 40.5234Z" fill="#F5F5F5"/>
<path d="M195.515 262.802L158.839 245.233L157.542 220.055L156.005 220.208L155.747 252.809L130.746 253.993L130.77 254.718L130.778 254.734H130.77L131.253 271.546L195.338 267.496C195.394 265.934 195.45 264.364 195.515 262.802ZM132.316 256.07L167.309 253.615L190.072 264.179L132.316 267.303V256.07Z" fill="#F5F5F5"/>
<path d="M250.942 82.8021L252.44 73.9049C239.283 69.2107 238.373 55.4985 238.413 51.3438L229.83 54.7416L242.761 80.6926L250.942 82.8021Z" fill="#F5F5F5"/>
<path d="M204.017 189.869L221.9 188.009L218.373 172.211L202.729 174.143L204.017 189.869Z" fill="#F5F5F5"/>
<path d="M241.103 96.4437H207.704L204.935 96.2344L201.158 118.111L240.805 120.849L239.887 111.34L243.784 97.2972L241.103 96.4437Z" fill="#F5F5F5"/>
<path d="M240.291 92.4178L240.71 81.9746L227.585 55.6211L207.23 63.6729L214.227 92.4098H240.291V92.4178ZM226.788 58.8338L238.818 81.717L237.079 88.8509L216.498 88.0779L211.353 66.4347L226.788 58.8338Z" fill="#F5F5F5"/>
<path d="M245.484 218.381L246.096 238.889L260.573 238.076L260.614 238.881L246.12 239.695L246.861 264.236L260.541 263.367L260.646 264.977L246.91 265.847L247.272 278.053H260.606L260.896 209.621L247.264 210.998L245.484 218.381Z" fill="#F5F5F5"/>
<path d="M157.525 52.0603L126.88 47.6641L119.215 85.8457L157.654 88.6961C157.815 82.8182 157.678 64.7822 157.525 52.0603Z" fill="#F5F5F5"/>
<path d="M207.93 92.4179H212.559L205.997 65.4766L188.943 66.1771L189.354 91.0491L207.93 92.4179Z" fill="#F5F5F5"/>
<path d="M113.829 297.648L113.805 303.301C113.805 303.478 113.821 303.647 113.829 303.816V297.648Z" fill="#F5F5F5"/>
<path d="M158.443 88.7521L188.549 90.9824L188.138 66.207L158.476 67.4228C158.54 75.7967 158.572 84.7342 158.443 88.7521Z" fill="#F5F5F5"/>
<path d="M245.451 168.879L219.178 172.116L222.704 187.921L247.053 185.393L245.451 168.879Z" fill="#F5F5F5"/>
<path d="M252.578 73.0949L254.261 63.1107L261.516 63.6743L261.604 42.168L239.228 51.025C238.777 66.1543 248.287 71.4765 252.578 73.0949Z" fill="#F5F5F5"/>
<path d="M243.961 111.701L244.879 121.129L261.264 122.265L261.345 102.836L247.625 98.5039L243.961 111.701Z" fill="#F5F5F5"/>
<path d="M251.765 192.268L247.457 210.168L260.895 208.815L260.976 190.046C256.853 188.959 253.254 188.074 251.314 187.703L251.765 192.268Z" fill="#F5F5F5"/>
<path d="M242.689 92.7226L261.37 98.6246L261.41 88.0042L243.068 83.2617L242.689 92.7226Z" fill="#F5F5F5"/>
<path d="M251.08 185.237C252.586 185.463 255.436 186.067 260.984 187.532L261.161 146.5L247.457 147.82L251.08 185.237Z" fill="#F5F5F5"/>
<path d="M247.303 146.212L261.169 144.875L261.257 124.69L245.113 123.57L247.303 146.212Z" fill="#F5F5F5"/>
<path d="M254.123 73.6085C256.748 74.4056 259.196 75.0256 261.458 75.4765L261.499 65.291L255.597 64.832L254.123 73.6085Z" fill="#F5F5F5"/>
<path d="M252.504 83.2071L261.417 85.5099L261.458 76.2987C259.155 75.8397 256.667 75.2117 253.985 74.3984L252.504 83.2071Z" fill="#F5F5F5"/>
<path d="M130.496 273.213L130.633 278.052H131.438L131.301 273.164L195.273 269.114C195.152 272.255 195.031 275.306 194.926 278.052H196.537C196.641 275.459 196.762 272.335 196.891 269.01L210.7 268.14L212.673 278.052H213.494L211.505 268.084L242.883 266.095L243.245 278.044H247.271L246.901 265.837L260.637 264.968L260.533 263.357L246.853 264.219L246.112 239.677L260.605 238.864L260.557 238.058L246.088 238.872L245.476 218.364L247.255 210.972L260.895 209.595V208.782L247.456 210.135L251.764 192.236L251.321 187.662C253.254 188.033 256.853 188.918 260.983 190.005L260.992 187.493C255.444 186.036 252.593 185.432 251.088 185.198L247.464 147.774L261.169 146.453L261.177 144.835L247.311 146.171L245.121 123.53L261.265 124.649L261.273 122.225L244.88 121.09L243.97 111.653L247.634 98.4644L261.354 102.796L261.37 98.5771L242.698 92.6832L243.076 83.2223L261.418 87.9648L261.426 85.4768L252.513 83.174L253.994 74.3734C256.668 75.1866 259.156 75.8146 261.467 76.2736V75.4442C259.204 74.9933 256.756 74.3734 254.131 73.5762L255.613 64.7998L261.515 65.2587L261.523 63.6403L254.268 63.0767L252.585 73.0609C248.294 71.4425 238.785 66.1203 239.236 50.9829L261.611 42.1259L261.62 41.1033L261.378 40.4914L239.252 49.2437L239.227 11.1828H238.422L238.446 49.5658L229.122 53.2535L215.112 25.1205C214.452 25.5955 213.695 25.9096 212.866 26.0303L226.868 54.1392L205.337 62.658L205.821 64.6307L188.944 65.3231L188.3 25.982H187.495L188.139 65.3634L158.484 66.5712C158.436 60.5001 158.371 54.8236 158.331 51.6673L158.323 51.321H158.315L156.495 10.7963H155.69L157.502 51.2083L127.042 46.8362L134.296 10.6916L132.219 10.6836C132.09 10.6836 131.961 10.6997 131.824 10.6997L124.642 46.49L114.964 45.097L114.892 45.6204V45.8941L124.489 47.271L116.792 85.6137L114.722 85.4607L114.706 89.4947L129.787 90.6139V110.502L114.602 113.94L114.594 116.42L132.203 112.434V90.799L188.582 94.9779V118.022H170.554L168.186 128.747H153.508L114.513 135.841L114.505 138.297L153.733 131.155H198.405L200.007 150.704L153.548 155.173L153.701 156.776L200.136 152.307L203.212 189.772L156.294 183.644L155.98 186.036L203.413 192.236L205.233 214.37L155.585 219.378L129.828 221.198V187.429L154.233 173.193L153.017 171.108L129.167 185.013L114.312 183.057L114.304 185.488L129.014 187.429V208.919L114.199 210.489L114.191 212.921L129.022 211.351V222.068H129.03L129.908 252.447L129.9 252.431L113.998 258.663L113.99 261.264L129.981 254.999L130.456 271.546L113.941 272.593V273.132L114.006 274.203L130.496 273.213ZM196.947 267.391C197.004 265.958 197.06 264.509 197.117 263.043L209.693 263.075L210.386 266.538L196.947 267.391ZM211.191 266.489L210.418 262.616L208.542 244.935L207.479 232.044L241.788 229.459L242.843 264.493L211.191 266.489ZM218.993 213.847L237.037 212.027L236.53 219.113L220.354 220.86L218.993 213.847ZM218.188 213.927L221.208 229.387L207.35 230.433L206.094 215.143L218.188 213.927ZM241.74 227.841L222.013 229.33L220.668 222.438L238.044 220.562L238.664 211.858L243.012 211.415L241.442 217.961L241.74 227.841ZM218.373 172.211L221.9 188L204.017 189.86L202.729 174.135L218.373 172.211ZM222.705 187.92L219.178 172.114L245.452 168.877L247.054 185.392L222.705 187.92ZM240.806 120.848L201.159 118.103L204.935 96.234L207.705 96.4434L241.104 96.4514L243.785 97.2968L239.88 111.347L240.806 120.848ZM238.414 51.3372C238.374 55.4919 239.284 69.2041 252.44 73.8983L250.943 82.7955L242.762 80.6779L229.831 54.727L238.414 51.3372ZM227.577 55.6288L240.701 81.9823L240.282 92.4255H214.219L207.222 63.6886L227.577 55.6288ZM205.998 65.4761L212.56 92.4174H207.922L189.355 91.0406L188.944 66.1686L205.998 65.4761ZM188.139 66.2088L188.549 90.9842L158.444 88.7539C158.573 84.736 158.54 75.7985 158.484 67.4166L188.139 66.2088ZM126.881 47.6655L157.526 52.0618C157.679 64.7837 157.816 82.8117 157.663 88.6895L119.223 85.8391L126.881 47.6655ZM204.122 96.1776L198.493 128.796H189.387V95.0826L204.122 96.1776ZM172.494 120.486H188.582V128.796H170.658L172.494 120.486ZM199.105 130.019L200.748 120.502L241.047 123.288L243.302 146.598L200.804 150.688L199.105 130.019ZM243.455 148.2L245.226 166.478L202.535 171.736L200.941 152.291L243.455 148.2ZM204.218 192.276L247.287 187.799L247.69 191.986L243.213 210.594L206.022 214.346L204.218 192.276ZM207.737 245.007L209.573 262.27H197.149C197.366 256.578 197.576 250.885 197.728 246.601C197.994 238.936 197.994 238.936 197.487 238.678L197.108 239.435L196.327 239.476C196.36 240.144 195.981 250.668 195.554 261.916L159.619 244.701L158.347 219.958L205.297 215.224L207.737 245.007ZM155.199 220.272L154.949 252.044L130.729 253.196L129.836 222.076L155.199 220.272ZM130.77 254.734V254.718L130.746 253.993L155.746 252.809L156.004 220.208L157.542 220.055L158.838 245.233L195.514 262.802C195.458 264.364 195.393 265.934 195.337 267.496L131.253 271.546L130.77 254.734Z" fill="white"/>
<path d="M167.31 253.613L132.316 256.069V267.301L190.072 264.169L167.31 253.613Z" fill="#EBEBEB"/>
<path d="M239.388 126.21L204.386 123.996L202.229 130.003L203.412 147.902L241.417 143.393L239.388 126.21Z" fill="#EBEBEB"/>
<path d="M130.898 320.548L243.245 321.064C252.73 321.104 260.46 313.447 260.5 303.962L260.613 278.043H247.271H243.245H213.493H212.672H196.536H194.926H131.437H130.632H113.909L113.828 297.641V303.809C114.062 313.06 121.59 320.5 130.898 320.548Z" fill="#EBEBEB"/>
<path d="M154.2 47.8416L153.612 14.9258H136.519L131.559 44.5323L154.2 47.8416Z" fill="#EBEBEB"/>
<path d="M237.077 88.8492L238.816 81.7153L226.787 58.832L211.344 66.4329L216.497 88.0762L237.077 88.8492Z" fill="#EBEBEB"/>
<path d="M132.316 189.151C132.502 190.19 132.316 218.041 132.316 218.041L154.813 216.616L152.229 178.555L132.316 189.151Z" fill="#EBEBEB"/>
<path d="M207.352 211.762L206.168 194.507L244.752 189.547V192.526L240.09 208.396L207.352 211.762Z" fill="#EBEBEB"/>
<path d="M178.807 68.6554C178.807 71.2481 176.705 73.3576 174.105 73.3576C171.512 73.3576 169.402 71.2561 169.402 68.6554C169.402 66.0627 171.504 63.9531 174.105 63.9531C176.705 63.9531 178.807 66.0627 178.807 68.6554Z" fill="#D30000"/>
<g opacity="0.6">
<path d="M178.805 68.4544C178.918 71.0471 176.905 73.2372 174.312 73.3499C171.719 73.4627 169.529 71.4497 169.417 68.857C169.304 66.2644 171.317 64.0743 173.91 63.9615C176.502 63.8488 178.692 65.8618 178.805 68.4544Z" fill="white"/>
</g>
<path d="M174.112 71.6193C175.838 71.6193 177.236 70.2206 177.236 68.4952C177.236 66.7698 175.838 65.3711 174.112 65.3711C172.387 65.3711 170.988 66.7698 170.988 68.4952C170.988 70.2206 172.387 71.6193 174.112 71.6193Z" fill="#D30000"/>
<path d="M246.756 256.384C246.756 257.495 245.854 258.389 244.751 258.389C243.648 258.389 242.746 257.487 242.746 256.384C242.746 255.273 243.648 254.379 244.751 254.379C245.854 254.379 246.756 255.273 246.756 256.384Z" fill="#D30000"/>
<path d="M243.542 255.729L243.059 244.473L209.137 246.123C208.251 246.172 207.366 245.978 206.577 245.576L158.467 221.275C157.356 220.712 156.623 219.593 156.559 218.345L150.013 91.3354C149.981 90.7235 150.214 90.1357 150.649 89.7089C151.084 89.2822 151.687 89.0648 152.291 89.105L172.912 90.6349V68.0898H175.328V90.9409C175.328 91.5286 175.078 92.1003 174.651 92.4949C174.216 92.8974 173.637 93.0987 173.049 93.0585L152.444 91.5286L158.974 218.208C158.99 218.586 159.216 218.932 159.562 219.109L207.672 243.41C208.09 243.619 208.557 243.724 209.032 243.7L243.236 242.033C243.816 242.009 244.356 242.202 244.782 242.589C245.209 242.975 245.451 243.498 245.475 244.078L245.974 255.616L243.542 255.729Z" fill="#D30000"/>
<path d="M153.943 152.573C157.304 152.573 160.03 149.847 160.03 146.486C160.03 143.124 157.304 140.398 153.943 140.398C150.581 140.398 147.855 143.124 147.855 146.486C147.855 149.847 150.581 152.573 153.943 152.573Z" fill="#D30000"/>
<path d="M153.944 150.708C156.279 150.708 158.171 148.816 158.171 146.481C158.171 144.146 156.279 142.254 153.944 142.254C151.609 142.254 149.717 144.146 149.717 146.481C149.717 148.816 151.609 150.708 153.944 150.708Z" fill="#FAFAFA"/>
<path d="M153.943 151.016C151.447 151.016 149.41 148.986 149.41 146.482C149.41 143.986 151.439 141.949 153.943 141.949C156.439 141.949 158.476 143.978 158.476 146.482C158.476 148.986 156.439 151.016 153.943 151.016ZM153.943 142.561C151.777 142.561 150.014 144.325 150.014 146.49C150.014 148.656 151.777 150.42 153.943 150.42C156.109 150.42 157.873 148.656 157.873 146.49C157.873 144.316 156.109 142.561 153.943 142.561Z" fill="#D30000"/>
<path d="M189.805 120.953H160.818C159.409 120.953 158.266 122.096 158.266 123.506V134.005C158.266 135.414 159.409 136.558 160.818 136.558H161.156V139.062L164.055 136.558H189.805C191.214 136.558 192.357 135.414 192.357 134.005V123.506C192.357 122.096 191.214 120.953 189.805 120.953Z" fill="#D30000"/>
<g opacity="0.4">
<path d="M189.805 120.953H160.818C159.409 120.953 158.266 122.096 158.266 123.506V134.005C158.266 135.414 159.409 136.558 160.818 136.558H161.156V139.062L164.055 136.558H189.805C191.214 136.558 192.357 135.414 192.357 134.005V123.506C192.357 122.096 191.214 120.953 189.805 120.953Z" fill="white"/>
</g>
<path d="M164.779 128.589C164.779 127.631 165.52 126.914 166.527 126.914C167.525 126.914 168.266 127.623 168.266 128.589C168.266 129.555 167.525 130.264 166.527 130.264C165.52 130.264 164.779 129.547 164.779 128.589ZM167.799 128.589C167.799 127.864 167.259 127.333 166.527 127.333C165.794 127.333 165.246 127.864 165.246 128.589C165.246 129.314 165.786 129.845 166.527 129.845C167.251 129.853 167.799 129.314 167.799 128.589Z" fill="white"/>
<path d="M171.487 128.992C171.487 129.749 170.955 130.264 170.231 130.264C169.868 130.264 169.546 130.127 169.345 129.845V130.24H168.91V126.77H169.361V128.138C169.57 127.873 169.876 127.744 170.231 127.744C170.955 127.728 171.487 128.227 171.487 128.992ZM171.036 128.992C171.036 128.46 170.674 128.122 170.198 128.122C169.723 128.122 169.369 128.46 169.369 128.992C169.369 129.523 169.731 129.869 170.198 129.869C170.674 129.861 171.036 129.515 171.036 128.992Z" fill="white"/>
<path d="M171.254 131.012L171.399 130.665C171.487 130.738 171.616 130.786 171.761 130.786C172.003 130.786 172.132 130.633 172.132 130.351V127.751H172.582V130.343C172.582 130.851 172.301 131.165 171.793 131.165C171.584 131.165 171.383 131.116 171.254 131.012ZM172.051 126.978C172.051 126.817 172.18 126.68 172.357 126.68C172.534 126.68 172.663 126.809 172.663 126.961C172.663 127.131 172.534 127.259 172.357 127.259C172.188 127.267 172.051 127.147 172.051 126.978Z" fill="white"/>
<path d="M175.673 129.136H173.66C173.716 129.571 174.071 129.861 174.562 129.861C174.852 129.861 175.093 129.764 175.278 129.563L175.528 129.852C175.302 130.118 174.964 130.255 174.546 130.255C173.748 130.255 173.209 129.724 173.209 128.983C173.209 128.25 173.74 127.719 174.457 127.719C175.174 127.719 175.681 128.234 175.681 128.999C175.681 129.039 175.673 129.096 175.673 129.136ZM173.66 128.814H175.254C175.206 128.395 174.892 128.105 174.457 128.105C174.022 128.105 173.708 128.395 173.66 128.814Z" fill="white"/>
<path d="M176.076 128.991C176.076 128.25 176.624 127.727 177.389 127.727C177.831 127.727 178.202 127.912 178.403 128.258L178.065 128.475C177.904 128.234 177.662 128.121 177.389 128.121C176.906 128.121 176.535 128.459 176.535 128.991C176.535 129.53 176.897 129.868 177.389 129.868C177.662 129.868 177.904 129.756 178.065 129.514L178.403 129.731C178.21 130.078 177.84 130.263 177.389 130.263C176.624 130.255 176.076 129.731 176.076 128.991Z" fill="white"/>
<path d="M180.4 130.085C180.263 130.206 180.061 130.255 179.86 130.255C179.361 130.255 179.071 129.981 179.071 129.482V128.121H178.652V127.75H179.071V127.211H179.522V127.75H180.23V128.121H179.522V129.465C179.522 129.731 179.659 129.884 179.908 129.884C180.037 129.884 180.166 129.844 180.263 129.763L180.4 130.085Z" fill="white"/>
<path d="M180.867 126.978C180.867 126.817 180.996 126.68 181.173 126.68C181.342 126.68 181.479 126.809 181.479 126.961C181.479 127.131 181.35 127.259 181.173 127.259C180.996 127.267 180.867 127.147 180.867 126.978ZM180.948 127.751H181.399V130.231H180.948V127.751Z" fill="white"/>
<path d="M184.449 127.75L183.362 130.23H182.903L181.816 127.75H182.283L183.137 129.739L184.006 127.75H184.449Z" fill="white"/>
<path d="M187.034 129.136H185.021C185.078 129.571 185.432 129.861 185.923 129.861C186.213 129.861 186.454 129.764 186.64 129.563L186.889 129.852C186.664 130.118 186.326 130.255 185.907 130.255C185.11 130.255 184.57 129.724 184.57 128.983C184.57 128.25 185.102 127.719 185.818 127.719C186.535 127.719 187.042 128.234 187.042 128.999C187.042 129.039 187.034 129.096 187.034 129.136ZM185.021 128.814H186.615C186.567 128.395 186.253 128.105 185.818 128.105C185.384 128.105 185.061 128.395 185.021 128.814Z" fill="white"/>
<path d="M180.232 52.8666C180.232 49.1548 176.883 46.232 173.042 46.9486C170.627 47.3995 168.702 49.3722 168.276 51.7957C168.01 53.3095 168.324 54.7347 169.016 55.9102L169.032 55.9344C169.266 56.3209 169.556 56.6027 169.846 57.0133L173.348 61.6512C173.783 62.2309 174.653 62.2309 175.087 61.6512L178.526 57.0938C178.526 57.0938 179.17 56.3289 179.403 55.9344L179.419 55.9183C179.927 55.0165 180.232 53.9778 180.232 52.8666ZM174.202 55.4915C172.736 55.4915 171.553 54.3079 171.553 52.8425C171.553 51.377 172.736 50.1934 174.202 50.1934C175.667 50.1934 176.851 51.377 176.851 52.8425C176.851 54.3079 175.667 55.4915 174.202 55.4915Z" fill="#D30000"/>
<path d="M141.213 290.29H140.086V289.879H142.799V290.29H141.672V293.156H141.205V290.29H141.213Z" fill="#263238"/>
<path d="M142.76 291.916C142.76 291.176 143.307 290.652 144.048 290.652C144.789 290.652 145.336 291.176 145.336 291.916C145.336 292.657 144.797 293.189 144.048 293.189C143.307 293.189 142.76 292.657 142.76 291.916ZM144.885 291.916C144.885 291.385 144.531 291.047 144.056 291.047C143.581 291.047 143.219 291.385 143.219 291.916C143.219 292.448 143.581 292.794 144.056 292.794C144.523 292.794 144.885 292.448 144.885 291.916Z" fill="#263238"/>
<path d="M147.357 293.011C147.22 293.132 147.018 293.188 146.817 293.188C146.318 293.188 146.028 292.915 146.028 292.407V291.047H145.609V290.676H146.028V290.137H146.479V290.676H147.188V291.047H146.479V292.391C146.479 292.657 146.616 292.81 146.865 292.81C146.994 292.81 147.123 292.77 147.22 292.689L147.357 293.011Z" fill="#263238"/>
<path d="M149.861 291.659V293.157H149.434V292.827C149.281 293.052 149.008 293.181 148.621 293.181C148.057 293.181 147.703 292.883 147.703 292.448C147.703 292.054 147.961 291.723 148.702 291.723H149.41V291.635C149.41 291.256 149.193 291.039 148.742 291.039C148.444 291.039 148.146 291.144 147.953 291.305L147.768 290.967C148.025 290.757 148.396 290.645 148.79 290.645C149.483 290.653 149.861 290.983 149.861 291.659ZM149.41 292.4V292.054H148.718C148.275 292.054 148.146 292.223 148.146 292.44C148.146 292.69 148.355 292.843 148.693 292.843C149.032 292.843 149.297 292.69 149.41 292.4Z" fill="#263238"/>
<path d="M150.697 289.688H151.148V293.158H150.697V289.688Z" fill="#263238"/>
<path d="M155.602 289.684V293.154H155.167V292.76C154.966 293.042 154.652 293.179 154.281 293.179C153.557 293.179 153.025 292.671 153.025 291.906C153.025 291.149 153.557 290.642 154.281 290.642C154.636 290.642 154.942 290.771 155.151 291.037V289.668H155.602V289.684ZM155.159 291.914C155.159 291.383 154.797 291.045 154.33 291.045C153.855 291.045 153.492 291.383 153.492 291.914C153.492 292.446 153.855 292.792 154.33 292.792C154.797 292.792 155.159 292.446 155.159 291.914Z" fill="#263238"/>
<path d="M156.375 289.911C156.375 289.75 156.504 289.613 156.681 289.613C156.85 289.613 156.987 289.742 156.987 289.903C156.987 290.072 156.858 290.201 156.681 290.201C156.504 290.201 156.375 290.072 156.375 289.911ZM156.456 290.676H156.906V293.156H156.456V290.676Z" fill="#263238"/>
<path d="M157.445 292.899L157.631 292.544C157.84 292.697 158.178 292.802 158.5 292.802C158.919 292.802 159.088 292.673 159.088 292.464C159.088 291.908 157.518 292.391 157.518 291.401C157.518 290.958 157.912 290.66 158.548 290.66C158.87 290.66 159.241 290.741 159.45 290.886L159.257 291.24C159.032 291.095 158.782 291.047 158.54 291.047C158.146 291.047 157.953 291.192 157.953 291.385C157.953 291.973 159.523 291.49 159.523 292.456C159.523 292.907 159.112 293.188 158.452 293.188C158.057 293.188 157.655 293.06 157.445 292.899Z" fill="#263238"/>
<path d="M161.503 293.011C161.366 293.132 161.165 293.188 160.964 293.188C160.464 293.188 160.175 292.915 160.175 292.407V291.047H159.756V290.676H160.175V290.137H160.625V290.676H161.334V291.047H160.625V292.391C160.625 292.657 160.762 292.81 161.012 292.81C161.141 292.81 161.27 292.77 161.366 292.689L161.503 293.011Z" fill="#263238"/>
<path d="M164.007 291.659V293.157H163.581V292.827C163.428 293.052 163.154 293.181 162.768 293.181C162.204 293.181 161.85 292.883 161.85 292.448C161.85 292.054 162.107 291.723 162.848 291.723H163.557V291.635C163.557 291.256 163.339 291.039 162.888 291.039C162.59 291.039 162.292 291.144 162.099 291.305L161.914 290.967C162.172 290.757 162.542 290.645 162.937 290.645C163.621 290.653 164.007 290.983 164.007 291.659ZM163.557 292.4V292.054H162.864C162.421 292.054 162.292 292.223 162.292 292.44C162.292 292.69 162.502 292.843 162.84 292.843C163.178 292.843 163.444 292.69 163.557 292.4Z" fill="#263238"/>
<path d="M167.197 291.731V293.156H166.746V291.78C166.746 291.296 166.505 291.055 166.078 291.055C165.603 291.055 165.289 291.337 165.289 291.876V293.156H164.838V290.676H165.273V291.047C165.458 290.797 165.772 290.652 166.166 290.652C166.77 290.652 167.197 290.999 167.197 291.731Z" fill="#263238"/>
<path d="M167.816 291.916C167.816 291.176 168.364 290.652 169.129 290.652C169.572 290.652 169.942 290.838 170.143 291.184L169.805 291.401C169.644 291.16 169.403 291.047 169.129 291.047C168.646 291.047 168.275 291.385 168.275 291.916C168.275 292.456 168.638 292.794 169.129 292.794C169.403 292.794 169.644 292.681 169.805 292.44L170.143 292.657C169.95 293.003 169.58 293.189 169.129 293.189C168.364 293.189 167.816 292.657 167.816 291.916Z" fill="#263238"/>
<path d="M172.913 292.069H170.9C170.956 292.504 171.311 292.794 171.802 292.794C172.092 292.794 172.333 292.697 172.519 292.496L172.768 292.786C172.543 293.052 172.205 293.189 171.786 293.189C170.989 293.189 170.449 292.657 170.449 291.916C170.449 291.184 170.981 290.652 171.697 290.652C172.414 290.652 172.921 291.168 172.921 291.933C172.921 291.973 172.913 292.029 172.913 292.069ZM170.9 291.747H172.494C172.446 291.329 172.132 291.039 171.697 291.039C171.262 291.031 170.948 291.321 170.9 291.747Z" fill="#263238"/>
<path d="M144.153 296.836V304.654H142.341V298.285H140.779V296.836H144.153Z" fill="#263238"/>
<path d="M147.632 303.649C147.632 303.939 147.584 304.148 147.334 304.768L146.698 306.378H145.595L146.086 304.607C145.716 304.462 145.482 304.116 145.482 303.657C145.482 303.013 145.949 302.586 146.569 302.586C147.181 302.578 147.632 303.013 147.632 303.649Z" fill="#263238"/>
<path d="M151.278 296.836V304.654H149.466V298.285H147.904V296.836H151.278Z" fill="#263238"/>
<path d="M152.639 300.741C152.639 298.165 154.072 296.699 155.988 296.699C157.921 296.699 159.338 298.165 159.338 300.741C159.338 303.318 157.921 304.783 155.988 304.783C154.072 304.783 152.639 303.318 152.639 300.741ZM157.518 300.741C157.518 298.962 156.89 298.229 155.988 298.229C155.094 298.229 154.466 298.97 154.466 300.741C154.466 302.521 155.094 303.253 155.988 303.253C156.898 303.253 157.518 302.521 157.518 300.741Z" fill="#263238"/>
<path d="M160.225 300.741C160.225 298.165 161.658 296.699 163.574 296.699C165.507 296.699 166.924 298.165 166.924 300.741C166.924 303.318 165.507 304.783 163.574 304.783C161.658 304.783 160.225 303.318 160.225 300.741ZM165.104 300.741C165.104 298.962 164.476 298.229 163.574 298.229C162.68 298.229 162.052 298.97 162.052 300.741C162.052 302.521 162.68 303.253 163.574 303.253C164.484 303.253 165.104 302.521 165.104 300.741Z" fill="#263238"/>
<path d="M181.489 301.208V304.646H179.75V301.473C179.75 300.499 179.315 300.056 178.614 300.056C177.833 300.056 177.286 300.555 177.286 301.634V304.654H175.547V301.481C175.547 300.507 175.136 300.064 174.411 300.064C173.638 300.064 173.091 300.563 173.091 301.642V304.662H171.352V298.655H173.018V299.348C173.461 298.832 174.137 298.567 174.902 298.567C175.74 298.567 176.456 298.889 176.883 299.549C177.366 298.937 178.147 298.567 179.049 298.567C180.458 298.551 181.489 299.38 181.489 301.208Z" fill="#263238"/>
<path d="M135.969 297.763C136.821 294.14 134.575 290.513 130.952 289.661C127.329 288.809 123.701 291.055 122.849 294.678C121.997 298.301 124.244 301.929 127.867 302.781C131.49 303.633 135.117 301.386 135.969 297.763Z" fill="#D30000"/>
<path d="M126.705 297.445C126.705 297.405 127.333 297.373 128.436 297.34C129.539 297.308 131.109 297.284 132.993 297.268L132.857 297.566C132.325 296.954 131.745 296.278 131.133 295.577L131.021 295.448L131.125 295.319C131.665 294.643 132.237 293.935 132.824 293.194L132.985 293.532C132.744 293.532 132.478 293.532 132.22 293.532C130.232 293.524 128.356 293.516 126.697 293.508L126.882 293.323C126.866 295.368 126.842 297.091 126.81 298.299C126.777 299.506 126.737 300.207 126.697 300.207C126.657 300.207 126.616 299.506 126.584 298.299C126.552 297.091 126.528 295.368 126.512 293.323V293.137H126.705C128.364 293.129 130.24 293.121 132.229 293.113C132.494 293.113 132.752 293.113 132.993 293.113H133.428L133.154 293.451C132.559 294.184 131.987 294.893 131.439 295.561V295.303C132.035 296.012 132.607 296.696 133.13 297.316L133.388 297.622H132.993C131.109 297.606 129.531 297.582 128.436 297.55C127.333 297.526 126.705 297.485 126.705 297.445Z" fill="#FAFAFA"/>
<path d="M238.464 284.719H218.085C215.935 284.719 214.188 286.466 214.188 288.616V304.655C214.188 306.805 215.935 308.552 218.085 308.552H218.6V312.377L223.036 308.552H238.464C240.614 308.552 242.361 306.805 242.361 304.655V288.616C242.361 286.466 240.614 284.719 238.464 284.719Z" fill="#D30000"/>
<path d="M220.025 292.08V300.309C220.025 300.486 220.17 300.631 220.347 300.631H237.594C237.772 300.631 237.916 300.486 237.916 300.309L237.876 297.298C237.876 297.233 237.852 297.161 237.812 297.112L235.34 293.803C235.284 293.723 235.187 293.674 235.082 293.674L232.232 293.65C232.055 293.65 231.91 293.505 231.91 293.328V292.088C231.91 291.911 231.765 291.766 231.588 291.766H220.339C220.17 291.758 220.025 291.903 220.025 292.08Z" fill="#FAFAFA"/>
<path d="M232.715 294.366V297.007C232.715 297.112 232.795 297.193 232.9 297.193L236.709 297.128C236.853 297.128 236.942 296.959 236.853 296.838L235.074 294.213C235.042 294.165 234.977 294.133 234.913 294.133L232.884 294.189C232.795 294.181 232.715 294.262 232.715 294.366Z" fill="#D30000"/>
<path d="M238.255 300.879H219.68V301.451H238.255V300.879Z" fill="#FAFAFA"/>
<path d="M225.824 301.098C225.824 302.112 225.003 302.933 223.988 302.933C222.974 302.933 222.152 302.112 222.152 301.098C222.152 300.083 222.974 299.262 223.988 299.262C225.003 299.262 225.824 300.083 225.824 301.098Z" fill="#D30000"/>
<path d="M225.074 301.098C225.074 301.694 224.591 302.177 223.995 302.177C223.399 302.177 222.916 301.694 222.916 301.098C222.916 300.503 223.399 300.02 223.995 300.02C224.583 300.02 225.074 300.503 225.074 301.098Z" fill="#FAFAFA"/>
<path d="M231.903 300.631C231.854 300.631 231.822 298.642 231.822 296.194C231.822 293.747 231.863 291.758 231.903 291.758C231.951 291.758 231.983 293.739 231.983 296.194C231.991 298.642 231.951 300.631 231.903 300.631Z" fill="#D30000"/>
<path d="M235.84 301.098C235.84 302.112 235.018 302.933 234.004 302.933C232.989 302.933 232.168 302.112 232.168 301.098C232.168 300.083 232.989 299.262 234.004 299.262C235.018 299.262 235.84 300.083 235.84 301.098Z" fill="#D30000"/>
<path d="M235.084 301.098C235.084 301.694 234.601 302.177 234.005 302.177C233.409 302.177 232.926 301.694 232.926 301.098C232.926 300.503 233.409 300.02 234.005 300.02C234.601 300.02 235.084 300.503 235.084 301.098Z" fill="#FAFAFA"/>
<path d="M234.004 297.707C234.004 297.755 233.738 297.787 233.416 297.787C233.094 297.787 232.828 297.747 232.828 297.707C232.828 297.658 233.094 297.626 233.416 297.626C233.746 297.618 234.004 297.658 234.004 297.707Z" fill="#D30000"/>
<path d="M426.157 162.656C426.157 162.656 439.144 164.854 440.191 165.128C441.238 165.41 445.352 167.359 445.562 168.615C445.771 169.871 445.562 173.566 445.562 173.566C445.562 173.566 444.821 174.17 444.354 172.963C443.887 171.755 443.959 169.363 443.959 169.363L441.657 168.478L442.913 170.708L443.122 175.934C443.122 175.934 441.512 175.789 441.206 174.533C440.892 173.285 440.9 171.884 440.9 171.884L439.217 170.458L440.473 172.157L440.9 175.926C440.9 175.926 439.676 176.32 439.289 175.483C438.903 174.645 438.871 172.157 438.871 172.157L434.136 170.507L431.004 172.254L425.15 168.945L426.157 162.656Z" fill="#FFBE9D"/>
<path d="M380.688 130.555C380.745 130.812 396.341 152.278 396.341 152.278L427.662 162.021L426.237 173.785L387.846 166.055L374.223 150.418L380.688 130.555Z" fill="#D30000"/>
<g opacity="0.2">
<path d="M380.688 130.555C380.745 130.812 396.341 152.278 396.341 152.278L427.662 162.021L426.237 173.785L387.846 166.055L374.223 150.418L380.688 130.555Z" fill="black"/>
</g>
<path d="M326.129 172.566H262.134C260.781 172.566 259.678 171.471 259.678 170.11V162.55C259.678 161.197 260.773 160.094 262.134 160.094H326.129C327.482 160.094 328.585 161.189 328.585 162.55V170.11C328.585 171.471 327.49 172.566 326.129 172.566Z" fill="#F5F5F5"/>
<path d="M326.13 172.568C326.13 172.552 326.267 172.56 326.533 172.511C326.79 172.455 327.193 172.35 327.604 172.02C328.006 171.706 328.425 171.151 328.505 170.394C328.538 169.637 328.505 168.735 328.505 167.737C328.497 166.73 328.497 165.619 328.489 164.395C328.489 163.783 328.481 163.147 328.481 162.487C328.465 161.851 328.175 161.207 327.652 160.764C327.394 160.538 327.08 160.377 326.742 160.289C326.404 160.192 326.042 160.208 325.655 160.208C324.89 160.208 324.109 160.216 323.304 160.216C321.685 160.224 319.978 160.224 318.191 160.232C303.835 160.248 284.019 160.273 262.142 160.297C261.514 160.289 260.894 160.571 260.484 161.03C260.057 161.497 259.856 162.108 259.896 162.761C259.896 164.113 259.896 165.458 259.896 166.787C259.896 167.455 259.896 168.115 259.896 168.775V169.766C259.896 170.104 259.896 170.394 259.976 170.692C260.129 171.271 260.532 171.779 261.055 172.069C261.313 172.213 261.603 172.302 261.901 172.334C262.183 172.358 262.529 172.342 262.851 172.35C268.012 172.358 272.988 172.358 277.731 172.366C287.208 172.383 295.751 172.399 302.933 172.415C310.091 172.439 315.888 172.463 319.922 172.479C321.911 172.495 323.465 172.511 324.544 172.519C325.059 172.527 325.454 172.536 325.744 172.544C325.993 172.552 326.13 172.568 326.13 172.568C326.13 172.568 325.993 172.584 325.719 172.592C325.43 172.6 325.035 172.6 324.52 172.616C323.449 172.624 321.895 172.64 319.898 172.656C315.872 172.672 310.067 172.697 302.909 172.721C295.735 172.737 287.192 172.745 277.707 172.769C272.964 172.769 267.988 172.777 262.827 172.785C262.497 172.777 262.199 172.801 261.836 172.769C261.49 172.729 261.144 172.624 260.838 172.455C260.218 172.117 259.743 171.513 259.558 170.829C259.461 170.49 259.461 170.112 259.461 169.798V168.808C259.461 168.147 259.461 167.479 259.461 166.819C259.461 165.482 259.461 164.146 259.461 162.793C259.413 162.1 259.654 161.311 260.154 160.78C260.645 160.232 261.386 159.902 262.126 159.91C284.003 159.934 303.819 159.959 318.175 159.975C319.97 159.983 321.677 159.983 323.288 159.991C324.093 159.991 324.882 159.999 325.639 159.999C326.009 159.999 326.412 159.983 326.782 160.095C327.153 160.2 327.499 160.377 327.781 160.627C328.352 161.118 328.666 161.827 328.674 162.519C328.674 163.179 328.674 163.815 328.666 164.427C328.658 165.643 328.65 166.762 328.65 167.769C328.634 168.775 328.658 169.653 328.61 170.442C328.505 171.239 328.063 171.803 327.636 172.125C327.201 172.455 326.79 172.544 326.525 172.592C326.275 172.592 326.13 172.568 326.13 172.568Z" fill="#263238"/>
<path d="M499.883 331.915C518.044 331.042 532.06 315.612 531.187 297.45C530.314 279.289 514.884 265.273 496.722 266.146C478.561 267.019 464.545 282.449 465.418 300.611C466.291 318.772 481.721 332.788 499.883 331.915Z" fill="#263238"/>
<path d="M465.4 298.5C465.4 298.532 465.392 298.556 465.392 298.589C465.127 316.77 479.652 331.722 497.833 331.979C516.014 332.245 530.966 317.72 531.224 299.539C531.224 299.506 531.224 299.482 531.224 299.45L465.4 298.5Z" fill="#263238"/>
<path d="M475.208 298.722C475.022 311.484 485.224 321.984 497.986 322.169C510.748 322.354 521.248 312.153 521.433 299.391C521.618 286.628 511.417 276.129 498.654 275.944C485.884 275.767 475.393 285.96 475.208 298.722Z" fill="#FAFAFA"/>
<path d="M498.648 275.944C485.886 275.759 475.386 285.96 475.201 298.722L521.427 299.391C521.612 286.629 511.418 276.129 498.648 275.944Z" fill="#E0E0E0"/>
<path d="M484.242 298.859C484.129 306.637 490.345 313.031 498.115 313.143C505.893 313.256 512.286 307.04 512.399 299.27C512.512 291.492 506.296 285.099 498.526 284.986C490.748 284.865 484.346 291.081 484.242 298.859Z" fill="#263238"/>
<path d="M482.688 250.784C482.688 250.784 516.393 240.591 530.338 277.21L459.805 299.055L482.688 250.784Z" fill="#D30000"/>
<path d="M296.754 331.919C314.916 331.046 328.931 315.616 328.058 297.454C327.185 279.293 311.755 265.277 293.593 266.15C275.432 267.023 261.417 282.453 262.289 300.615C263.162 318.776 278.592 332.792 296.754 331.919Z" fill="#263238"/>
<path d="M262.269 298.496C262.269 298.528 262.261 298.552 262.261 298.585C261.996 316.766 276.521 331.718 294.702 331.975C312.883 332.241 327.835 317.716 328.093 299.535C328.093 299.503 328.093 299.478 328.093 299.446L262.269 298.496Z" fill="#263238"/>
<path d="M272.069 298.722C271.884 311.484 282.085 321.984 294.847 322.169C307.61 322.354 318.109 312.153 318.294 299.391C318.479 286.628 308.278 276.129 295.516 275.944C282.746 275.767 272.254 285.96 272.069 298.722Z" fill="#FAFAFA"/>
<path d="M295.517 275.944C282.755 275.759 272.256 285.96 272.07 298.722L318.296 299.391C318.481 286.629 308.279 276.129 295.517 275.944Z" fill="#E0E0E0"/>
<path d="M281.103 298.859C280.99 306.637 287.206 313.031 294.976 313.143C302.754 313.256 309.148 307.04 309.26 299.27C309.373 291.492 303.157 285.099 295.387 284.986C287.609 284.865 281.216 291.081 281.103 298.859Z" fill="#263238"/>
<path d="M342.008 285.84C341.823 285.937 324.68 283.191 324.68 283.191C322.804 285.639 319.938 287.137 316.862 287.282C309.454 287.636 302.216 287.966 295.943 288.24C290.098 288.498 285.565 293.449 285.806 299.295V299.303C286.04 304.835 290.476 309.255 296.008 309.473L332.466 310.906C338.465 311.139 346.428 307.5 350.172 302.806L342.008 285.84Z" fill="#455A64"/>
<path d="M252.44 271.275C252.44 271.275 250.87 239.188 281.024 232.505V228.391H386.655V238.198C386.655 238.198 371.147 256.87 376.212 272.37C381.277 287.878 382.855 289.456 382.855 289.456H442.97C442.97 289.456 450.248 280.277 450.562 266.677C450.876 253.07 445.224 229.808 441.005 214.936C437.164 201.417 434.741 190.105 434.741 190.105L452.777 184.09C452.777 184.09 486.151 227.723 487.512 230.178C488.873 232.634 493.511 238.359 492.416 250.896C491.329 263.44 461.336 302.153 453.429 306.509C445.522 310.874 438.436 311.147 431.343 312.234C425.191 313.184 379.674 312.556 367.774 312.371C363.635 312.307 359.553 311.252 356.018 309.11C352.459 306.952 349.778 303.377 346.823 297.516L340.551 285.245L252.44 271.275Z" fill="#D30000"/>
<path d="M260.523 269.043L247.214 289.881C245.507 292.546 248.269 295.904 251.167 294.648C252.576 294.036 254.09 293.086 255.628 291.62C261.715 285.831 272.561 270.581 272.561 270.581L260.523 269.043Z" fill="#455A64"/>
<path d="M355.93 272.795C355.922 272.795 355.946 272.69 356.01 272.489C356.075 272.271 356.163 271.982 356.276 271.611C356.502 270.838 356.775 269.687 356.977 268.173C357.315 265.17 357.162 260.588 354.915 255.596C353.82 253.108 352.202 250.564 350.012 248.229C347.814 245.91 345.1 243.768 341.928 242.061C338.771 240.346 335.196 238.993 331.38 238.132C327.555 237.27 323.489 236.884 319.326 236.884C315.164 236.884 311.105 237.254 307.208 237.769C303.311 238.293 299.575 238.937 296.049 239.742C289.003 241.328 282.876 243.671 278.133 246.369C273.375 249.05 270.001 251.981 267.891 254.179C266.829 255.274 266.064 256.184 265.556 256.812C265.315 257.11 265.13 257.351 264.985 257.529C264.856 257.69 264.783 257.77 264.775 257.762C264.775 257.762 265.677 256.313 267.771 254.066C269.848 251.82 273.214 248.841 277.98 246.111C282.731 243.357 288.891 240.974 295.96 239.364C299.495 238.55 303.239 237.89 307.152 237.359C311.057 236.835 315.139 236.457 319.326 236.457C323.513 236.457 327.612 236.852 331.468 237.721C335.325 238.591 338.924 239.96 342.113 241.707C345.31 243.438 348.055 245.62 350.269 247.979C352.476 250.354 354.102 252.939 355.189 255.467C357.419 260.532 357.532 265.17 357.138 268.181C356.912 269.703 356.614 270.862 356.357 271.627C356.228 271.99 356.123 272.28 356.051 272.489C355.978 272.698 355.938 272.795 355.93 272.795Z" fill="#263238"/>
<path d="M349.843 265.59C349.794 265.574 350.02 265.082 350.237 264.165C350.487 263.247 350.592 261.854 350.358 260.179C350.125 258.496 349.48 256.556 348.393 254.583C347.862 253.593 347.21 252.61 346.445 251.652C345.696 250.686 344.818 249.768 343.828 248.939C341.839 247.272 339.633 246.096 337.548 245.267C335.446 244.454 333.465 243.971 331.783 243.689C330.1 243.407 328.715 243.286 327.765 243.23C326.807 243.174 326.283 243.149 326.283 243.117C326.283 243.101 326.412 243.093 326.67 243.077C326.919 243.069 327.298 243.053 327.773 243.061C328.731 243.069 330.124 243.141 331.831 243.391C333.538 243.632 335.551 244.091 337.693 244.897C339.818 245.726 342.073 246.91 344.102 248.608C345.116 249.462 346.01 250.396 346.775 251.386C347.548 252.361 348.208 253.375 348.74 254.39C349.827 256.403 350.455 258.399 350.656 260.131C350.857 261.854 350.704 263.279 350.398 264.197C350.302 264.672 350.1 265.002 350.012 265.244C349.915 265.477 349.859 265.598 349.843 265.59Z" fill="#F5F5F5"/>
<g opacity="0.4">
<path d="M329.156 237.48C335.058 238.608 340.219 240.725 345.059 243.954C349.898 247.183 353.61 251.764 355.711 257.191C357.821 262.618 357.507 269.808 355.284 274.301L362.748 274.921C365.261 266.539 362.523 256.257 356.484 249.695C349.407 241.998 339.664 237.48 329.156 237.48Z" fill="black"/>
</g>
<path d="M326.783 228.389H261.49C257.674 228.389 254.582 225.297 254.582 221.48V178.846C254.582 175.029 257.674 171.938 261.49 171.938H326.783C330.599 171.938 333.691 175.029 333.691 178.846V221.48C333.691 225.297 330.599 228.389 326.783 228.389Z" fill="#455A64"/>
<path d="M333.689 184.534C333.689 184.646 315.903 184.743 293.97 184.743C272.029 184.743 254.242 184.646 254.242 184.534C254.242 184.421 272.029 184.324 293.97 184.324C315.903 184.324 333.689 184.421 333.689 184.534Z" fill="#263238"/>
<path d="M386.607 232.127C386.607 232.24 362.87 232.337 333.586 232.337C304.293 232.337 280.564 232.24 280.564 232.127C280.564 232.015 304.301 231.918 333.586 231.918C362.862 231.918 386.607 232.015 386.607 232.127Z" fill="#263238"/>
<path d="M386.655 228.392C386.655 228.392 388.394 226.315 388.563 223.658C388.732 221.001 387.516 217.691 384.666 217.691H348.191C342.281 217.691 337.49 222.482 337.49 228.392H386.655Z" fill="#455A64"/>
<path d="M434.748 190.103L428.403 176.874C426.672 173.113 428.048 168.645 431.607 166.527L450.577 155.214C451.568 154.627 452.703 154.312 453.854 154.312H457.953L459.595 181.053L453.275 183.468L457.276 189.974L434.748 190.103Z" fill="#D30000"/>
<path d="M458.018 155.281C458.018 155.281 464.507 156.771 465.321 166.771C466.134 176.78 459.596 179.888 459.596 179.888L458.018 155.281Z" fill="#EBEBEB"/>
<path d="M436.962 171.691C436.962 171.691 423.846 177.907 422.244 178.929C421.132 179.638 420.182 180.878 421.052 183.06C422.542 186.78 428.669 183.277 428.669 183.277L440.876 177.174C440.876 177.174 445.57 174.96 443.839 172.182C441.898 169.082 436.962 171.691 436.962 171.691Z" fill="#263238"/>
<path d="M418.395 169.426C418.395 169.426 430.714 171.535 431.761 171.817C432.808 172.099 436.922 174.048 437.132 175.304C437.341 176.56 437.132 180.255 437.132 180.255C437.132 180.255 436.391 180.859 435.924 179.652C435.457 178.444 435.529 176.052 435.529 176.052L433.226 175.167L434.483 177.397L434.692 182.623C434.692 182.623 433.082 182.478 432.776 181.222C432.462 179.974 432.47 178.573 432.47 178.573L430.795 177.147L432.051 178.846L432.478 182.615C432.478 182.615 431.254 183.009 430.867 182.172C430.481 181.334 430.449 178.846 430.449 178.846L425.714 177.196L422.582 178.943L417.654 176.246L418.395 169.426Z" fill="#FFBE9D"/>
<path d="M437.591 152.261C437.591 157.253 435.297 161.295 432.471 161.295C429.644 161.295 427.35 157.253 427.35 152.261C427.35 147.269 429.644 143.227 432.471 143.227C435.297 143.227 437.591 147.277 437.591 152.261Z" fill="#263238"/>
<path d="M433.307 158.47L436.117 168.221C437.373 167.585 437.639 166.329 437.429 165.338C436.721 161.997 436.326 159.621 435.545 156.691C435.456 156.409 433.307 158.47 433.307 158.47Z" fill="#263238"/>
<g opacity="0.4">
<path d="M377.604 276.54C377.322 275.734 377.04 274.913 376.775 274.068C376.525 273.279 376.227 272.465 376.018 271.684C375.631 270.283 375.406 268.842 375.317 268.013C370.567 287.353 377.821 300.969 390.269 301.927C408.458 303.328 430.641 304.343 439.611 301.991C455.964 297.7 461.963 284.068 463.396 281.814C464.829 279.567 477.833 255.79 469.862 232.899C461.89 210.008 447.993 185.699 447.993 185.699L434.748 190.112C434.748 190.112 437.171 201.416 441.012 214.943C445.231 229.815 450.883 253.077 450.569 266.684C450.255 280.292 442.977 289.463 442.977 289.463H382.862C382.854 289.455 381.565 288.166 377.604 276.54Z" fill="black"/>
</g>
<path d="M250.04 266.242L250.467 261.652L360.197 274.294C366.389 275.018 370.697 280.808 369.61 286.951L369.119 289.729L255.548 273.223C252.142 272.732 249.718 269.664 250.04 266.242Z" fill="#D30000"/>
<g opacity="0.6">
<path d="M250.04 266.242L250.467 261.652L360.197 274.294C366.389 275.018 370.697 280.808 369.61 286.951L369.119 289.729L255.548 273.223C252.142 272.732 249.718 269.664 250.04 266.242Z" fill="black"/>
</g>
<g opacity="0.3">
<path d="M463.396 296.935C463.396 296.935 487.552 270.364 492.536 249.478C494.211 249.462 498.108 249.631 500.016 250.033C500.008 250.033 485.724 288.867 463.396 296.935Z" fill="black"/>
</g>
<path d="M492.181 240.121C492.197 240.121 492.237 240.347 492.31 240.789C492.374 241.232 492.503 241.884 492.584 242.73C492.737 244.421 492.841 246.917 492.398 249.944C491.964 252.972 490.925 256.498 489.21 260.154C487.535 263.826 485.216 267.618 482.817 271.588C477.978 279.551 472.591 286.057 468.678 290.711C466.713 293.029 465.087 294.881 463.959 296.162C463.412 296.774 462.977 297.257 462.655 297.619C462.349 297.949 462.188 298.118 462.18 298.11C462.172 298.102 462.309 297.917 462.591 297.563C462.897 297.192 463.315 296.685 463.839 296.049C464.958 294.712 466.52 292.828 468.452 290.517C472.309 285.823 477.639 279.293 482.463 271.37C484.87 267.401 487.181 263.632 488.864 259.993C490.587 256.37 491.642 252.891 492.109 249.904C492.592 246.909 492.535 244.445 492.423 242.754C492.366 241.909 492.262 241.256 492.229 240.806C492.181 240.355 492.165 240.121 492.181 240.121Z" fill="#263238"/>
<path d="M450.417 296.743C450.337 296.824 448.606 295.261 446.553 293.249C444.499 291.236 442.897 289.537 442.978 289.456C443.058 289.376 444.789 290.938 446.85 292.951C448.904 294.964 450.506 296.662 450.417 296.743Z" fill="#263238"/>
<path d="M378.732 295.931C378.635 295.883 379.296 294.264 380.503 292.493C381.703 290.713 382.967 289.497 383.04 289.578C383.128 289.659 382.025 290.979 380.85 292.734C379.666 294.473 378.845 295.979 378.732 295.931Z" fill="#263238"/>
<path d="M332.322 311.268C332.225 311.187 334.053 310.02 335.615 307.081C336.396 305.631 337.032 303.739 337.234 301.565C337.435 299.407 337.121 296.96 336.058 294.689C334.955 292.434 333.256 290.655 331.452 289.447C329.641 288.231 327.773 287.539 326.154 287.233C322.885 286.597 320.832 287.289 320.832 287.161C320.832 287.144 320.953 287.112 321.194 287.056C321.436 287.008 321.782 286.895 322.249 286.855C323.175 286.71 324.552 286.669 326.211 286.951C327.869 287.225 329.802 287.909 331.67 289.133C333.538 290.349 335.301 292.177 336.436 294.512C337.531 296.863 337.837 299.383 337.612 301.605C337.395 303.828 336.702 305.76 335.873 307.226C335.052 308.691 334.15 309.738 333.449 310.366C333.119 310.704 332.813 310.897 332.62 311.058C332.435 311.203 332.33 311.276 332.322 311.268Z" fill="#263238"/>
<path d="M292.248 302.852C292.135 302.86 291.958 301.121 291.853 298.979C291.749 296.837 291.765 295.098 291.878 295.09C291.99 295.082 292.167 296.813 292.272 298.963C292.377 301.105 292.369 302.852 292.248 302.852Z" fill="#263238"/>
<path d="M295.162 302.86C295.049 302.876 294.735 301.145 294.461 299.003C294.188 296.853 294.059 295.106 294.172 295.09C294.284 295.074 294.598 296.805 294.872 298.955C295.146 301.089 295.275 302.844 295.162 302.86Z" fill="#263238"/>
<path d="M340.414 228.389C340.414 228.502 327.072 228.598 310.622 228.598C294.164 228.598 280.822 228.502 280.822 228.389C280.822 228.276 294.164 228.18 310.622 228.18C327.072 228.18 340.414 228.276 340.414 228.389Z" fill="#263238"/>
<path d="M297.207 228.349C297.095 228.349 296.998 213.067 296.998 194.225C296.998 175.376 297.095 160.094 297.207 160.094C297.32 160.094 297.417 175.368 297.417 194.225C297.417 213.067 297.328 228.349 297.207 228.349Z" fill="#263238"/>
<path d="M289.043 228.293C288.931 228.284 289.502 213.018 290.316 194.185C291.137 175.352 291.894 160.086 292.007 160.094C292.119 160.102 291.548 175.368 290.734 194.201C289.913 213.034 289.156 228.301 289.043 228.293Z" fill="#263238"/>
<path d="M270.565 321.411C270.557 321.419 270.436 321.299 270.21 321.057C269.993 320.807 269.655 320.461 269.268 319.97C268.471 319.012 267.408 317.546 266.297 315.606C264.075 311.765 261.869 305.759 261.893 298.89C261.925 292.014 264.179 286.032 266.434 282.207C267.561 280.275 268.64 278.817 269.437 277.867C269.824 277.376 270.17 277.038 270.387 276.788C270.613 276.547 270.734 276.426 270.742 276.434C270.75 276.442 270.653 276.587 270.452 276.845C270.259 277.11 269.928 277.465 269.566 277.964C268.809 278.946 267.771 280.42 266.692 282.352C264.518 286.185 262.336 292.103 262.311 298.89C262.287 305.67 264.413 311.612 266.555 315.461C267.618 317.402 268.64 318.883 269.397 319.873C269.759 320.381 270.081 320.743 270.275 321.001C270.476 321.258 270.573 321.395 270.565 321.411Z" fill="#455A64"/>
<path d="M385.914 260.066L385.664 260.541L380.817 269.664L374.021 276.21L387.605 294.295L398.926 292.419C398.926 292.419 397.654 289.834 391.977 289.335L389.803 278.529L397.782 266.162" fill="#455A64"/>
<path d="M374.021 276.202L387.597 294.286L398.918 292.41L397.364 290.92L388.072 291.935L375.463 274.809L374.021 276.202Z" fill="#E0E0E0"/>
<path d="M391.068 284.358C391.003 284.487 390.287 284.229 389.417 284.398C388.539 284.543 387.968 285.042 387.855 284.938C387.734 284.873 388.258 284.084 389.32 283.899C390.391 283.698 391.156 284.253 391.068 284.358Z" fill="#263238"/>
<path d="M390.439 281.695C390.342 281.792 389.722 281.212 388.796 281.188C387.862 281.156 387.21 281.695 387.121 281.59C387.073 281.542 387.17 281.333 387.459 281.107C387.741 280.882 388.232 280.664 388.812 280.681C389.392 280.697 389.867 280.946 390.133 281.196C390.398 281.437 390.487 281.655 390.439 281.695Z" fill="#263238"/>
<path d="M389.931 278.222C389.819 278.303 389.319 277.715 388.49 277.578C387.661 277.425 386.992 277.812 386.912 277.691C386.872 277.643 386.992 277.457 387.282 277.288C387.572 277.119 388.047 276.982 388.579 277.079C389.102 277.176 389.505 277.457 389.722 277.715C389.939 277.973 389.988 278.182 389.931 278.222Z" fill="#263238"/>
<path d="M392.517 275.033C392.388 275.106 391.962 274.51 391.189 274.172C390.424 273.81 389.699 273.882 389.667 273.745C389.61 273.624 390.448 273.278 391.398 273.713C392.348 274.132 392.654 274.993 392.517 275.033Z" fill="#263238"/>
<path d="M393.604 272.465C393.556 272.514 393.105 272.119 392.421 271.443C392.034 271.048 391.64 270.646 391.237 270.243C391.028 270.002 390.762 269.808 390.561 269.414C390.464 269.213 390.432 268.963 390.512 268.713C390.585 268.456 390.883 268.246 391.132 268.246C391.64 268.238 391.954 268.448 392.284 268.617C392.598 268.81 392.872 269.043 393.105 269.285C393.564 269.784 393.83 270.34 393.967 270.823C394.24 271.805 394.007 272.433 393.967 272.409C393.878 272.401 393.967 271.797 393.628 270.936C393.459 270.509 393.186 270.034 392.767 269.607C392.558 269.398 392.308 269.205 392.034 269.043C391.769 268.89 391.422 268.729 391.181 268.746C391.068 268.762 391.02 268.802 390.987 268.882C390.955 268.971 390.963 269.1 391.012 269.204C391.116 269.438 391.374 269.68 391.583 269.921C391.962 270.356 392.324 270.775 392.686 271.193C393.298 271.934 393.661 272.417 393.604 272.465Z" fill="#263238"/>
<path d="M394.07 272.73C394.013 272.738 393.957 272.134 394.456 271.353C394.947 270.613 396.139 269.703 397.709 270.194C397.83 270.266 397.934 270.411 397.951 270.572C397.967 270.733 397.926 270.854 397.87 270.951C397.765 271.152 397.628 271.257 397.524 271.377C397.29 271.603 397.049 271.804 396.799 271.965C396.308 272.295 395.809 272.505 395.382 272.625C394.52 272.867 393.957 272.787 393.965 272.73C393.957 272.65 394.496 272.601 395.269 272.287C395.656 272.134 396.099 271.909 396.533 271.579C396.751 271.418 396.968 271.233 397.178 271.023C397.282 270.91 397.387 270.806 397.427 270.717C397.467 270.613 397.459 270.637 397.435 270.613C397.395 270.58 397.234 270.556 397.089 270.548C396.944 270.54 396.799 270.54 396.662 270.556C396.38 270.58 396.115 270.653 395.865 270.749C395.374 270.943 395.004 271.257 394.746 271.571C394.231 272.199 394.15 272.746 394.07 272.73Z" fill="#263238"/>
<path d="M382.991 274.36C383.111 275.101 382.612 275.801 381.871 275.93C381.131 276.051 380.43 275.552 380.301 274.811C380.18 274.07 380.68 273.369 381.42 273.241C382.161 273.12 382.862 273.619 382.991 274.36Z" fill="#E0E0E0"/>
<path d="M427.141 268.763L430.772 292.339L460.129 287.974C459.541 285.197 443.51 281.823 443.51 281.823L441.803 266.621L427.141 268.763Z" fill="#455A64"/>
<path d="M434.25 281.902C433.703 282.143 433.405 282.836 433.622 283.391C433.84 283.947 434.548 284.253 435.096 284.027C435.643 283.794 436.03 282.973 435.748 282.441C435.466 281.918 434.621 281.596 434.146 281.95" fill="#E0E0E0"/>
<path d="M430.772 292.337L430.498 289.946L458.752 286.652C458.752 286.652 460.145 287.023 460.137 287.973L430.772 292.337Z" fill="#E0E0E0"/>
<path d="M443.968 281.605C443.984 281.75 443.276 281.919 442.639 282.491C441.987 283.038 441.713 283.715 441.577 283.675C441.44 283.666 441.528 282.781 442.309 282.104C443.082 281.428 443.976 281.468 443.968 281.605Z" fill="#263238"/>
<path d="M447.237 282.42C447.293 282.557 446.706 282.887 446.311 283.571C445.892 284.239 445.868 284.916 445.723 284.924C445.595 284.964 445.369 284.143 445.876 283.305C446.376 282.468 447.213 282.283 447.237 282.42Z" fill="#263238"/>
<path d="M449.533 285.842C449.404 285.89 449.098 285.206 449.356 284.369C449.598 283.523 450.234 283.113 450.306 283.225C450.403 283.33 450.032 283.813 449.839 284.514C449.622 285.198 449.678 285.81 449.533 285.842Z" fill="#263238"/>
<path d="M443.197 278.182C443.156 278.319 442.472 278.222 441.667 278.4C440.862 278.561 440.274 278.923 440.177 278.81C440.081 278.722 440.612 278.094 441.562 277.9C442.512 277.699 443.245 278.053 443.197 278.182Z" fill="#263238"/>
<path d="M441.98 274.802C441.988 274.858 441.441 275.035 440.507 275.011C440.048 275.003 439.492 274.93 438.897 274.769C438.599 274.689 438.293 274.584 437.987 274.447C437.842 274.383 437.665 274.318 437.487 274.165C437.302 274.037 437.157 273.674 437.31 273.417C437.431 273.167 437.681 273.03 437.89 272.998C438.107 272.958 438.285 272.974 438.454 272.99C438.792 273.022 439.114 273.087 439.412 273.167C440.008 273.336 440.515 273.594 440.901 273.851C441.674 274.383 441.988 274.882 441.94 274.914C441.884 274.971 441.481 274.568 440.716 274.157C440.33 273.948 439.847 273.747 439.291 273.61C439.009 273.545 438.719 273.497 438.405 273.473C438.083 273.441 437.818 273.473 437.761 273.626C437.737 273.682 437.737 273.706 437.818 273.787C437.898 273.859 438.035 273.924 438.18 273.988C438.462 274.117 438.752 274.23 439.025 274.318C439.573 274.496 440.088 274.6 440.531 274.649C441.409 274.769 441.964 274.721 441.98 274.802Z" fill="#263238"/>
<path d="M441.819 275.037C441.771 275.069 441.408 274.594 441.223 273.676C441.126 273.217 441.094 272.653 441.183 272.033C441.231 271.727 441.304 271.405 441.424 271.083C441.553 270.769 441.706 270.35 442.254 270.197C442.544 270.141 442.817 270.334 442.93 270.52C443.059 270.705 443.099 270.874 443.164 271.035C443.268 271.373 443.308 271.703 443.308 272.025C443.308 272.661 443.131 273.225 442.906 273.636C442.447 274.481 441.875 274.739 441.851 274.698C441.795 274.634 442.254 274.28 442.584 273.483C442.745 273.088 442.866 272.589 442.841 272.033C442.833 271.76 442.785 271.47 442.688 271.188C442.6 270.882 442.439 270.648 442.326 270.697C442.181 270.713 441.964 270.987 441.883 271.252C441.771 271.534 441.69 271.824 441.634 272.106C441.529 272.661 441.521 273.185 441.569 273.611C441.666 274.489 441.899 275.004 441.819 275.037Z" fill="#263238"/>
<path d="M404.04 213.382L378.854 268.247L395.489 278.232L430.296 212.215" fill="#263238"/>
<path d="M445.555 279.479L427.487 282.378L416.673 217.85L363.249 221.723C361.832 221.812 360.407 221.691 359.038 221.313C344.03 217.198 346.067 198.075 347.508 195.007L421.432 192.882C429.451 192.648 436.36 198.486 437.471 206.433L445.555 279.479Z" fill="#263238"/>
<path d="M346.783 198.043L347.048 170.764C347.048 170.764 343.53 153.025 342.483 146.053C340.865 135.223 338.65 130.086 356.38 122.388L360.253 120.891L366.252 120.971C373.41 121.511 380.946 127.976 381.116 132.268L388.016 193.743L346.783 198.043Z" fill="#D30000"/>
<path d="M347.893 128.734C347.893 128.734 342.893 139.508 343.892 149.323L362.548 167.23C366.735 171.884 371.96 173.865 378.651 174.267L417.252 178.486L418.322 168.39L381.598 157.987C380.141 157.721 379.408 156.191 378.289 155.217L347.893 128.734Z" fill="#D30000"/>
<path d="M344.883 131.84C344.883 131.84 345.092 131.606 345.624 131.341C346.155 131.083 346.992 130.817 348.12 130.64C349.239 130.479 350.656 130.358 352.29 130.648C352.693 130.745 353.12 130.842 353.514 131.067C353.901 131.292 354.271 131.558 354.65 131.84C355.398 132.42 356.147 133.08 356.904 133.813C358.45 135.254 359.916 137.082 361.631 138.934C363.338 140.794 365.222 142.774 367.267 144.86C369.304 146.945 371.502 149.127 373.861 151.382C375.045 152.501 376.261 153.644 377.549 154.763C378.201 155.303 378.845 155.931 379.465 156.519C380.093 157.099 380.81 157.638 381.631 157.791H381.639H381.647C392.566 160.875 405.094 164.418 418.372 168.178L418.541 168.226L418.525 168.403C418.452 169.12 418.364 169.893 418.283 170.666C418.001 173.347 417.719 176.004 417.454 178.5L417.43 178.71L417.22 178.685C411.608 178.065 406.141 177.47 400.883 176.89C398.25 176.6 395.674 176.318 393.153 176.036C390.625 175.779 388.161 175.529 385.754 175.288C383.346 175.022 381.011 174.748 378.749 174.418C376.486 174.088 374.288 173.669 372.267 172.912C370.238 172.171 368.426 171.109 366.8 169.981C365.165 168.846 363.684 167.662 362.291 166.495C356.775 161.785 352.725 157.582 349.915 154.715C348.522 153.274 347.451 152.139 346.735 151.366C346.389 150.987 346.123 150.689 345.93 150.48C345.752 150.279 345.664 150.166 345.664 150.166C345.664 150.166 345.769 150.254 345.954 150.448C346.155 150.649 346.429 150.939 346.791 151.309C347.54 152.074 348.627 153.185 350.02 154.611C352.862 157.445 356.944 161.616 362.468 166.286C363.861 167.437 365.35 168.613 366.977 169.732C368.595 170.851 370.383 171.89 372.38 172.606C374.377 173.347 376.543 173.75 378.805 174.072C381.06 174.394 383.395 174.668 385.802 174.925C388.21 175.167 390.673 175.408 393.202 175.658C395.722 175.932 398.307 176.213 400.931 176.495C406.189 177.067 411.656 177.663 417.277 178.275L417.043 178.46C417.309 175.964 417.591 173.307 417.872 170.626C417.953 169.853 418.033 169.08 418.114 168.363L418.267 168.588C404.99 164.82 392.469 161.261 381.551 158.161L381.567 158.169C380.617 157.992 379.86 157.396 379.216 156.801C378.564 156.181 377.976 155.601 377.307 155.045C376.019 153.918 374.795 152.767 373.612 151.639C371.261 149.377 369.07 147.179 367.033 145.085C365.004 142.992 363.128 141.003 361.421 139.127C359.706 137.259 358.265 135.431 356.743 133.99C355.994 133.257 355.254 132.589 354.521 132.017C354.15 131.735 353.788 131.462 353.418 131.244C353.055 131.027 352.637 130.93 352.25 130.834C350.656 130.528 349.239 130.632 348.128 130.769C347.008 130.922 346.171 131.164 345.64 131.405C345.116 131.639 344.891 131.856 344.883 131.84Z" fill="#263238"/>
<path d="M354.511 97.2349L356.387 123.79C356.693 128.122 360.3 131.487 364.648 131.487C369.431 131.487 373.223 127.437 372.909 122.663C372.74 120.134 372.595 118.065 372.595 118.065C372.595 118.065 379.021 117.067 379.101 110.641C379.15 106.929 378.505 98.5071 377.958 92.0496C377.587 87.6855 373.932 84.3359 369.552 84.3359H365.671C358.98 84.7305 353.939 90.568 354.511 97.2349Z" fill="#FFBE9D"/>
<path d="M372.603 117.977C372.603 117.977 368.536 118.307 364.221 115.594C364.221 115.594 366.201 120.224 372.619 119.644L372.603 117.977Z" fill="#EB996E"/>
<path d="M376.51 100.311C376.526 100.794 376.132 101.213 375.624 101.237C375.117 101.261 374.698 100.891 374.674 100.408C374.658 99.9244 375.053 99.5057 375.56 99.4816C376.067 99.4574 376.494 99.8278 376.51 100.311Z" fill="#263238"/>
<path d="M376.847 98.4975C376.735 98.6182 376.042 98.1029 375.052 98.1029C374.061 98.0949 373.337 98.6021 373.232 98.4814C373.176 98.425 373.297 98.2157 373.611 97.9822C373.925 97.7567 374.448 97.5312 375.068 97.5312C375.68 97.5312 376.203 97.7648 376.501 97.9902C376.799 98.2318 376.904 98.4411 376.847 98.4975Z" fill="#263238"/>
<path d="M367.233 100.307C367.249 100.79 366.854 101.209 366.347 101.233C365.84 101.257 365.421 100.887 365.397 100.404C365.381 99.9205 365.775 99.5018 366.283 99.4777C366.79 99.4535 367.217 99.8239 367.233 100.307Z" fill="#263238"/>
<path d="M367.136 98.6811C367.024 98.8018 366.323 98.2865 365.341 98.2865C364.351 98.2785 363.626 98.7857 363.521 98.665C363.465 98.6086 363.586 98.3992 363.9 98.1657C364.214 97.9403 364.737 97.7148 365.357 97.7148C365.969 97.7148 366.492 97.9483 366.79 98.1738C367.088 98.4073 367.193 98.6247 367.136 98.6811Z" fill="#263238"/>
<path d="M370.72 106.011C370.712 105.955 371.332 105.85 372.322 105.721C372.572 105.697 372.814 105.649 372.854 105.472C372.91 105.286 372.806 105.021 372.685 104.723C372.451 104.111 372.202 103.475 371.936 102.798C370.897 100.061 370.149 97.8142 370.261 97.774C370.374 97.7337 371.3 99.9158 372.339 102.653C372.588 103.33 372.83 103.974 373.055 104.586C373.152 104.876 373.313 105.198 373.184 105.576C373.12 105.761 372.934 105.898 372.765 105.947C372.604 105.995 372.459 105.995 372.339 106.003C371.348 106.059 370.728 106.067 370.72 106.011Z" fill="#263238"/>
<path d="M367.813 106.695C367.974 106.687 367.974 107.758 368.892 108.523C369.81 109.288 370.954 109.167 370.962 109.312C370.978 109.377 370.704 109.522 370.221 109.53C369.746 109.546 369.053 109.393 368.498 108.926C367.934 108.459 367.701 107.839 367.66 107.396C367.62 106.953 367.741 106.687 367.813 106.695Z" fill="#263238"/>
<path d="M367.394 94.8101C367.297 95.0759 366.307 94.9551 365.148 95.092C363.988 95.2047 363.054 95.5509 362.901 95.3094C362.829 95.1966 362.998 94.939 363.376 94.6813C363.747 94.4237 364.351 94.1741 365.043 94.0935C365.735 94.0211 366.38 94.1257 366.798 94.3029C367.225 94.472 367.434 94.6813 367.394 94.8101Z" fill="#263238"/>
<path d="M376.484 95.6405C376.307 95.866 375.63 95.6325 374.809 95.6244C373.988 95.5842 373.295 95.7774 373.142 95.5439C373.07 95.4312 373.183 95.2058 373.481 94.9964C373.778 94.7871 374.278 94.6099 374.841 94.626C375.405 94.6421 375.888 94.8434 376.178 95.0769C376.468 95.3024 376.564 95.5278 376.484 95.6405Z" fill="#263238"/>
<path d="M356.678 102.065C356.565 102.017 352.257 100.761 352.402 105.157C352.539 109.554 356.927 108.507 356.927 108.378C356.935 108.241 356.678 102.065 356.678 102.065Z" fill="#FFBE9D"/>
<path d="M355.535 106.75C355.519 106.734 355.462 106.806 355.333 106.871C355.213 106.935 354.995 106.975 354.762 106.903C354.295 106.75 353.876 106.025 353.828 105.228C353.804 104.826 353.876 104.447 354.005 104.125C354.126 103.803 354.327 103.57 354.56 103.521C354.794 103.457 354.963 103.594 355.019 103.714C355.084 103.835 355.06 103.924 355.084 103.932C355.1 103.94 355.172 103.851 355.132 103.674C355.108 103.586 355.06 103.489 354.947 103.4C354.842 103.32 354.681 103.28 354.52 103.304C354.182 103.336 353.884 103.658 353.739 104.012C353.578 104.367 353.49 104.793 353.514 105.244C353.57 106.13 354.053 106.943 354.689 107.104C355.003 107.177 355.253 107.072 355.382 106.967C355.527 106.855 355.551 106.758 355.535 106.75Z" fill="#EB996E"/>
<path d="M354.238 101.914C354.907 101.753 356.066 102.373 356.356 103.001C356.646 103.629 356.702 104.338 356.992 104.966C357.274 105.594 357.918 106.165 358.594 106.004C359.053 105.892 359.392 105.465 359.512 104.998C359.633 104.539 359.585 104.056 359.528 103.581C359.271 101.528 358.836 99.4904 358.755 97.4292C358.675 95.3599 358.965 93.2181 360.052 91.4547C361.139 89.6914 363.128 88.3951 365.189 88.5641C366.558 88.6769 367.806 89.3854 369.166 89.5787C370.777 89.8041 372.476 89.2324 373.627 88.0891C373.772 87.9442 374.465 87.4933 374.465 87.4933C374.465 87.3886 374.368 86.4707 374.006 86.1325C371.316 83.6445 366.461 82.952 362.91 83.8458C359.351 84.7395 356.018 87.2517 354.488 90.5852C352.942 93.9105 353.393 98.5403 354.238 101.914Z" fill="#263238"/>
<path d="M378.031 91.0597C378.031 91.0597 361.171 85.6328 353.876 100.223C353.876 100.223 352.789 96.5752 352.789 94.6186C352.789 93.3142 353.57 85.5281 361.582 83.0804C361.574 83.0804 373.643 78.4747 378.031 91.0597Z" fill="#D30000"/>
<path d="M363.537 91.4287C364.133 92.3949 365.196 93.0471 366.323 93.1518C367.45 93.2565 368.618 92.7975 369.374 91.9601C369.705 92.7894 370.598 93.3611 371.492 93.3128C372.386 93.2645 373.215 92.6043 373.457 91.7427C373.948 92.2178 374.455 92.7089 375.099 92.9424C375.743 93.1759 376.549 93.0874 376.975 92.5479C377.402 92.0004 377.281 91.171 376.863 90.6155C376.444 90.0599 375.792 89.7298 375.156 89.4641C373.151 88.6267 370.945 88.208 368.795 88.4978C366.645 88.7877 364.559 89.8344 363.215 91.5334" fill="#263238"/>
<g opacity="0.4">
<path d="M378.031 91.0582C378.031 91.0582 376.115 88.7714 372.669 88.6265C367.693 88.4091 358.385 91.2031 353.876 100.229C353.876 100.229 352.789 96.5817 352.789 94.6251C352.789 93.3207 353.57 85.5346 361.582 83.0869C361.574 83.0788 373.643 78.4732 378.031 91.0582Z" fill="black"/>
</g>
<path d="M354.576 98.517C357.08 94.6924 360.526 91.5281 364.399 89.1045C368.272 86.6809 374.682 84.2895 379.102 83.1139C380.431 82.7596 381.807 82.4537 383.16 82.6872C384.513 82.9207 385.833 83.8225 386.171 85.151C386.59 86.8177 383.635 89.3863 382.25 90.3927C380.865 91.3992 378.031 92.8888 378.031 92.8888C378.031 92.8888 378.071 89.7969 373.128 89.1608C366.396 88.3073 354.576 98.517 354.576 98.517Z" fill="#D30000"/>
<g opacity="0.3">
<path d="M348.643 153.309C350.382 157.504 352.137 162.681 354.657 166.457C357.177 170.233 360.543 173.583 364.738 175.338C369.996 177.536 376.22 177.899 381.454 175.636C381.88 175.451 382.718 175.218 382.637 174.759C382.637 174.759 380.906 174.565 380.367 174.477C369.787 172.689 368.643 171.385 363.579 167.383C360.422 164.895 353.425 157.351 348.643 153.309Z" fill="black"/>
</g>
<path d="M382.258 183.857C382.282 183.865 382.145 184.227 381.815 184.839C381.493 185.451 380.938 186.296 380.108 187.222C378.466 189.09 375.551 191.111 371.912 192.231C368.28 193.35 364.834 193.551 362.378 193.656C361.146 193.704 360.148 193.712 359.463 193.712C358.771 193.712 358.393 193.696 358.393 193.664C358.393 193.632 358.771 193.599 359.455 193.551C360.228 193.503 361.203 193.438 362.362 193.366C364.802 193.189 368.216 192.931 371.791 191.836C375.358 190.733 378.232 188.8 379.891 187.021C381.582 185.25 382.178 183.808 382.258 183.857Z" fill="#263238"/>
<path d="M427.817 284.302C427.809 284.302 427.784 284.222 427.752 284.053C427.712 283.867 427.664 283.618 427.607 283.312C427.486 282.635 427.309 281.677 427.092 280.453C426.657 277.941 426.029 274.358 425.264 269.938C423.758 261.033 421.681 248.77 419.386 235.227C418.364 229.099 417.389 223.229 416.496 217.875L416.705 218.036C407.325 218.72 399.297 219.308 393.588 219.727C390.77 219.92 388.524 220.073 386.954 220.178C386.205 220.218 385.617 220.258 385.182 220.282C384.997 220.29 384.844 220.298 384.723 220.298C384.619 220.298 384.57 220.298 384.57 220.29C384.57 220.282 384.619 220.274 384.723 220.258C384.844 220.242 384.997 220.226 385.174 220.21C385.601 220.17 386.189 220.113 386.938 220.041C388.508 219.904 390.754 219.719 393.564 219.477C399.265 219.026 407.284 218.382 416.665 217.633L416.842 217.617L416.874 217.794C417.776 223.141 418.766 229.01 419.797 235.138C422.043 248.689 424.081 260.96 425.554 269.873C426.271 274.302 426.85 277.893 427.253 280.405C427.438 281.629 427.591 282.587 427.696 283.272C427.736 283.586 427.776 283.827 427.8 284.02C427.817 284.214 427.817 284.302 427.817 284.302Z" fill="#455A64"/>
<path d="M422.1 212.103C422.172 212.199 420.771 213.407 419.169 215.034C417.567 216.652 416.383 218.085 416.286 218.005C416.198 217.94 417.245 216.378 418.871 214.736C420.498 213.093 422.035 212.014 422.1 212.103Z" fill="#455A64"/>
<path d="M372.749 123.236C372.765 123.236 372.797 123.324 372.845 123.501C372.902 123.678 372.95 123.944 372.998 124.29C373.079 124.983 373.039 126.029 372.604 127.221C372.169 128.397 371.324 129.717 369.955 130.708C368.594 131.698 366.71 132.213 364.786 132.084C362.853 131.956 361.082 131.231 359.769 130.208C358.441 129.194 357.531 127.97 356.919 126.883C356.315 125.78 355.993 124.822 355.832 124.145C355.751 123.807 355.695 123.541 355.671 123.364C355.647 123.187 355.639 123.091 355.655 123.083C355.743 123.05 355.945 124.62 357.185 126.738C357.813 127.777 358.723 128.944 360.011 129.902C361.283 130.869 362.982 131.545 364.826 131.674C366.662 131.795 368.441 131.311 369.746 130.394C371.058 129.484 371.895 128.236 372.346 127.116C372.789 125.989 372.886 124.983 372.854 124.306C372.805 123.622 372.701 123.252 372.749 123.236Z" fill="#263238"/>
<path d="M384.103 158.398C384.071 158.398 384.014 158.101 383.934 157.561C383.845 156.925 383.732 156.16 383.612 155.258C383.346 153.205 383 150.564 382.621 147.649C382.259 144.67 381.969 141.973 381.792 140.016C381.703 139.034 381.639 138.245 381.607 137.697C381.574 137.15 381.566 136.844 381.599 136.844C381.631 136.844 381.687 137.142 381.768 137.681C381.856 138.317 381.961 139.082 382.082 139.984C382.339 142.037 382.67 144.678 383.032 147.601C383.394 150.572 383.716 153.269 383.901 155.226C383.998 156.208 384.062 156.997 384.095 157.545C384.127 158.092 384.135 158.398 384.103 158.398Z" fill="#263238"/>
</g>
<defs>
<clipPath id="clip0_5747_2330">
<rect width="563.683" height="332" fill="white"/>
</clipPath>
</defs>
</svg>
