<svg width="40" height="40" viewBox="0 0 40 40" fill="none" xmlns="http://www.w3.org/2000/svg">
<g clip-path="url(#clip0_5803_1379)">
<path d="M38.5132 20.47C38.334 20.2725 38.0786 20.159 37.8122 20.159H36.7068C36.5973 18.7802 36.1007 17.4811 35.2539 16.3715C35.0573 16.1142 34.6899 16.0648 34.4324 16.261C34.1751 16.4575 34.1256 16.8253 34.3222 17.0825C35.0116 17.9858 35.4226 19.0396 35.5291 20.159H34.4223C34.1311 17.709 32.0422 15.8023 29.5151 15.8023C28.4039 15.8023 27.326 16.1816 26.4606 16.861C26.2619 16.5512 26.04 16.2579 25.7977 15.983C25.9772 15.8426 26.1639 15.7141 26.3562 15.596C26.3583 15.5945 26.3608 15.5936 26.3629 15.5924C26.5985 15.4477 26.8414 15.3204 27.0904 15.2106C27.1142 15.2002 27.1383 15.1901 27.1622 15.1801C27.2247 15.1532 27.2879 15.1279 27.3511 15.1035C27.3923 15.0876 27.4335 15.072 27.475 15.0574C27.5067 15.0458 27.5384 15.0342 27.5705 15.0232C27.6352 15.0012 27.7005 14.9805 27.7658 14.9609C27.7951 14.9521 27.8241 14.9432 27.8537 14.935C27.9208 14.9158 27.9883 14.8978 28.056 14.8807C28.0859 14.8734 28.1158 14.8666 28.146 14.8596C28.1973 14.8477 28.2489 14.8364 28.3005 14.8261C28.3484 14.8163 28.3963 14.8071 28.4445 14.7986C28.4881 14.7907 28.5321 14.7833 28.5763 14.7763C28.6169 14.7699 28.6575 14.7638 28.6984 14.7583C28.9673 14.7217 29.2401 14.7025 29.5154 14.7025C30.5377 14.7025 31.5478 14.9622 32.4362 15.4538C32.7194 15.6104 33.0758 15.5078 33.2327 15.2246C33.3893 14.9414 33.287 14.585 33.0035 14.4281C32.0736 13.9136 31.0324 13.6115 29.9682 13.5446L36.9 3.95632C37.0736 3.71614 37.1423 3.42287 37.0935 3.13021C37.0443 2.83785 36.8835 2.58272 36.6412 2.41213C36.6409 2.41213 36.6409 2.41213 36.6409 2.41213L35.7675 1.79873C35.5249 1.62813 35.2301 1.56344 34.9386 1.61654C34.6469 1.66964 34.3942 1.83382 34.227 2.07888L25.6442 14.6573C25.4034 14.8108 25.1721 14.9805 24.949 15.1633C24.9408 15.1569 24.9325 15.1502 24.9243 15.1434L31.3928 2.04714C31.524 1.78133 31.5429 1.48043 31.4459 1.19997C31.3489 0.919821 31.1481 0.695212 30.8804 0.567343L29.9173 0.108054C29.6493 -0.0198144 29.3484 -0.034768 29.0695 0.066245C28.7906 0.167258 28.5684 0.371115 28.4445 0.640585L22.4628 13.6304C22.1069 12.1842 21.3061 10.8728 20.1666 9.88984C18.8589 8.76191 17.186 8.14027 15.4568 8.14027C13.7292 8.14027 12.0578 8.76069 10.7504 9.88679C9.55475 10.9168 8.73169 12.309 8.40363 13.8388C5.62012 14.6823 3.54279 17.1655 3.30109 20.1593H2.19514C1.92872 20.1593 1.67329 20.2725 1.49445 20.4703C1.31562 20.6677 1.22834 20.9332 1.25459 21.1984C1.63056 24.9582 3.27454 31.8991 10.0534 36.2793V38.139C10.0534 39.165 10.8884 40 11.9147 40H28.0993C29.1257 40 29.9603 39.165 29.9603 38.139V36.2753C33.3496 34.0835 35.8301 31.0184 37.334 27.1628C37.5216 26.6815 37.695 26.1841 37.8494 25.6842C37.9736 25.2814 38.0884 24.8675 38.1903 24.455C38.454 23.389 38.6432 22.2934 38.7524 21.1984C38.779 20.9329 38.6917 20.6677 38.5132 20.47ZM35.1538 2.80001L35.9073 3.32918L28.4784 13.6044C28.4445 13.6093 28.4106 13.616 28.3768 13.6215C28.3258 13.6295 28.2748 13.638 28.2242 13.6472C28.1793 13.6554 28.1347 13.6633 28.0902 13.6725C28.0108 13.6881 27.9321 13.7051 27.8537 13.7238C27.8161 13.7326 27.7786 13.7421 27.7411 13.7518C27.717 13.7579 27.6929 13.7634 27.6687 13.7698L35.1538 2.80001ZM29.5154 16.9745C31.3952 16.9745 32.9577 18.3572 33.2403 20.159H32.117C31.849 18.9694 30.7846 18.078 29.5154 18.078C28.6612 18.078 27.9001 18.4821 27.4115 19.1086C27.3169 18.7027 27.1869 18.3051 27.0212 17.9181C27.7066 17.3145 28.5962 16.9745 29.5154 16.9745ZM30.8905 20.159H28.1399C28.3685 19.6252 28.8986 19.2499 29.5151 19.2499C30.1318 19.2502 30.6622 19.6252 30.8905 20.159ZM29.4787 1.19753L30.3094 1.59365L23.9477 14.4742C23.7945 14.3869 23.6377 14.3048 23.4775 14.2285L29.4787 1.19753ZM22.5183 15.0934C22.565 15.1111 22.6114 15.1291 22.6578 15.148C22.6825 15.1581 22.7072 15.1691 22.7319 15.1794C22.8061 15.2109 22.8793 15.2435 22.952 15.2777C22.9843 15.293 23.0163 15.3082 23.0484 15.3238C23.0859 15.3424 23.1232 15.3613 23.1601 15.3806C23.1991 15.401 23.2379 15.4218 23.2764 15.4428C23.3172 15.4651 23.3578 15.488 23.3984 15.5112C23.4494 15.5408 23.5 15.5707 23.5501 15.6015C23.5782 15.6189 23.6062 15.6369 23.634 15.6546C23.677 15.6821 23.7195 15.7105 23.7616 15.7388C23.7863 15.7556 23.811 15.7718 23.8354 15.7889C24.7229 16.409 25.437 17.261 25.889 18.2565C25.892 18.2635 25.8951 18.2703 25.8981 18.2773C26.1593 18.8586 26.3312 19.4885 26.3962 20.1492C26.3965 20.1526 26.3968 20.1556 26.3971 20.159H25.2896C24.9988 17.709 22.9098 15.802 20.3827 15.802C19.0234 15.802 17.7545 16.3507 16.8332 17.3053C16.655 16.9775 16.452 16.662 16.2231 16.3629C17.3416 15.3018 18.8315 14.7022 20.3827 14.7022C21.1343 14.7022 21.8539 14.8416 22.5183 15.0934ZM20.3824 18.078C19.1131 18.078 18.0487 18.9697 17.7808 20.1593H17.6834C17.6831 20.1547 17.6825 20.1504 17.6822 20.1462C17.6761 20.0726 17.6688 19.9994 17.6605 19.9265C17.6581 19.9063 17.6559 19.8859 17.6535 19.8654C17.6434 19.7852 17.6324 19.7052 17.6202 19.6255C17.6175 19.6078 17.6141 19.5901 17.6114 19.5724C17.6016 19.5129 17.5909 19.4537 17.5796 19.3948C17.5793 19.3921 17.5787 19.389 17.5781 19.3863C17.5766 19.379 17.5754 19.3716 17.5738 19.3643C17.5705 19.3472 17.5674 19.3298 17.5641 19.3127C17.5479 19.2337 17.5305 19.1556 17.5122 19.0778C17.5073 19.057 17.5021 19.0366 17.4969 19.0158C17.4866 18.9737 17.4759 18.9319 17.4649 18.8901C17.4646 18.8892 17.4643 18.8879 17.464 18.887C17.456 18.8568 17.4478 18.8269 17.4396 18.7967C17.4368 18.7866 17.4341 18.7766 17.431 18.7662C17.4194 18.7259 17.4072 18.6853 17.395 18.6453C17.3944 18.6435 17.3938 18.642 17.3935 18.6401C17.3834 18.6075 17.373 18.5751 17.3627 18.5425C17.3587 18.5297 17.355 18.5168 17.3511 18.504C18.0618 17.5415 19.1757 16.9745 20.3824 16.9745C22.2623 16.9745 23.8251 18.3575 24.1073 20.1593H22.984C22.7164 18.9694 21.6519 18.078 20.3824 18.078ZM21.7578 20.159H19.0073C19.2358 19.6252 19.7659 19.2499 20.3827 19.2499C20.9991 19.2502 21.5292 19.6252 21.7578 20.159ZM15.4565 13.8602C15.9692 13.8602 16.4365 14.1254 16.7075 14.5389C16.2521 14.8084 15.8255 15.1285 15.4358 15.4953C15.0583 15.1395 14.6423 14.8236 14.1949 14.5551C14.4641 14.1321 14.9356 13.8602 15.4565 13.8602ZM13.1403 14.0335C12.7951 13.8968 12.4368 13.7863 12.0679 13.7039C12.691 12.4298 14.0039 11.5845 15.4565 11.5845C16.9064 11.5845 18.2178 12.4271 18.8422 13.6975C18.475 13.7781 18.1152 13.8867 17.7664 14.0228C17.2977 13.2135 16.4218 12.688 15.4565 12.688C14.4846 12.688 13.6066 13.2178 13.1403 14.0335ZM11.5155 10.7749C12.6102 9.83186 14.0097 9.31245 15.4568 9.31245C16.9052 9.31245 18.306 9.83277 19.4009 10.7776C20.2682 11.5256 20.9009 12.5006 21.2329 13.5806C20.954 13.5477 20.6702 13.5303 20.3827 13.5303C20.2722 13.5303 20.162 13.5333 20.0522 13.5382C19.3146 11.676 17.4896 10.4126 15.4568 10.4126C13.4228 10.4126 11.5982 11.6766 10.8606 13.5394C10.7385 13.5333 10.6158 13.5303 10.4922 13.5303C10.2182 13.5303 9.94812 13.5461 9.68201 13.5761C10.015 12.4966 10.6482 11.5222 11.5155 10.7749ZM10.4922 14.7022C12.8839 14.7022 14.9557 16.0992 15.9344 18.1201C15.9424 18.1369 15.95 18.154 15.9576 18.1708C15.9894 18.2376 16.0199 18.3047 16.0492 18.3725C16.0635 18.4067 16.077 18.4409 16.091 18.475C16.1121 18.5266 16.1328 18.5785 16.1523 18.6307C16.1685 18.674 16.1835 18.7173 16.1987 18.761C16.2143 18.8052 16.2295 18.8495 16.2439 18.8943C16.2598 18.9429 16.2741 18.9917 16.2887 19.0405C16.3007 19.0814 16.3126 19.1226 16.3238 19.1641C16.3379 19.2154 16.351 19.267 16.3635 19.3185C16.3733 19.3591 16.3827 19.4 16.3919 19.4412C16.4032 19.4931 16.4142 19.545 16.4242 19.5975C16.4325 19.6402 16.4401 19.6829 16.4474 19.726C16.456 19.7766 16.4645 19.8276 16.4719 19.8785C16.4789 19.9261 16.4844 19.9741 16.4902 20.022C16.4957 20.0674 16.5015 20.1132 16.506 20.1593H15.3992C15.1083 17.709 13.0194 15.8023 10.4922 15.8023C7.96509 15.8023 5.87616 17.709 5.58533 20.1593H4.47815C4.77387 17.1011 7.35779 14.7022 10.4922 14.7022ZM10.4922 18.078C9.22272 18.078 8.15826 18.9697 7.89063 20.1593H6.76727C7.04956 18.3575 8.61237 16.9745 10.4922 16.9745C12.3718 16.9745 13.9346 18.3575 14.2172 20.1593H13.0936C12.8259 18.9694 11.7615 18.078 10.4922 18.078ZM11.8674 20.159H9.11682C9.3454 19.6252 9.87549 19.2499 10.4922 19.2499C11.1087 19.2499 11.6391 19.6252 11.8674 20.159ZM37.0526 24.1733C36.9558 24.5648 36.8472 24.9567 36.7294 25.3384C36.5835 25.8115 36.4193 26.282 36.242 26.7367C34.8141 30.3979 32.4515 33.2983 29.22 35.3576C29.2193 35.358 29.2132 35.3619 29.1998 35.3659C29.1891 35.3692 29.1791 35.3711 29.1714 35.3711H15.2765C14.9527 35.3711 14.6902 35.6332 14.6902 35.957C14.6902 36.2808 14.9527 36.5433 15.2765 36.5433H28.7884V38.1387C28.7884 38.5187 28.4793 38.8278 28.0993 38.8278H11.9147C11.5347 38.8278 11.2256 38.5187 11.2256 38.1387V36.5433H12.5494C12.8729 36.5433 13.1354 36.2808 13.1354 35.957C13.1354 35.6332 12.8729 35.3711 12.5494 35.3711H10.8359C10.8276 35.3711 10.8182 35.3695 10.8081 35.3665C10.7971 35.3631 10.7907 35.3598 10.7883 35.358C4.48639 31.3421 2.85157 24.9499 2.44752 21.3312H37.5598C37.4533 22.2876 37.2827 23.2425 37.0526 24.1733Z" fill="#AF8C3E"/>
</g>
<defs>
<clipPath id="clip0_5803_1379">
<rect width="40" height="40" fill="white"/>
</clipPath>
</defs>
</svg>
