<svg width="181" height="108" viewBox="0 0 181 108" fill="none" xmlns="http://www.w3.org/2000/svg">
<path d="M27.5898 37.2839V11.3711H33.1562C35.0542 11.3711 36.5557 11.6652 37.6634 12.2505C38.7702 12.8368 39.5615 13.7172 40.0353 14.8897C40.51 16.0632 40.7474 17.5231 40.7474 19.2723V28.806C40.7474 30.64 40.51 32.1867 40.0353 33.4451C39.5605 34.7044 38.7912 35.6581 37.7264 36.309C36.6615 36.9599 35.2325 37.2848 33.4412 37.2848L27.5898 37.2839ZM31.1638 34.6919H33.1886C34.4956 34.6919 35.4232 34.4354 35.9713 33.9243C36.5195 33.4123 36.8512 32.666 36.9675 31.6853C37.0838 30.7047 37.142 29.5205 37.142 28.1339V19.7197C37.142 18.3755 37.0581 17.2888 36.8894 16.4566C36.7206 15.6245 36.3517 15.017 35.7826 14.6322C35.2125 14.2494 34.3164 14.0566 33.0942 14.0566H31.1647V34.6919H31.1638Z" fill="#8e8e91"/>
<path d="M47.4219 37.2839V11.3711H57.3525V14.0585H50.9949V22.6318H56.1504V25.191H50.9949V34.6929H57.4154V37.2848L47.4219 37.2839Z" fill="#8e8e91"/>
<path d="M63.4531 37.2839V11.3711H67.0271V34.6929H73.5744V37.2848L63.4531 37.2839Z" fill="#8e8e91"/>
<path d="M79.3613 37.2839V11.3711H82.8724V37.2839H79.3613Z" fill="#8e8e91"/>
<path d="M7.47536 75.9599C5.66121 75.9599 4.25414 75.5762 3.25317 74.8086C2.25124 74.0401 1.55533 73.0064 1.16542 71.7046C0.775519 70.4038 0.580078 68.9536 0.580078 67.3539V58.2049C0.580078 56.4567 0.775519 54.9302 1.16542 53.6304C1.55533 52.3306 2.25124 51.321 3.25317 50.6064C4.25414 49.8929 5.66121 49.5352 7.47536 49.5352C9.07691 49.5352 10.3477 49.835 11.2867 50.431C12.2248 51.0288 12.8997 51.8822 13.3115 52.9901C13.7224 54.099 13.9274 55.4326 13.9274 56.9889V59.0361H10.5431V57.2127C10.5431 56.2522 10.4954 55.4047 10.4011 54.6689C10.3057 53.9322 10.0474 53.3633 9.62603 52.9573C9.20372 52.5523 8.49732 52.3499 7.50684 52.3499C6.49442 52.3499 5.75654 52.5687 5.29323 53.0056C4.82897 53.4433 4.52867 54.0614 4.39235 54.8618C4.25507 55.6611 4.18646 56.5946 4.18646 57.6601V67.9295C4.18646 69.2303 4.29133 70.2592 4.50296 71.0161C4.71364 71.7731 5.06065 72.3121 5.54683 72.6323C6.03112 72.9514 6.68506 73.1115 7.50777 73.1115C8.47728 73.1115 9.1732 72.8926 9.59551 72.4558C10.0169 72.019 10.28 71.4163 10.3868 70.6478C10.4916 69.8802 10.545 68.9844 10.545 67.9613V66.0415H13.9293V67.9613C13.9293 69.5398 13.7395 70.9313 13.3601 72.1357C12.9807 73.341 12.3277 74.2792 11.3992 74.9513C10.4687 75.6234 9.16176 75.9599 7.47536 75.9599Z" fill="#8e8e91"/>
<path d="M20.6973 75.6745V49.7617H24.2083V75.6745H20.6973Z" fill="#8e8e91"/>
<path d="M38.0582 75.9619C36.3299 75.9619 34.9476 75.6205 33.9152 74.9378C32.8827 74.2551 32.1439 73.2793 31.7016 72.0103C31.2592 70.7423 31.0371 69.2544 31.0371 67.5477V57.7256C31.0371 56.0199 31.264 54.5542 31.7168 53.3266C32.1706 52.1011 32.9085 51.1628 33.9304 50.511C34.9533 49.8611 36.3289 49.5352 38.0582 49.5352C39.7875 49.5352 41.1574 49.8669 42.1699 50.5264C43.1823 51.1889 43.9144 52.1261 44.3682 53.3421C44.822 54.558 45.0479 56.0189 45.0479 57.7247V67.5785C45.0479 69.2631 44.821 70.7346 44.3682 71.9929C43.9144 73.2523 43.1823 74.2272 42.1699 74.9205C41.1574 75.6157 39.7866 75.9619 38.0582 75.9619ZM38.0582 73.1144C39.0077 73.1144 39.7237 72.9177 40.2089 72.5233C40.6932 72.1289 41.0202 71.5744 41.1889 70.859C41.3576 70.1454 41.4425 69.3075 41.4425 68.348V56.9909C41.4425 56.0314 41.3576 55.2041 41.1889 54.5117C41.0202 53.8184 40.6932 53.2862 40.2089 52.912C39.7237 52.5388 39.0068 52.3527 38.0582 52.3527C37.1097 52.3527 36.3871 52.5388 35.8923 52.912C35.3966 53.2862 35.0648 53.8184 34.8961 54.5117C34.7274 55.205 34.6425 56.0314 34.6425 56.9909V68.3471C34.6425 69.3065 34.7264 70.1444 34.8961 70.858C35.0648 71.5725 35.3966 72.127 35.8923 72.5223C36.3871 72.9177 37.1097 73.1144 38.0582 73.1144Z" fill="#8e8e91"/>
<path d="M58.3284 75.9628C56.4733 75.9628 55.05 75.5896 54.0586 74.8433C53.0671 74.0969 52.3922 73.0469 52.0338 71.6911C51.6753 70.3373 51.4961 68.7539 51.4961 66.9401V49.7617H54.9118V67.1002C54.9118 68.2091 54.9852 69.2226 55.133 70.1396C55.2798 71.0566 55.602 71.7817 56.0977 72.315C56.5934 72.8482 57.336 73.1143 58.3275 73.1143C59.3399 73.1143 60.0883 72.8482 60.5725 72.315C61.0568 71.7817 61.3733 71.0566 61.522 70.1396C61.6688 69.2226 61.7432 68.2091 61.7432 67.1002V49.7617H65.1274V66.9401C65.1274 68.7539 64.9482 70.3363 64.5898 71.6911C64.2313 73.0459 63.5621 74.096 62.5821 74.8433C61.6021 75.5906 60.1845 75.9628 58.3284 75.9628Z" fill="#8e8e91"/>
<path d="M78.1007 75.9599C76.625 75.9599 75.3972 75.6398 74.4162 75.0005C73.4352 74.3602 72.6916 73.476 72.1864 72.3449C71.6802 71.2148 71.3847 69.9034 71.3008 68.4097L74.4629 67.5457C74.5258 68.4628 74.6688 69.348 74.89 70.2013C75.1112 71.0547 75.4753 71.7519 75.9815 72.2967C76.4877 72.8396 77.1932 73.1125 78.1007 73.1125C79.0283 73.1125 79.729 72.8511 80.2047 72.3285C80.6794 71.8059 80.9158 71.0547 80.9158 70.0731C80.9158 68.8996 80.6518 67.9565 80.1255 67.241C79.5984 66.5275 78.9339 65.8072 78.1331 65.082L73.8318 61.2433C72.9881 60.4979 72.3656 59.6812 71.9652 58.796C71.5648 57.9118 71.3646 56.8183 71.3646 55.5175C71.3646 53.6198 71.9023 52.1483 72.9777 51.103C74.053 50.0578 75.5182 49.5352 77.3733 49.5352C78.3858 49.5352 79.2762 49.6692 80.0464 49.9353C80.8158 50.2015 81.4583 50.6122 81.9759 51.1667C82.4926 51.7212 82.9035 52.4202 83.2086 53.2621C83.5146 54.1048 83.7195 55.0903 83.8253 56.2214L80.7891 57.0526C80.7261 56.1992 80.5993 55.4162 80.4096 54.7017C80.2199 53.9872 79.8882 53.4115 79.4134 52.9737C78.9387 52.5369 78.259 52.318 77.3733 52.318C76.4877 52.318 75.7975 52.5581 75.3018 53.0374C74.8061 53.5176 74.5582 54.2263 74.5582 55.1645C74.5582 55.9543 74.6898 56.6042 74.9539 57.1162C75.217 57.6273 75.644 58.1509 76.2341 58.6832L80.5669 62.5219C81.5365 63.3753 82.3906 64.3935 83.1294 65.5777C83.8673 66.7618 84.2362 68.1638 84.2362 69.7838C84.2362 71.0634 83.9722 72.1675 83.445 73.0951C82.9178 74.0227 82.1952 74.7324 81.2791 75.2223C80.362 75.714 79.3019 75.9599 78.1007 75.9599Z" fill="#8e8e91"/>
<path d="M97.8982 37.3125C91.7608 37.3125 95.4434 86.979 127.359 93.187C159.275 99.3949 171.551 68.3542 167.868 68.3542C164.187 68.3542 97.8982 37.3125 97.8982 37.3125Z" fill="#8e8e91"/>
<path d="M115.082 28.6152C89.3762 20.9107 84.3933 55.9319 143.315 68.3488C202.238 80.7656 148.226 38.549 115.082 28.6152Z" fill="white"/>
<path d="M115.082 28.6152C89.3762 20.9107 84.3933 55.9319 143.315 68.3488C202.238 80.7656 148.226 38.549 115.082 28.6152Z" stroke="#8e8e91" stroke-width="1.23344" stroke-miterlimit="10"/>
<path d="M152.319 4.61391C130.013 -14.0254 106.491 45.1748 131.86 51.7974C157.23 58.42 189.965 36.0693 152.319 4.61391Z" stroke="#8e8e91" stroke-width="1.23344" stroke-miterlimit="10"/>
<path d="M121.091 30.6797C120.01 40.4554 122.848 49.4434 131.86 51.7952C139.888 53.8915 148.654 53.0815 155.693 50.0036C146.034 42.6867 132.836 35.1655 121.091 30.6797Z" fill="#8e8e91"/>
<path d="M145.773 10.407C139.281 7.78033 140.862 17.8569 145.773 19.5126C150.682 21.1682 149.864 12.0626 145.773 10.407Z" fill="#8e8e91"/>
<path d="M139.91 23.5467C135.3 21.6818 136.423 28.8357 139.91 30.0111C143.396 31.1866 142.815 24.7221 139.91 23.5467Z" fill="#8e8e91"/>
<path d="M156.412 28.618C151.839 22.8362 147.409 31.9293 152.32 36.8962C157.23 41.8622 162.959 36.8962 156.412 28.618Z" fill="#8e8e91"/>
<path d="M168.685 50.9639C168.685 52.1065 167.769 53.0332 166.64 53.0332C165.51 53.0332 164.594 52.1065 164.594 50.9639C164.594 49.8212 165.51 48.8945 166.64 48.8945C167.769 48.8945 168.685 49.8212 168.685 50.9639Z" fill="#8e8e91"/>
<path d="M181 43.5206C181 44.913 179.884 46.0412 178.508 46.0412C177.131 46.0412 176.016 44.913 176.016 43.5206C176.016 42.1282 177.131 41 178.508 41C179.883 41 181 42.1292 181 43.5206Z" fill="#8e8e91"/>
<path d="M156.697 21.582C157.534 21.582 158.211 20.8965 158.211 20.0508C158.211 19.2051 157.534 18.5195 156.697 18.5195C155.861 18.5195 155.184 19.2051 155.184 20.0508C155.184 20.8965 155.861 21.582 156.697 21.582Z" fill="#8e8e91"/>
<path d="M166.356 6.96876C167.192 6.96876 167.87 6.28319 167.87 5.4375C167.87 4.59181 167.192 3.90625 166.356 3.90625C165.52 3.90625 164.842 4.59181 164.842 5.4375C164.842 6.28319 165.52 6.96876 166.356 6.96876Z" fill="#8e8e91"/>
<path d="M115.9 20.3389C115.9 21.4815 114.984 22.4082 113.854 22.4082C112.725 22.4082 111.809 21.4815 111.809 20.3389C111.809 19.1962 112.725 18.2695 113.854 18.2695C114.984 18.2695 115.9 19.1962 115.9 20.3389Z" fill="#8e8e91"/>
<path d="M112.174 41.4487C113.732 41.4487 114.995 40.1713 114.995 38.5955C114.995 37.0196 113.732 35.7422 112.174 35.7422C110.616 35.7422 109.354 37.0196 109.354 38.5955C109.354 40.1713 110.616 41.4487 112.174 41.4487Z" fill="#8e8e91"/>
<path d="M4.43115 97.7466C3.99788 97.7466 3.60758 97.8218 3.26025 97.9722C2.9165 98.119 2.62288 98.3338 2.37939 98.6167C2.13949 98.896 1.95508 99.2344 1.82617 99.6318C1.69727 100.029 1.63281 100.477 1.63281 100.975C1.63281 101.633 1.73486 102.206 1.93896 102.693C2.14665 103.177 2.45459 103.551 2.86279 103.816C3.27458 104.081 3.78841 104.213 4.4043 104.213C4.75521 104.213 5.08464 104.185 5.39258 104.127C5.7041 104.067 6.00667 103.991 6.30029 103.902V104.697C6.01383 104.804 5.71305 104.883 5.39795 104.933C5.08285 104.987 4.70866 105.014 4.27539 105.014C3.47689 105.014 2.80908 104.849 2.27197 104.52C1.73844 104.187 1.3374 103.717 1.06885 103.112C0.803874 102.507 0.671387 101.793 0.671387 100.969C0.671387 100.375 0.753743 99.8324 0.918457 99.3418C1.08675 98.8477 1.33024 98.4215 1.64893 98.0635C1.97119 97.7054 2.36507 97.4297 2.83057 97.2363C3.29964 97.0394 3.83675 96.9409 4.44189 96.9409C4.83936 96.9409 5.22249 96.9803 5.59131 97.0591C5.96012 97.1379 6.29313 97.2507 6.59033 97.3975L6.2251 98.1709C5.97445 98.0563 5.69873 97.9578 5.39795 97.8755C5.10075 97.7896 4.77848 97.7466 4.43115 97.7466ZM10.0708 98.9229C10.7726 98.9229 11.2936 99.0804 11.6338 99.3955C11.974 99.7106 12.144 100.214 12.144 100.905V104.906H11.4941L11.3223 104.036H11.2793C11.1146 104.251 10.9427 104.432 10.7637 104.579C10.5846 104.722 10.377 104.831 10.1406 104.906C9.90788 104.978 9.62142 105.014 9.28125 105.014C8.92318 105.014 8.60449 104.951 8.3252 104.826C8.04948 104.7 7.83105 104.511 7.66992 104.256C7.51237 104.002 7.43359 103.68 7.43359 103.29C7.43359 102.702 7.66634 102.251 8.13184 101.936C8.59733 101.621 9.30632 101.449 10.2588 101.42L11.2739 101.377V101.018C11.2739 100.509 11.1647 100.153 10.9463 99.9487C10.7279 99.7446 10.4199 99.6426 10.0225 99.6426C9.71452 99.6426 9.4209 99.6873 9.1416 99.7769C8.8623 99.8664 8.59733 99.972 8.34668 100.094L8.07275 99.417C8.33773 99.2809 8.64209 99.1646 8.98584 99.0679C9.32959 98.9712 9.69124 98.9229 10.0708 98.9229ZM11.2632 102.006L10.3662 102.043C9.63216 102.072 9.11475 102.192 8.81396 102.403C8.51318 102.615 8.36279 102.914 8.36279 103.3C8.36279 103.637 8.46484 103.886 8.66895 104.047C8.87305 104.208 9.14339 104.289 9.47998 104.289C10.0028 104.289 10.4307 104.144 10.7637 103.854C11.0967 103.563 11.2632 103.128 11.2632 102.548V102.006ZM15.8823 104.283C16.0291 104.283 16.1795 104.271 16.3335 104.246C16.4875 104.221 16.6128 104.19 16.7095 104.154V104.847C16.6056 104.894 16.4606 104.933 16.2744 104.965C16.0918 104.998 15.9128 105.014 15.7373 105.014C15.4258 105.014 15.1429 104.96 14.8887 104.853C14.6344 104.742 14.4303 104.555 14.2764 104.294C14.126 104.033 14.0508 103.671 14.0508 103.209V99.7178H13.2129V99.2827L14.0562 98.9336L14.4106 97.6553H14.9478V99.0195H16.6719V99.7178H14.9478V103.182C14.9478 103.551 15.0319 103.827 15.2002 104.009C15.3721 104.192 15.5994 104.283 15.8823 104.283ZM20.1685 98.9121C20.6698 98.9121 21.0994 99.0231 21.4575 99.2451C21.8156 99.4671 22.0895 99.7786 22.2793 100.18C22.4691 100.577 22.564 101.043 22.564 101.576V102.129H18.498C18.5088 102.82 18.6807 103.347 19.0137 103.708C19.3467 104.07 19.8158 104.251 20.4209 104.251C20.7933 104.251 21.1227 104.217 21.4092 104.149C21.6956 104.081 21.9928 103.981 22.3008 103.848V104.632C22.0036 104.765 21.7082 104.861 21.4146 104.922C21.1245 104.983 20.7808 105.014 20.3833 105.014C19.8175 105.014 19.3234 104.899 18.9009 104.67C18.4819 104.437 18.1561 104.097 17.9233 103.649C17.6906 103.202 17.5742 102.654 17.5742 102.006C17.5742 101.372 17.6799 100.824 17.8911 100.362C18.106 99.8968 18.4067 99.5387 18.7935 99.2881C19.1838 99.0374 19.6421 98.9121 20.1685 98.9121ZM20.1577 99.6426C19.6815 99.6426 19.3019 99.7983 19.019 100.11C18.7362 100.421 18.5679 100.856 18.5142 101.415H21.6294C21.6258 101.064 21.5703 100.756 21.4629 100.491C21.359 100.223 21.1997 100.015 20.9849 99.8682C20.77 99.7178 20.4943 99.6426 20.1577 99.6426ZM26.7534 98.9121C26.8716 98.9121 26.9951 98.9193 27.124 98.9336C27.2529 98.9443 27.3675 98.9604 27.4678 98.9819L27.355 99.8091C27.2583 99.784 27.1509 99.7643 27.0327 99.75C26.9146 99.7357 26.8035 99.7285 26.6997 99.7285C26.4634 99.7285 26.2396 99.7769 26.0283 99.8735C25.8206 99.9666 25.638 100.103 25.4805 100.282C25.3229 100.457 25.1994 100.67 25.1099 100.921C25.0203 101.168 24.9756 101.444 24.9756 101.748V104.906H24.0786V99.0195H24.8198L24.9165 100.104H24.9541C25.0758 99.8861 25.2227 99.6873 25.3945 99.5083C25.5664 99.3257 25.7651 99.1807 25.9907 99.0732C26.2199 98.9658 26.4741 98.9121 26.7534 98.9121ZM29.4712 99.0195V104.906H28.5796V99.0195H29.4712ZM29.0361 96.8174C29.1829 96.8174 29.3083 96.8657 29.4121 96.9624C29.5195 97.0555 29.5732 97.2023 29.5732 97.4028C29.5732 97.5998 29.5195 97.7466 29.4121 97.8433C29.3083 97.9399 29.1829 97.9883 29.0361 97.9883C28.8822 97.9883 28.7533 97.9399 28.6494 97.8433C28.5492 97.7466 28.499 97.5998 28.499 97.4028C28.499 97.2023 28.5492 97.0555 28.6494 96.9624C28.7533 96.8657 28.8822 96.8174 29.0361 96.8174ZM34.1494 98.9121C34.8477 98.9121 35.3758 99.084 35.7339 99.4277C36.092 99.7679 36.271 100.316 36.271 101.071V104.906H35.3901V101.13C35.3901 100.64 35.2773 100.273 35.0518 100.029C34.8298 99.7858 34.4878 99.6641 34.0259 99.6641C33.3742 99.6641 32.9159 99.8485 32.6509 100.217C32.3859 100.586 32.2534 101.121 32.2534 101.823V104.906H31.3618V99.0195H32.0815L32.2158 99.8682H32.2642C32.3895 99.6605 32.5488 99.4868 32.7422 99.3472C32.9355 99.2039 33.1522 99.0965 33.3921 99.0249C33.632 98.9497 33.8844 98.9121 34.1494 98.9121ZM39.7515 107.549C38.978 107.549 38.3818 107.404 37.9629 107.114C37.5439 106.827 37.3345 106.424 37.3345 105.905C37.3345 105.536 37.4508 105.221 37.6836 104.96C37.9199 104.699 38.2458 104.525 38.6611 104.439C38.5072 104.367 38.3747 104.26 38.2637 104.117C38.1562 103.973 38.1025 103.809 38.1025 103.623C38.1025 103.408 38.1616 103.22 38.2798 103.059C38.4015 102.894 38.5859 102.736 38.833 102.586C38.5251 102.461 38.2744 102.249 38.0811 101.952C37.8913 101.651 37.7964 101.302 37.7964 100.905C37.7964 100.482 37.8841 100.122 38.0596 99.8252C38.235 99.5244 38.4893 99.2952 38.8223 99.1377C39.1553 98.9801 39.5581 98.9014 40.0308 98.9014C40.1346 98.9014 40.2384 98.9067 40.3423 98.9175C40.4497 98.9246 40.5518 98.9372 40.6484 98.9551C40.7451 98.9694 40.8293 98.9873 40.9009 99.0088H42.9204V99.5835L41.8354 99.7178C41.9429 99.8574 42.0324 100.026 42.104 100.223C42.1756 100.42 42.2114 100.638 42.2114 100.878C42.2114 101.465 42.0127 101.932 41.6152 102.28C41.2178 102.624 40.6717 102.795 39.9771 102.795C39.8123 102.795 39.644 102.781 39.4722 102.752C39.2967 102.849 39.1624 102.957 39.0693 103.075C38.9798 103.193 38.9351 103.329 38.9351 103.483C38.9351 103.597 38.9691 103.689 39.0371 103.757C39.1087 103.825 39.2108 103.875 39.3433 103.907C39.4757 103.936 39.6351 103.95 39.8213 103.95H40.8579C41.4989 103.95 41.9894 104.084 42.3296 104.353C42.6733 104.622 42.8452 105.014 42.8452 105.529C42.8452 106.181 42.5802 106.681 42.0503 107.028C41.5203 107.375 40.7541 107.549 39.7515 107.549ZM39.7783 106.851C40.2653 106.851 40.6681 106.8 40.9868 106.7C41.3091 106.604 41.549 106.462 41.7065 106.276C41.8677 106.093 41.9482 105.875 41.9482 105.621C41.9482 105.384 41.8945 105.205 41.7871 105.083C41.6797 104.965 41.5221 104.887 41.3145 104.847C41.1068 104.804 40.8525 104.783 40.5518 104.783H39.5312C39.2663 104.783 39.0353 104.824 38.8384 104.906C38.6414 104.989 38.4893 105.11 38.3818 105.271C38.278 105.433 38.2261 105.633 38.2261 105.873C38.2261 106.192 38.3604 106.433 38.6289 106.598C38.8975 106.766 39.2806 106.851 39.7783 106.851ZM40.0093 102.146C40.4354 102.146 40.7559 102.038 40.9707 101.823C41.1855 101.608 41.293 101.295 41.293 100.883C41.293 100.443 41.1838 100.113 40.9653 99.895C40.7469 99.673 40.4246 99.562 39.9985 99.562C39.5903 99.562 39.2752 99.6766 39.0532 99.9058C38.8348 100.131 38.7256 100.463 38.7256 100.899C38.7256 101.3 38.8366 101.608 39.0586 101.823C39.2806 102.038 39.5975 102.146 40.0093 102.146Z" fill="#8e8e91"/>
</svg>
