<svg width="40" height="40" viewBox="0 0 40 40" fill="none" xmlns="http://www.w3.org/2000/svg">
<g clip-path="url(#clip0_5803_1371)">
<path d="M37.2916 4.03785L35.9625 2.70881C32.3508 -0.902937 26.4746 -0.902937 22.8629 2.70881L9.80046 15.7712C8.68444 16.8873 8.06982 18.371 8.06982 19.9494C8.06982 21.5277 8.68444 23.0115 9.80046 24.1275L10.9464 25.2735L9.29815 26.922C7.96239 28.2578 5.96502 29.7779 4.20325 31.1191C2.89191 32.117 1.75971 32.9788 1.17835 33.5602C0.404119 34.3344 -0.0142764 35.3299 0.000372005 36.3632C0.0141049 37.3105 0.392217 38.2242 1.03797 38.8699L1.13044 38.9624C1.77619 39.6082 2.68958 39.9863 3.63684 39.9997C3.65454 40 3.67194 40 3.68964 40C4.70404 40 5.67877 39.5828 6.44018 38.8217C7.02154 38.2404 7.88366 37.1079 8.88189 35.7962C9.17882 35.4062 9.48735 35.0006 9.80321 34.5908C10.0031 34.3311 9.95488 33.9581 9.69487 33.7583C9.43517 33.5578 9.06225 33.6066 8.86236 33.8663C8.54528 34.278 8.23522 34.6854 7.93706 35.0772C6.96478 36.3544 6.12524 37.4573 5.60034 37.9822C4.90149 38.6813 4.15838 38.8208 3.65393 38.8123C3.01306 38.8031 2.39935 38.5519 1.96906 38.1216L1.87781 38.0301C1.44873 37.601 1.19727 36.9873 1.18811 36.3464C1.18079 35.8444 1.31903 35.0992 2.01819 34.4C2.54279 33.8751 3.64569 33.0359 4.92254 32.0639C6.71453 30.7001 8.74547 29.1541 10.138 27.7616L11.7865 26.1133L13.8871 28.2141L12.2388 29.8624C11.7496 30.3516 11.2131 30.9479 10.5985 31.6849C10.3885 31.9367 10.4224 32.3111 10.6742 32.5211C10.7853 32.6135 10.9202 32.6587 11.0541 32.6587C11.2244 32.6587 11.3932 32.5861 11.5107 32.4454C12.1021 31.7359 12.6148 31.1658 13.0787 30.7022L14.7269 29.0537L15.8728 30.1996C16.9889 31.3156 18.4726 31.9303 20.051 31.9303C21.6294 31.9303 23.1131 31.3156 24.2291 30.1996L37.2916 17.1372C40.903 13.5257 40.903 7.64929 37.2916 4.03785ZM36.4517 16.2973L23.3893 29.3598C22.4976 30.2515 21.312 30.7425 20.0507 30.7425C18.7897 30.7425 17.6041 30.2515 16.7124 29.3598L10.6403 23.2877C8.79949 21.4469 8.79949 18.4516 10.6403 16.6108L23.7027 3.54835C25.228 2.02339 27.2559 1.18324 29.4125 1.18324C31.5695 1.18324 33.5974 2.02339 35.1224 3.54835L36.4514 4.87739C39.6002 8.02588 39.6002 13.1489 36.4517 16.2973Z" fill="#AF8C3E"/>
<path d="M30.1541 7.36817C30.1541 6.71022 29.898 6.09163 29.4326 5.62654C28.4726 4.66615 26.9098 4.66615 25.9494 5.62654L25.0183 6.55732C24.7864 6.78926 24.7864 7.16523 25.0183 7.39717C25.2502 7.62879 25.6262 7.6291 25.8581 7.39717L26.7892 6.46608C27.2867 5.96895 28.096 5.96895 28.5931 6.46608C28.8339 6.70717 28.9666 7.02729 28.9666 7.36817C28.9666 7.70906 28.8339 8.02918 28.5931 8.27027L16.8808 19.9826C16.3834 20.48 15.574 20.48 15.0769 19.9826C14.8358 19.7415 14.7031 19.4214 14.7031 19.0805C14.7031 18.7399 14.8358 18.4195 15.0769 18.1784L23.9047 9.35059C24.1366 9.11866 24.1366 8.74268 23.9047 8.51075C23.6728 8.27882 23.2968 8.27882 23.0649 8.51075L14.2371 17.3389C13.7717 17.8039 13.5156 18.4225 13.5156 19.0805C13.5156 19.7385 13.7717 20.357 14.2371 20.8224C14.7171 21.3025 15.3479 21.5426 15.9787 21.5426C16.6095 21.5426 17.2403 21.3025 17.7203 20.8224L29.4326 9.11011C29.898 8.64472 30.1541 8.02613 30.1541 7.36817Z" fill="#AF8C3E"/>
<path d="M32.6332 9.84766C31.9753 9.84766 31.3567 10.1037 30.8916 10.5691L19.1793 22.2814C18.2189 23.2418 18.2189 24.8043 19.1793 25.7647C19.6444 26.2301 20.263 26.4861 20.9209 26.4861C21.5789 26.4861 22.1975 26.2301 22.6628 25.7647L34.3752 14.0524C35.3356 13.092 35.3356 11.5295 34.3749 10.5691C33.9098 10.1037 33.2912 9.84766 32.6332 9.84766ZM33.5353 13.2128L21.823 24.9251C21.5819 25.1659 21.2615 25.2987 20.9209 25.2987C20.58 25.2987 20.2599 25.1659 20.0188 24.9251C19.5214 24.4277 19.5214 23.6184 20.0188 23.1209L31.7314 11.4086C31.9722 11.1678 32.2923 11.0351 32.6332 11.0351C32.9738 11.0351 33.2942 11.1678 33.5353 11.4086C34.0328 11.9061 34.0328 12.7154 33.5353 13.2128Z" fill="#AF8C3E"/>
</g>
<defs>
<clipPath id="clip0_5803_1371">
<rect width="39.9999" height="40" fill="white"/>
</clipPath>
</defs>
</svg>
