<svg width="85" height="65" viewBox="0 0 85 65" fill="none" xmlns="http://www.w3.org/2000/svg">
<path d="M52.1989 17.2633L52.2026 17.2503L52.2057 17.2371C52.2877 16.881 52.578 16.6387 52.9711 16.6387H73.1921C73.5329 16.6387 73.6504 16.7159 73.694 16.7609C73.7409 16.8094 73.8105 16.9319 73.8105 17.2594V20.2878C73.7698 20.7817 73.6187 21.2223 73.369 21.5828L50.9171 51.2507L50.9079 51.2628L50.8995 51.2755C50.691 51.5888 50.2308 51.7029 49.8782 51.4855L49.8686 51.4796L49.8587 51.4741L43.77 48.0895C43.6426 47.98 43.587 47.879 43.5612 47.7627C43.5293 47.6188 43.5333 47.4049 43.613 47.0613L52.1989 17.2633ZM20.7042 17.2633L20.709 17.2465L20.7127 17.2294C20.7913 16.8617 21.1358 16.6092 21.5301 16.6374L21.5479 16.6387H21.5658H41.6974C42.0382 16.6387 42.1557 16.7159 42.1993 16.7609C42.2461 16.8094 42.3158 16.9319 42.3158 17.2594V20.2878C42.275 20.7819 42.1239 21.2227 41.8739 21.5833L19.5113 51.2515L19.5024 51.2632L19.4943 51.2755C19.2866 51.5877 18.84 51.6944 18.4955 51.4554L18.4728 51.4396L18.4484 51.4264L12.2732 48.0878C12.1472 47.9789 12.0921 47.8783 12.0664 47.7627C12.0345 47.6188 12.0386 47.4049 12.1182 47.0614L20.7042 17.2633Z" stroke="#00833E"/>
</svg>
