<svg width="203" height="117" viewBox="0 0 203 117" fill="none" xmlns="http://www.w3.org/2000/svg">
<path d="M79.7069 20.8172C80.6368 20.6982 81.4187 20.7162 82.0527 20.8713C82.6912 21.0206 83.1901 21.3111 83.5496 21.7429C83.909 22.1747 84.1351 22.7548 84.2278 23.4832C84.304 24.0825 84.2593 24.5976 84.0936 25.0283C83.9273 25.4539 83.6842 25.8132 83.3645 26.1062C83.0448 26.3991 82.6946 26.6382 82.3139 26.8235L86.069 31.5171L84.5347 31.7136L81.1592 27.3415L78.8035 27.6431L79.405 32.3703L78.0877 32.539L76.6461 21.2091L79.7069 20.8172ZM79.7744 21.9663L78.1084 22.1796L78.6615 26.5271L80.4593 26.297C81.384 26.1786 82.0393 25.903 82.4252 25.4703C82.8163 25.037 82.9652 24.4535 82.8719 23.7198C82.7739 22.9501 82.4721 22.4348 81.9664 22.174C81.4659 21.9125 80.7352 21.8433 79.7744 21.9663ZM94.1898 30.4774L87.8822 31.285L86.4406 19.9551L92.7482 19.1475L92.8961 20.31L87.9058 20.9489L88.3722 24.6144L93.0758 24.0122L93.2217 25.1592L88.5182 25.7614L89.0516 29.9539L94.0419 29.315L94.1898 30.4774ZM102.71 26.3229C102.795 26.9946 102.7 27.5895 102.425 28.1078C102.154 28.6203 101.735 29.0389 101.167 29.3636C100.599 29.6883 99.9101 29.9026 99.099 30.0064C98.6702 30.0613 98.2621 30.0926 97.8746 30.1002C97.487 30.1078 97.1282 30.0934 96.798 30.0569C96.4679 30.0204 96.1742 29.9608 95.9169 29.8783L95.7562 28.6151C96.164 28.7256 96.6558 28.8149 97.2314 28.883C97.8064 28.9459 98.3987 28.9383 99.0083 28.8603C99.5765 28.7875 100.047 28.6511 100.421 28.451C100.794 28.2458 101.063 27.9882 101.228 27.6782C101.398 27.3624 101.457 27.0031 101.406 26.6001C101.357 26.2126 101.23 25.9006 101.027 25.6641C100.823 25.4225 100.509 25.2212 100.084 25.0603C99.6638 24.8936 99.0973 24.7324 98.3845 24.5769C97.8824 24.4679 97.4352 24.3362 97.0427 24.1817C96.6497 24.022 96.3127 23.8288 96.0319 23.6022C95.7511 23.3757 95.5244 23.1002 95.3518 22.7757C95.1845 22.4506 95.0729 22.0685 95.017 21.6293C94.9401 21.0249 95.0267 20.4887 95.277 20.0209C95.5317 19.5472 95.9158 19.162 96.4293 18.8652C96.9473 18.5626 97.5602 18.366 98.2679 18.2754C98.8723 18.198 99.4374 18.1834 99.9633 18.2316C100.494 18.2791 100.986 18.371 101.44 18.5073L101.173 19.6913C100.743 19.5731 100.291 19.4866 99.8168 19.4318C99.3477 19.3763 98.8704 19.3797 98.3848 19.4418C97.8992 19.504 97.4977 19.6289 97.1803 19.8166C96.8675 19.9984 96.6397 20.2297 96.4969 20.5105C96.3541 20.7913 96.3054 21.11 96.3508 21.4664C96.4014 21.8643 96.5261 22.1843 96.7249 22.4266C96.9289 22.6683 97.2275 22.869 97.6205 23.0287C98.0181 23.1826 98.5358 23.3315 99.1737 23.4757C99.871 23.6332 100.47 23.8191 100.969 24.0333C101.468 24.2425 101.864 24.5278 102.157 24.8894C102.449 25.2458 102.633 25.7236 102.71 26.3229ZM108.889 28.5954L107.564 28.7651L106.271 18.5976L102.706 19.054L102.558 17.8915L110.997 16.8111L111.145 17.9736L107.596 18.428L108.889 28.5954ZM121.256 27.0121L119.404 23.5948L114.863 24.1762L113.934 27.9496L112.601 28.1202L115.586 16.1763L116.771 16.0245L122.62 26.8374L121.256 27.0121ZM118.86 22.4752L117.08 19.0723C117.038 18.9833 116.967 18.8375 116.867 18.6349C116.773 18.4317 116.675 18.221 116.574 18.003C116.473 17.7849 116.39 17.6091 116.326 17.4756C116.301 17.694 116.271 17.9131 116.236 18.1329C116.206 18.3468 116.174 18.5478 116.14 18.7359C116.105 18.9189 116.075 19.075 116.05 19.2042L115.156 22.9494L118.86 22.4752ZM131.322 14.2089L132.255 21.54C132.357 22.3408 132.285 23.0746 132.039 23.7414C131.798 24.4075 131.375 24.9631 130.77 25.4081C130.165 25.8479 129.371 26.1306 128.39 26.2563C126.99 26.4355 125.875 26.1924 125.044 25.5268C124.219 24.8606 123.726 23.8921 123.564 22.6211L122.635 15.321L123.96 15.1514L124.894 22.4902C125.017 23.4512 125.364 24.1602 125.937 24.6171C126.514 25.0735 127.31 25.2368 128.322 25.1072C129.014 25.0186 129.564 24.8221 129.972 24.5179C130.384 24.2079 130.667 23.8146 130.822 23.338C130.981 22.8556 131.023 22.3173 130.947 21.7232L130.012 14.3765L131.322 14.2089ZM137.389 13.4321C138.319 13.313 139.101 13.331 139.735 13.4861C140.373 13.6354 140.872 13.926 141.232 14.3577C141.591 14.7895 141.817 15.3696 141.91 16.0981C141.986 16.6974 141.942 17.2124 141.776 17.6432C141.61 18.0688 141.367 18.4281 141.047 18.721C140.727 19.014 140.377 19.2531 139.996 19.4383L143.751 24.132L142.217 24.3284L138.841 19.9564L136.486 20.2579L137.087 24.9852L135.77 25.1539L134.328 13.8239L137.389 13.4321ZM137.457 14.5812L135.791 14.7945L136.344 19.142L138.142 18.9118C139.066 18.7935 139.722 18.5179 140.108 18.0852C140.499 17.6518 140.648 17.0683 140.554 16.3347C140.456 15.5649 140.154 15.0496 139.649 14.7888C139.148 14.5274 138.418 14.4582 137.457 14.5812ZM152.67 22.9901L150.818 19.5729L146.277 20.1542L145.348 23.9276L144.015 24.0983L147 12.1544L148.185 12.0026L154.034 22.8155L152.67 22.9901ZM150.274 18.4533L148.494 15.0504C148.451 14.9613 148.38 14.8155 148.281 14.613C148.187 14.4097 148.089 14.1991 147.988 13.981C147.887 13.763 147.804 13.5872 147.74 13.4536C147.715 13.6721 147.685 13.8912 147.65 14.1109C147.62 14.3249 147.587 14.5259 147.554 14.714C147.519 14.8969 147.489 15.053 147.464 15.1823L146.57 18.9275L150.274 18.4533ZM164.464 21.4801L162.945 21.6746L155.558 12.9488L155.496 12.9567C155.544 13.2079 155.599 13.4949 155.661 13.8177C155.723 14.1354 155.782 14.477 155.839 14.8425C155.9 15.2021 155.955 15.5705 156.003 15.9477L156.831 22.4574L155.607 22.6141L154.165 11.2842L155.676 11.0907L163.036 19.7885L163.09 19.7816C163.057 19.6021 163.011 19.348 162.954 19.0193C162.896 18.6855 162.834 18.3284 162.77 17.9481C162.711 17.5619 162.66 17.2035 162.618 16.8729L161.783 10.309L163.022 10.1502L164.464 21.4801ZM171.035 20.6388L169.71 20.8085L168.416 10.641L164.852 11.0974L164.704 9.93494L173.142 8.85455L173.29 10.017L169.741 10.4714L171.035 20.6388Z" fill="#D30000"/>
<path d="M68.4212 88.9231C67.6602 89.0266 66.8793 88.923 66.0785 88.6121C65.2755 88.2854 64.5695 87.5418 63.9605 86.3813L63.157 84.9163L56.4985 85.8223L55.2071 90.5999L54.137 90.7455L58.673 74.1428L59.3864 74.0457L66.3385 86.0578C66.8592 86.9235 67.3175 87.507 67.7135 87.8084C68.1073 88.0939 68.6334 88.2241 69.292 88.1991L69.3563 88.6748C69.0817 88.7929 68.77 88.8756 68.4212 88.9231ZM62.5527 84.0297L58.7665 77.5209L56.7266 84.8224L62.5527 84.0297ZM68.7795 75.6742C68.6701 74.8656 68.4788 74.2861 68.2054 73.9358C67.9298 73.5696 67.4591 73.4318 66.7933 73.5224L66.3177 73.5871L66.2534 73.1114L68.3936 72.8203C68.9802 72.7404 69.4269 72.7604 69.7337 72.8801C70.0542 72.9818 70.3046 73.2223 70.4851 73.6014C70.6655 73.9805 70.8104 74.5744 70.9197 75.383L72.6562 88.2258L70.516 88.517L68.7795 75.6742ZM75.7044 79.2128C75.2197 78.3745 74.7715 77.8058 74.3597 77.5066C73.9616 77.1894 73.4671 77.0548 72.8763 77.1029L72.8119 76.6272C72.8912 76.6164 73.009 76.5923 73.1654 76.5549C73.3218 76.5175 73.4793 76.488 73.6378 76.4664C74.4939 76.3499 75.277 76.4695 75.987 76.825C76.7107 77.1625 77.3696 77.856 77.9635 78.9054L80.6602 83.6248L81.9901 78.2365C81.496 77.4479 81.052 76.9109 80.6582 76.6254C80.2781 76.3219 79.8244 76.1898 79.2969 76.2293L79.2326 75.7537C79.3119 75.7429 79.4297 75.7188 79.5861 75.6813C79.7425 75.6439 79.8999 75.6144 80.0585 75.5928C80.9146 75.4764 81.6976 75.5959 82.4076 75.9514C83.1314 76.2889 83.7902 76.9824 84.3842 78.0319L87.0808 82.7513L89.1271 74.6012L90.3162 74.4394L87.2226 86.4862L86.747 86.5509L82.7775 79.5826L80.8019 87.3597L80.3263 87.4244L75.7044 79.2128ZM96.6877 85.1984C96.1804 85.2674 95.6512 85.2344 95.1001 85.0995C94.547 84.9487 94.0469 84.6534 93.6 84.2137C93.1689 83.7718 92.8987 83.1465 92.7893 82.3379C92.6264 81.1329 93.0655 80.2012 94.1066 79.5429C95.1636 78.8823 96.5958 78.4291 98.4031 78.1832L99.1165 78.0862C98.9064 76.5324 98.5487 75.4992 98.0435 74.9866C97.5383 74.4741 96.8814 74.2728 96.0729 74.3828C95.3595 74.4799 94.8091 74.7081 94.4218 75.0676C94.0345 75.4271 93.804 75.9913 93.7304 76.7603L92.6603 76.9058C92.5874 76.3668 92.5623 75.9423 92.585 75.6324C92.6055 75.3067 92.7323 74.9907 92.9654 74.6845C93.2121 74.3603 93.652 74.0905 94.2848 73.8752C94.9314 73.642 95.643 73.4725 96.4199 73.3668C97.704 73.1921 98.7658 73.4028 99.6052 73.9991C100.443 74.5795 100.993 75.8448 101.257 77.795L102.125 84.2164L100.936 84.3781L99.9589 83.4212L99.84 83.4373C99.604 83.8408 99.2257 84.2072 98.7051 84.5363C98.1845 84.8655 97.5121 85.0862 96.6877 85.1984ZM97.6131 83.9825C98.1362 83.9114 98.5551 83.7252 98.8695 83.4241C99.184 83.1229 99.4539 82.731 99.6793 82.2482L99.2451 79.0375L98.5317 79.1346C97.3586 79.2942 96.4611 79.6423 95.8395 80.179C95.2156 80.6999 94.952 81.317 95.0484 82.0305C95.1471 82.7599 95.4372 83.2936 95.9188 83.6318C96.4142 83.9519 96.9789 84.0688 97.6131 83.9825ZM106.54 87.7331C107.317 87.6274 107.927 87.3588 108.369 86.9273C108.829 86.5094 109.177 85.8001 109.413 84.7991L109.712 83.4264L104.653 74.6687C104.054 73.5875 103.097 73.0719 101.78 73.122L101.715 72.6463L103.737 72.3713C105.116 72.1836 106.153 72.6884 106.847 73.8857L110.449 80.1047L112.33 71.4443L113.519 71.2826L110.602 84.6374C110.312 85.9525 109.919 86.8698 109.424 87.3892C108.929 87.9086 108.238 88.2288 107.35 88.3496L106.637 88.4466L106.54 87.7331ZM121.19 81.8647C119.367 82.1127 118.095 81.9628 117.375 81.4149C117.069 81.182 116.862 80.9034 116.754 80.5791C116.643 80.2389 116.539 79.712 116.443 78.9986L116.919 78.9338C117.168 79.7072 117.593 80.2792 118.192 80.6498C118.805 81.0024 119.603 81.1118 120.585 80.9781C121.457 80.8595 122.087 80.6204 122.474 80.2609C122.878 79.8993 123.045 79.4648 122.976 78.9574C122.914 78.4976 122.686 78.1249 122.292 77.8394C121.914 77.5518 121.332 77.308 120.547 77.1081L119.039 76.7077C118.037 76.4566 117.263 76.1097 116.719 75.667C116.175 75.2244 115.852 74.6304 115.752 73.8852C115.621 72.9181 115.884 72.1153 116.54 71.477C117.194 70.8229 118.1 70.4171 119.257 70.2596C121.001 70.0223 122.233 70.1777 122.953 70.7256C123.259 70.9585 123.466 71.2371 123.575 71.5614C123.683 71.8857 123.786 72.4126 123.885 73.1419L123.409 73.2066C123.175 72.4311 122.76 71.866 122.163 71.5112C121.564 71.1406 120.797 71.0189 119.862 71.1462C119.116 71.2476 118.551 71.4859 118.166 71.8613C117.795 72.2186 117.642 72.643 117.709 73.1346C117.82 73.959 118.545 74.5466 119.884 74.8973L121.392 75.2977C122.53 75.595 123.379 75.9639 123.939 76.4044C124.497 76.829 124.828 77.4298 124.933 78.2067C125.064 79.1739 124.778 79.9878 124.077 80.6484C123.373 81.2932 122.41 81.6986 121.19 81.8647ZM57.8817 103.396C57.7724 102.587 57.581 102.008 57.3076 101.657C57.0321 101.291 56.5614 101.153 55.8955 101.244L55.4199 101.309L55.3556 100.833L64.8439 99.542C66.1915 99.3587 66.951 99.9012 67.1225 101.17L67.3637 102.953L66.8881 103.018C66.6416 101.195 65.5275 100.418 63.5458 100.687L59.7647 101.202L60.6169 107.504L65.9912 106.773L66.1198 107.724L60.7455 108.456L61.7585 115.947L59.6183 116.239L57.8817 103.396ZM70.4148 106.292C70.3055 105.484 70.1141 104.904 69.8407 104.554C69.5652 104.188 69.0945 104.05 68.4286 104.141L68.1908 104.173L68.1265 103.697L70.0289 103.438C70.6314 103.357 71.095 103.382 71.4198 103.516C71.7583 103.631 72.0167 103.87 72.195 104.234L72.3139 104.218C72.5499 103.814 72.8886 103.453 73.3299 103.135C73.7871 102.814 74.3406 102.61 74.9906 102.521C75.6248 102.435 76.1164 102.489 76.4657 102.684C76.7631 102.853 77.0887 103.172 77.4427 103.641L76.588 104.484C76.3814 104.27 76.1042 104.13 75.7562 104.064C75.4062 103.982 75.0171 103.971 74.5891 104.029C74.1135 104.094 73.6925 104.264 73.3262 104.54C72.9577 104.8 72.6792 105.129 72.4907 105.526L73.6806 114.325L71.5403 114.616L70.4148 106.292ZM84.9768 113.031C83.8987 113.177 82.9528 113.048 82.1391 112.642C81.3233 112.22 80.6661 111.599 80.1677 110.778C79.6672 109.942 79.343 108.977 79.195 107.883C79.0493 106.805 79.1066 105.796 79.367 104.856C79.6274 103.917 80.0801 103.145 80.7249 102.54C81.3834 101.918 82.1962 101.541 83.1632 101.409C84.7644 101.191 86.0145 101.482 86.9136 102.28C87.8263 103.06 88.3974 104.298 88.6268 105.994L88.7078 106.952L81.5024 107.933C81.6825 109.264 82.1147 110.312 82.7991 111.074C83.4834 111.837 84.325 112.15 85.3237 112.015C86.0688 111.913 86.6736 111.669 87.1381 111.283C87.6183 110.895 88.0376 110.354 88.3957 109.659L88.9196 109.951C88.5143 110.894 87.9897 111.611 87.3457 112.103C86.7018 112.594 85.9121 112.903 84.9768 113.031ZM86.3676 106.302C86.179 104.907 85.8292 103.872 85.3184 103.199C84.8076 102.526 84.1321 102.246 83.2919 102.361C82.8163 102.425 82.4139 102.674 82.0849 103.106C81.7537 103.523 81.5211 104.071 81.3871 104.751C81.2689 105.429 81.2644 106.173 81.3738 106.981L86.3676 106.302ZM95.9699 111.535C94.1468 111.783 92.8752 111.633 92.1554 111.085C91.8494 110.852 91.6422 110.574 91.5338 110.249C91.4232 109.909 91.3197 109.382 91.2232 108.669L91.6988 108.604C91.9487 109.377 92.3731 109.949 92.9722 110.32C93.5849 110.673 94.3828 110.782 95.3657 110.648C96.2376 110.53 96.8673 110.291 97.2546 109.931C97.6577 109.569 97.825 109.135 97.7564 108.628C97.6942 108.168 97.4663 107.795 97.0725 107.51C96.6945 107.222 96.1126 106.978 95.3268 106.778L93.8196 106.378C92.8169 106.127 92.0435 105.78 91.4993 105.337C90.955 104.894 90.6326 104.301 90.5318 103.555C90.401 102.588 90.6638 101.785 91.3202 101.147C91.9744 100.493 92.8802 100.087 94.0375 99.9297C95.7814 99.6925 97.0133 99.8478 97.7332 100.396C98.0391 100.629 98.2463 100.907 98.3548 101.232C98.4632 101.556 98.5667 102.083 98.6653 102.812L98.1897 102.877C97.9557 102.101 97.5402 101.536 96.9433 101.181C96.3443 100.811 95.5771 100.689 94.6417 100.816C93.8966 100.918 93.3315 101.156 92.9463 101.531C92.5749 101.889 92.4224 102.313 92.4888 102.805C92.6003 103.629 93.3255 104.217 94.6646 104.567L96.1718 104.968C97.3098 105.265 98.1589 105.634 98.719 106.075C99.2769 106.499 99.6084 107.1 99.7134 107.877C99.8442 108.844 99.5587 109.658 98.8569 110.319C98.153 110.963 97.1906 111.369 95.9699 111.535ZM101.081 97.5182C100.971 96.7096 100.78 96.1302 100.507 95.7798C100.231 95.4136 99.7603 95.2758 99.0944 95.3664L98.6188 95.4311L98.5545 94.9555L100.695 94.6643C101.281 94.5845 101.728 94.6044 102.035 94.7242C102.355 94.8259 102.606 95.0663 102.786 95.4454C102.967 95.8246 103.112 96.4184 103.221 97.2271L103.575 99.8432C103.862 99.4649 104.253 99.1292 104.746 98.8361C105.253 98.5249 105.839 98.324 106.505 98.2334C107.694 98.0716 108.704 98.2572 109.535 98.79C110.382 99.3207 110.912 100.379 111.127 101.964L112.091 109.099L109.951 109.39L108.986 102.256C108.836 101.146 108.473 100.372 107.898 99.9332C107.335 99.4768 106.682 99.2993 105.937 99.4007C105.096 99.515 104.36 100.043 103.729 100.985L104.957 110.07L102.817 110.361L101.081 97.5182ZM116.519 108.836C116.17 108.883 115.852 108.797 115.564 108.578C115.276 108.359 115.107 108.067 115.058 107.703C115.011 107.354 115.098 107.043 115.32 106.771C115.539 106.483 115.823 106.315 116.172 106.267C116.521 106.22 116.839 106.306 117.127 106.525C117.413 106.728 117.579 107.004 117.626 107.353C117.676 107.718 117.591 108.044 117.371 108.332C117.152 108.621 116.868 108.788 116.519 108.836ZM113.234 92.9582L115.469 92.6541L116.665 104.723L115.286 104.91L113.234 92.9582Z" fill="#D30000"/>
<path d="M202.697 22.1484C202.09 19.4725 200.124 16.9082 197.281 15.7036C195.99 15.1284 194.496 14.8587 193.073 14.8222C191.639 14.7943 190.225 14.9835 188.88 15.3362C186.16 16.0168 184.191 17.1966 182.073 18.7315C181.026 19.5252 179.94 20.5283 179.026 21.4089C178.131 22.3058 177.274 23.1779 176.499 24.1104C175.402 25.398 173.119 28.639 172.217 29.925C172.449 29.3995 173.665 27.0127 173.865 26.453C174.516 24.6934 175.019 22.7787 175.267 20.764C175.372 19.7314 175.443 18.7679 175.444 17.7501C175.445 16.7269 175.377 15.654 175.148 14.5509C175.031 14.0005 174.878 13.4424 174.659 12.8982C174.543 12.6052 174.451 12.4014 174.272 12.0456C174.159 11.8394 174.061 11.6479 173.863 11.3424C173.198 10.2967 172.395 9.47581 171.441 8.80295C169.575 7.45957 167.121 6.85651 164.888 7.38673C162.699 7.89292 160.89 9.26651 159.882 11.0455C159.62 11.482 159.433 11.9556 159.276 12.4254C159.178 12.7665 159.171 12.8192 159.112 13.0975C159.069 13.3587 159.013 13.6393 159.008 13.8656C158.957 14.816 159.107 15.7113 159.381 16.5098C159.928 18.1144 161.027 19.3198 162.216 19.9438C162.506 20.0903 162.827 20.2384 163.103 20.3105C163.447 20.4089 163.733 20.4585 164.024 20.4647C164.597 20.4888 165.112 20.4035 165.551 20.257C166.445 19.9764 166.965 19.3811 167.158 18.9555C167.352 18.5183 167.32 18.2664 167.337 18.271C167.337 18.271 167.31 18.3245 167.257 18.4284C167.212 18.533 167.112 18.6741 166.976 18.8353C166.698 19.1578 166.144 19.4694 165.395 19.5206C165.023 19.547 164.606 19.5074 164.19 19.3803C163.984 19.3214 163.766 19.2283 163.603 19.1423C163.37 19.0276 163.207 18.8919 163.004 18.7345C162.258 18.0935 161.667 17.0951 161.46 15.9377C161.363 15.3594 161.373 14.7486 161.504 14.1703C161.525 14.0114 161.572 13.916 161.599 13.7928C161.628 13.6905 161.746 13.368 161.768 13.3316C161.902 13.0634 162.041 12.7952 162.236 12.5518C162.971 11.5642 164.222 10.8301 165.524 10.6394C166.794 10.4293 168.195 10.851 169.333 11.7146C169.889 12.1378 170.414 12.7075 170.757 13.2641C170.823 13.3525 170.944 13.582 171.055 13.7936C171.084 13.8641 171.193 14.0912 171.246 14.2424C171.373 14.5827 171.486 14.9408 171.57 15.3207C171.741 16.0796 171.802 16.916 171.827 17.7865C171.84 18.2292 171.839 18.6578 171.832 19.1253C171.82 19.5733 171.783 19.9896 171.763 20.4221C171.64 22.1368 171.344 24.0895 170.969 25.7391C170.16 29.3087 168.285 33.2397 167.625 34.4916C163.378 42.5496 157.654 50.937 155.718 51.1811C154.388 51.3486 153.918 49.4385 153.529 46.3223C153.131 43.1371 152.645 29.3778 152.4 27.4034C152.309 26.677 151.961 26.3677 151.126 26.4732C150.329 26.5739 147.608 27.3375 147.502 28.6522C147.419 30.4568 147.901 37.3938 147.996 42.4821C146.946 48.5921 144.762 52.1021 142.445 52.3935C139.711 52.7369 138.302 50.4184 137.679 45.4317C137.018 40.1341 137.573 30.6762 137.416 29.4289C137.308 28.5638 136.733 28.2832 135.934 28.3839C134.72 28.5367 132.409 29.1801 132.136 30.0932C131.932 30.818 131.642 36.0893 131.952 42.0147L131.737 42.5922C127.71 52.6641 125.918 54.9997 124.59 55.1671C123.602 55.2912 122.942 54.6353 122.747 53.0765C122.163 48.4029 122.901 41.031 122.307 36.2877C121.844 32.5823 119.837 30.4079 116.04 30.8854C111.824 31.4149 108.215 35.8799 105.717 40.5884C105.311 36.1024 105.299 33.5373 105.317 33.6769C105.183 32.6032 104.836 32.2939 104 32.3994C103.126 32.5094 100.41 32.9916 99.9617 34.3498C99.8435 34.6451 99.9046 35.1303 100.021 36.0644L101.243 45.8433L101.014 46.4541C97.696 54.7842 94.3731 58.4384 90.8021 58.8872C86.5866 59.4167 83.4159 56.5795 82.0937 51.8587C88.8408 46.896 94.7888 42.631 94.2054 37.9574C93.9025 35.5334 91.7742 33.9374 88.2805 34.3761C81.6656 35.2079 76.1418 42.2992 76.9131 51.7579C74.4587 57.9198 72.9511 61.1314 70.6845 61.4166C67.799 61.7802 65.8849 57.2725 64.8038 48.6169C63.1214 35.1482 63.9429 16.4067 65.5193 7.41772L62.3626 7.46271C58.3388 18.4834 51.3985 50.62 48.1822 61.6081C45.1499 54.3245 32.2168 18.4268 28.5245 11.7169L23.0664 13.7036L23.0671 13.7044L23.0223 13.7207C25.0161 17.6315 29.1296 37.2636 30.281 46.4828C34.2492 78.2411 24.3005 88.7153 15.7196 89.7943C10.2021 90.4873 6.12724 86.9316 5.52757 82.1371C4.8769 76.9202 7.8961 71.1978 12.6935 67.2343L10.981 65.9832C4.16054 71.1932 -0.809913 77.9186 0.109684 85.2774C0.884001 91.471 7.39075 95.3826 14.5412 94.4826C25.3198 93.1276 37.5875 81.6999 33.369 47.9409C32.8914 44.117 31.9362 37.8341 31.2176 33.5862C36.0868 45.7254 44.4923 66.9576 44.8385 69.7304L48.0392 70.0319L59.5945 23.2848C59.1262 29.1103 58.1656 42.1023 59.399 51.9711C60.5234 60.9717 63.1616 66.3367 69.2 65.5778C72.754 65.1313 74.7964 61.7755 77.5359 55.2354C79.0683 60.2632 83.1694 63.8212 88.8616 63.1057C93.1729 62.5639 97.7447 58.5927 101.721 49.6657L102.138 52.9958C101.882 55.2803 101.619 58.4074 101.788 59.7577C101.965 61.1771 102.797 61.3538 103.556 61.2585C104.734 61.1112 107.762 60.026 107.584 58.6066C106.91 53.2059 106.451 48.306 106.096 44.2356C107.969 39.4636 111.819 33.8451 114.629 33.4916C116.263 33.2854 117.202 34.3296 117.414 36.0249C117.903 39.9372 117.062 49.2572 117.754 54.7966C118.212 58.4663 120.532 59.1244 122.697 58.8531C125.755 58.4678 128.275 55.7733 132.281 46.2657C132.325 46.6905 132.372 47.1154 132.424 47.5363C133.437 55.6384 137.539 56.9857 140.426 56.6229C146.009 55.9206 147.947 49.2068 148.602 47.9642C149.186 52.6377 150.68 55.3346 154.592 54.8423C158.668 54.3292 169.383 37.6164 170.564 36.1544C171.764 34.7102 173.02 33.0932 174.351 31.4374C175.704 29.7925 177.105 28.0623 178.657 26.4143C180.214 24.7701 181.913 23.2104 183.763 21.8554C185.637 20.5368 187.694 19.4601 189.816 18.8547C191.954 18.247 194.125 18.2167 196.05 18.9315C196.888 19.2369 197.75 19.7927 198.381 20.4903C199.03 21.1919 199.513 22.0508 199.839 22.9732C200.006 23.4337 200.116 23.9166 200.19 24.4042C200.225 24.6631 200.257 24.8662 200.266 25.1538C200.273 25.3569 200.277 25.6057 200.26 25.846C200.203 26.8103 199.975 27.7708 199.63 28.6444C198.937 30.4064 197.636 31.7335 196.101 32.1917C195.725 32.3079 195.304 32.373 194.941 32.3947C194.465 32.394 194.114 32.3893 193.73 32.325C192.967 32.2165 192.286 31.9544 191.746 31.5622C190.646 30.7684 190.262 29.4545 190.289 28.4343C190.307 27.3909 190.691 26.5949 191.065 26.1708C191.436 25.7259 191.766 25.6344 191.753 25.6212C191.765 25.6375 191.425 25.6693 190.962 26.0677C190.505 26.4553 189.969 27.2375 189.781 28.3886C189.596 29.5033 189.822 31.1203 191.1 32.3304C191.723 32.9218 192.561 33.3583 193.472 33.5777C193.921 33.7025 194.446 33.7629 194.863 33.8048C195.397 33.849 195.895 33.8443 196.435 33.7652C197.502 33.6172 198.59 33.142 199.494 32.4056C200.407 31.6762 201.16 30.7281 201.739 29.6638C202.323 28.5987 202.727 27.4072 202.903 26.1228C202.951 25.8018 202.978 25.4825 202.993 25.115C203.008 24.8305 202.997 24.4616 202.983 24.1461C202.95 23.4833 202.864 22.8135 202.697 22.1484ZM81.6231 49.3146C80.5891 41.0388 83.749 37.3001 86.4073 36.9667C87.9645 36.7706 89.3601 37.7559 89.5904 39.5907C90.061 43.3651 85.0055 47.9743 81.7228 50.1099L81.6231 49.3146Z" fill="#8e8e91"/>
<path d="M188.042 38.0863C187.611 37.7909 187.157 37.5158 186.668 37.308C186.441 37.1948 186.166 37.0933 185.878 37.0018L185.456 36.8662L185.143 36.7933C184.131 36.5383 183.09 36.5096 182.112 36.6049C180.14 36.7933 178.385 37.5297 176.911 38.3552C175.43 39.1986 174.184 40.1103 172.998 41.0242C171.827 41.9444 170.78 42.8839 169.865 43.8001C168.938 44.7017 168.149 45.5861 167.489 46.3985C166.817 47.1993 166.279 47.9357 165.856 48.5527C165.423 49.1612 165.118 49.6713 164.911 50.0093C164.71 50.3543 164.602 50.5387 164.602 50.5387C164.602 50.5387 165.257 50.0023 166.404 49.0643C167.548 48.1388 169.201 46.866 171.232 45.466C172.258 44.7792 173.382 44.0652 174.588 43.3544C175.787 42.6505 177.099 41.9071 178.412 41.304C179.725 40.6971 181.074 40.2707 182.404 40.1901C183.067 40.163 183.713 40.1917 184.319 40.3583L184.615 40.4312L184.785 40.5009C184.895 40.5397 185.014 40.5792 185.16 40.6583C185.44 40.7823 185.711 40.9397 185.973 41.1126C187.02 41.8141 187.869 42.9156 188.338 44.1195C188.581 44.7195 188.734 45.3482 188.783 45.9722C188.784 46.1272 188.79 46.2822 188.799 46.438L188.801 46.4675L188.802 46.4822C188.804 46.4574 188.797 46.5574 188.808 46.4311L188.803 46.5063L188.794 46.6567L188.775 46.9566C188.761 47.4039 188.697 47.6187 188.666 47.9404C188.535 48.5768 188.363 49.1853 188.105 49.7349C187.831 50.2713 187.503 50.7589 187.104 51.1736C186.307 51.9999 185.249 52.5325 184.163 52.7635C183.888 52.8007 183.62 52.8751 183.348 52.8937C183.096 52.9232 182.753 52.9612 182.635 52.9441C182.218 52.91 181.775 52.7371 181.412 52.5077C180.667 52.0496 180.191 51.3689 180.031 50.7255C179.86 50.0798 179.94 49.5008 180.031 49.1272C180.124 48.7489 180.206 48.5489 180.206 48.5489C180.206 48.5489 180.067 48.7086 179.861 49.0589C179.674 49.4101 179.391 49.9806 179.398 50.8062C179.409 51.6178 179.771 52.6612 180.638 53.4813C181.072 53.8867 181.606 54.2549 182.31 54.4712C182.751 54.5937 183.001 54.5945 183.35 54.641C183.68 54.6945 184.024 54.6743 184.377 54.6805C185.775 54.6271 187.405 54.2294 188.802 53.1557C189.488 52.6209 190.115 51.9565 190.612 51.186C191.093 50.41 191.469 49.5605 191.727 48.669C191.831 48.2148 191.968 47.6574 192.007 47.3039L192.052 47.0063L192.074 46.8567L192.086 46.7822L192.098 46.6241L192.135 45.8776C192.129 44.88 191.963 43.8792 191.648 42.9234C191 41.0242 189.776 39.2762 188.042 38.0863Z" fill="#8e8e91"/>
</svg>
