<svg width="40" height="40" viewBox="0 0 40 40" fill="none" xmlns="http://www.w3.org/2000/svg">
<path d="M37.1316 12.7319C36.8127 12.2613 36.3637 11.9736 35.8388 11.8945C35.9597 11.3769 35.8623 10.8584 35.5508 10.3988C35.2431 9.94475 34.7564 9.63225 34.2153 9.54161C33.6663 9.44975 33.1182 9.58342 32.6723 9.91789C31.9225 10.48 31.6683 11.4691 32.0269 12.3141L31.4684 12.6922C31.4309 11.1728 30.8236 9.66887 29.6603 8.53728C28.966 7.86223 28.1075 7.36143 27.178 7.08983C26.8563 6.99583 26.5203 7.18016 26.4263 7.5012C26.3323 7.82255 26.5166 8.15886 26.838 8.25285C27.5783 8.46953 28.2622 8.86809 28.8152 9.40611C30.2154 10.7675 30.6094 12.8049 29.9508 14.5422C29.9493 14.5465 29.9474 14.5508 29.9459 14.555C29.9261 14.6063 29.9053 14.6576 29.8836 14.7085C29.8778 14.7223 29.872 14.736 29.8659 14.7497C29.8458 14.7967 29.8244 14.8434 29.8025 14.8901C29.7979 14.8996 29.7936 14.9097 29.7887 14.9191C29.7631 14.9728 29.7359 15.0256 29.7082 15.0784C29.7002 15.0937 29.6917 15.1089 29.6834 15.1239C29.6618 15.1642 29.6392 15.2038 29.6163 15.2435C29.6114 15.2518 29.6065 15.26 29.6017 15.2685C29.4485 15.0223 29.2776 14.7885 29.0917 14.5669C29.0905 14.5657 29.0893 14.5642 29.088 14.5627C28.962 14.4128 28.8293 14.2685 28.6904 14.1293C28.6858 14.125 28.6816 14.1205 28.6773 14.1162C26.6469 12.0932 23.3297 11.1966 21.1425 10.8096C21.3726 10.3186 21.6866 9.86662 22.069 9.47844C22.6864 8.85222 23.4655 8.41002 24.3212 8.19945C24.6462 8.11949 24.8449 7.79143 24.7649 7.46641C24.685 7.14171 24.3569 6.94334 24.0319 7.02269C23.7621 7.08922 23.4984 7.17406 23.2427 7.27598C24.453 5.34178 24.7707 2.51128 24.6477 1.24846C24.5934 0.690292 24.4579 0.356124 24.208 0.165389C24.0243 0.0253138 23.799 -0.028092 23.5732 0.0140223C23.0151 0.119613 22.6339 0.74858 21.874 2.00133C21.3781 2.8195 20.7607 3.83726 19.9804 4.87242C19.6059 5.36955 19.0542 5.77269 18.3492 6.1862C18.2986 5.97655 18.2052 5.80992 18.0682 5.68266C17.8808 5.50841 17.6308 5.4315 17.3638 5.4666C17.0971 5.50169 16.6506 5.56059 15.0014 7.95531C14.7823 8.2733 14.5248 8.58366 14.2358 8.87755C13.6364 9.48698 13.3095 10.1651 13.2284 11.0248C12.499 10.6741 11.6625 10.7071 10.9722 11.087L7.84507 7.90312C8.30985 7.19481 8.25309 6.24968 7.67264 5.59874C7.3223 5.20567 6.83982 4.97954 6.31461 4.96214C5.79734 4.94444 5.28831 5.14342 4.91874 5.50627C4.54886 5.86943 4.35782 6.31682 4.35966 6.79899C3.87595 6.78618 3.43101 6.96776 3.06907 7.32298C2.6998 7.68584 2.49228 8.1909 2.50022 8.70878C2.50785 9.23399 2.72513 9.72014 3.11179 10.0778C3.75266 10.6705 4.69748 10.7443 5.41343 10.292L8.53995 13.4753C8.14902 14.1562 8.09928 14.9884 8.43284 15.7223H7.32505C6.21421 15.7223 5.31089 16.626 5.31089 17.7365C5.31089 18.8473 6.21421 19.751 7.32505 19.751H7.40073L10.2672 38.4613C10.404 39.353 11.1578 40 12.0595 40H29.0505C29.9526 40 30.7064 39.353 30.8431 38.4613L33.7096 19.751H33.7853C34.8959 19.751 35.7995 18.8473 35.7995 17.7365C35.7995 16.626 34.8959 15.7223 33.7853 15.7223H33.4148L34.0456 15.2951C34.6941 15.9399 35.7088 16.0724 36.5099 15.5844C36.9866 15.2939 37.3141 14.8346 37.4322 14.2908C37.549 13.7543 37.4392 13.1863 37.1316 12.7319ZM15.0997 9.72685C15.4381 9.38322 15.7406 9.01823 15.9994 8.64256C16.552 7.83995 16.953 7.32878 17.2228 7.02208C17.2851 7.21129 17.4114 7.37669 17.5848 7.48625C17.8512 7.6544 18.1881 7.66447 18.4643 7.5128C19.533 6.92595 20.3643 6.37602 20.9481 5.60148C21.7654 4.51781 22.4001 3.47075 22.9104 2.62938C23.0941 2.32634 23.2897 2.00377 23.4627 1.73735C23.4688 3.0731 23.0462 5.79008 21.7971 7.2003C20.0088 9.21965 18.5143 10.6878 18.4997 10.7025C18.3288 10.87 18.2726 11.1224 18.3562 11.3467C18.4396 11.571 18.6474 11.7248 18.886 11.7398C18.9001 11.7407 19.8098 11.8002 21.0833 12.0352C21.0918 12.037 21.1004 12.0386 21.1089 12.0401C21.1394 12.0459 21.1706 12.0517 21.2014 12.0578C22.6882 12.3422 24.7625 12.8903 26.4309 13.9053C26.4416 13.912 26.4522 13.9184 26.4629 13.9252C26.4953 13.945 26.5276 13.9651 26.5597 13.9856C27.4615 14.5581 28.0562 15.1611 28.4472 15.722H16.0366C15.8962 15.5777 15.765 15.4257 15.6432 15.2655C15.6405 15.2618 15.638 15.2585 15.6353 15.2548C15.5971 15.2045 15.5599 15.1532 15.5236 15.101C15.5151 15.0891 15.5071 15.0766 15.4989 15.0644C15.4687 15.0204 15.4391 14.9759 15.4101 14.931C15.3994 14.9142 15.3893 14.8974 15.3786 14.8807C15.353 14.8392 15.3274 14.7973 15.3026 14.7549C15.2911 14.7354 15.2801 14.7156 15.2688 14.6957C15.2456 14.6554 15.223 14.6149 15.201 14.5733C15.1894 14.5517 15.1778 14.5294 15.1665 14.5074C15.1458 14.4675 15.1253 14.4269 15.1055 14.3857C15.0939 14.3622 15.0826 14.3384 15.0713 14.3146C15.0524 14.274 15.0338 14.2334 15.0158 14.1922C15.0048 14.1672 14.9938 14.1418 14.9828 14.1165C14.9654 14.0753 14.9486 14.0338 14.9319 13.9923C14.9215 13.9657 14.9108 13.9395 14.9007 13.9126C14.8846 13.8705 14.8693 13.8281 14.8537 13.7854C14.844 13.7582 14.8342 13.7311 14.8247 13.7036C14.8098 13.66 14.7954 13.6157 14.7811 13.5711C14.7723 13.5437 14.7631 13.5162 14.7546 13.4888C14.7405 13.4424 14.7271 13.3954 14.7137 13.3481C14.7057 13.3212 14.6978 13.2947 14.6905 13.2675C14.6764 13.2156 14.663 13.1628 14.6499 13.11C14.6441 13.0865 14.6377 13.0639 14.6322 13.0404C14.6139 12.9639 14.5962 12.886 14.5797 12.807C14.565 12.7362 14.5513 12.6672 14.5385 12.5989C14.5354 12.5824 14.5327 12.5662 14.5296 12.55C14.5187 12.4905 14.5086 12.4319 14.4994 12.3746C14.4979 12.3657 14.4964 12.3566 14.4948 12.3477C14.4854 12.2876 14.4771 12.229 14.4692 12.1713C14.4662 12.1466 14.4631 12.1225 14.4601 12.0984C14.4561 12.0666 14.4527 12.0358 14.4494 12.005C14.3212 10.8148 14.6068 10.2283 15.0997 9.72685ZM11.2499 12.3797L11.2694 12.3608L11.3073 12.3266C11.3097 12.3245 11.3119 12.3221 11.314 12.3199C11.7101 11.9641 12.2784 11.889 12.7474 12.1368C12.9214 12.2287 13.099 12.3187 13.2781 12.4057C13.2918 12.5009 13.3077 12.5986 13.3251 12.6987C13.3251 12.699 13.3251 12.6993 13.3254 12.6996C13.3456 12.8146 13.3681 12.9327 13.3938 13.0554C13.4179 13.1701 13.4444 13.2831 13.4725 13.3945C13.4804 13.4271 13.4893 13.4592 13.4975 13.4915C13.5192 13.5739 13.5418 13.6554 13.5656 13.7359C13.575 13.7674 13.5842 13.7991 13.5937 13.8302C13.626 13.9355 13.6596 14.0393 13.6956 14.1412C13.6962 14.1434 13.6968 14.1455 13.6977 14.1473C13.7347 14.2526 13.7746 14.3558 13.8155 14.4577C13.8262 14.4842 13.8375 14.5102 13.8485 14.5364C13.8808 14.6142 13.9144 14.6905 13.9489 14.7662C13.9611 14.7922 13.9727 14.8184 13.9849 14.8443C14.0304 14.9405 14.0771 15.0351 14.1262 15.1279C14.1265 15.1285 14.1268 15.1291 14.1271 15.1294C14.1781 15.2252 14.2315 15.3192 14.2864 15.4114C14.2983 15.4312 14.3105 15.4507 14.3224 15.4703C14.3667 15.5432 14.4125 15.6149 14.4594 15.6857C14.4674 15.6976 14.4747 15.7104 14.4829 15.7223H9.77744C9.70542 15.5685 9.63157 15.4172 9.5571 15.2698C9.31785 14.7964 9.4036 14.2297 9.76615 13.8403C9.76859 13.8376 9.77134 13.8354 9.77408 13.8327L11.2499 12.3797ZM6.07505 9.23643C5.90293 9.06126 5.67527 8.97276 5.447 8.97276C5.23795 8.97276 5.0286 9.04661 4.86106 9.19584C4.86045 9.19646 4.85496 9.20134 4.85435 9.20164C4.59312 9.4293 4.18906 9.42351 3.93455 9.18791C3.79386 9.05791 3.71451 8.8809 3.71177 8.69047C3.70902 8.49974 3.78226 8.32091 3.91837 8.18724C4.09293 8.01573 4.27512 7.97148 4.52659 8.03953C4.82596 8.12041 5.14792 8.03557 5.36765 7.81798C5.58738 7.60039 5.67527 7.27843 5.59684 6.97844C5.53306 6.73277 5.58402 6.55119 5.76804 6.37053C5.90415 6.23686 6.08451 6.16667 6.27463 6.17308C6.46537 6.17949 6.64084 6.26189 6.76841 6.40501C6.99912 6.6638 6.99759 7.06785 6.76597 7.3242L6.76017 7.33061C6.44095 7.67668 6.44858 8.21043 6.77817 8.54582L10.0414 11.8683L9.33829 12.5589L6.07505 9.23643ZM8.62662 19.7507H10.9301L11.5685 25.7648H9.54795L8.62662 19.7507ZM10.1247 29.5303L9.7335 26.9766H14.9258C14.8159 27.4219 14.7564 27.8866 14.7564 28.3655C14.7564 28.7643 14.797 29.1537 14.8739 29.5303H12.6409C12.6403 29.5303 12.6394 29.5303 12.6388 29.5303H10.1247ZM12.1487 19.7507H14.5385L14.9215 25.7648H12.7868L12.1487 19.7507ZM14.1689 38.7884L13.9156 36.4017C13.8805 36.0693 13.5836 35.8279 13.2491 35.8633C12.9165 35.8987 12.6754 36.1969 12.7108 36.5298L12.9504 38.7884H12.0599C11.7605 38.7884 11.5102 38.5736 11.4651 38.2776L10.3106 30.7419H12.0968L12.4123 33.7164C12.4453 34.0274 12.708 34.2584 13.0141 34.2584C13.0355 34.2584 13.0569 34.2575 13.0785 34.255C13.4115 34.2196 13.6526 33.9215 13.6172 33.5885L13.315 30.7419H15.2386L15.751 38.7884H14.1689ZM16.9649 38.7884L16.5691 32.5711C17.1068 33.081 17.7419 33.4891 18.4435 33.7643L18.55 38.7884H16.9649ZM21.3485 38.7884H19.7622L19.6624 34.0954C19.9535 34.1406 20.2517 34.1644 20.555 34.1644C20.8587 34.1644 21.1568 34.1406 21.448 34.0954L21.3485 38.7884ZM24.1454 38.7884H22.5603L22.6668 33.7643C23.3684 33.4891 24.0035 33.081 24.5412 32.5708L24.1454 38.7884ZM20.555 32.9526C18.0257 32.9526 15.9679 30.8948 15.9679 28.3655C15.9679 25.8359 18.0257 23.7781 20.555 23.7781C23.0846 23.7781 25.1424 25.8359 25.1424 28.3655C25.1424 30.8948 23.0846 32.9526 20.555 32.9526ZM15.7528 19.7507H18.146L18.2165 23.0609C17.3772 23.4323 16.6421 23.9963 16.0677 24.6972L15.7528 19.7507ZM19.3581 19.7507H21.7525L21.6903 22.6788C21.3232 22.6056 20.9438 22.5665 20.5553 22.5665C20.1668 22.5665 19.7875 22.6056 19.4204 22.6788L19.3581 19.7507ZM25.0426 24.6972C24.4683 23.9963 23.7331 23.4323 22.8942 23.0609L22.9644 19.7507H25.3576L25.0426 24.6972ZM26.9414 38.7884H25.3597L25.8721 30.7419H27.7953L26.9414 38.7884ZM29.6456 38.2776C29.6001 38.5736 29.3499 38.7884 29.0505 38.7884H28.16L29.0139 30.7419H30.8001L29.6456 38.2776ZM30.9856 29.5303H26.2365C26.3134 29.1537 26.354 28.7643 26.354 28.3655C26.354 27.8866 26.2945 27.4219 26.1846 26.9766H31.3769L30.9856 29.5303ZM26.1889 25.7648L26.5719 19.7507H28.9617L28.3236 25.7648H26.1889ZM31.5624 25.7648H29.5418L30.1803 19.7507H32.484L31.5624 25.7648ZM33.7853 16.9339C34.2278 16.9339 34.5879 17.294 34.5879 17.7365C34.5879 18.179 34.2278 18.5391 33.7853 18.5391H7.32505C6.88254 18.5391 6.52244 18.179 6.52244 17.7365C6.52244 17.294 6.88254 16.9339 7.32505 16.9339H33.7853ZM36.2484 14.0332C36.2011 14.2499 36.0702 14.4333 35.8797 14.5495C35.5352 14.7592 35.0732 14.6731 34.8275 14.3533C34.8266 14.3521 34.8229 14.3475 34.822 14.3463C34.5312 13.9596 33.9904 13.869 33.5906 14.1397L31.2548 15.7223H30.7378C30.7723 15.6595 30.8056 15.5957 30.8376 15.5319C30.8446 15.5176 30.8514 15.5035 30.8581 15.4895C30.8901 15.4242 30.9212 15.3583 30.9508 15.2917C30.9579 15.2762 30.9649 15.2606 30.9716 15.245C31.1095 14.9301 31.2212 14.6029 31.3033 14.2679L32.9305 13.1653C33.3303 12.8946 33.4466 12.3584 33.1969 11.9482L33.1905 11.9372C32.9845 11.5906 33.0761 11.1294 33.399 10.8874C33.5775 10.7535 33.7963 10.7001 34.0151 10.7364C34.2339 10.7733 34.4231 10.8945 34.5476 11.0782C34.7066 11.3132 34.7201 11.5387 34.5907 11.8097C34.4536 12.0965 34.4796 12.4377 34.6584 12.6999C34.8379 12.962 35.1476 13.1109 35.4644 13.0868C35.7574 13.0655 35.9615 13.1656 36.1285 13.4115C36.253 13.5953 36.2954 13.8162 36.2484 14.0332Z" fill="#AF8C3E"/>
</svg>
